<?xml version="1.0" encoding="utf-8"?>
<!-- Generator: Adobe Illustrator 16.0.0, SVG Export Plug-In . SVG Version: 6.00 Build 0)  -->
<!DOCTYPE svg PUBLIC "-//W3C//DTD SVG 1.1//EN" "http://www.w3.org/Graphics/SVG/1.1/DTD/svg11.dtd">
<svg version="1.1" id="Layer_1" xmlns="http://www.w3.org/2000/svg" xmlns:xlink="http://www.w3.org/1999/xlink" x="0px" y="0px"
	 width="1520px" height="792.455px" viewBox="0 0 1520 792.455" enable-background="new 0 0 1520 792.455" xml:space="preserve">
<g opacity="0.2">
	<g>
		<path fill="#0D71BA" d="M365.561,117.915c1.152-0.349,2.434-0.27,3.539,0.313c0.988,0.618,1.834,1.498,2.183,2.664
			c0.354,1.148,0.146,2.365-0.298,3.537c-1.027,1.921-3.943,2.913-6.311,1.917c-0.922-0.753-1.77-1.649-2.117-2.802
			c-0.357-1.161-0.146-2.366,0.231-3.398C363.482,119.018,364.508,118.234,365.561,117.915z"/>
		<path fill="#0D71BA" d="M273.629,2.521c1.155-0.35,2.436-0.269,3.54,0.314c0.993,0.613,1.835,1.498,2.185,2.662
			c0.353,1.15,0.145,2.365-0.299,3.534c-1.025,1.924-3.944,2.921-6.311,1.918c-0.918-0.754-1.768-1.648-2.118-2.797
			c-0.355-1.166-0.145-2.371,0.235-3.4C271.555,3.624,272.578,2.841,273.629,2.521z"/>
		<path fill="#0D71BA" d="M212.256,3.883c1.152-0.35,2.436-0.271,3.537,0.309c0.991,0.619,1.836,1.503,2.193,2.664
			c0.346,1.153,0.137,2.37-0.307,3.536c-1.026,1.925-3.945,2.921-6.307,1.918c-0.92-0.752-1.772-1.646-2.124-2.799
			c-0.353-1.162-0.14-2.366,0.242-3.402C210.186,4.982,211.203,4.203,212.256,3.883z"/>
		<path fill="#0D71BA" d="M129.761-3.167c1.456-0.439,3.075-0.339,4.468,0.394c1.251,0.782,2.314,1.896,2.762,3.366
			c0.443,1.451,0.181,2.988-0.382,4.466c-1.296,2.427-4.978,3.682-7.962,2.42c-1.165-0.954-2.238-2.082-2.678-3.538
			c-0.449-1.468-0.182-2.987,0.297-4.29C127.139-1.773,128.43-2.76,129.761-3.167z"/>
		<path fill="#0D71BA" d="M145.598,443.641c0.765-0.234,1.618-0.18,2.357,0.207c0.655,0.412,1.219,0.996,1.457,1.772
			c0.232,0.768,0.094,1.575-0.203,2.359c-0.686,1.278-2.629,1.938-4.201,1.275c-0.615-0.5-1.179-1.098-1.412-1.865
			c-0.238-0.776-0.096-1.578,0.157-2.264C144.217,444.373,144.891,443.855,145.598,443.641z"/>
		<path fill="#0D71BA" d="M173.537,427.698c0.612-0.187,1.301-0.142,1.895,0.167c0.521,0.328,0.975,0.8,1.163,1.422
			c0.191,0.616,0.08,1.267-0.16,1.89c-0.544,1.03-2.107,1.561-3.37,1.027c-0.494-0.405-0.946-0.881-1.135-1.497
			c-0.189-0.622-0.074-1.267,0.126-1.815C172.428,428.287,172.972,427.869,173.537,427.698z"/>
		<path fill="#0D71BA" d="M285.434,477.628c0.557-0.167,1.175-0.127,1.705,0.149c0.477,0.3,0.881,0.724,1.049,1.285
			c0.172,0.554,0.074,1.141-0.143,1.703c-0.498,0.925-1.9,1.405-3.037,0.925c-0.444-0.362-0.849-0.798-1.021-1.351
			c-0.172-0.561-0.07-1.141,0.111-1.638C284.433,478.16,284.924,477.785,285.434,477.628z"/>
		<path fill="#0D71BA" d="M210.447,548.069c0.988-0.303,2.094-0.234,3.047,0.27c0.853,0.531,1.58,1.291,1.884,2.295
			c0.3,0.996,0.127,2.04-0.261,3.047c-0.88,1.66-3.399,2.515-5.438,1.655c-0.792-0.65-1.522-1.424-1.825-2.415
			c-0.305-1.001-0.123-2.037,0.204-2.93C208.656,549.02,209.536,548.346,210.447,548.069z"/>
		<path fill="#0D71BA" d="M154.575,545.285c0.556-0.17,1.18-0.131,1.714,0.148c0.478,0.301,0.889,0.73,1.055,1.289
			c0.172,0.561,0.072,1.146-0.146,1.715c-0.491,0.928-1.908,1.409-3.051,0.928c-0.447-0.364-0.856-0.802-1.022-1.357
			c-0.175-0.561-0.072-1.145,0.111-1.646C153.571,545.817,154.061,545.438,154.575,545.285z"/>
		<path fill="#0D71BA" d="M16.434,495.686c0.473-0.145,0.997-0.112,1.449,0.129c0.402,0.249,0.748,0.611,0.893,1.088
			c0.144,0.468,0.061,0.968-0.121,1.447c-0.422,0.786-1.615,1.193-2.586,0.783c-0.373-0.307-0.72-0.674-0.864-1.144
			c-0.145-0.477-0.06-0.973,0.1-1.394C15.582,496.133,16.004,495.816,16.434,495.686z"/>
		<path fill="#0D71BA" d="M28.486,751.075c0.305-0.094,0.647-0.071,0.94,0.085c0.263,0.162,0.483,0.396,0.581,0.705
			c0.091,0.306,0.036,0.627-0.08,0.938c-0.277,0.51-1.046,0.772-1.676,0.508c-0.242-0.2-0.469-0.438-0.559-0.743
			c-0.094-0.305-0.041-0.625,0.059-0.901C27.938,751.367,28.211,751.16,28.486,751.075z"/>
		<path fill="#0D71BA" d="M133.41,638.725c0.469-0.142,0.993-0.109,1.445,0.127c0.408,0.252,0.751,0.616,0.894,1.089
			c0.146,0.472,0.06,0.966-0.122,1.443c-0.418,0.791-1.613,1.194-2.578,0.787c-0.375-0.309-0.723-0.674-0.865-1.145
			c-0.146-0.474-0.058-0.971,0.095-1.391C132.563,639.175,132.977,638.855,133.41,638.725z"/>
		<path fill="#0D71BA" d="M441.596,778.3c0.822-0.248,1.73-0.193,2.521,0.223c0.701,0.44,1.303,1.068,1.553,1.895
			c0.252,0.819,0.105,1.685-0.211,2.519c-0.734,1.368-2.807,2.077-4.488,1.364c-0.659-0.534-1.264-1.172-1.516-1.992
			c-0.245-0.828-0.1-1.688,0.168-2.423C440.117,779.086,440.846,778.528,441.596,778.3z"/>
		<path fill="#0D71BA" d="M437.047,772.27c0.291-0.087,0.611-0.068,0.887,0.077c0.242,0.151,0.457,0.373,0.543,0.662
			c0.088,0.287,0.035,0.592-0.078,0.883c-0.252,0.479-0.979,0.73-1.57,0.479c-0.229-0.189-0.44-0.411-0.527-0.699
			c-0.086-0.287-0.037-0.59,0.059-0.849C436.53,772.543,436.786,772.35,437.047,772.27z"/>
		<path fill="#0D71BA" d="M588.371,741.67c0.752-0.226,1.586-0.175,2.305,0.203c0.646,0.403,1.189,0.978,1.422,1.736
			c0.227,0.745,0.096,1.538-0.193,2.301c-0.673,1.251-2.57,1.896-4.107,1.247c-0.604-0.492-1.153-1.072-1.38-1.822
			c-0.233-0.759-0.094-1.54,0.15-2.215C587.018,742.385,587.683,741.881,588.371,741.67z"/>
		<path fill="#0D71BA" d="M130.176,418.567c0.291-0.091,0.618-0.069,0.898,0.077c0.252,0.158,0.465,0.382,0.557,0.677
			c0.088,0.295,0.035,0.602-0.082,0.898c-0.258,0.487-0.998,0.743-1.599,0.487c-0.234-0.193-0.45-0.418-0.538-0.708
			c-0.09-0.3-0.037-0.604,0.063-0.868C129.647,418.848,129.905,418.646,130.176,418.567z"/>
		<path fill="#0D71BA" d="M218.184,259.113c1.156-0.354,2.436-0.271,3.543,0.309c0.986,0.621,1.834,1.502,2.184,2.664
			c0.352,1.153,0.145,2.369-0.297,3.536c-1.029,1.927-3.945,2.918-6.313,1.92c-0.921-0.755-1.77-1.649-2.119-2.8
			c-0.355-1.164-0.145-2.369,0.233-3.402C216.111,260.216,217.135,259.433,218.184,259.113z"/>
		<path fill="#0D71BA" d="M203.84,260.622c0.643-0.192,1.35-0.148,1.966,0.176c0.548,0.343,1.015,0.833,1.211,1.478
			c0.196,0.64,0.08,1.313-0.169,1.962c-0.564,1.068-2.188,1.618-3.498,1.066c-0.51-0.419-0.982-0.919-1.177-1.556
			c-0.198-0.645-0.081-1.313,0.132-1.889C202.687,261.234,203.254,260.802,203.84,260.622z"/>
		<path fill="#0D71BA" d="M294.042,215.898c0.642-0.194,1.351-0.148,1.964,0.172c0.551,0.342,1.02,0.834,1.214,1.477
			c0.198,0.642,0.081,1.314-0.166,1.966c-0.565,1.065-2.188,1.62-3.502,1.063c-0.509-0.419-0.98-0.914-1.177-1.552
			c-0.195-0.646-0.078-1.315,0.131-1.886C292.891,216.51,293.459,216.076,294.042,215.898z"/>
		<path fill="#0D71BA" d="M378.518,230.135c0.299-0.091,0.624-0.069,0.908,0.081c0.252,0.154,0.467,0.384,0.557,0.68
			s0.037,0.605-0.076,0.901c-0.262,0.493-1.012,0.749-1.616,0.493c-0.232-0.193-0.449-0.423-0.538-0.717
			c-0.092-0.294-0.037-0.604,0.058-0.87C377.989,230.414,378.247,230.216,378.518,230.135z"/>
		<path opacity="0.37" fill="#0D71BA" d="M394.743,85.386c0.419-0.128,0.884-0.1,1.286,0.112c0.354,0.226,0.661,0.547,0.787,0.964
			c0.13,0.419,0.051,0.859-0.111,1.281c-0.369,0.699-1.426,1.061-2.282,0.696c-0.333-0.272-0.642-0.598-0.769-1.013
			c-0.127-0.421-0.051-0.858,0.088-1.234C393.99,85.786,394.362,85.502,394.743,85.386z"/>
		<path fill="#0D71BA" d="M423.709,37.036c0.615-0.189,1.296-0.146,1.881,0.165c0.527,0.328,0.977,0.798,1.168,1.416
			c0.186,0.615,0.074,1.258-0.162,1.883c-0.547,1.023-2.102,1.551-3.355,1.021c-0.492-0.402-0.941-0.877-1.129-1.493
			c-0.188-0.617-0.076-1.258,0.123-1.807C422.607,37.624,423.15,37.205,423.709,37.036z"/>
	</g>
	<g>
		<path fill="#0D71BA" d="M1385.502,627.858c-0.383-1.247,0.322-2.567,1.572-2.949c1.25-0.38,2.569,0.325,2.948,1.573
			c0.38,1.253-0.322,2.57-1.573,2.952C1387.2,629.812,1385.879,629.11,1385.502,627.858z"/>
		<path fill="#0D71BA" d="M1499.014,578.519c-0.381-1.249,0.324-2.571,1.574-2.953c1.248-0.377,2.568,0.327,2.949,1.576
			s-0.326,2.569-1.573,2.951C1500.713,580.471,1499.395,579.767,1499.014,578.519z"/>
		<path fill="#0D71BA" d="M1390.865,791.818c-0.762-2.498,0.646-5.143,3.146-5.901c2.5-0.762,5.144,0.65,5.898,3.149
			c0.762,2.496-0.646,5.14-3.146,5.898C1394.263,795.728,1391.621,794.315,1390.865,791.818z"/>
		<path fill="#0D71BA" d="M1360.689,716.96c-0.379-1.248,0.324-2.568,1.574-2.947c1.25-0.383,2.568,0.323,2.949,1.571
			c0.381,1.253-0.324,2.572-1.572,2.951C1362.391,718.914,1361.066,718.212,1360.689,716.96z"/>
		<path fill="#0D71BA" d="M985.461,569.675c-0.379-1.25,0.329-2.569,1.576-2.954c1.251-0.377,2.568,0.33,2.953,1.577
			c0.379,1.25-0.328,2.571-1.58,2.952C987.165,571.629,985.841,570.922,985.461,569.675z"/>
		<path fill="#0D71BA" d="M1041.338,603.352c-0.38-1.25,0.326-2.571,1.57-2.953c1.254-0.378,2.569,0.328,2.955,1.575
			c0.379,1.248-0.328,2.569-1.575,2.953C1043.039,605.305,1041.713,604.598,1041.338,603.352z"/>
		<path fill="#0D71BA" d="M1175.604,514.969c-0.38-1.253,0.326-2.574,1.578-2.951c1.248-0.383,2.568,0.322,2.947,1.572
			c0.379,1.252-0.322,2.573-1.574,2.951C1177.305,516.921,1175.986,516.218,1175.604,514.969z"/>
		<path fill="#0D71BA" d="M1096.792,767.542c-0.38-1.252,0.322-2.571,1.573-2.95c1.249-0.378,2.57,0.324,2.947,1.571
			c0.385,1.253-0.322,2.572-1.57,2.951C1098.49,769.497,1097.173,768.791,1096.792,767.542z"/>
		<path fill="#0D71BA" d="M1138.795,734.997c-0.377-1.251,0.327-2.571,1.576-2.949c1.247-0.383,2.574,0.325,2.951,1.577
			c0.382,1.245-0.326,2.566-1.575,2.945C1140.5,736.953,1139.179,736.247,1138.795,734.997z"/>
		<path fill="#0D71BA" d="M1083.316,205.898c-0.378-1.247,0.328-2.568,1.574-2.951c1.248-0.377,2.575,0.328,2.951,1.575
			c0.381,1.253-0.327,2.57-1.572,2.953C1085.018,207.853,1083.699,207.146,1083.316,205.898z"/>
		<path fill="#0D71BA" d="M1061.642,134.407c-0.313-1.038,0.272-2.138,1.312-2.452c1.04-0.317,2.139,0.267,2.455,1.31
			c0.316,1.041-0.273,2.141-1.31,2.454C1063.059,136.034,1061.962,135.447,1061.642,134.407z"/>
		<path fill="#0D71BA" d="M950.479,210.224c-0.381-1.249,0.324-2.571,1.573-2.95c1.249-0.382,2.571,0.325,2.952,1.574
			c0.377,1.252-0.328,2.573-1.576,2.949C952.18,212.179,950.854,211.476,950.479,210.224z"/>
		<path fill="#0D71BA" d="M897.795,149.626c-0.381-1.249,0.323-2.57,1.576-2.948c1.243-0.381,2.568,0.323,2.945,1.572
			c0.38,1.252-0.322,2.569-1.57,2.951C899.492,151.58,898.175,150.878,897.795,149.626z"/>
		<path fill="#0D71BA" d="M1338.254,41.654c-0.381-1.247,0.326-2.568,1.576-2.945c1.244-0.383,2.57,0.322,2.949,1.57
			c0.376,1.253-0.326,2.57-1.572,2.952C1339.953,43.609,1338.635,42.907,1338.254,41.654z"/>
		<path fill="#0D71BA" d="M1001.506,374.5c-0.382-1.25,0.326-2.57,1.576-2.949c1.248-0.381,2.571,0.325,2.947,1.572
			c0.379,1.252-0.323,2.573-1.57,2.952C1003.204,376.453,1001.889,375.751,1001.506,374.5z"/>
		<path fill="#0D71BA" d="M454.385,256.02c-0.379-1.248,0.326-2.569,1.58-2.946c1.242-0.383,2.566,0.322,2.945,1.57
			c0.379,1.251-0.324,2.572-1.576,2.952C456.086,257.974,454.764,257.272,454.385,256.02z"/>
		<path fill="#0D71BA" d="M584.559,424.043c-0.378-1.246,0.328-2.566,1.576-2.945c1.246-0.383,2.571,0.322,2.949,1.572
			c0.381,1.25-0.327,2.571-1.575,2.95C586.263,426.001,584.939,425.297,584.559,424.043z"/>
		<path fill="#0D71BA" d="M675.497,576.813c-0.382-1.248,0.321-2.569,1.571-2.949c1.252-0.38,2.57,0.325,2.952,1.573
			c0.379,1.249-0.321,2.568-1.575,2.953C677.197,578.767,675.877,578.062,675.497,576.813z"/>
		<path fill="#0D71BA" d="M1283.867,33.478c-0.381-1.247,0.322-2.571,1.572-2.949c1.249-0.38,2.572,0.324,2.949,1.575
			c0.381,1.246-0.322,2.567-1.572,2.946C1285.565,35.433,1284.25,34.727,1283.867,33.478z"/>
		<path fill="#0D71BA" d="M1004.72,208.558c-0.378-1.245,0.327-2.567,1.571-2.949c1.254-0.381,2.572,0.327,2.955,1.575
			c0.379,1.25-0.326,2.572-1.582,2.952C1006.424,210.515,1005.098,209.813,1004.72,208.558z"/>
		<circle fill="#0D71BA" cx="781.183" cy="371.678" r="2.363"/>
		<path fill="#0D71BA" d="M661.69,336.336c-0.378-1.251,0.329-2.572,1.579-2.951c1.246-0.381,2.57,0.324,2.948,1.577
			c0.38,1.247-0.324,2.568-1.573,2.947C663.395,338.29,662.074,337.585,661.69,336.336z"/>
		<path fill="#0D71BA" d="M999.35,181.773c-0.384-1.251,0.322-2.57,1.573-2.952c1.25-0.378,2.566,0.323,2.95,1.577
			c0.381,1.247-0.324,2.568-1.576,2.945C1001.05,183.726,999.727,183.021,999.35,181.773z"/>
		<path fill="#0D71BA" d="M662.076,12.456c-0.38-1.251,0.329-2.569,1.575-2.95c1.249-0.38,2.572,0.322,2.952,1.575
			c0.381,1.247-0.327,2.567-1.576,2.948C663.78,14.409,662.456,13.703,662.076,12.456z"/>
		<circle fill="#0D71BA" cx="972.068" cy="36.248" r="2.364"/>
		<path fill="#0D71BA" d="M1356.045,75.788c-0.377-1.247,0.33-2.567,1.576-2.95c1.248-0.377,2.568,0.328,2.951,1.576
			c0.379,1.25-0.328,2.567-1.576,2.951C1357.748,77.743,1356.426,77.041,1356.045,75.788z"/>
		<path fill="#0D71BA" d="M1476.115,145.558c-0.379-1.253,0.328-2.57,1.577-2.952c1.25-0.378,2.567,0.325,2.95,1.576
			c0.382,1.249-0.322,2.569-1.576,2.948C1477.817,147.512,1476.498,146.805,1476.115,145.558z"/>
		<path fill="#0D71BA" d="M1322.279,192.329c-0.382-1.247,0.324-2.569,1.574-2.951c1.249-0.377,2.572,0.327,2.95,1.575
			c0.382,1.251-0.324,2.572-1.573,2.952C1323.979,194.282,1322.658,193.58,1322.279,192.329z"/>
		<path fill="#0D71BA" d="M1123.178,675.49c-0.383-1.252,0.324-2.573,1.572-2.952c1.252-0.378,2.568,0.324,2.952,1.576
			c0.378,1.248-0.325,2.569-1.576,2.947C1124.878,677.444,1123.557,676.738,1123.178,675.49z"/>
		<path fill="#0D71BA" d="M1294.83,760.465c-0.568-1.875,0.488-3.853,2.359-4.426c1.877-0.569,3.856,0.488,4.428,2.362
			c0.572,1.876-0.488,3.854-2.363,4.426S1295.398,762.34,1294.83,760.465z"/>
	</g>
</g>
</svg>
