<?xml version="1.0" encoding="utf-8"?>
<!-- Generator: Adobe Illustrator 17.0.0, SVG Export Plug-In . SVG Version: 6.00 Build 0)  -->
<!DOCTYPE svg PUBLIC "-//W3C//DTD SVG 1.1//EN" "http://www.w3.org/Graphics/SVG/1.1/DTD/svg11.dtd">
<svg version="1.1" id="Layer_1" xmlns="http://www.w3.org/2000/svg" xmlns:xlink="http://www.w3.org/1999/xlink" x="0px" y="0px"
	 width="1047px" height="136px" viewBox="-224.5 317.5 1047 136" enable-background="new -224.5 317.5 1047 136"
	 xml:space="preserve">
<g>
	<g>
		<path fill="#1C75BC" d="M722.833,375.207c0.98,0.98,4.411,3.431,10.293,7.352c5.882,3.921,10.293,6.862,13.234,9.313
			c0.49,0,0.98,0.49,1.961,1.47c0.98,0.49,1.961,1.47,2.941,1.961c0.49,0.49,1.47,0.98,2.451,1.47s1.961,0.98,2.941,1.47
			c0.98,0.49,1.47,0.49,2.451,0.49l0,0c0.98,0,1.47,0,2.451-0.49s1.961-0.98,2.941-1.47c0.98-0.49,1.961-0.98,2.451-1.47
			s1.47-0.98,2.451-1.961c0.98-0.98,1.961-1.47,1.961-1.47c2.941-2.451,10.783-7.352,23.527-16.175
			c2.451-1.47,4.411-3.921,6.372-6.372c1.471-2.451,2.451-4.902,2.451-7.352c0-2.451-0.98-3.921-2.451-5.392
			c-1.47-1.47-3.431-2.451-5.392-2.451h-74.013c-2.451,0-4.411,0.98-5.882,2.451c-1.47,1.961-1.961,3.921-1.961,6.372
			c0,1.961,0.98,4.411,2.941,6.862C718.912,371.776,720.873,373.736,722.833,375.207L722.833,375.207z"/>
		<path fill="#1C75BC" d="M799.297,380.598c-10.783,7.352-19.116,13.234-24.998,17.155c-1.961,1.47-3.431,2.451-4.411,3.431
			c-1.47,0.49-2.941,1.47-4.902,2.451c-1.961,0.98-3.921,1.47-5.392,1.47l0,0c-1.961,0-3.431-0.49-5.392-1.47
			c-1.961-0.98-3.431-1.47-4.901-2.451c-0.98-0.98-2.451-1.961-4.411-3.431c-4.411-3.431-12.744-9.313-24.998-17.155
			c-1.961-1.47-3.431-2.941-4.902-4.411v39.702c0,2.451,0.98,3.921,2.451,5.392c1.471,1.47,3.431,2.451,5.392,2.451h73.523
			c2.451,0,3.921-0.49,5.392-2.451c1.471-1.47,2.451-3.431,2.451-5.392v-39.702C802.728,377.658,801.257,379.128,799.297,380.598
			L799.297,380.598z"/>
	</g>
	<g>
		<g>
			<path fill="#1C75BC" d="M549.648,413.479v16.692h44.513v-16.692v-11.128h-44.513V413.479z M555.212,407.915h33.385v5.564h-33.385
				V407.915z M555.212,419.044h33.385v5.564h-33.385V419.044z"/>
			<polygon fill="#1C75BC" points="594.161,363.402 594.161,346.71 549.648,346.71 549.648,363.402 549.648,374.531 
				594.161,374.531 			"/>
			<path fill="#1C75BC" d="M605.289,363.402h-5.564v11.128v5.564h-55.641v-5.564v-11.128h-5.564
				c-5.564,0-11.128,5.564-11.128,11.128v27.821c0,5.564,5.564,11.128,11.128,11.128h5.564v-11.128v-5.564h55.641v5.564v11.128
				h5.564c5.564,0,11.128-5.564,11.128-11.128v-27.821C616.417,368.967,610.853,363.402,605.289,363.402z"/>
		</g>
	</g>
	<g>
		<polygon fill="#1C75BC" points="430.306,382.052 418.962,382.052 418.962,370.255 413.064,370.255 413.064,382.052 
			401.72,382.052 401.72,387.497 413.064,387.497 413.064,399.294 418.962,399.294 418.962,387.497 430.306,387.497 		"/>
		<path fill="#1C75BC" d="M367.235,393.396h16.335c-2.269,6.806-8.621,11.797-16.335,11.797c-9.529,0-17.242-7.714-17.242-17.242
			c0-9.529,7.714-17.242,17.242-17.242c4.084,0,8.167,1.361,11.344,4.084l7.714-8.621c-5.445-4.537-11.797-6.806-18.604-6.806
			c-15.881,0-28.586,12.705-28.586,28.586c0,15.881,12.705,28.586,28.586,28.586s28.586-12.705,28.586-28.586v-5.899h-28.586
			C367.235,382.052,367.235,393.396,367.235,393.396z"/>
	</g>
	<path fill="#1C75BC" d="M243.053,359.698c-3.395,1.697-7.356,2.829-10.751,2.829c3.961-2.263,6.79-6.224,8.487-10.751
		c-3.395,2.263-7.356,3.961-11.882,4.527c-3.395-3.395-8.487-5.658-13.58-5.658c-10.185,0-18.672,8.487-18.672,18.672
		c0,1.697,0,2.829,0.566,3.961c-16.409,0-30.554-7.921-39.607-19.238c-1.697,2.829-2.263,6.224-2.263,9.619
		c0,6.79,3.395,12.448,8.487,15.843c-2.829,0-6.224-1.132-8.487-2.263l0,0c0,9.053,6.224,16.409,15.277,18.672
		c-1.697,0.566-3.395,0.566-5.092,0.566c-1.132,0-2.263,0-3.395-0.566c2.263,7.356,9.619,13.014,17.54,13.014
		c-6.224,5.092-14.711,7.921-23.198,7.921c-1.697,0-2.829,0-4.527-0.566c8.487,5.092,18.106,8.487,28.857,8.487
		c34.515,0,53.753-28.857,53.753-53.753v-1.697C236.829,366.488,240.224,363.093,243.053,359.698L243.053,359.698z"/>
	<path fill="#1C75BC" d="M54.32,397.076v32.743H35.533v-30.596c0-7.515-2.684-12.882-9.662-12.882c-5.368,0-8.052,3.757-9.662,6.978
		c-0.537,1.074-0.537,2.684-0.537,4.831v31.669H-3.115c0,0,0.537-51.53,0-56.361h18.787v8.052l0,0l0,0l0,0
		c2.147-4.294,6.978-9.662,16.64-9.662C44.658,371.848,54.32,379.899,54.32,397.076L54.32,397.076z M-22.975,346.083
		c-6.441,0-10.735,4.294-10.735,9.662c0,5.368,4.294,9.662,10.199,9.662l0,0c6.441,0,10.735-4.294,10.735-9.662
		C-12.777,349.84-16.534,346.083-22.975,346.083L-22.975,346.083z M-32.637,429.819h18.787v-56.361h-18.787
		C-32.637,373.458-32.637,429.819-32.637,429.819z"/>
	<path fill="#1C75BC" d="M-188.057,361.941v12.35h-9.128v15.034h9.128v44.566h18.256v-44.566h12.35c0,0,1.074-6.98,1.611-15.034
		h-13.961v-10.202c0-1.611,2.148-3.759,3.759-3.759h10.202v-15.571h-13.961C-188.594,344.759-188.057,359.794-188.057,361.941
		L-188.057,361.941z"/>
</g>
</svg>
