<?xml version="1.0" encoding="utf-8"?>
<!-- Generator: Adobe Illustrator 16.0.0, SVG Export Plug-In . SVG Version: 6.00 Build 0)  -->
<!DOCTYPE svg PUBLIC "-//W3C//DTD SVG 1.1//EN" "http://www.w3.org/Graphics/SVG/1.1/DTD/svg11.dtd">
<svg version="1.1" xmlns="http://www.w3.org/2000/svg" xmlns:xlink="http://www.w3.org/1999/xlink" x="0px" y="0px"
	 width="1981.402px" height="200px" viewBox="0 1146 1981.402 200" enable-background="new 0 1146 1981.402 200"
	 xml:space="preserve">
<g id="Layer_1">
	<g>
		<polygon fill="none" stroke="#257CBE" stroke-width="0.6121" stroke-miterlimit="10" points="682.218,1337.021 586.661,1337.021 
			586.661,1318.463 622.315,1318.463 622.315,1173.498 586.661,1173.498 586.661,1154.977 682.219,1154.977 682.219,1173.498 
			646.565,1173.498 646.565,1318.465 682.218,1318.465 682.218,1337.021 		"/>
		<polyline fill="none" stroke="#257CBE" stroke-width="0.6121" stroke-miterlimit="10" points="586.661,1173.498 682.218,1154.977 
			622.315,1173.498 586.661,1154.977 		"/>
		<polyline fill="none" stroke="#257CBE" stroke-width="0.6121" stroke-miterlimit="10" points="682.218,1154.977 646.565,1173.498 
			586.661,1154.977 682.219,1173.498 		"/>
		<polyline fill="none" stroke="#257CBE" stroke-width="0.6121" stroke-miterlimit="10" points="586.661,1318.465 682.219,1337.023 
			622.315,1318.465 586.661,1337.021 		"/>
		<polyline fill="none" stroke="#257CBE" stroke-width="0.6121" stroke-miterlimit="10" points="682.218,1337.021 646.565,1318.463 
			586.661,1337.021 682.219,1318.461 		"/>
		
			<line fill="none" stroke="#257CBE" stroke-width="0.6121" stroke-miterlimit="10" x1="622.315" y1="1173.498" x2="646.565" y2="1318.465"/>
		
			<line fill="none" stroke="#257CBE" stroke-width="0.6121" stroke-miterlimit="10" x1="646.565" y1="1173.498" x2="622.315" y2="1318.465"/>
	</g>
	<g>
		<polygon fill="none" stroke="#257CBE" stroke-width="0.6121" stroke-miterlimit="10" points="527.445,1175.988 470.277,1175.988 
			470.277,1335.025 446.175,1335.025 446.175,1175.988 389.121,1175.988 389.121,1156.975 527.441,1156.975 527.441,1175.988 		"/>
		<polyline fill="none" stroke="#257CBE" stroke-width="0.6121" stroke-miterlimit="10" points="389.125,1175.988 527.443,1156.975 
			470.275,1175.988 		"/>
		<polyline fill="none" stroke="#257CBE" stroke-width="0.6121" stroke-miterlimit="10" points="470.277,1175.988 446.175,1175.988 
			389.121,1156.975 458.224,1175.988 527.445,1156.975 		"/>
		<polyline fill="none" stroke="#257CBE" stroke-width="0.6121" stroke-miterlimit="10" points="527.445,1175.988 389.125,1156.975 
			430.214,1175.988 		"/>
		
			<line fill="none" stroke="#257CBE" stroke-width="0.6121" stroke-miterlimit="10" x1="527.445" y1="1156.975" x2="489.089" y2="1175.99"/>
		
			<line fill="none" stroke="#257CBE" stroke-width="0.6121" stroke-miterlimit="10" x1="446.175" y1="1175.988" x2="470.277" y2="1335.025"/>
		
			<line fill="none" stroke="#257CBE" stroke-width="0.6121" stroke-miterlimit="10" x1="446.175" y1="1335.025" x2="470.277" y2="1175.988"/>
	</g>
	<path fill="none" stroke="#1C76BC" stroke-width="0.6121" stroke-miterlimit="10" d="M1130.979,1333.379l23.619-80.865
		 M1130.979,1333.379l23.619-99.564 M1154.598,1252.477l-23.619-93.857l23.619,75.195 M1234.68,1233.814l-80.082,18.699v-18.699
		l80.082,18.699 M1245.57,1177.279l-114.592-18.66l23.619,156.063 M1246.859,1333.379l-92.262-18.697l-23.619,18.697
		 M1245.57,1158.619l-90.973,18.66l-23.619,156.102l115.881-18.697 M1234.68,1252.477h-80.082v62.205h92.262v18.697h-115.881
		v-174.76h114.592v18.66h-90.973v56.535h80.082V1252.477L1234.68,1252.477z"/>
	<path fill="none" stroke="#1C76BC" stroke-width="0.6121" stroke-miterlimit="10" d="M1064.412,1332.662l-82.372-18.625
		 M958.496,1332.662l105.917-18.625 M982.041,1158.49l-23.545,174.172l23.545-18.625l-23.545-155.547 M982.152,1314.922h82.407
		v18.588H958.605v-174.137h23.547V1314.922z"/>
	<g>
		
			<line fill="none" stroke="#1C76BC" stroke-width="0.6121" stroke-miterlimit="10" x1="1400.041" y1="1290.432" x2="1424.135" y2="1290.057"/>
		
			<line fill="none" stroke="#1C76BC" stroke-width="0.6121" stroke-miterlimit="10" x1="1322.133" y1="1202.689" x2="1297.666" y2="1203.076"/>
		
			<line fill="none" stroke="#1C76BC" stroke-width="0.6121" stroke-miterlimit="10" x1="1359.395" y1="1172.945" x2="1359.395" y2="1153.741"/>
		
			<line fill="none" stroke="#1C76BC" stroke-width="0.6121" stroke-miterlimit="10" x1="1293.148" y1="1283.66" x2="1360.141" y2="1338.259"/>
		<polyline fill="none" stroke="#1C76BC" stroke-width="0.6121" stroke-miterlimit="10" points="1422.629,1208.354 
			1359.395,1153.742 1297.666,1203.077 1358.262,1256.169 1358.262,1233.193 1424.135,1290.057 1360.143,1338.258 
			1360.143,1319.055 		"/>
		<path fill="none" stroke="#1C76BC" stroke-width="0.6121" stroke-miterlimit="10" d="M1400.041,1290.432
			c0-8.277-3.012-15.061-9.408-20.324c-6.023-5.649-16.938-10.168-32.744-13.938c-18.816-4.519-33.504-11.288-44.031-19.963
			c-10.928-9.035-16.191-19.949-16.191-33.129c0-13.938,5.65-25.613,17.313-35.022c11.301-9.408,26.348-14.313,44.418-14.313
			c19.576,0,35.381,5.65,46.67,16.191c11.674,10.928,17.311,23.349,16.938,37.66l-0.375,0.76h-22.961
			c0-10.555-3.385-19.217-10.541-25.613c-6.77-6.409-16.938-9.795-29.73-9.795c-12.047,0-21.457,3.013-27.854,8.289
			c-6.396,5.265-9.408,12.42-9.408,21.455c0,7.543,3.385,13.939,10.154,19.203c7.156,5.277,18.443,9.809,34.25,13.939
			c18.83,4.518,33.129,11.301,42.91,20.709c9.783,9.035,14.688,20.336,14.688,33.516c0,14.688-5.65,26.36-17.697,35.022
			c-11.662,8.662-27.094,13.18-46.297,13.18c-17.686,0-33.49-4.892-47.416-14.686c-13.555-9.796-20.324-22.589-19.949-39.167
			l0.373-0.746h22.961c0,11.674,4.145,20.336,12.793,26.359c8.289,6.022,18.818,9.035,31.238,9.035s21.83-2.639,28.984-7.902
			C1396.281,1306.249,1400.041,1299.093,1400.041,1290.432L1400.041,1290.432z"/>
	</g>
	<g>
		<polygon fill="none" stroke="#257CBE" stroke-width="0.6121" stroke-miterlimit="10" points="50.944,1268.894 110.847,1268.894 
			81.538,1187.893 80.778,1187.893 50.944,1268.894 		"/>
		<polygon fill="none" stroke="#257CBE" stroke-width="0.6121" stroke-miterlimit="10" points="118.069,1289.2 43.532,1289.2 
			26.618,1335.024 2.101,1335.024 70.897,1156.974 91.536,1156.974 159.233,1335.024 134.677,1335.024 118.069,1289.2 		"/>
		<polyline fill="none" stroke="#257CBE" stroke-width="0.6121" stroke-miterlimit="10" points="26.618,1335.024 70.897,1156.974 
			50.944,1268.894 		"/>
		<polyline fill="none" stroke="#257CBE" stroke-width="0.6121" stroke-miterlimit="10" points="70.897,1156.975 43.532,1289.201 
			2.101,1335.026 50.944,1268.896 		"/>
		<polyline fill="none" stroke="#257CBE" stroke-width="0.6121" stroke-miterlimit="10" points="135.78,1335.024 91.536,1156.975 
			111.454,1268.896 		"/>
		<polyline fill="none" stroke="#257CBE" stroke-width="0.6121" stroke-miterlimit="10" points="91.536,1156.975 118.905,1289.201 
			160.337,1335.026 111.454,1268.896 		"/>
		
			<line fill="none" stroke="#257CBE" stroke-width="0.6121" stroke-miterlimit="10" x1="50.944" y1="1268.894" x2="118.069" y2="1289.201"/>
		
			<line fill="none" stroke="#257CBE" stroke-width="0.6121" stroke-miterlimit="10" x1="110.847" y1="1268.894" x2="43.534" y2="1289.201"/>
	</g>
	<g>
		<path fill="none" stroke="#1C76BC" stroke-width="0.6121" stroke-miterlimit="10" d="M238.102,1238.711h38.348
			c13.793,0,23.77-2.676,29.512-7.684c6.137-5.35,9.203-13.033,9.203-23.783c0-9.963-3.066-18.014-8.822-23.389
			c-5.742-5.375-14.945-8.443-27.219-8.443h-41.021V1238.711L238.102,1238.711z"/>
		<path fill="none" stroke="#1C76BC" stroke-width="0.6121" stroke-miterlimit="10" d="M238.102,1257.904v77.852h-24.15v-179.512
			h64.793c19.941,0,34.887,4.59,45.244,13.031c10.344,8.838,15.326,21.477,15.326,37.969c0,9.23-2.295,17.279-7.277,24.178
			c-4.602,6.895-11.51,12.27-20.699,16.125c9.584,3.436,16.859,8.418,21.08,15.707c4.223,7.289,6.518,16.125,6.518,26.85v16.887
			c0,5.375,0.771,10.357,1.914,14.973c1.152,4.195,3.447,8.051,6.516,10.725v3.068h-25.303c-3.068-2.676-4.982-6.896-6.123-12.271
			c-0.773-5.375-1.154-11.119-1.154-16.887v-16.492c0-9.572-3.066-17.254-8.441-23.391c-5.742-5.742-13.412-8.811-22.996-8.811
			H238.102L238.102,1257.904z"/>
		<polyline fill="none" stroke="#1C76BC" stroke-width="0.6121" stroke-miterlimit="10" points="337.779,1219.908 289.861,1157.006 
			238.102,1175.412 213.951,1156.244 238.102,1238.711 		"/>
		
			<line fill="none" stroke="#1C76BC" stroke-width="0.6121" stroke-miterlimit="10" x1="213.951" y1="1156.244" x2="238.102" y2="1257.902"/>
		<polyline fill="none" stroke="#1C76BC" stroke-width="0.6121" stroke-miterlimit="10" points="238.102,1238.711 213.951,1335.754 
			238.102,1257.902 		"/>
		<polyline fill="none" stroke="#1C76BC" stroke-width="0.6121" stroke-miterlimit="10" points="238.102,1335.754 213.951,1245.998 
			238.102,1175.412 		"/>
		<polyline fill="none" stroke="#1C76BC" stroke-width="0.6121" stroke-miterlimit="10" points="238.102,1257.904 264.178,1238.711 
			288.707,1258.271 311.336,1247.549 		"/>
		<polyline fill="none" stroke="#1C76BC" stroke-width="0.6121" stroke-miterlimit="10" points="322.061,1335.754 339.314,1312.732 
			314.785,1290.104 311.338,1247.547 		"/>
		
			<line fill="none" stroke="#1C76BC" stroke-width="0.6121" stroke-miterlimit="10" x1="339.314" y1="1312.732" x2="311.336" y2="1247.547"/>
		
			<line fill="none" stroke="#1C76BC" stroke-width="0.6121" stroke-miterlimit="10" x1="338.174" y1="1193.451" x2="288.707" y2="1258.27"/>
		<polyline fill="none" stroke="#1C76BC" stroke-width="0.6121" stroke-miterlimit="10" points="289.861,1157.006 338.174,1193.451 
			322.836,1241.018 		"/>
	</g>
	<g>
		<polyline fill="none" stroke="#1C76BC" stroke-width="0.6121" stroke-miterlimit="10" points="750.658,1270.854 821.037,1337.512 
			883.896,1278.01 		"/>
		<polyline fill="none" stroke="#1C76BC" stroke-width="0.6121" stroke-miterlimit="10" points="750.658,1220.773 821.037,1153.742 
			883.896,1213.99 		"/>
		
			<line fill="none" stroke="#1C76BC" stroke-width="0.6121" stroke-miterlimit="10" x1="774.74" y1="1220.773" x2="750.658" y2="1267.842"/>
		
			<line fill="none" stroke="#1C76BC" stroke-width="0.6121" stroke-miterlimit="10" x1="750.658" y1="1220.773" x2="774.74" y2="1267.842"/>
		<polygon fill="none" stroke="#1C76BC" stroke-width="0.6121" stroke-miterlimit="10" points="750.658,1220.773 774.74,1220.773 
			774.74,1270.48 750.658,1270.48 750.658,1220.773 		"/>
		<path fill="none" stroke="#1C76BC" stroke-width="0.6121" stroke-miterlimit="10" d="M883.896,1278.01l0.373,0.748
			c0.373,16.949-5.648,30.889-17.684,42.178c-12.047,11.674-28.238,17.324-48.176,17.324c-20.336,0-36.889-7.156-49.309-21.469
			c-12.807-14.301-19.205-32.758-19.205-54.6v-32.01c0-22.215,6.398-40.287,19.205-54.598c12.42-14.314,28.973-21.844,49.309-21.844
			c20.322,0,36.502,5.65,48.549,16.564c11.66,10.555,17.684,24.867,17.311,42.939l-0.373,0.746h-22.961
			c0-12.795-3.758-22.59-11.287-30.119c-7.156-7.156-17.697-10.928-31.238-10.928c-13.553,0-24.094,5.65-32.369,16.564
			c-7.902,10.928-12.047,24.48-12.047,40.299v32.01c0,16.564,4.145,30.119,12.047,41.045c8.275,10.916,18.816,16.191,32.369,16.191
			c13.541,0,24.082-3.77,31.238-10.914c7.529-7.156,11.287-17.324,11.287-30.131h22.961V1278.01z"/>
	</g>
</g>
<g id="Layer_2">
</g>
<g id="Layer_3">
</g>
</svg>
