<?xml version="1.0" encoding="utf-8"?>
<!-- Generator: Adobe Illustrator 16.0.0, SVG Export Plug-In . SVG Version: 6.00 Build 0)  -->
<!DOCTYPE svg PUBLIC "-//W3C//DTD SVG 1.1//EN" "http://www.w3.org/Graphics/SVG/1.1/DTD/svg11.dtd">
<svg version="1.1" id="Layer_1" xmlns="http://www.w3.org/2000/svg" xmlns:xlink="http://www.w3.org/1999/xlink" x="0px" y="0px"
	 width="1981.402px" height="200px" viewBox="0 0 1981.402 200" enable-background="new 0 0 1981.402 200" xml:space="preserve">
<g>
	<path fill="none" stroke="#1C76BC" stroke-miterlimit="10" d="M1472.33,192.259l24.736-163.497 M1472.33,28.762l24.736,163.497
		 M1555.826,9.218l-39.418,19.544 M1555.826,28.762L1413.687,9.218l42.215,19.544 M1497.066,28.762h-24.775l-58.604-19.544
		l70.99,19.544l71.146-19.544 M1413.687,28.762l142.137-19.544l-58.758,19.544 M1555.826,28.762h-58.76v163.497h-24.773V28.762
		h-58.604V9.218h142.137V28.762L1555.826,28.762z"/>
	<path fill="none" stroke="#1C76BC" stroke-miterlimit="10" d="M1244.757,50.947l-24.699-41.729 M1333.572,150.219v42.04
		 M1244.757,50.947l113.59,141.312 M1244.757,9.218l88.814,183.041 M1244.757,192.259L1220.058,9.218 M1244.757,9.218
		l-24.699,183.041 M1358.349,192.259L1333.572,9.218l24.775,42.585l-24.775,140.456 M1358.349,192.259h-24.775l-88.039-141.584
		l-0.777,0.272v141.312h-24.699V9.218h24.699l88.078,141.273l0.738-0.272V9.218h24.775V192.259L1358.349,192.259z"/>
	<path fill="none" stroke="#1C76BC" stroke-width="1.0286" stroke-miterlimit="10" d="M1140.681,107.829h-83.533v64.925h96.271
		v19.467l-120.932,0.038V9.878h119.535v19.467h-94.873v59.018h83.531V107.829L1140.681,107.829z M1152.021,9.878l-94.873,19.467
		l-24.662,162.875l120.932-19.467 M1153.417,192.259l-96.271-19.505l-24.66,19.505 M1152.021,29.345L1032.486,9.878l24.662,162.876
		 M1140.681,88.362l-83.533,19.506V88.362l83.533,19.506 M1057.146,107.829l-24.66-97.951l24.66,78.484 M1032.486,192.259
		l24.662-103.896 M1032.486,192.259l24.662-84.391"/>
	<path fill="none" stroke="#1C76BC" stroke-miterlimit="10" d="M831.128,75.348h24.155l-24.506,40.563 M965.38,66.993L899.479,7.741
		l-68.35,67.606l23.921,40.563h-24.271l68.7,76.309l65.901-59.484 M965.146,131.996l0.232,0.777
		c0.35,16.824-5.592,30.928-17.747,42.351c-12.117,11.384-28.194,17.135-48.155,17.135c-20.271,0-36.776-7.228-49.592-21.563
		c-12.738-14.377-19.106-32.598-19.106-54.668V84.129c0-22.108,6.368-40.369,19.106-54.746
		c12.777-14.414,29.32-21.602,49.592-21.602c20.312,0,36.428,5.399,48.428,16.24c11.96,10.841,17.824,25.138,17.475,42.972
		l-0.233,0.777h-23.3c0-12.588-3.688-22.535-11.066-29.839c-7.381-7.306-17.826-10.958-31.302-10.958
		c-13.554,0-24.349,5.439-32.389,16.358C859.05,54.21,855.05,67.73,855.05,83.855v32.055c0,16.318,4,29.917,12.039,40.797
		c8.04,10.917,18.835,16.396,32.389,16.396c13.476,0,23.921-3.652,31.302-10.918c7.378-7.267,11.066-17.328,11.066-30.149h23.3
		L965.146,131.996L965.146,131.996z"/>
	<line fill="none" stroke="#1C76BC" stroke-miterlimit="10" x1="701.031" y1="192.259" x2="701.031" y2="173.221"/>
	<line fill="none" stroke="#1C76BC" stroke-miterlimit="10" x1="635.168" y1="138.252" x2="701.848" y2="192.259"/>
	<polyline fill="none" stroke="#1C76BC" stroke-miterlimit="10" points="763.944,63.226 700.992,9.218 639.79,57.94 
		699.672,110.743 699.672,87.937 765.42,144.585 701.848,192.259 701.848,173.221 	"/>
	<path fill="none" stroke="#1C76BC" stroke-miterlimit="10" d="M741.341,144.816c0-8.08-3.067-14.842-9.165-20.318
		c-6.135-5.439-16.932-10.025-32.504-13.755c-18.835-4.507-33.515-11.112-44.078-19.814C645.109,82.147,639.79,71.19,639.79,57.94
		c0-13.87,5.669-25.448,17.047-34.735c11.34-9.325,26.097-13.987,44.194-13.987c19.457,0,34.952,5.323,46.485,16.047
		c11.495,10.686,17.05,23.079,16.66,37.183l-0.231,0.778h-22.952c0-10.452-3.456-18.884-10.369-25.333
		c-6.874-6.45-16.737-9.636-29.592-9.636c-11.96,0-21.203,2.68-27.572,8.082c-6.369,5.439-9.592,12.472-9.592,21.214
		c0,7.691,3.457,14.144,10.369,19.31c6.95,5.168,18.214,9.714,33.748,13.599c18.718,4.624,33.009,11.462,42.757,20.515
		c9.786,9.055,14.68,20.244,14.68,33.609c0,14.338-5.865,25.877-17.593,34.581c-11.729,8.74-27.067,13.093-45.979,13.093
		c-17.709,0-33.437-4.855-47.068-14.531c-13.631-9.674-20.271-22.651-19.846-38.736l0.234-0.738h22.951
		c0,11.385,4.194,20.088,12.583,26.032c8.388,5.944,18.795,8.937,31.146,8.937c12.155,0,21.786-2.564,28.893-7.654
		C737.808,160.477,741.341,153.561,741.341,144.816L741.341,144.816z"/>
	<path fill="none" stroke="#1C76BC" stroke-miterlimit="10" d="M545.731,144.741h-77.243l-17.516,47.479h-25.396L496.838,7.741
		h21.398l70.135,184.479h-25.438L545.731,144.741L545.731,144.741z M476.178,123.76h62.059l-30.369-83.964h-0.777L476.178,123.76
		L476.178,123.76z M450.974,192.259L496.838,7.781l-20.66,115.979 M496.838,7.781l-28.349,136.998l-42.912,47.439l50.602-68.46
		 M562.935,192.259L518.236,7.781l20.66,115.979 M518.236,7.781l28.349,136.998l41.786,47.439l-49.475-68.46 M476.178,123.76
		l69.554,21.02 M538.236,123.76l-69.748,21.02"/>
</g>
</svg>
