<?xml version="1.0" encoding="utf-8"?>
<!-- Generator: Adobe Illustrator 16.0.0, SVG Export Plug-In . SVG Version: 6.00 Build 0)  -->
<!DOCTYPE svg PUBLIC "-//W3C//DTD SVG 1.1//EN" "http://www.w3.org/Graphics/SVG/1.1/DTD/svg11.dtd">
<svg version="1.1" id="Layer_1" xmlns="http://www.w3.org/2000/svg" xmlns:xlink="http://www.w3.org/1999/xlink" x="0px" y="0px"
	 width="1520px" height="792.455px" viewBox="0 0 1520 792.455" enable-background="new 0 0 1520 792.455" xml:space="preserve">
<g>
	<g>
		<polyline fill="none" stroke="#1D76BB" stroke-miterlimit="10" points="351.879,298.803 360.539,322.171 334.971,328.358 		"/>
		<polyline fill="none" stroke="#1D76BB" stroke-miterlimit="10" points="561.104,407.401 545.433,426.784 562.615,418.399 		"/>
		<polyline fill="none" stroke="#1D76BB" stroke-miterlimit="10" points="430.372,442.594 418.826,467.75 432.021,450.843 		"/>
		<g>
			<g>
				<g>
					<path fill="none" stroke="#1D76BB" stroke-miterlimit="10" d="M240.117,446.442l27.081,13.196l-15.534,31.618l-15.533,2.337
						l-2.337,12.372l-31.755,27.082l-14.709,28.043l10.859,11.684l-17.733-4.674l-6.187-15.533l17.872-72.033l-14.71-13.197
						l-6.875-27.905l8.388-13.609l-7.561,1.1l-10.86-13.885l-9.347-4.673l-21.721-7.699l-17.872-27.905l-10.859-20.07v-27.081
						l-17.871-30.242L60.31,281.343l-13.885,7.837l-25.568,12.372l16.221-13.196l-10.036-2.338l-3.848-13.197l11.548-9.347
						l-11.548-1.513l2.337-8.522h8.522l-7.698-11.685l20.896-12.372l37.94,20.895l14.022-13.197l30.242,17.872l58.149-6.187v29.417
						l-23.232,4.675l-4.675,12.371l22.408,24.057l5.36-0.824l3.85-30.243l14.846-0.824l6.188,17.046l7.698-4.674l17.045,37.94
						l-24.056,10.86l-18.559,10.035l-14.711,20.209v10.034l-5.498,0.824l-3.849-10.858l-20.896,3.022l-4.673,13.197l5.361,7.699
						l7.698-6.187l7.697,0.824l-3.85,10.998l9.212,0.688l3.162,11.547l6.322,2.062l4.675-7.562l30.93,3.164l20.895,15.532
						L240.117,446.442z M607.018,439.432l-1.649,13.197l-11.134-4.124l2.063-7.148l-12.236-0.963l-15.808,14.71l-16.772,6.048
						l4.125,22.82l-1.513,4.536l6.188,3.573l24.88-6.186l9.623,5.636l4.536-2.474l3.025,9.209l12.646,3.576l9.211-5.639
						l5.086-27.355l-13.747-13.745L607.018,439.432z M545.433,426.784l13.197,2.475l6.048-18.696l-3.574-3.022l-17.732,11.134
						L545.433,426.784z M585.986,421.562l13.744,14.296l7.838,0.55l3.299-3.024l11.136,7.011l-4.536-9.621l-20.896-10.174
						L585.986,421.562z M610.867,306.364h-3.574l-0.549,18.281l-9.072,19.246l-11.686,8.661l-0.551,7.561l21.309-12.647
						l0.961-13.197l7.012-6.599l-5.499-4.536l3.025-10.723L610.867,306.364z M665.854,490.708l1.513,14.157l-15.671,14.71
						l10.173,0.963l9.073-13.747l7.146-9.623l-4.536-0.55L665.854,490.708z M326.31,277.083v14.846l10.311-4.536l2.886-4.536
						l-11.135-21.445l-6.598,4.537l0.412,5.773L316,279.145l-0.413,7.836h7.424L326.31,277.083z M419.237,451.255l-0.411,16.495
						l6.598,2.888l6.598-19.795l-1.649-8.249L419.237,451.255z M647.57,279.007l0.55,11.686l-13.195,16.22l-0.552-18.281
						l17.185-20.896l-10.585,1.512l-13.746,11.135l-16.772-0.963l-12.646,12.234l9.073,6.599l-10.585,29.418l-9.074,1.513
						l-5.635,8.109l2.474,10.724l-6.598,3.574l-2.063-9.624l-5.634-7.697l-7.563,8.111l6.05,17.184l-8.661,15.809l-18.834,0.963
						l-3.985,6.598l8.66,12.646l-9.073,7.697l-9.485-9.621l-0.274,9.21l8.111,9.211l3.574,16.221l10.172,3.574l13.746,5.637
						l-25.431-4.536l-10.723-10.173l-9.623-13.747l13.197,6.598l-6.048-11.135l-1.237-15.122l-5.773,1.514l-7.149-15.259
						l-19.795,13.745v8.661l-7.148,7.011l-9.073-22.819l-10.173-12.234l-24.331-4.537l-7.148-6.048l-3.575,2.063l5.087,12.233
						l8.111-4.124l10.722,8.11l-31.479,18.695l-16.359-32.029l-3.436,0.551l16.633,37.94l16.221-7.698l-5.086,17.733l-16.221,14.71
						l2.475,21.856l-9.074,7.148l-16.633,31.479l-16.773,3.024l-14.707-35.604l3.574-16.222l-9.21-28.456l-30.931,2.063
						l-17.321-16.771l3.161-27.22l16.772-20.345l32.442-5.637l2.062,8.661l13.197,8.659l5.085-7.146l20.209,5.225l5.224-3.164
						l2.337-7.559l-13.886-2.338l-4.536-7.836l-3.299-1.649l-2.886,9.897l-6.187-7.836l0.413-6.6l-8.25-6.598l-5.085-2.475
						l0.413,6.599l10.309,7.012l-5.36,6.185l-7.423-9.897l-5.362-6.185l-12.372,6.185l-8.66,13.61l-13.197-2.063l-0.824-16.494
						l16.771,1.236l-5.36-8.522l-3.3-7.012l12.785-4.125l7.012-9.485l5.772-0.411l-1.237-5.362l3.711-4.949l2.887,8.248
						l16.085,0.414l4.535-11.549l6.188,2.063l-2.063-7.838l9.485-3.023l-3.024-3.573l-8.659,2.475l-3.025-7.424h-0.411l0.273-0.549
						l-1.236-3.162l3.437-2.475l3.025-7.697l-3.163-0.551l-5.36,6.598l-4.536,9.761l4.947,5.362l-4.947,13.195l-7.424,2.887
						l-4.125-13.196l-8.659,4.948l-4.125-2.474l0.413-12.785l7.424-5.774l6.185-15.259l15.672-8.659l39.04,7.147
						c44.952-4.673,126.608-13.334,126.608-13.334l134.72,18.971l5.086,14.158l-18.284,10.175L647.57,279.007z M254.827,244.503
						l-11.41-3.162l-14.159,15.121l18.145,47.288l8.661,2.063l0.688-15.396l5.774-3.575l0.274-5.772l6.048-11.273l-4.262-8.522
						L254.827,244.503z"/>
				</g>
			</g>
			<polyline fill="none" stroke="#1D76BB" stroke-miterlimit="10" points="568.253,455.104 629.15,468.851 555.605,483.972 
				594.234,448.505 624.202,496.204 			"/>
			<polyline fill="none" stroke="#1D76BB" stroke-miterlimit="10" points="26.218,241.892 164.098,282.856 60.31,281.343 
				85.054,250.414 149.388,382.107 181.968,319.284 100.589,325.472 236.955,337.98 			"/>
			<polyline fill="none" stroke="#1D76BB" stroke-miterlimit="10" points="180.456,422.935 236.131,493.594 240.117,446.442 
				174.134,552.567 			"/>
			<polyline fill="none" stroke="#1D76BB" stroke-miterlimit="10" points="674.652,251.651 391.469,276.807 597.808,291.653 
				360.539,322.171 539.934,232.681 463.227,370.011 562.203,342.38 382.396,335.781 			"/>
			<polyline fill="none" stroke="#1D76BB" stroke-miterlimit="10" points="306.926,368.91 412.501,427.884 361.227,439.569 
				371.399,360.249 389.133,488.232 			"/>
			<polyline fill="none" stroke="#1D76BB" stroke-miterlimit="10" points="243.417,241.341 262.937,281.206 229.258,256.462 
				256.751,291.793 			"/>
			<polyline fill="none" stroke="#1D76BB" stroke-miterlimit="10" points="36.253,288.767 47.111,229.519 60.31,281.343 			"/>
			<line fill="none" stroke="#1D76BB" stroke-miterlimit="10" x1="187.33" y1="248.765" x2="82.854" y2="295.366"/>
			<polyline fill="none" stroke="#1D76BB" stroke-miterlimit="10" points="321.086,413.037 356.141,343.067 306.926,368.91 			"/>
		</g>
	</g>
	<g>
		<path fill="#1D76BB" d="M59.484,281.894c0,0.824,0.688,1.512,1.512,1.512c0.826,0,1.514-0.688,1.514-1.512
			s-0.688-1.512-1.514-1.512C60.172,280.382,59.484,281.069,59.484,281.894z"/>
		<path fill="#1D76BB" d="M148.427,382.107c0,0.825,0.688,1.513,1.512,1.513c0.823,0,1.512-0.688,1.512-1.513
			c0-0.823-0.688-1.512-1.512-1.512C149.114,380.596,148.427,381.284,148.427,382.107z"/>
		<path fill="#1D76BB" d="M369.474,360.249c0,0.826,0.688,1.514,1.513,1.514c0.825,0,1.513-0.688,1.513-1.514
			c0-0.823-0.688-1.511-1.513-1.511C370.162,358.738,369.474,359.426,369.474,360.249z"/>
		<path fill="#1D76BB" d="M327.409,261.411c0,0.824,0.688,1.512,1.512,1.512c0.826,0,1.514-0.688,1.514-1.512
			c0-0.825-0.688-1.512-1.514-1.512C327.96,259.899,327.409,260.586,327.409,261.411z"/>
		<path fill="#1D76BB" d="M227.744,256.599c0,0.825,0.688,1.512,1.514,1.512c0.824,0,1.512-0.687,1.512-1.512
			c0-0.823-0.688-1.511-1.512-1.511C228.432,255.088,227.744,255.775,227.744,256.599z"/>
		<path fill="#1D76BB" d="M254.963,290.278c0,0.827,0.688,1.515,1.512,1.515c0.826,0,1.515-0.688,1.515-1.515
			c0-0.824-0.688-1.512-1.515-1.512C255.65,288.767,254.963,289.454,254.963,290.278z"/>
		<path fill="#1D76BB" d="M325.484,276.671c0,0.823,0.688,1.511,1.513,1.511c0.824,0,1.512-0.688,1.512-1.511
			c0-0.825-0.688-1.513-1.512-1.513C326.172,275.158,325.484,275.846,325.484,276.671z"/>
		<path fill="#1D76BB" d="M235.443,337.568c0,0.824,0.688,1.511,1.512,1.511c0.825,0,1.512-0.687,1.512-1.511
			c0-0.825-0.687-1.512-1.512-1.512C236.131,336.057,235.443,336.743,235.443,337.568z"/>
		<path fill="#1D76BB" d="M99.074,326.159c0,0.823,0.688,1.511,1.515,1.511c0.824,0,1.512-0.688,1.512-1.511
			c0-0.826-0.688-1.514-1.512-1.514C99.762,324.646,99.074,325.333,99.074,326.159z"/>
		<path fill="#1D76BB" d="M174.134,332.345c0,0.824,0.688,1.513,1.511,1.513c0.825,0,1.513-0.688,1.513-1.513
			c0-0.826-0.688-1.513-1.513-1.513C174.821,330.832,174.134,331.519,174.134,332.345z"/>
		<path fill="#1D76BB" d="M24.706,241.892c0,0.824,0.688,1.512,1.512,1.512c0.823,0,1.512-0.688,1.512-1.512
			c0-0.825-0.688-1.512-1.512-1.512C25.394,240.38,24.706,241.066,24.706,241.892z"/>
		<path fill="#1D76BB" d="M42.715,247.39c0,0.824,0.688,1.512,1.511,1.512c0.824,0,1.512-0.688,1.512-1.512
			c0-0.825-0.688-1.513-1.512-1.513C43.402,245.877,42.715,246.564,42.715,247.39z"/>
		<path fill="#1D76BB" d="M34.741,288.767c0,0.825,0.688,1.512,1.512,1.512s1.512-0.687,1.512-1.512
			c0-0.823-0.688-1.512-1.512-1.512C35.29,287.255,34.741,287.943,34.741,288.767z"/>
		<path fill="#1D76BB" d="M478.624,338.668c0,0.823,0.688,1.511,1.511,1.511c0.825,0,1.513-0.688,1.513-1.511
			c0-0.824-0.688-1.512-1.513-1.512C479.312,337.156,478.624,337.844,478.624,338.668z"/>
		<path fill="#1D76BB" d="M366.587,387.605c0,0.826,0.688,1.513,1.512,1.513c0.827,0,1.513-0.687,1.513-1.513
			c0-0.823-0.686-1.511-1.513-1.511C367.274,386.095,366.587,386.782,366.587,387.605z"/>
		<path fill="#1D76BB" d="M410.99,427.747c0,0.824,0.688,1.512,1.511,1.512c0.826,0,1.513-0.688,1.513-1.512
			s-0.687-1.512-1.513-1.512C411.678,426.235,410.99,426.923,410.99,427.747z"/>
		<path fill="#1D76BB" d="M354.629,343.067c0,0.824,0.687,1.512,1.512,1.512c0.824,0,1.512-0.688,1.512-1.512
			c0-0.826-0.688-1.513-1.512-1.513C355.315,341.555,354.629,342.104,354.629,343.067z"/>
		<path fill="#1D76BB" d="M305.415,368.499c0,0.824,0.688,1.512,1.511,1.512c0.826,0,1.512-0.688,1.512-1.512
			c0-0.825-0.686-1.512-1.512-1.512C306.103,366.987,305.415,367.674,305.415,368.499z"/>
		<path fill="#1D76BB" d="M387.207,487.682c0,0.826,0.688,1.513,1.514,1.513c0.823,0,1.511-0.687,1.511-1.513
			c0-0.823-0.688-1.511-1.511-1.511C387.895,486.171,387.207,486.857,387.207,487.682z"/>
		<path fill="#1D76BB" d="M402.741,364.511c0,0.826,0.688,1.514,1.513,1.514c0.824,0,1.512-0.688,1.512-1.514
			c0-0.824-0.688-1.511-1.512-1.511C403.429,363,402.741,363.687,402.741,364.511z"/>
		<path fill="#1D76BB" d="M543.92,426.784c0,0.825,0.688,1.513,1.513,1.513s1.512-0.688,1.512-1.513
			c0-0.824-0.688-1.512-1.512-1.512S543.92,425.96,543.92,426.784z"/>
		<path fill="#1D76BB" d="M162.586,283.405c0,0.825,0.687,1.513,1.512,1.513c0.824,0,1.512-0.688,1.512-1.513
			c0-0.824-0.688-1.512-1.512-1.512C163.272,281.894,162.586,282.581,162.586,283.405z"/>
		<path fill="#1D76BB" d="M238.605,446.719c0,0.823,0.688,1.511,1.512,1.511c0.825,0,1.512-0.688,1.512-1.511
			c0-0.827-0.687-1.513-1.512-1.513C239.293,445.206,238.605,445.892,238.605,446.719z"/>
		<path fill="#1D76BB" d="M190.08,481.085c0,0.823,0.687,1.511,1.512,1.511c0.824,0,1.512-0.688,1.512-1.511
			c0-0.826-0.688-1.514-1.512-1.514C190.629,479.571,190.08,480.259,190.08,481.085z"/>
		<path fill="#1D76BB" d="M88.627,251.238c0,2.062-1.649,3.85-3.848,3.85c-2.199,0-3.85-1.649-3.85-3.85
			c0-2.063,1.65-3.849,3.85-3.849C86.978,247.39,88.627,249.175,88.627,251.238z"/>
		<path fill="#1D76BB" d="M191.316,248.901c0,2.063-1.649,3.85-3.85,3.85c-2.199,0-3.85-1.651-3.85-3.85
			c0-2.199,1.65-3.85,3.85-3.85C189.667,245.052,191.316,246.841,191.316,248.901z"/>
		<path fill="#1D76BB" d="M185.404,320.11c0,2.061-1.648,3.848-3.85,3.848c-2.198,0-3.848-1.648-3.848-3.848
			c0-2.2,1.649-3.85,3.848-3.85C183.756,316.261,185.404,317.91,185.404,320.11z"/>
		<path fill="#1D76BB" d="M177.981,552.567c0,2.063-1.648,3.85-3.848,3.85c-2.201,0-3.849-1.65-3.849-3.85
			c0-2.063,1.647-3.85,3.849-3.85C176.333,548.718,177.981,550.505,177.981,552.567z"/>
		<path fill="#1D76BB" d="M225.957,475.724c0,2.061-1.647,3.848-3.849,3.848c-2.199,0-3.848-1.648-3.848-3.848
			c0-2.2,1.648-3.85,3.848-3.85C224.31,471.874,225.957,473.66,225.957,475.724z"/>
		<path fill="#1D76BB" d="M185.404,422.935c0,2.063-1.648,3.85-3.85,3.85c-2.198,0-3.848-1.649-3.848-3.85
			c0-2.198,1.649-3.848,3.848-3.848C183.756,419.087,185.404,420.736,185.404,422.935z"/>
		<path fill="#1D76BB" d="M364.389,439.432c0,2.063-1.65,3.85-3.85,3.85c-2.2,0-3.85-1.65-3.85-3.85c0-2.2,1.649-3.849,3.85-3.849
			C362.738,435.583,364.389,437.37,364.389,439.432z"/>
		<path fill="#1D76BB" d="M364.389,322.31c0,2.063-1.65,3.85-3.85,3.85c-2.2,0-3.85-1.65-3.85-3.85c0-2.063,1.649-3.85,3.85-3.85
			C362.738,318.46,364.389,320.247,364.389,322.31z"/>
		<path fill="#1D76BB" d="M338.818,386.095c0,2.062-1.649,3.849-3.848,3.849c-2.2,0-3.849-1.649-3.849-3.849
			c0-2.2,1.648-3.85,3.849-3.85C337.169,382.245,338.818,384.032,338.818,386.095z"/>
		<path fill="#1D76BB" d="M543.371,233.229c0,2.063-1.65,3.85-3.849,3.85c-2.2,0-3.85-1.649-3.85-3.85
			c0-2.199,1.649-3.848,3.85-3.848C541.721,229.382,543.371,231.169,543.371,233.229z"/>
		<path fill="#1D76BB" d="M514.228,285.742c0,2.062-1.649,3.85-3.849,3.85c-2.201,0-3.849-1.648-3.849-3.85
			c0-2.062,1.647-3.849,3.849-3.849C512.578,281.894,514.228,283.543,514.228,285.742z"/>
		<path fill="#1D76BB" d="M566.328,342.517c0,2.063-1.65,3.85-3.85,3.85c-2.198,0-3.849-1.65-3.849-3.85
			c0-2.198,1.65-3.849,3.849-3.849C564.678,338.668,566.328,340.454,566.328,342.517z"/>
		<path fill="#1D76BB" d="M468.313,370.011c0,2.062-1.649,3.848-3.85,3.848s-3.849-1.648-3.849-3.848c0-2.2,1.648-3.85,3.849-3.85
			S468.313,367.811,468.313,370.011z"/>
		<path fill="#1D76BB" d="M394.769,276.671c0,2.061-1.651,3.848-3.849,3.848c-2.199,0-3.85-1.649-3.85-3.848
			c0-2.201,1.65-3.851,3.85-3.851C393.117,272.82,394.769,274.47,394.769,276.671z"/>
		<path fill="#1D76BB" d="M266.786,280.519c0,2.063-1.65,3.85-3.85,3.85c-2.198,0-3.849-1.65-3.849-3.85s1.65-3.848,3.849-3.848
			C265.136,276.671,266.786,278.319,266.786,280.519z"/>
		<path fill="#1D76BB" d="M330.846,291.793c0,2.061-1.649,3.848-3.849,3.848s-3.85-1.649-3.85-3.848c0-2.201,1.65-3.85,3.85-3.85
			S330.846,289.729,330.846,291.793z"/>
		<path fill="#1D76BB" d="M559.453,483.972c0,2.062-1.648,3.848-3.848,3.848c-2.2,0-3.849-1.648-3.849-3.848s1.648-3.85,3.849-3.85
			C557.805,480.122,559.453,481.908,559.453,483.972z"/>
	</g>
</g>
<path fill="none" stroke="#1C75BC" stroke-miterlimit="10" d="M172.527,436.233l-80.341,46.409l-75.941,44.021
	c-16.402,9.505-16.301,33.227,0.184,42.589l197.754,112.343c7.506,4.265,16.697,4.272,24.211,0.024l228.743-129.363
	c7.619-4.309,16.959-4.232,24.51,0.195l100.614,93.13h345.458l315.191-211.435c15.707-9.199,16.285-31.694,1.082-41.693
	l-64.723-42.563c-15.156-9.962-14.643-32.351,0.945-41.616l115.303-68.511c15.355-9.124,16.137-31.067,1.473-41.262l-101.031-70.222
	c-7.801-5.42-18.033-5.857-26.268-1.112l-116.492,67.108c-8.355,4.818-18.764,4.29-26.596-1.35l-90.064-64.834
	c-7.932-5.713-18.498-6.172-26.896-1.176L721.625,244.765c-7.674,4.567-17.232,4.607-24.943,0.094L491.93,125.147
	c-7.732-4.52-17.32-4.471-25.006,0.136L258.229,250.348"/>
<path fill="none" stroke="#1C75BC" stroke-miterlimit="10" d="M256.239,301.873l36.582,23.26
	c15.542,9.883,15.071,32.723-0.862,41.959l-86.451,50.091"/>
</svg>
