<?xml version="1.0" encoding="utf-8"?>
<!-- Generator: Adobe Illustrator 16.0.0, SVG Export Plug-In . SVG Version: 6.00 Build 0)  -->
<!DOCTYPE svg PUBLIC "-//W3C//DTD SVG 1.1//EN" "http://www.w3.org/Graphics/SVG/1.1/DTD/svg11.dtd">
<svg version="1.1" id="Layer_1" xmlns="http://www.w3.org/2000/svg" xmlns:xlink="http://www.w3.org/1999/xlink" x="0px" y="0px"
	 width="1520px" height="792.455px" viewBox="0 0 1520 792.455" enable-background="new 0 0 1520 792.455" xml:space="preserve">
<path fill="none" stroke="#1B75BB" stroke-miterlimit="10" d="M92.187,482.643l-75.941,44.021
	c-16.402,9.505-16.301,33.227,0.184,42.589l197.754,112.343c7.506,4.265,16.697,4.272,24.211,0.024l228.743-129.363
	c7.619-4.309,16.959-4.232,24.51,0.195l100.614,93.13h345.457l315.193-211.435c15.707-9.199,16.285-31.694,1.082-41.693
	l-64.723-42.563c-15.156-9.962-14.643-32.351,0.945-41.616l115.303-68.511c15.355-9.124,16.137-31.067,1.473-41.262L1205.96,128.28
	c-7.801-5.42-18.033-5.857-26.268-1.112L1063.2,194.276c-8.357,4.818-18.766,4.29-26.596-1.35l-90.066-64.834
	c-7.932-5.713-18.498-6.172-26.896-1.176L721.625,244.765c-7.674,4.567-17.232,4.607-24.943,0.094L491.93,125.147
	c-7.732-4.52-17.32-4.471-25.006,0.136l-141.391,84.688"/>
<g>
	<circle fill="none" stroke="#1D76BB" stroke-miterlimit="10" cx="271.066" cy="399.545" r="197.193"/>
	<polygon fill="none" stroke="#1D76BB" stroke-miterlimit="10" points="282.467,369.246 147.271,245.25 290.766,297.648 
		377.963,233.85 313.365,479.442 438.461,506.041 294.865,203.751 74.174,407.145 226.068,388.545 129.771,537.141 147.271,245.25 
		262.367,596.838 310.566,491.042 367.463,569.939 462.861,352.746 	"/>
	<g>
		<path fill="none" stroke="#1D76BB" stroke-miterlimit="10" d="M313.365,479.442l-2.799,11.6c-8.5,3.399-15.4,5.899-20.4,7.699
			c-5.1,1.8-11,2.601-17.699,2.601c-10.299,0-18.398-2.5-24.1-7.601c-5.699-5.1-8.6-11.499-8.6-19.199c0-3,0.201-6.1,0.6-9.3
			c0.4-3.1,1.102-6.699,2.102-10.699l10.699-37.799c1-3.6,1.799-7,2.4-10.3c0.699-3.2,1-6.199,1-8.899c0-4.8-1-8.2-3-10.1
			c-2-1.9-5.801-2.801-11.4-2.801c-2.801,0-5.6,0.4-8.5,1.301s-5.4,1.7-7.5,2.5l2.9-11.699c7-2.801,13.699-5.301,20.1-7.301
			s12.398-3.1,18.1-3.1c10.299,0,18.199,2.5,23.799,7.4c5.6,5,8.299,11.398,8.299,19.299c0,1.7-0.199,4.5-0.6,8.699
			c-0.4,4.101-1.1,7.9-2.1,11.4l-10.6,37.599c-0.9,3-1.699,6.5-2.301,10.399c-0.699,3.9-1,6.8-1,8.8c0,5,1.102,8.399,3.301,10.199
			c2.199,1.801,6.1,2.7,11.6,2.7c2.6,0,5.5-0.5,8.799-1.399C309.566,480.942,311.865,480.142,313.365,479.442L313.365,479.442z
			 M316.064,321.447c0,6.6-2.5,12.199-7.398,16.799c-4.9,4.601-10.9,6.9-17.9,6.9s-12.998-2.3-17.998-6.9
			c-5-4.6-7.5-10.199-7.5-16.799c0-6.5,2.5-12.199,7.5-16.799c5-4.701,10.998-7,17.998-7s12.9,2.299,17.9,7
			C313.564,309.248,316.064,314.848,316.064,321.447L316.064,321.447z"/>
	</g>
	<g>
		<circle fill="#1D76BB" cx="130.371" cy="537.84" r="7.1"/>
		<circle fill="#1D76BB" cx="378.363" cy="234.85" r="7.2"/>
		<circle fill="#1D76BB" cx="147.371" cy="245.85" r="7.2"/>
		<circle fill="#1D76BB" cx="226.369" cy="389.145" r="7.2"/>
		<circle fill="#1D76BB" cx="313.766" cy="479.742" r="7.2"/>
		<circle fill="#1D76BB" cx="262.768" cy="595.039" r="7.2"/>
		<circle fill="#1D76BB" cx="437.361" cy="502.441" r="7.2"/>
		<circle fill="#1D76BB" cx="75.574" cy="407.745" r="7.2"/>
		<circle fill="#1D76BB" cx="290.766" cy="296.748" r="7.199"/>
	</g>
</g>
</svg>
