<?xml version="1.0" encoding="utf-8"?>
<!-- Generator: Adobe Illustrator 16.0.0, SVG Export Plug-In . SVG Version: 6.00 Build 0)  -->
<!DOCTYPE svg PUBLIC "-//W3C//DTD SVG 1.1//EN" "http://www.w3.org/Graphics/SVG/1.1/DTD/svg11.dtd">
<svg version="1.1" id="Layer_1" xmlns="http://www.w3.org/2000/svg" xmlns:xlink="http://www.w3.org/1999/xlink" x="0px" y="0px"
	 width="1520px" height="792.455px" viewBox="0 0 1520 792.455" enable-background="new 0 0 1520 792.455" xml:space="preserve">
<path fill="none" stroke="#1B75BB" stroke-miterlimit="10" d="M128.345,461.811l-112.1,64.853
	c-16.402,9.505-16.301,33.227,0.184,42.589l197.754,112.343c7.506,4.265,16.697,4.272,24.211,0.024l228.743-129.363
	c7.619-4.309,16.959-4.232,24.51,0.195l100.614,93.13h345.457l315.193-211.435c15.707-9.199,16.285-31.694,1.082-41.693
	l-64.723-42.563c-15.156-9.962-14.643-32.351,0.945-41.616l115.303-68.511c15.355-9.124,16.137-31.067,1.473-41.262l-101.031-70.222
	c-7.801-5.42-18.033-5.857-26.268-1.112L1063.2,194.276c-8.357,4.818-18.765,4.29-26.596-1.35l-90.066-64.834
	c-7.932-5.713-18.498-6.172-26.896-1.176L721.625,244.765c-7.674,4.567-17.232,4.607-24.943,0.094L491.93,125.147
	c-7.732-4.52-17.32-4.471-25.006,0.136l-149.705,89.71"/>
<g>
	<circle fill="#1D76BB" cx="460.86" cy="250.756" r="7.582"/>
	<circle fill="#1D76BB" cx="152.648" cy="501.037" r="7.694"/>
	<circle fill="#1D76BB" cx="214.086" cy="369.448" r="7.694"/>
	<circle fill="#1D76BB" cx="94.717" cy="250.53" r="7.694"/>
	<circle fill="#1D76BB" cx="365.59" cy="352.815" r="7.694"/>
	<circle fill="#1D76BB" cx="210.693" cy="562.25" r="7.694"/>
	<circle fill="#1D76BB" cx="277.449" cy="192.146" r="7.694"/>
	<circle fill="#1D76BB" cx="254.254" cy="465.623" r="7.694"/>
	<circle fill="#1D76BB" cx="189.421" cy="397.283" r="7.694"/>
	<circle fill="#1D76BB" cx="437.892" cy="435.299" r="7.694"/>
	<circle fill="#1D76BB" cx="340.245" cy="325.207" r="7.693"/>
	<circle fill="#1D76BB" cx="387.541" cy="524.346" r="7.694"/>
</g>
<g>
	<path fill="none" stroke="#1D76BB" stroke-miterlimit="10" d="M462.671,262.863c-0.114-3.96-0.34-8.034-0.566-11.994
		c0-0.112-0.114-0.339-0.34-0.792c-3.507,0.113-7.128,0.34-10.635,0.453c-15.049,0.565-29.984-0.453-44.806-3.056
		c-20.48-3.621-40.054-9.73-59.175-17.877c-24.779-10.522-47.862-23.987-69.247-40.507c-0.226-0.226-0.453-0.338-0.678-0.452l0,0
		l0,0l0,0l0,0c-0.227,0.114-0.453,0.339-0.68,0.452c-21.385,16.406-44.465,29.872-69.245,40.507
		c-19.122,8.146-38.697,14.256-59.177,17.877c-14.822,2.603-29.757,3.621-44.806,3.056c-3.62-0.113-7.128-0.34-10.635-0.453
		c-0.227,0.453-0.339,0.565-0.339,0.792c-0.227,3.96-0.453,8.034-0.566,11.994c-0.905,28.399,0.339,56.687,4.639,84.859
		c2.15,13.578,7.241,40.394,7.241,40.394l2.942,12.106c2.829,9.278,5.431,18.558,8.373,27.835
		c4.866,15.388,11.315,30.21,18.67,44.467c9.39,18.329,20.592,35.414,33.831,51.256c14.935,17.764,32.134,33.151,51.482,45.938
		c16.518,10.861,34.283,19.348,52.839,26.136c1.696,0.68,3.734,1.585,5.431,1.585l0,0l0,0l0,0l0,0
		c1.697-0.113,3.734-1.019,5.431-1.585c18.556-6.788,36.32-15.274,52.839-26.136c19.348-12.786,36.546-28.174,51.481-45.938
		c13.239-15.728,24.44-32.927,33.832-51.256c7.355-14.369,13.691-29.079,18.669-44.467c2.942-9.277,5.657-18.557,8.374-27.835
		l2.941-12.106c0,0,5.092-26.928,7.241-40.394C462.331,319.55,463.576,291.263,462.671,262.863z"/>
	<polyline fill="none" stroke="#1D76BB" stroke-miterlimit="10" points="215.559,369.222 278.015,189.204 339.34,323.963 
		462.105,250.869 277.223,597.438 364.912,350.552 437.438,434.168 254.48,462.228 386.975,523.78 150.046,501.149 254.48,462.228 
		209.562,563.041 189.874,397.056 92.681,250.077 215.559,369.222 100.148,372.163 	"/>
	<path fill="none" stroke="#1D76BB" stroke-miterlimit="10" d="M339.34,323.963c-1.018,1.019-1.81,1.584-2.488,2.376
		c-13.465,13.69-27.042,27.382-40.507,41.072l-39.94,40.393c-1.246,1.246-1.924,1.246-3.056,0.114
		c-8.146-8.147-16.293-16.181-24.44-24.44c-4.525-4.639-8.824-9.391-13.35-14.256c-1.246,1.131-1.812,1.697-2.377,2.263
		c-7.468,7.468-14.822,14.935-22.29,22.29c-1.697,1.697-1.697,2.602,0,4.299c14.257,14.03,28.513,28.174,42.657,42.431
		c7.014,7.128,13.916,14.369,20.932,21.837c37.338-37.791,74.111-74.902,110.431-111.676
		C356.425,341.613,347.939,332.9,339.34,323.963z"/>
</g>
</svg>
