<?xml version="1.0" encoding="utf-8"?>
<!-- Generator: Adobe Illustrator 16.0.0, SVG Export Plug-In . SVG Version: 6.00 Build 0)  -->
<!DOCTYPE svg PUBLIC "-//W3C//DTD SVG 1.1//EN" "http://www.w3.org/Graphics/SVG/1.1/DTD/svg11.dtd">
<svg version="1.1" id="Layer_1" xmlns="http://www.w3.org/2000/svg" xmlns:xlink="http://www.w3.org/1999/xlink" x="0px" y="0px"
	 width="64px" height="64px" viewBox="0 0 64 64" enable-background="new 0 0 64 64" xml:space="preserve">
<g>
	<path fill="none" stroke="#1C75BC" stroke-width="0.4" stroke-miterlimit="10" d="M3.422,49.243h57.156
		c0.782,0,1.422,0.642,1.422,1.406l0,0c0,0.783-0.64,1.422-1.422,1.422H3.422C2.64,52.071,2,51.433,2,50.649l0,0
		C2,49.885,2.64,49.243,3.422,49.243L3.422,49.243z"/>
	
		<rect x="54.089" y="35.246" fill="none" stroke="#1C75BC" stroke-width="0.4" stroke-miterlimit="10" width="5.653" height="13.997"/>
	
		<rect x="35.12" y="21.319" fill="none" stroke="#1C75BC" stroke-width="0.4" stroke-miterlimit="10" width="5.653" height="27.924"/>
	
		<rect x="44.595" y="28.238" fill="none" stroke="#1C75BC" stroke-width="0.4" stroke-miterlimit="10" width="5.671" height="21.005"/>
	<g>
		<path fill="none" stroke="#1C75BC" stroke-width="0.4" stroke-miterlimit="10" d="M18.907,28.647
			c-1.44-0.801-2.969-1.405-4.498-2.046c-0.889-0.355-1.724-0.782-2.471-1.369c-1.458-1.175-1.191-3.077,0.534-3.824
			c0.479-0.214,0.995-0.285,1.511-0.32c1.992-0.106,3.894,0.267,5.689,1.121c0.889,0.444,1.191,0.303,1.493-0.642
			c0.32-0.978,0.587-1.991,0.89-2.987c0.195-0.658-0.054-1.103-0.676-1.387c-1.155-0.499-2.347-0.872-3.591-1.068
			c-1.635-0.249-1.635-0.267-1.635-1.886c-0.018-2.311-0.018-2.311-2.311-2.311c-0.337,0-0.676,0-1.013,0
			c-1.084,0.035-1.263,0.212-1.298,1.315c0,0.479,0,0.96,0,1.459c0,1.44-0.018,1.422-1.404,1.92
			c-3.342,1.228-5.405,3.505-5.618,7.15C4.311,27.012,6,29.181,8.649,30.781c1.635,0.979,3.431,1.548,5.173,2.313
			c0.676,0.301,1.316,0.639,1.885,1.119c1.653,1.37,1.351,3.665-0.623,4.519c-1.049,0.48-2.168,0.587-3.324,0.444
			c-1.76-0.231-3.466-0.693-5.049-1.512c-0.942-0.498-1.208-0.355-1.529,0.658c-0.285,0.871-0.516,1.743-0.764,2.632
			c-0.321,1.192-0.196,1.459,0.924,2.028c1.44,0.694,2.987,1.049,4.569,1.298c1.227,0.196,1.262,0.25,1.28,1.53
			c0,0.568,0,1.156,0.018,1.743c0,0.729,0.355,1.155,1.102,1.174c0.853,0,1.707,0,2.56-0.019c0.694-0.018,1.067-0.391,1.067-1.103
			c0-0.782,0.036-1.583,0-2.384c-0.035-0.8,0.302-1.209,1.084-1.422c1.795-0.48,3.307-1.441,4.48-2.864
			C24.755,36.972,23.511,31.19,18.907,28.647L18.907,28.647z"/>
		<polyline fill="none" stroke="#1C75BC" stroke-width="0.4" stroke-miterlimit="10" points="16.151,14.239 13.84,11.929 
			11.529,14.703 		"/>
		<polyline fill="none" stroke="#1C75BC" stroke-width="0.4" stroke-miterlimit="10" points="20.631,22.404 19.618,16.553 
			13.218,21.177 11.333,16.037 4.506,23.773 11.191,32.009 13.804,26.353 4.506,23.773 19.618,16.553 		"/>
		<polyline fill="none" stroke="#1C75BC" stroke-width="0.4" stroke-miterlimit="10" points="13.804,26.353 22.337,39.692 
			16.755,36.669 21.164,30.408 11.191,32.009 		"/>
		<polyline fill="none" stroke="#1C75BC" stroke-width="0.4" stroke-miterlimit="10" points="5.697,37.434 7.582,43.802 
			11.76,39.177 22.337,39.692 		"/>
		<polyline fill="none" stroke="#1C75BC" stroke-width="0.4" stroke-miterlimit="10" points="11.191,46.683 13.591,48.729 
			15.938,46.416 		"/>
		<line fill="none" stroke="#1C75BC" stroke-width="0.4" stroke-miterlimit="10" x1="16.186" y1="44.3" x2="11.76" y2="39.177"/>
	</g>
	<polyline fill="none" stroke="#1C75BC" stroke-width="0.4" stroke-miterlimit="10" points="25.626,13.511 31.298,31.369 
		25.626,49.243 	"/>
	<polyline fill="none" stroke="#1C75BC" stroke-width="0.4" stroke-miterlimit="10" points="35.12,21.319 40.773,35.281 
		35.12,49.243 	"/>
	<polyline fill="none" stroke="#1C75BC" stroke-width="0.4" stroke-miterlimit="10" points="50.267,28.238 44.595,38.732 
		50.267,49.243 	"/>
	<polyline fill="none" stroke="#1C75BC" stroke-width="0.4" stroke-miterlimit="10" points="54.089,35.246 59.742,42.236 
		54.089,49.243 	"/>
	<polygon fill="none" stroke="#1C75BC" stroke-width="0.4" stroke-miterlimit="10" points="3.422,52.071 3.422,49.243 
		32.009,52.071 60.578,49.243 60.578,52.071 32.009,49.243 	"/>
	
		<rect x="25.636" y="13.511" fill="none" stroke="#1C75BC" stroke-width="0.4" stroke-miterlimit="10" width="5.653" height="35.697"/>
</g>
</svg>
