<?xml version="1.0" encoding="utf-8"?>
<!-- Generator: Adobe Illustrator 16.0.0, SVG Export Plug-In . SVG Version: 6.00 Build 0)  -->
<!DOCTYPE svg PUBLIC "-//W3C//DTD SVG 1.1//EN" "http://www.w3.org/Graphics/SVG/1.1/DTD/svg11.dtd">
<svg version="1.1" id="Layer_1" xmlns="http://www.w3.org/2000/svg" xmlns:xlink="http://www.w3.org/1999/xlink" x="0px" y="0px"
	 width="1520px" height="792.455px" viewBox="0 0 1520 792.455" enable-background="new 0 0 1520 792.455" xml:space="preserve">
<path fill="none" stroke="#1B75BB" stroke-miterlimit="10" d="M103.698,476.046l-87.453,50.617
	c-16.402,9.505-16.301,33.227,0.184,42.589l197.754,112.343c7.506,4.265,16.697,4.272,24.211,0.024l228.743-129.363
	c7.619-4.309,16.959-4.232,24.51,0.195l100.614,93.13h345.457l315.193-211.435c15.707-9.199,16.285-31.694,1.082-41.693
	l-64.723-42.563c-15.156-9.962-14.643-32.351,0.945-41.616l115.303-68.511c15.355-9.124,16.137-31.067,1.473-41.262L1205.96,128.28
	c-7.801-5.42-18.033-5.857-26.268-1.112L1063.2,194.276c-8.357,4.818-18.766,4.29-26.596-1.35l-90.066-64.834
	c-7.932-5.713-18.498-6.172-26.896-1.176L721.625,244.765c-7.674,4.567-17.232,4.607-24.943,0.094L491.93,125.147
	c-7.732-4.52-17.32-4.471-25.006,0.136L343.85,199"/>
<g>
	<g>
		<path fill="none" stroke="#1D76BB" stroke-miterlimit="10" d="M351.272,445.574c-4.106,0-7.436-3.329-7.436-7.437V184.964H120.409
			v253.174c0,4.107-3.33,7.437-7.438,7.437H71.904l160.162,153.503l160.163-153.503H351.272L351.272,445.574z M232.066,341.352
			c23.087,0.112,42.289,17.87,44.287,40.957c1.886,23.086-13.985,43.731-36.85,47.727v15.539h-14.873v-15.539
			c-21.422-3.663-37.184-22.198-37.184-43.953h14.873c0,16.427,13.32,29.747,29.746,29.747c16.428,0,29.747-13.32,29.747-29.747
			s-13.319-29.746-29.747-29.746c-23.086-0.11-42.287-17.87-44.286-40.956c-1.886-23.087,13.985-43.73,36.851-47.727v-15.539h14.873
			v15.539c21.422,3.662,37.182,22.197,37.182,43.953h-14.872c0-16.427-13.319-29.746-29.747-29.746
			c-16.426,0-29.746,13.319-29.746,29.746S215.641,341.352,232.066,341.352z"/>
		<polyline fill="none" stroke="#1D76BB" stroke-miterlimit="10" points="120.409,438.138 188.003,305.835 120.409,184.964 
			224.631,252.003 343.837,184.964 120.297,276.755 232.066,599.077 224.631,445.574 139.722,510.728 324.635,510.505 
			261.924,311.606 343.837,438.138 276.131,392.409 343.837,184.964 		"/>
	</g>
	<g>
		<circle fill="#1D76BB" cx="120.075" cy="185.519" r="7.437"/>
		<circle fill="#1D76BB" cx="343.06" cy="185.519" r="7.437"/>
		<circle fill="#1D76BB" cx="227.184" cy="251.67" r="7.436"/>
		<circle fill="#1D76BB" cx="262.146" cy="311.495" r="7.437"/>
		<circle fill="#1D76BB" cx="342.615" cy="434.031" r="7.437"/>
		<circle fill="#1D76BB" cx="121.74" cy="434.031" r="7.437"/>
		<circle fill="#1D76BB" cx="227.184" cy="444.686" r="7.436"/>
		<circle fill="#1D76BB" cx="232.066" cy="598.966" r="7.437"/>
		<circle fill="#1D76BB" cx="139.722" cy="510.505" r="7.437"/>
		<circle fill="#1D76BB" cx="188.78" cy="306.611" r="7.437"/>
	</g>
</g>
</svg>
