<?xml version="1.0" encoding="utf-8"?>
<!-- Generator: Adobe Illustrator 22.1.0, SVG Export Plug-In . SVG Version: 6.00 Build 0)  -->
<svg version="1.1" id="Layer_1" xmlns="http://www.w3.org/2000/svg" xmlns:xlink="http://www.w3.org/1999/xlink" x="0px" y="0px"
	 viewBox="0 0 1520 792.5" style="enable-background:new 0 0 1520 792.5;" xml:space="preserve">
<style type="text/css">
	.st0{fill:none;stroke:#1B75BB;stroke-miterlimit:10;}
	.st1{fill:none;stroke:#1D76BB;stroke-miterlimit:10;}
	.st2{fill:#0C85C6;}
</style>
<path class="st0" d="M140,455.3L16.2,526.7c-16.4,9.5-16.3,33.2,0.2,42.6l197.8,112.3c7.5,4.3,16.7,4.3,24.2,0l228.7-129.4
	c7.6-4.3,17-4.2,24.5,0.2l100.6,93.1h345.5l315.2-211.4c15.7-9.2,16.3-31.7,1.1-41.7l-64.7-42.6c-15.2-10-14.6-32.4,0.9-41.6
	l115.3-68.5c15.4-9.1,16.1-31.1,1.5-41.3l-101-70.2c-7.8-5.4-18-5.9-26.3-1.1l-116.5,67.1c-8.4,4.8-18.8,4.3-26.6-1.4l-90.1-64.8
	c-7.9-5.7-18.5-6.2-26.9-1.2l-198,117.8c-7.7,4.6-17.2,4.6-24.9,0.1L491.9,125.1c-7.7-4.5-17.3-4.5-25,0.1L297,227.7"/>
<g>
	<g>
		<path class="st1" d="M10.6,391.6c0,34.8,26.5,63.1,59.3,63.1h323.1c40.9,0,74.1-35.3,74.1-78.8c0-43.6-33.2-78.8-74.1-78.8
			c-0.6,0-1.2,0-1.8,0c-12.4-40.3-48.1-69.4-90.1-69.4c-24.6,0-47.1,10-64,26.4c-9.3-4.8-19.8-7.5-30.9-7.5
			c-25.1,0-47.1,13.8-59.7,34.6c-5.4-2-11.3-3.1-17.3-3.1c-27.4,0-50.4,21.4-53.1,48.4c-2-0.2-4.1-0.3-6.2-0.3
			C37.2,326.1,10.6,356.8,10.6,391.6"/>
		<polyline class="st1" points="76.1,326.5 254.4,454.8 15.9,416 237.2,254.1 395.6,455.3 146.6,281.2 391.3,297.1 254.4,454.8 		
			"/>
	</g>
	<circle class="st2" cx="253.6" cy="454.2" r="5.7"/>
	<circle class="st2" cx="16.1" cy="416" r="5.3"/>
	<circle class="st2" cx="237.3" cy="254.1" r="4.6"/>
	<circle class="st2" cx="395" cy="454.2" r="8.4"/>
	<circle class="st2" cx="174" cy="301.1" r="4.1"/>
	<circle class="st2" cx="75.5" cy="325.6" r="5.5"/>
	<circle class="st2" cx="391.9" cy="297" r="2.6"/>
</g>
</svg>
