<?xml version="1.0" encoding="utf-8"?>
<!-- Generator: Adobe Illustrator 16.0.0, SVG Export Plug-In . SVG Version: 6.00 Build 0)  -->
<!DOCTYPE svg PUBLIC "-//W3C//DTD SVG 1.1//EN" "http://www.w3.org/Graphics/SVG/1.1/DTD/svg11.dtd">
<svg version="1.1" id="Layer_1" xmlns="http://www.w3.org/2000/svg" xmlns:xlink="http://www.w3.org/1999/xlink" x="0px" y="0px"
	 width="64px" height="64px" viewBox="0 0 64 64" enable-background="new 0 0 64 64" xml:space="preserve">
<g>
	<path fill="none" stroke="#1C75BC" stroke-width="0.4" stroke-miterlimit="10" d="M14.208,15.856H8.911
		c-0.54,0-0.981,0.443-0.981,0.981c0,0.517,0.441,0.958,0.981,0.958h5.297c0.54,0,0.981-0.441,0.981-0.958
		C15.189,16.3,14.748,15.856,14.208,15.856L14.208,15.856z"/>
	<path fill="none" stroke="#1C75BC" stroke-width="0.4" stroke-miterlimit="10" d="M26.079,17.796h5.322
		c0.539,0,0.956-0.441,0.956-0.958c0-0.538-0.417-0.981-0.956-0.981h-5.322c-0.54,0-0.956,0.443-0.956,0.981
		C25.123,17.354,25.539,17.796,26.079,17.796L26.079,17.796z"/>
	<path fill="none" stroke="#1C75BC" stroke-width="0.4" stroke-miterlimit="10" d="M22.816,15.856h-5.321
		c-0.54,0-0.98,0.443-0.98,0.981c0,0.517,0.44,0.958,0.98,0.958h5.321c0.54,0,0.957-0.441,0.957-0.958
		C23.773,16.3,23.356,15.856,22.816,15.856L22.816,15.856z"/>
	<path fill="none" stroke="#1C75BC" stroke-width="0.4" stroke-miterlimit="10" d="M14.208,23.265H8.911
		c-0.54,0-0.981,0.44-0.981,0.98s0.441,0.958,0.981,0.958h5.297c0.54,0,0.981-0.418,0.981-0.958S14.748,23.265,14.208,23.265
		L14.208,23.265z"/>
	<path fill="none" stroke="#1C75BC" stroke-width="0.4" stroke-miterlimit="10" d="M26.079,25.203h5.322
		c0.539,0,0.956-0.418,0.956-0.958s-0.417-0.98-0.956-0.98h-5.322c-0.54,0-0.956,0.44-0.956,0.98S25.539,25.203,26.079,25.203
		L26.079,25.203z"/>
	<path fill="none" stroke="#1C75BC" stroke-width="0.4" stroke-miterlimit="10" d="M22.816,23.265h-5.321
		c-0.54,0-0.98,0.44-0.98,0.98s0.44,0.958,0.98,0.958h5.321c0.54,0,0.957-0.418,0.957-0.958S23.356,23.265,22.816,23.265
		L22.816,23.265z"/>
	<path fill="none" stroke="#1C75BC" stroke-width="0.4" stroke-miterlimit="10" d="M14.208,30.672H8.911
		c-0.54,0-0.981,0.44-0.981,0.98c0,0.541,0.441,0.958,0.981,0.958h5.297c0.54,0,0.981-0.417,0.981-0.958
		C15.189,31.112,14.748,30.672,14.208,30.672L14.208,30.672z"/>
	<path fill="none" stroke="#1C75BC" stroke-width="0.4" stroke-miterlimit="10" d="M26.079,32.61h5.322
		c0.539,0,0.956-0.417,0.956-0.958c0-0.54-0.417-0.98-0.956-0.98h-5.322c-0.54,0-0.956,0.44-0.956,0.98
		C25.123,32.193,25.539,32.61,26.079,32.61L26.079,32.61z"/>
	<path fill="none" stroke="#1C75BC" stroke-width="0.4" stroke-miterlimit="10" d="M22.816,30.672h-5.321
		c-0.54,0-0.98,0.44-0.98,0.98c0,0.541,0.44,0.958,0.98,0.958h5.321c0.54,0,0.957-0.417,0.957-0.958
		C23.773,31.112,23.356,30.672,22.816,30.672L22.816,30.672z"/>
	<path fill="none" stroke="#1C75BC" stroke-width="0.4" stroke-miterlimit="10" d="M14.208,38.079H8.911
		c-0.54,0-0.981,0.44-0.981,0.981c0,0.54,0.441,0.98,0.981,0.98h5.297c0.54,0,0.981-0.44,0.981-0.98
		C15.189,38.52,14.748,38.079,14.208,38.079L14.208,38.079z"/>
	<path fill="none" stroke="#1C75BC" stroke-width="0.4" stroke-miterlimit="10" d="M22.816,38.079h-5.321
		c-0.54,0-0.98,0.44-0.98,0.981c0,0.54,0.44,0.98,0.98,0.98h5.321c0.54,0,0.957-0.44,0.957-0.98
		C23.773,38.52,23.356,38.079,22.816,38.079L22.816,38.079z"/>
	<path fill="none" stroke="#1C75BC" stroke-width="0.4" stroke-miterlimit="10" d="M33.878,57.533h-5.665V44.308
		c0-0.538-0.441-0.98-0.981-1.004H13.718c-0.245,0-0.49,0.123-0.687,0.294c-0.172,0.195-0.271,0.441-0.246,0.71v13.226h-8.02V10.88
		H36.82v21.043"/>
	<path fill="none" stroke="#1C75BC" stroke-width="0.4" stroke-miterlimit="10" d="M36.82,31.923
		c-2.501,1.472-4.586,3.604-5.959,6.156h-4.782c-0.54,0-0.956,0.44-0.956,0.981c0,0.54,0.416,0.98,0.956,0.98h3.874
		c-2.378,6.083-0.833,13.002,3.925,17.492"/>
	
		<rect x="14.723" y="45.239" fill="none" stroke="#1C75BC" stroke-width="0.4" stroke-miterlimit="10" width="11.553" height="12.294"/>
	
		<rect x="9.377" y="3.963" fill="none" stroke="#1C75BC" stroke-width="0.4" stroke-miterlimit="10" width="22.833" height="4.979"/>
	<path fill="none" stroke="#1C75BC" stroke-width="0.4" stroke-miterlimit="10" d="M36.354,59.473
		c2.6,1.644,5.593,2.527,8.658,2.527c8.902,0,16.162-7.263,16.162-16.172c0-8.902-7.234-16.136-16.139-16.136
		c-2.156,0-4.29,0.416-6.253,1.249"/>
	<path fill="none" stroke="#1C75BC" stroke-width="0.4" stroke-miterlimit="10" d="M38.783,30.941V9.849
		c0-0.539-0.49-0.907-1.03-0.907h-3.605V3.007c0-0.54-0.49-1.007-1.03-1.007H8.396c-0.54,0.025-0.956,0.467-0.956,1.007v5.935H3.761
		C3.515,8.916,3.27,9.015,3.099,9.186C2.902,9.358,2.804,9.604,2.828,9.849v48.666c-0.024,0.246,0.074,0.491,0.245,0.662
		c0.196,0.196,0.418,0.296,0.688,0.296h32.594"/>
	<path fill="none" stroke="#1C75BC" stroke-width="0.4" stroke-miterlimit="10" d="M54.97,43.843c0,3.214-0.98,6.305-2.819,8.955
		c-1.767,2.576-4.244,4.539-7.162,5.693c-2.894-1.154-5.371-3.117-7.161-5.693c-1.814-2.65-2.796-5.741-2.796-8.955v-3.507
		c2.011-0.319,3.63-1.913,3.948-3.925h12.042c0.318,2.012,1.912,3.605,3.948,3.925V43.843L54.97,43.843z M55.706,38.938
		c-1.791,0-3.262-1.472-3.262-3.263v-0.736H37.557v0.736c0,1.791-1.472,3.263-3.262,3.263h-0.736v4.905
		c0,3.507,1.055,6.894,3.065,9.813c2.012,2.896,4.808,5.079,8.119,6.308l0.245,0.097l0.27-0.097
		c3.286-1.229,6.107-3.412,8.119-6.308c2.011-2.92,3.064-6.307,3.064-9.813v-4.905H55.706z"/>
	<polyline fill="none" stroke="#1C75BC" stroke-width="0.4" stroke-miterlimit="10" points="34.147,8.941 32.21,3.963 20.757,2 
		9.377,3.963 7.439,8.941 	"/>
	<polyline fill="none" stroke="#1C75BC" stroke-width="0.4" stroke-miterlimit="10" points="20.806,8.941 20.806,10.88 32.21,8.941 
			"/>
	<line fill="none" stroke="#1C75BC" stroke-width="0.4" stroke-miterlimit="10" x1="9.377" y1="8.941" x2="20.806" y2="10.88"/>
	<polyline fill="none" stroke="#1C75BC" stroke-width="0.4" stroke-miterlimit="10" points="8.396,2 20.806,3.963 33.117,2 	"/>
	<polyline fill="none" stroke="#1C75BC" stroke-width="0.4" stroke-miterlimit="10" points="34.147,8.941 38.783,9.849 36.82,10.88 
		38.783,20.396 36.82,31.923 	"/>
	<polyline fill="none" stroke="#1C75BC" stroke-width="0.4" stroke-miterlimit="10" points="38.783,30.941 36.82,20.444 
		38.783,9.849 	"/>
	<polyline fill="none" stroke="#1C75BC" stroke-width="0.4" stroke-miterlimit="10" points="4.766,57.533 2.828,34.18 4.766,10.88 
		3.761,8.941 	"/>
	<polyline fill="none" stroke="#1C75BC" stroke-width="0.4" stroke-miterlimit="10" points="7.439,8.941 2.828,10.562 4.766,34.205 
		2.828,58.515 	"/>
	<polyline fill="none" stroke="#1C75BC" stroke-width="0.4" stroke-miterlimit="10" points="36.354,59.473 28.213,57.533 
		20.879,59.473 12.785,57.533 3.761,59.473 	"/>
	<polyline fill="none" stroke="#1C75BC" stroke-width="0.4" stroke-miterlimit="10" points="14.723,57.533 12.785,50.909 
		14.723,45.239 13.718,43.304 20.486,45.239 27.231,43.304 26.275,45.239 28.213,50.909 26.275,57.533 	"/>
	<polyline fill="none" stroke="#1C75BC" stroke-width="0.4" stroke-miterlimit="10" points="8.911,17.796 11.56,15.856 
		14.208,17.796 	"/>
	<polyline fill="none" stroke="#1C75BC" stroke-width="0.4" stroke-miterlimit="10" points="17.495,17.796 20.145,15.856 
		22.816,17.796 	"/>
	<polyline fill="none" stroke="#1C75BC" stroke-width="0.4" stroke-miterlimit="10" points="26.079,17.796 28.753,15.856 
		31.401,17.796 	"/>
	<polyline fill="none" stroke="#1C75BC" stroke-width="0.4" stroke-miterlimit="10" points="8.911,25.203 11.56,23.265 
		14.208,25.203 	"/>
	<polyline fill="none" stroke="#1C75BC" stroke-width="0.4" stroke-miterlimit="10" points="17.495,25.203 20.145,23.265 
		22.816,25.203 	"/>
	<polyline fill="none" stroke="#1C75BC" stroke-width="0.4" stroke-miterlimit="10" points="26.079,25.203 28.753,23.265 
		31.401,25.203 	"/>
	<polyline fill="none" stroke="#1C75BC" stroke-width="0.4" stroke-miterlimit="10" points="8.911,32.61 11.56,30.672 14.208,32.61 
			"/>
	<polyline fill="none" stroke="#1C75BC" stroke-width="0.4" stroke-miterlimit="10" points="17.495,32.61 20.145,30.672 
		22.816,32.61 	"/>
	<polyline fill="none" stroke="#1C75BC" stroke-width="0.4" stroke-miterlimit="10" points="26.079,32.61 28.753,30.672 
		31.401,32.61 	"/>
	<polyline fill="none" stroke="#1C75BC" stroke-width="0.4" stroke-miterlimit="10" points="8.911,40.041 11.56,38.079 
		14.208,40.041 	"/>
	<polyline fill="none" stroke="#1C75BC" stroke-width="0.4" stroke-miterlimit="10" points="17.495,40.041 20.145,38.079 
		22.816,40.041 	"/>
	<line fill="none" stroke="#1C75BC" stroke-width="0.4" stroke-miterlimit="10" x1="26.079" y1="40.041" x2="28.753" y2="38.079"/>
	<line fill="none" stroke="#1C75BC" stroke-width="0.4" stroke-miterlimit="10" x1="28.482" y1="38.079" x2="29.953" y2="40.041"/>
	<polyline fill="none" stroke="#1C75BC" stroke-width="0.4" stroke-miterlimit="10" points="45.258,59.964 46.288,57.902 
		51.61,55.792 51.047,54.221 55.656,48.97 54.603,47.253 56.441,38.938 54.97,40.336 53.4,37.979 51.021,36.411 52.444,34.938 	"/>
	<polyline fill="none" stroke="#1C75BC" stroke-width="0.4" stroke-miterlimit="10" points="44.743,59.964 43.713,57.902 
		38.391,55.792 38.954,54.221 34.344,48.97 35.398,47.253 33.559,38.938 35.031,40.336 36.601,37.979 38.979,36.411 37.557,34.938 	
		"/>
	<polyline fill="none" stroke="#1C75BC" stroke-width="0.4" stroke-miterlimit="10" points="37.557,34.938 44.988,36.411 
		52.444,34.938 	"/>
</g>
</svg>
