<?xml version="1.0" encoding="utf-8"?>
<!-- Generator: Adobe Illustrator 16.0.0, SVG Export Plug-In . SVG Version: 6.00 Build 0)  -->
<!DOCTYPE svg PUBLIC "-//W3C//DTD SVG 1.1//EN" "http://www.w3.org/Graphics/SVG/1.1/DTD/svg11.dtd">
<svg version="1.1" id="Layer_1" xmlns="http://www.w3.org/2000/svg" xmlns:xlink="http://www.w3.org/1999/xlink" x="0px" y="0px"
	 width="1520px" height="792.455px" viewBox="0 0 1520 792.455" enable-background="new 0 0 1520 792.455" xml:space="preserve">
<path fill="none" stroke="#1B75BB" stroke-miterlimit="10" d="M89.021,484.478l-72.776,42.186
	c-16.402,9.505-16.301,33.227,0.184,42.589l197.754,112.343c7.506,4.265,16.697,4.272,24.211,0.024l228.743-129.363
	c7.619-4.309,16.959-4.232,24.51,0.195l100.614,93.13h345.457l315.193-211.435c15.707-9.199,16.285-31.694,1.082-41.693
	l-64.723-42.563c-15.156-9.962-14.643-32.351,0.945-41.616l115.303-68.511c15.355-9.124,16.137-31.067,1.473-41.262L1205.96,128.28
	c-7.801-5.42-18.033-5.857-26.268-1.112L1063.2,194.276c-8.357,4.818-18.766,4.29-26.596-1.35l-90.066-64.834
	c-7.932-5.713-18.498-6.172-26.896-1.176L721.625,244.765c-7.674,4.567-17.232,4.607-24.943,0.094L491.93,125.147
	c-7.732-4.52-17.32-4.471-25.006,0.136l-68.447,40.997"/>
<g>
	<rect x="89.021" y="375.741" fill="none" stroke="#1D76BB" stroke-miterlimit="10" width="164.135" height="164.133"/>
	<rect x="294.904" y="375.741" fill="none" stroke="#1D76BB" stroke-miterlimit="10" width="164.134" height="164.133"/>
	<polygon fill="none" stroke="#1D76BB" stroke-miterlimit="10" points="216.555,449.515 177.666,449.515 177.666,410.627 
		165.18,410.627 165.18,449.515 126.291,449.515 126.291,462.097 165.18,462.097 165.18,500.985 177.666,500.985 177.666,462.097 
		216.555,462.097 	"/>
	<g>
		<rect x="330.553" y="429.117" fill="none" stroke="#1D76BB" stroke-miterlimit="10" width="92.837" height="12.486"/>
		<rect x="330.553" y="473.916" fill="none" stroke="#1D76BB" stroke-miterlimit="10" width="92.837" height="12.486"/>
	</g>
	<polyline fill="none" stroke="#1D76BB" stroke-miterlimit="10" points="398.131,313.118 398.131,329.227 371.252,329.227 
		371.252,306.637 355.43,299.965 340.561,314.738 320.64,294.722 335.795,279.567 327.025,262.695 305.961,262.695 305.961,235.626 
		328.837,235.626 336.557,217.992 321.116,202.552 339.607,184.061 340.465,183.202 355.43,198.166 372.014,191.876 
		372.014,169.572 400.133,169.572 400.133,183.202 372.014,191.876 400.133,169.572 360.576,235.436 340.465,183.202 
		336.557,217.992 355.43,198.166 327.025,262.695 306.247,235.722 370.299,273.849 320.64,294.722 355.43,299.965 357.336,255.833 
		327.025,262.695 398.131,329.227 371.252,306.637 384.787,277.852 	"/>
	<polyline fill="none" stroke="#1D76BB" stroke-miterlimit="10" points="413.096,170.335 442.643,170.335 442.643,189.685 
		434.352,189.685 434.352,261.742 451.793,261.742 451.793,277.852 441.596,277.852 441.596,318.552 434.352,318.552 
		434.352,329.798 419.482,329.798 419.482,318.552 412.715,318.552 412.715,278.614 402.611,278.614 402.611,261.742 
		420.436,261.742 420.436,191.209 412.333,191.209 412.333,170.335 442.643,170.335 	"/>
	<circle fill="none" stroke="#1D76BB" stroke-miterlimit="10" cx="386.026" cy="249.638" r="11.247"/>
	<path fill="none" stroke="#1D76BB" stroke-miterlimit="10" d="M386.217,277.852c-0.477,0-0.953,0-1.43,0
		c-15.632,0-28.214-12.677-28.214-28.214c0-15.536,12.677-28.213,28.214-28.213c7.529,0,14.488,2.954,19.539,7.815"/>
	<rect x="89.021" y="168.048" fill="none" stroke="#1D76BB" stroke-miterlimit="10" width="164.135" height="164.133"/>
	<rect x="126.291" y="245.729" fill="none" stroke="#1C75BB" stroke-miterlimit="10" width="90.264" height="12.486"/>
	<polyline fill="none" stroke="#1C75BC" stroke-miterlimit="10" points="89.021,168.048 126.291,245.729 253.156,168.048 
		216.555,245.729 158.604,168.048 89.021,262.887 161.463,332.181 126.291,258.216 89.021,332.181 216.555,258.216 253.156,332.181 
		126.291,258.216 	"/>
	<polyline fill="none" stroke="#1D76BB" stroke-miterlimit="10" points="89.021,375.741 165.18,449.515 150.311,375.741 
		89.021,417.87 126.291,462.097 89.021,539.874 165.18,462.097 88.831,479.921 253.156,539.874 216.555,462.097 138.777,539.874 
		253.252,465.624 177.666,410.627 253.156,375.741 177.666,449.515 253.156,430.643 150.311,375.741 177.666,410.627 	"/>
	<polyline fill="none" stroke="#1D76BB" stroke-miterlimit="10" points="459.038,375.741 330.553,429.117 294.904,375.741 
		459.133,443.891 368.297,375.741 294.904,433.406 366.486,539.97 459.038,497.554 294.904,539.874 459.038,471.914 
		330.553,441.604 330.553,473.916 423.39,441.604 459.038,471.914 	"/>
	<polyline fill="none" stroke="#1D76BB" stroke-miterlimit="10" points="412.333,170.335 434.352,189.685 441.119,171.288 
		420.436,191.209 434.352,261.742 420.436,261.742 434.352,189.685 	"/>
	<polyline fill="none" stroke="#1D76BB" stroke-miterlimit="10" points="402.706,261.742 441.596,296.818 412.715,318.552 
		451.793,261.742 	"/>
	<g>
		<g>
			<circle fill="#1D76BB" cx="458.848" cy="443.415" r="4.861"/>
			<circle fill="#1D76BB" cx="295.285" cy="376.789" r="4.861"/>
			<circle fill="#1D76BB" cx="332.363" cy="429.309" r="4.861"/>
			<circle fill="#1D76BB" cx="332.363" cy="473.535" r="4.862"/>
			<circle fill="#1D76BB" cx="386.121" cy="454.281" r="4.861"/>
			<circle fill="#1D76BB" cx="458.942" cy="498.412" r="4.861"/>
			<circle fill="#1D76BB" cx="296.238" cy="540.064" r="4.861"/>
			<circle fill="#1D76BB" cx="368.106" cy="374.883" r="4.861"/>
		</g>
		<g>
			<circle fill="#1D76BB" cx="252.68" cy="169.382" r="4.861"/>
			<circle fill="#1D76BB" cx="126.195" cy="258.979" r="4.861"/>
			<circle fill="#1D76BB" cx="215.888" cy="245.158" r="4.861"/>
			<circle fill="#1D76BB" cx="251.631" cy="331.037" r="4.861"/>
			<circle fill="#1D76BB" cx="89.975" cy="329.798" r="4.861"/>
			<circle fill="#1D76BB" cx="160.986" cy="330.466" r="4.861"/>
			<circle fill="#1D76BB" cx="89.975" cy="169.096" r="4.861"/>
		</g>
		<g>
			<circle fill="#1D76BB" cx="399.847" cy="169.382" r="4.003"/>
			<circle fill="#1D76BB" cx="340.37" cy="184.442" r="4.003"/>
			<circle fill="#1D76BB" cx="306.438" cy="236.675" r="4.003"/>
			<circle fill="#1D76BB" cx="321.783" cy="294.818" r="4.003"/>
			<circle fill="#1D76BB" cx="396.893" cy="328.273" r="4.002"/>
			<circle fill="#1D76BB" cx="413.191" cy="317.408" r="4.003"/>
			<circle fill="#1D76BB" cx="441.785" cy="171.383" r="4.003"/>
			<circle fill="#1D76BB" cx="420.34" cy="191.59" r="4.003"/>
			<circle fill="#1D76BB" cx="440.165" cy="297.201" r="4.003"/>
		</g>
		<g>
			<circle fill="#1D76BB" cx="89.498" cy="538.444" r="4.861"/>
			<circle fill="#1D76BB" cx="253.918" cy="538.444" r="4.861"/>
			<circle fill="#1D76BB" cx="177.094" cy="500.509" r="4.861"/>
			<circle fill="#1D76BB" cx="126.672" cy="461.906" r="4.861"/>
			<circle fill="#1D76BB" cx="179.096" cy="411.865" r="4.861"/>
			<circle fill="#1D76BB" cx="215.602" cy="462.764" r="4.861"/>
			<circle fill="#1D76BB" cx="252.775" cy="429.022" r="4.861"/>
			<circle fill="#1D76BB" cx="252.775" cy="375.931" r="4.861"/>
			<circle fill="#1D76BB" cx="150.215" cy="375.264" r="4.861"/>
			<circle fill="#1D76BB" cx="164.131" cy="448.657" r="4.861"/>
		</g>
	</g>
</g>
<path fill="none" stroke="#1B75BB" stroke-miterlimit="10" d="M253.157,299.912l39.664,25.221
	c15.542,9.883,15.071,32.723-0.862,41.959l-38.803,22.483"/>
<line fill="none" stroke="#1B75BB" stroke-miterlimit="10" x1="327.524" y1="208.96" x2="253.156" y2="253.505"/>
</svg>
