<?xml version="1.0" encoding="utf-8"?>
<!-- Generator: Adobe Illustrator 16.0.0, SVG Export Plug-In . SVG Version: 6.00 Build 0)  -->
<!DOCTYPE svg PUBLIC "-//W3C//DTD SVG 1.1//EN" "http://www.w3.org/Graphics/SVG/1.1/DTD/svg11.dtd">
<svg version="1.1" id="Layer_1" xmlns="http://www.w3.org/2000/svg" xmlns:xlink="http://www.w3.org/1999/xlink" x="0px" y="0px"
	 width="1520px" height="792.455px" viewBox="0 0 1520 792.455" enable-background="new 0 0 1520 792.455" xml:space="preserve">
<path fill="none" stroke="#1B75BB" stroke-miterlimit="10" d="M123.006,464.827L16.245,526.663
	c-16.402,9.505-16.301,33.227,0.184,42.589l197.754,112.343c7.506,4.265,16.697,4.272,24.211,0.024l228.743-129.363
	c7.619-4.309,16.959-4.232,24.51,0.195l100.614,93.13h345.457l315.193-211.435c15.707-9.199,16.285-31.694,1.082-41.693
	l-64.723-42.563c-15.156-9.962-14.643-32.351,0.945-41.616l115.303-68.511c15.355-9.124,16.137-31.067,1.473-41.262L1205.96,128.28
	c-7.801-5.42-18.033-5.857-26.268-1.112L1063.2,194.276c-8.357,4.818-18.766,4.29-26.596-1.35l-90.066-64.834
	c-7.932-5.713-18.498-6.172-26.896-1.176L721.625,244.765c-7.674,4.567-17.232,4.607-24.943,0.094L491.93,125.147
	c-7.732-4.52-17.32-4.471-25.006,0.136L304.59,222.638"/>
<g>
	<g>
		<g>
			<path fill="none" stroke="#1D76BB" stroke-miterlimit="10" d="M408.186,451.694c-3.1,11.199-7.6,22.099-13.299,32.299
				l37.898,37.898l-58.098,58.099l-37.899-37.999c-10.199,5.699-20.999,10.199-32.299,13.3v53.698h-82.097v-53.599
				c-11.2-3.1-22.1-7.6-32.299-13.3l-37.899,37.899l-58.098-58.099l37.898-37.898c-5.699-10.2-10.199-20.999-13.3-32.299H65.197
				v-82.098h53.599c3.1-11.199,7.6-22.099,13.3-32.299l-37.899-37.898l58.099-58.099l37.898,37.898
				c10.2-5.699,20.999-10.199,32.299-13.299v-53.598h82.098V266c11.199,3.1,22.099,7.6,32.299,13.3l37.898-37.899l58.098,58.099
				l-37.898,37.899c5.7,10.199,10.2,20.998,13.3,32.299h53.598v82.097h-53.698V451.694z"/>
		</g>
		<path fill="none" stroke="#1D76BB" stroke-miterlimit="10" d="M319.489,434.694c-1.101-3.6-2.4-6.8-3.9-9.399
			c-1.5-2.7-3.7-5.3-6.5-7.8c-2.799-2.6-5.399-4.6-7.699-6.2c-2.3-1.6-5.399-3.3-9.3-5.299c-4-1.9-7.1-3.4-9.399-4.301
			c-2.3-0.899-5.6-2.199-10-3.899c-3.899-1.5-6.699-2.601-8.699-3.399c-1.9-0.801-4.4-1.9-7.5-3.301
			c-3.1-1.399-5.399-2.699-6.899-3.799c-1.5-1.101-3.2-2.5-4.9-4.101c-1.699-1.6-2.899-3.3-3.6-5.1s-1-3.8-1-5.899
			c0-5.6,2.5-10.2,7.399-13.7c4.9-3.5,11.3-5.3,19.1-5.3c3.5,0,7,0.5,10.6,1.4c3.6,0.899,6.6,2,9.2,3.199c2.6,1.2,4.999,2.5,7.199,4
			c2.3,1.4,3.9,2.5,4.8,3.301c0.9,0.699,1.5,1.199,1.8,1.5c1.101,0.799,2.2,1.1,3.3,0.899c1.2-0.101,2.2-0.7,2.801-2l9.999-17.999
			c1-1.601,0.8-3.2-0.6-4.7c-0.5-0.5-1.101-1.101-1.9-1.7c-0.7-0.699-2.3-1.8-4.8-3.6c-2.5-1.7-5.1-3.3-7.8-4.6
			c-2.8-1.4-6.3-2.7-10.699-4.1c-4.4-1.4-9-2.301-13.6-2.801v-21.999c0-1.2-0.4-2.101-1.1-2.8c-0.7-0.7-1.7-1.1-2.801-1.1h-16.699
			c-1.1,0-2,0.399-2.8,1.199c-0.8,0.801-1.2,1.7-1.2,2.801v22.199c-12.899,2.5-23.398,7.999-31.499,16.499
			c-8.1,8.6-12.1,18.499-12.1,29.899c0,3.399,0.4,6.6,1.101,9.6s1.6,5.799,2.6,8.199s2.5,4.8,4.4,7.2
			c1.899,2.3,3.699,4.399,5.399,5.999c1.7,1.7,3.899,3.4,6.6,5.2s5,3.3,7,4.399c1.899,1.101,4.5,2.4,7.699,3.801
			c3.2,1.399,5.7,2.499,7.601,3.3c1.899,0.699,4.399,1.8,7.6,3.1c4.399,1.7,7.699,3.1,9.899,4c2.1,0.899,4.899,2.3,8.1,4
			c3.3,1.699,5.7,3.199,7.2,4.6c1.5,1.399,2.899,3.1,4.1,5.2c1.2,2.1,1.899,4.199,1.899,6.499c0,6.5-2.499,11.5-7.6,15.1
			c-5.1,3.5-10.899,5.3-17.599,5.3c-3,0-6.101-0.3-9.101-1c-10.699-2.1-20.699-7.3-29.999-15.399l-0.3-0.3c-0.7-0.9-1.699-1.3-3-1.1
			c-1.3,0.199-2.3,0.699-2.8,1.5l-12.699,16.699c-1.2,1.6-1.1,3.3,0.3,5.1c0.4,0.5,1.1,1.2,2.2,2.2c1,1,2.899,2.5,5.699,4.6
			c2.801,2.1,5.8,4.1,9.101,5.899c3.3,1.801,7.499,3.7,12.499,5.5c5.1,1.8,10.3,3.101,15.699,3.8v21.6c0,1.1,0.4,2,1.2,2.8
			s1.7,1.2,2.8,1.2h16.699c1.2,0,2.101-0.4,2.801-1.101c0.699-0.699,1.1-1.699,1.1-2.8v-21.599c13.1-2.101,23.699-7.8,31.898-16.899
			c8.2-9.1,12.3-19.899,12.3-32.499C321.089,442.194,320.589,438.395,319.489,434.694L319.489,434.694z"/>
		<g>
			<rect x="99.396" y="391.396" fill="none" stroke="#1D76BB" stroke-miterlimit="10" width="34.898" height="34.898"/>
			<g>
				<g>
					<polyline fill="none" stroke="#1D76BB" stroke-miterlimit="10" points="134.295,404.496 207.193,404.496 207.193,413.896 
						134.295,413.896 					"/>
				</g>
				<g>
					<polyline fill="none" stroke="#1D76BB" stroke-miterlimit="10" points="99.396,403.996 71.997,403.996 71.997,413.396 
						99.396,413.396 					"/>
				</g>
			</g>
		</g>
		<g>
			<rect x="342.657" y="416.489" fill="none" stroke="#1D76BB" stroke-miterlimit="10" width="34.898" height="34.899"/>
			<rect x="356.188" y="344.897" fill="none" stroke="#1D76BB" stroke-miterlimit="10" width="7.6" height="71.598"/>
			<rect x="356.188" y="451.395" fill="none" stroke="#1D76BB" stroke-miterlimit="10" width="7.6" height="31.299"/>
		</g>
		<polyline fill="none" stroke="#1D76BB" stroke-miterlimit="10" points="65.197,451.694 71.997,403.996 195.493,325.799 		"/>
		<polyline fill="none" stroke="#1D76BB" stroke-miterlimit="10" points="265.291,426.295 134.396,426.395 65.197,451.694 		"/>
		<polyline fill="none" stroke="#1D76BB" stroke-miterlimit="10" points="207.193,413.896 132.096,483.993 265.291,426.295 		"/>
		<polyline fill="none" stroke="#1D76BB" stroke-miterlimit="10" points="94.297,521.892 190.193,541.991 207.193,413.896 		"/>
		<polyline fill="none" stroke="#1D76BB" stroke-miterlimit="10" points="304.489,608.989 222.492,555.391 252.291,495.692 
			94.297,521.892 		"/>
		<polyline fill="none" stroke="#1D76BB" stroke-miterlimit="10" points="461.784,369.697 377.587,451.395 374.688,579.89 
			394.887,483.993 276.891,495.692 304.489,608.989 		"/>
		<polyline fill="none" stroke="#1D76BB" stroke-miterlimit="10" points="432.686,299.499 336.788,279.3 360.188,344.598 
			394.887,337.398 363.787,416.495 461.784,369.697 		"/>
		<polyline fill="none" stroke="#1D76BB" stroke-miterlimit="10" points="304.489,212.402 222.492,266 274.791,300.499 
			432.686,299.499 		"/>
		<polyline fill="none" stroke="#1D76BB" stroke-miterlimit="10" points="252.291,326.198 195.493,325.799 304.489,212.402 		"/>
		<polyline fill="none" stroke="#1D76BB" stroke-miterlimit="10" points="132.096,337.398 222.492,266 252.291,326.198 		"/>
		<polyline fill="none" stroke="#1D76BB" stroke-miterlimit="10" points="152.295,241.4 195.493,325.799 132.096,337.398 		"/>
		<line fill="none" stroke="#1D76BB" stroke-miterlimit="10" x1="132.096" y1="337.398" x2="152.295" y2="241.4"/>
	</g>
	<g>
		<circle fill="#1D76BB" cx="365.287" cy="413.695" r="5.7"/>
		<circle fill="#1D76BB" cx="431.585" cy="297.999" r="5.8"/>
		<circle fill="#1D76BB" cx="224.593" cy="266.4" r="5.8"/>
		<circle fill="#1D76BB" cx="195.394" cy="326.099" r="5.8"/>
		<circle fill="#1D76BB" cx="72.697" cy="404.496" r="5.799"/>
		<circle fill="#1D76BB" cx="96.196" cy="522.092" r="5.8"/>
		<circle fill="#1D76BB" cx="264.591" cy="427.095" r="5.8"/>
		<circle fill="#1D76BB" cx="251.592" cy="496.492" r="5.8"/>
		<circle fill="#1D76BB" cx="395.486" cy="484.393" r="5.8"/>
		<circle fill="#1D76BB" cx="304.09" cy="606.589" r="5.8"/>
		<circle fill="#1D76BB" cx="461.185" cy="370.397" r="5.799"/>
	</g>
</g>
</svg>
