<?xml version="1.0" encoding="utf-8"?>
<!-- Generator: Adobe Illustrator 16.0.0, SVG Export Plug-In . SVG Version: 6.00 Build 0)  -->
<!DOCTYPE svg PUBLIC "-//W3C//DTD SVG 1.1//EN" "http://www.w3.org/Graphics/SVG/1.1/DTD/svg11.dtd">
<svg version="1.1" id="Layer_1" xmlns="http://www.w3.org/2000/svg" xmlns:xlink="http://www.w3.org/1999/xlink" x="0px" y="0px"
	 width="1520px" height="792.455px" viewBox="0 0 1520 792.455" enable-background="new 0 0 1520 792.455" xml:space="preserve">
<path fill="none" stroke="#1B75BB" stroke-miterlimit="10" d="M99.239,478.554l-82.994,48.109
	c-16.403,9.505-16.301,33.227,0.183,42.589l197.754,112.343c7.507,4.265,16.697,4.272,24.212,0.024l228.742-129.363
	c7.619-4.309,16.96-4.232,24.51,0.195l100.614,93.13h345.458l315.194-211.435c15.705-9.199,16.283-31.694,1.08-41.693
	l-64.721-42.563c-15.156-9.962-14.643-32.351,0.945-41.616l115.301-68.511c15.355-9.124,16.137-31.067,1.473-41.262L1205.96,128.28
	c-7.801-5.42-18.033-5.857-26.268-1.112L1063.2,194.276c-8.358,4.818-18.766,4.29-26.597-1.35l-90.065-64.834
	c-7.933-5.713-18.499-6.172-26.897-1.176L721.624,244.765c-7.674,4.567-17.232,4.607-24.943,0.094L491.93,125.147
	c-7.732-4.52-17.32-4.471-25.006,0.136l-27.497,16.47"/>
<g>
	<path fill="#1C75BC" d="M400.922,138.846c0,0.964,0.75,1.714,1.713,1.714c0.965,0,1.715-0.75,1.715-1.714s-0.75-1.714-1.715-1.714
		C401.672,137.132,400.922,137.882,400.922,138.846z"/>
	<path fill="#1C75BC" d="M385.925,158.77c0,0.964,0.75,1.715,1.714,1.715c0.963,0,1.714-0.751,1.714-1.715s-0.75-1.714-1.714-1.714
		C386.674,157.056,385.925,157.806,385.925,158.77z"/>
	<path fill="#1C75BC" d="M422.56,230.111c0,0.964,0.75,1.715,1.713,1.715c0.965,0,1.715-0.751,1.715-1.715s-0.75-1.714-1.715-1.714
		C423.31,228.397,422.56,229.147,422.56,230.111z"/>
	<path fill="#1C75BC" d="M125.624,547.508c0,0.964,0.75,1.715,1.713,1.715c0.964,0,1.715-0.751,1.715-1.715s-0.75-1.714-1.715-1.714
		C126.374,545.794,125.624,546.544,125.624,547.508z"/>
	<path fill="#1C75BC" d="M123.267,456.135c0,0.965,0.75,1.713,1.714,1.713c0.963,0,1.714-0.748,1.714-1.713s-0.75-1.714-1.714-1.714
		C124.017,454.421,123.267,455.171,123.267,456.135z"/>
	<path fill="#1C75BC" d="M186.253,435.889c0,0.964,0.75,1.714,1.714,1.714c0.963,0,1.714-0.75,1.714-1.714
		c0-0.963-0.75-1.713-1.714-1.713C187.003,434.176,186.253,434.926,186.253,435.889z"/>
	<path fill="#1C75BC" d="M196.43,514.408c0,0.964,0.75,1.714,1.713,1.714c0.964,0,1.715-0.75,1.715-1.714
		c0-0.965-0.75-1.714-1.715-1.714C197.18,512.693,196.43,513.443,196.43,514.408z"/>
	<path fill="#1C75BC" d="M164.294,361.227c0,0.964,0.75,1.714,1.713,1.714c0.965,0,1.715-0.75,1.715-1.714
		c0-0.965-0.75-1.715-1.715-1.715C165.15,359.512,164.294,360.262,164.294,361.227z"/>
	<path fill="#1C75BC" d="M177.362,339.802c0,0.965,0.75,1.715,1.714,1.715c0.963,0,1.714-0.75,1.714-1.715
		c0-0.963-0.75-1.714-1.714-1.714C178.22,338.088,177.362,338.839,177.362,339.802z"/>
	<path fill="#1C75BC" d="M207.143,399.468c0,0.965,0.749,1.715,1.713,1.715c0.965,0,1.714-0.75,1.714-1.715
		c0-0.964-0.749-1.713-1.714-1.713C207.893,397.755,207.143,398.504,207.143,399.468z"/>
	<path fill="#1C75BC" d="M325.831,483.45c0,0.965,0.75,1.715,1.714,1.715c0.965,0,1.714-0.75,1.714-1.715
		c0-0.964-0.75-1.714-1.714-1.714C326.581,481.736,325.831,482.486,325.831,483.45z"/>
	<path fill="#1C75BC" d="M273.342,371.188c0,0.964,0.749,1.714,1.713,1.714c0.965,0,1.713-0.75,1.713-1.714
		c0-0.965-0.749-1.714-1.713-1.714C274.091,369.475,273.342,370.224,273.342,371.188z"/>
	<path fill="#1C75BC" d="M237.778,507.552c0,0.965,0.75,1.715,1.713,1.715c0.965,0,1.715-0.75,1.715-1.715
		c0-0.964-0.75-1.714-1.715-1.714C238.528,505.838,237.778,506.588,237.778,507.552z"/>
	<path fill="#1C75BC" d="M234.029,285.921c0,0.965,0.75,1.714,1.715,1.714c0.963,0,1.713-0.749,1.713-1.714s-0.75-1.714-1.713-1.714
		C234.779,284.207,234.029,284.956,234.029,285.921z"/>
	<path fill="#1C75BC" d="M248.705,305.952c0,0.965,0.749,1.714,1.714,1.714c0.964,0,1.713-0.749,1.713-1.714
		s-0.749-1.714-1.713-1.714C249.454,304.238,248.705,304.987,248.705,305.952z"/>
	<path fill="#1C75BC" d="M305.371,246.501c0,0.965,0.75,1.714,1.714,1.714c0.964,0,1.713-0.749,1.713-1.714s-0.75-1.714-1.713-1.714
		C306.121,244.787,305.371,245.643,305.371,246.501z"/>
	<path fill="#1C75BC" d="M269.7,233.646c0,0.965,0.75,1.714,1.714,1.714c0.964,0,1.714-0.749,1.714-1.714
		c0-0.963-0.75-1.713-1.714-1.713C270.45,231.933,269.7,232.683,269.7,233.646z"/>
	<path fill="#1C75BC" d="M232.636,246.394c0,0.964,0.75,1.714,1.714,1.714c0.964,0,1.714-0.75,1.714-1.714
		c0-0.963-0.75-1.714-1.714-1.714C233.387,244.68,232.636,245.431,232.636,246.394z"/>
	<path fill="#1C75BC" d="M308.905,299.632c0,0.965,0.75,1.715,1.715,1.715c0.963,0,1.714-0.75,1.714-1.715
		c0-0.964-0.75-1.714-1.714-1.714C309.655,297.918,308.905,298.776,308.905,299.632z"/>
	<path fill="#1C75BC" d="M380.462,224.862c0,0.965,0.75,1.714,1.714,1.714c0.963,0,1.713-0.749,1.713-1.714s-0.75-1.713-1.713-1.713
		C381.211,223.149,380.462,223.897,380.462,224.862z"/>
	<path fill="#1C75BC" d="M348.54,188.657c0,0.964,0.75,1.712,1.714,1.712c0.964,0,1.714-0.748,1.714-1.712
		c0-0.965-0.75-1.715-1.714-1.715C349.291,186.942,348.54,187.692,348.54,188.657z"/>
	<path fill="#1C75BC" d="M354.003,303.595c0,0.965,0.75,1.715,1.714,1.715c0.964,0,1.714-0.75,1.714-1.715
		c0-0.963-0.75-1.713-1.714-1.713C354.753,301.882,354.003,302.632,354.003,303.595z"/>
	<path fill="#1C75BC" d="M418.061,395.29c0,0.964,0.75,1.715,1.714,1.715c0.964,0,1.714-0.751,1.714-1.715s-0.75-1.715-1.714-1.715
		C418.811,393.575,418.061,394.326,418.061,395.29z"/>
	<path fill="#1C75BC" d="M388.496,321.806c0,0.964,0.75,1.715,1.713,1.715c0.964,0,1.715-0.751,1.715-1.715s-0.75-1.713-1.715-1.713
		C389.246,320.093,388.496,320.842,388.496,321.806z"/>
	<path fill="#1C75BC" d="M440.984,431.604c0,0.964,0.75,1.715,1.714,1.715c0.964,0,1.714-0.751,1.714-1.715
		c0-0.963-0.75-1.713-1.714-1.713C441.734,429.891,440.984,430.641,440.984,431.604z"/>
	<path fill="#1C75BC" d="M391.602,121.601c0,2.355-1.928,4.391-4.392,4.391c-2.357,0-4.392-1.929-4.392-4.391
		c0-2.358,1.928-4.394,4.392-4.394C389.674,117.315,391.602,119.242,391.602,121.601z"/>
	<path fill="#1C75BC" d="M362.466,159.197c0,2.357-1.928,4.394-4.393,4.394c-2.463,0-4.391-1.929-4.391-4.394
		c0-2.356,1.928-4.392,4.391-4.392C360.538,154.806,362.466,156.841,362.466,159.197z"/>
	<path fill="#1C75BC" d="M432.951,363.262c0,2.356-1.929,4.392-4.393,4.392s-4.392-1.929-4.392-4.392
		c0-2.464,1.928-4.393,4.392-4.393S432.951,360.905,432.951,363.262z"/>
	<path fill="#1C75BC" d="M250.633,385.222c0,2.355-1.928,4.392-4.393,4.392c-2.463,0-4.392-1.929-4.392-4.392
		c0-2.465,1.928-4.393,4.392-4.393C248.705,380.829,250.633,382.757,250.633,385.222z"/>
	<path fill="#1C75BC" d="M309.549,445.637c0,2.356-1.929,4.392-4.393,4.392c-2.463,0-4.392-1.928-4.392-4.392
		s1.928-4.392,4.392-4.392C307.62,441.245,309.549,443.173,309.549,445.637z"/>
	<path fill="#1C75BC" d="M342.969,326.091c0,2.356-1.928,4.392-4.392,4.392s-4.391-1.927-4.391-4.392
		c0-2.464,1.928-4.392,4.391-4.392S342.969,323.627,342.969,326.091z"/>
	<path fill="#1C75BC" d="M170.614,346.444c0,2.356-1.928,4.391-4.392,4.391c-2.357,0-4.392-1.928-4.392-4.391
		c0-2.357,1.928-4.393,4.392-4.393C168.686,342.159,170.614,344.087,170.614,346.444z"/>
	<path fill="#1C75BC" d="M174.256,467.275c0,2.355-1.928,4.392-4.392,4.392c-2.357,0-4.392-1.929-4.392-4.392
		c0-2.464,1.929-4.393,4.392-4.393C172.22,462.883,174.256,464.812,174.256,467.275z"/>
	<path fill="#1C75BC" d="M210.356,491.698c0,2.356-1.929,4.392-4.393,4.392c-2.356,0-4.392-1.927-4.392-4.392
		c0-2.463,1.928-4.391,4.392-4.391C208.427,487.413,210.356,489.342,210.356,491.698z"/>
	<path fill="#1C75BC" d="M141.584,501.446c0,2.357-1.928,4.392-4.392,4.392c-2.357,0-4.393-1.929-4.393-4.392
		c0-2.464,1.929-4.393,4.393-4.393C139.657,497.054,141.584,498.982,141.584,501.446z"/>
	<path fill="#1C75BC" d="M119.947,530.689c0,2.357-1.928,4.393-4.392,4.393c-2.357,0-4.393-1.929-4.393-4.393
		c0-2.463,1.928-4.391,4.393-4.391C118.019,526.405,119.947,528.333,119.947,530.689z"/>
	<path fill="#1C75BC" d="M291.981,228.183c0,2.358-1.929,4.393-4.393,4.393c-2.463,0-4.392-1.928-4.392-4.393
		c0-2.463,1.928-4.391,4.392-4.391C290.052,223.792,291.981,225.827,291.981,228.183z"/>
	<path fill="#1C75BC" d="M257.274,261.282c0,2.358-1.928,4.394-4.392,4.394s-4.392-1.929-4.392-4.394
		c0-2.462,1.928-4.391,4.392-4.391S257.274,258.927,257.274,261.282z"/>
	<path fill="#1C75BC" d="M413.455,271.03c0,2.358-1.928,4.394-4.392,4.394c-2.357,0-4.392-1.929-4.392-4.394
		c0-2.355,1.928-4.391,4.392-4.391C411.42,266.64,413.455,268.568,413.455,271.03z"/>
	<path fill="#1C75BC" d="M350.789,232.254c0,2.356-1.928,4.392-4.392,4.392s-4.392-1.928-4.392-4.392s1.928-4.392,4.392-4.392
		S350.789,229.896,350.789,232.254z"/>
</g>
<g>
	<g>
		<path fill="none" stroke="#1C75BC" stroke-miterlimit="10" d="M98.201,355.441l64.272,24.96v217.773l-62.451-26.779
			L98.201,355.441z M323.259,146.559l64.272-24.958l64.272,24.958l-64.272,23.245L323.259,146.559z M453.518,151.914l-64.272,24.959
			l1.82,324.896l60.737-26.781L453.518,151.914z M317.904,151.914l64.272,24.959v324.896l-37.492-16.069l1.82-253.553l-26.78-8.891
			L317.904,151.914z M339.328,242.966l-64.272,23.244v285.691l62.451-26.781L339.328,242.966z M207.143,235.788l64.271-23.245
			l64.272,23.245l-64.272,24.959L207.143,235.788z M203.607,242.966l64.271,23.244v285.691l-28.6-12.534l1.82-185.64v-7.177l0,0
			l-37.491-14.246V242.966z M233.922,355.441l-64.272,24.96v217.773l62.451-26.779L233.922,355.441z M101.843,350.086l64.272-23.245
			l64.272,23.245l-64.272,23.245L101.843,350.086z"/>
	</g>
	<line fill="none" stroke="#1C75BC" stroke-miterlimit="10" x1="387.531" y1="121.601" x2="387.531" y2="169.804"/>
	<polyline fill="none" stroke="#1C75BC" stroke-miterlimit="10" points="357.859,159.197 419.667,158.02 387.531,121.601 	"/>
	<line fill="none" stroke="#1C75BC" stroke-miterlimit="10" x1="416.026" y1="132.738" x2="357.859" y2="159.197"/>
	<line fill="none" stroke="#1C75BC" stroke-miterlimit="10" x1="323.259" y1="146.559" x2="416.026" y2="132.738"/>
	<line fill="none" stroke="#1C75BC" stroke-miterlimit="10" x1="271.414" y1="212.65" x2="271.414" y2="260.854"/>
	<line fill="none" stroke="#1C75BC" stroke-miterlimit="10" x1="307.298" y1="246.821" x2="271.414" y2="212.65"/>
	<line fill="none" stroke="#1C75BC" stroke-miterlimit="10" x1="234.458" y1="246.286" x2="307.298" y2="246.821"/>
	<polyline fill="none" stroke="#1C75BC" stroke-miterlimit="10" points="207.463,235.896 301.086,223.362 234.458,246.286 	"/>
	<line fill="none" stroke="#1C75BC" stroke-miterlimit="10" x1="391.066" y1="501.874" x2="452.018" y2="418.642"/>
	<polyline fill="none" stroke="#1C75BC" stroke-miterlimit="10" points="389.246,176.873 452.875,273.816 391.066,501.874 	"/>
	<polyline fill="none" stroke="#1C75BC" stroke-miterlimit="10" points="453.518,151.914 390.103,321.485 451.803,475.095 
		389.246,176.873 	"/>
	<line fill="none" stroke="#1C75BC" stroke-miterlimit="10" x1="275.163" y1="551.792" x2="337.828" y2="469.847"/>
	<polyline fill="none" stroke="#1C75BC" stroke-miterlimit="10" points="275.27,266.21 338.685,325.877 275.163,551.792 	"/>
	<polyline fill="none" stroke="#1C75BC" stroke-miterlimit="10" points="339.221,243.072 275.056,371.188 337.292,525.013 
		275.27,266.21 	"/>
	<line fill="none" stroke="#1C75BC" stroke-miterlimit="10" x1="365.893" y1="170.66" x2="319.618" y2="223.362"/>
	<polyline fill="none" stroke="#1C75BC" stroke-miterlimit="10" points="382.176,501.874 345.005,450.028 366.001,170.769 	"/>
	<polyline fill="none" stroke="#1C75BC" stroke-miterlimit="10" points="317.904,151.914 382.068,225.077 346.397,232.254 
		382.176,501.874 	"/>
	<line fill="none" stroke="#1C75BC" stroke-miterlimit="10" x1="252.775" y1="260.854" x2="203.607" y2="332.196"/>
	<polyline fill="none" stroke="#1C75BC" stroke-miterlimit="10" points="267.878,551.792 239.6,507.659 252.775,260.854 	"/>
	<polyline fill="none" stroke="#1C75BC" stroke-miterlimit="10" points="267.878,329.626 241.098,346.551 267.878,551.792 	"/>
	<line fill="none" stroke="#1C75BC" stroke-miterlimit="10" x1="203.607" y1="242.966" x2="267.878" y2="329.626"/>
	<line fill="none" stroke="#1C75BC" stroke-miterlimit="10" x1="188.718" y1="335.089" x2="101.843" y2="350.086"/>
	<line fill="none" stroke="#1C75BC" stroke-miterlimit="10" x1="134.943" y1="362.084" x2="188.718" y2="335.089"/>
	<line fill="none" stroke="#1C75BC" stroke-miterlimit="10" x1="200.929" y1="360.691" x2="134.943" y2="362.084"/>
	<line fill="none" stroke="#1C75BC" stroke-miterlimit="10" x1="166.115" y1="326.841" x2="200.929" y2="360.691"/>
	<line fill="none" stroke="#1C75BC" stroke-miterlimit="10" x1="166.115" y1="373.331" x2="166.115" y2="326.841"/>
	<line fill="none" stroke="#1C75BC" stroke-miterlimit="10" x1="169.65" y1="598.282" x2="232.53" y2="524.049"/>
	<line fill="none" stroke="#1C75BC" stroke-miterlimit="10" x1="233.493" y1="411.466" x2="169.65" y2="598.282"/>
	<line fill="none" stroke="#1C75BC" stroke-miterlimit="10" x1="169.757" y1="380.401" x2="233.493" y2="411.466"/>
	<line fill="none" stroke="#1C75BC" stroke-miterlimit="10" x1="232.208" y1="571.61" x2="169.757" y2="380.508"/>
	<polyline fill="none" stroke="#1C75BC" stroke-miterlimit="10" points="233.922,355.441 169.864,467.382 232.101,571.502 	"/>
	<line fill="none" stroke="#1C75BC" stroke-miterlimit="10" x1="162.473" y1="598.282" x2="99.486" y2="507.659"/>
	<polyline fill="none" stroke="#1C75BC" stroke-miterlimit="10" points="120.374,580.286 98.201,355.441 162.473,598.282 	"/>
	<line fill="none" stroke="#1C75BC" stroke-miterlimit="10" x1="162.473" y1="380.401" x2="120.374" y2="580.286"/>
	<line fill="none" stroke="#1C75BC" stroke-miterlimit="10" x1="99.486" y1="507.659" x2="162.473" y2="380.401"/>
</g>
</svg>
