<?xml version="1.0" encoding="utf-8"?>
<!-- Generator: Adobe Illustrator 16.0.0, SVG Export Plug-In . SVG Version: 6.00 Build 0)  -->
<!DOCTYPE svg PUBLIC "-//W3C//DTD SVG 1.1//EN" "http://www.w3.org/Graphics/SVG/1.1/DTD/svg11.dtd">
<svg version="1.1" id="Layer_1" xmlns="http://www.w3.org/2000/svg" xmlns:xlink="http://www.w3.org/1999/xlink" x="0px" y="0px"
	 width="64px" height="64px" viewBox="0 0 64 64" enable-background="new 0 0 64 64" xml:space="preserve">
<g>
	<path fill="none" stroke="#1C75BC" stroke-width="0.4" stroke-miterlimit="10" d="M59.037,10.77H11.82
		c-1.645,0-2.985,1.341-2.985,2.983v18.191c0,1.038-0.087,1.188,0.605,1.188h1.189c0.585,0,0.454-0.15,0.454-1.211V13.753
		c0-0.389,0.325-0.734,0.736-0.734h47.217c0.389,0,0.714,0.346,0.714,0.734v29.093h-35.97c0,0-1.189-0.021-1.189,1.515v3.656
		c0,1.515,1.211,1.515,1.211,1.515h35.234c1.644,0,2.963-1.319,2.963-2.965V13.753C62,12.11,60.681,10.77,59.037,10.77L59.037,10.77
		z"/>
	<polygon fill="none" stroke="#1C75BC" stroke-width="0.4" stroke-miterlimit="10" points="14.242,41.655 2,39.601 28.389,27.488 
		15.627,53.23 	"/>
	<polyline fill="none" stroke="#1C75BC" stroke-width="0.4" stroke-miterlimit="10" points="2,39.601 22.008,40.357 15.194,33.544 
		15.627,53.23 	"/>
	<line fill="none" stroke="#1C75BC" stroke-width="0.4" stroke-miterlimit="10" x1="14.242" y1="41.655" x2="28.389" y2="27.488"/>
	<polyline fill="none" stroke="#1C75BC" stroke-width="0.4" stroke-miterlimit="10" points="23.781,42.846 41.409,49.531 
		59.751,42.846 62,30.149 59.751,13.753 60.94,11.462 	"/>
	<polyline fill="none" stroke="#1C75BC" stroke-width="0.4" stroke-miterlimit="10" points="11.084,13.753 8.835,22.859 
		10.868,33.112 	"/>
	<polyline fill="none" stroke="#1C75BC" stroke-width="0.4" stroke-miterlimit="10" points="11.084,23.313 8.835,13.753 
		11.82,10.77 35.418,13.019 59.599,10.833 	"/>
	<line fill="none" stroke="#1C75BC" stroke-width="0.4" stroke-miterlimit="10" x1="35.418" y1="13.019" x2="35.418" y2="10.77"/>
	<polyline fill="none" stroke="#1C75BC" stroke-width="0.4" stroke-miterlimit="10" points="53.889,13.019 44.178,10.77 
		35.418,13.019 	"/>
	<polyline fill="none" stroke="#1C75BC" stroke-width="0.4" stroke-miterlimit="10" points="16.946,13.019 26.657,10.77 
		35.418,13.019 	"/>
	<line fill="none" stroke="#1C75BC" stroke-width="0.4" stroke-miterlimit="10" x1="16.946" y1="13.019" x2="11.82" y2="10.77"/>
	<line fill="none" stroke="#1C75BC" stroke-width="0.4" stroke-miterlimit="10" x1="53.889" y1="13.019" x2="59.599" y2="10.833"/>
	<polyline fill="none" stroke="#1C75BC" stroke-width="0.4" stroke-miterlimit="10" points="23.803,49.531 41.755,42.846 
		59.037,49.531 	"/>
</g>
</svg>
