<?xml version="1.0" encoding="utf-8"?>
<!-- Generator: Adobe Illustrator 16.0.0, SVG Export Plug-In . SVG Version: 6.00 Build 0)  -->
<!DOCTYPE svg PUBLIC "-//W3C//DTD SVG 1.1//EN" "http://www.w3.org/Graphics/SVG/1.1/DTD/svg11.dtd">
<svg version="1.1" id="Layer_1" xmlns="http://www.w3.org/2000/svg" xmlns:xlink="http://www.w3.org/1999/xlink" x="0px" y="0px"
	 width="64px" height="64px" viewBox="0 0 64 64" enable-background="new 0 0 64 64" xml:space="preserve">
<g>
	<path fill="none" stroke="#1C75BC" stroke-width="0.4" stroke-miterlimit="10" d="M41.829,24.28v-6.482
		c0-0.77-0.639-1.408-1.424-1.408H12.031c-0.786,0-1.424,0.639-1.424,1.408v28.404c0,0.77,0.639,1.408,1.424,1.408h28.374
		c0.785,0,1.424-0.639,1.424-1.408v-5.976"/>
	<path fill="none" stroke="#1C75BC" stroke-width="0.4" stroke-miterlimit="10" d="M44.66,37.051v9.151
		c0,2.341-1.898,4.257-4.255,4.257H12.031c-2.34,0-4.254-1.916-4.254-4.257V17.798c0-2.341,1.914-4.257,4.254-4.257h28.374
		c2.356,0,4.255,1.916,4.255,4.257v3.372"/>
	<path fill="none" stroke="#1C75BC" stroke-width="0.4" stroke-miterlimit="10" d="M36.15,13.541V9.187
		c0-0.786,0.639-1.408,1.424-1.408s1.424,0.622,1.424,1.408v4.354H36.15z"/>
	<path fill="none" stroke="#1C75BC" stroke-width="0.4" stroke-miterlimit="10" d="M30.473,13.541V9.187
		c0-0.786,0.639-1.408,1.423-1.408c0.786,0,1.424,0.622,1.424,1.408v4.354H30.473z"/>
	<path fill="none" stroke="#1C75BC" stroke-width="0.4" stroke-miterlimit="10" d="M24.794,13.541V9.187
		c0-0.786,0.638-1.408,1.423-1.408s1.424,0.622,1.424,1.408v4.354H24.794z"/>
	<path fill="none" stroke="#1C75BC" stroke-width="0.4" stroke-miterlimit="10" d="M19.133,13.541V9.187
		c0-0.786,0.622-1.408,1.407-1.408c0.785,0,1.423,0.622,1.423,1.408v4.354H19.133z"/>
	<path fill="none" stroke="#1C75BC" stroke-width="0.4" stroke-miterlimit="10" d="M13.455,13.541V9.187
		c0-0.786,0.638-1.408,1.407-1.408c0.785,0,1.424,0.622,1.424,1.408v4.354H13.455z"/>
	<path fill="none" stroke="#1C75BC" stroke-width="0.4" stroke-miterlimit="10" d="M7.777,22.054H3.424
		C2.638,22.054,2,21.432,2,20.646c0-0.786,0.638-1.425,1.424-1.425h4.353V22.054z"/>
	<path fill="none" stroke="#1C75BC" stroke-width="0.4" stroke-miterlimit="10" d="M7.777,27.735H3.424
		C2.638,27.735,2,27.112,2,26.327c0-0.786,0.638-1.424,1.424-1.424h4.353V27.735z"/>
	<path fill="none" stroke="#1C75BC" stroke-width="0.4" stroke-miterlimit="10" d="M7.777,33.416H3.424
		C2.638,33.416,2,32.777,2,31.991c0-0.769,0.638-1.407,1.424-1.407h4.353V33.416z"/>
	<path fill="none" stroke="#1C75BC" stroke-width="0.4" stroke-miterlimit="10" d="M7.777,39.097H3.424
		C2.638,39.097,2,38.459,2,37.673s0.638-1.408,1.424-1.408h4.353V39.097z"/>
	<path fill="none" stroke="#1C75BC" stroke-width="0.4" stroke-miterlimit="10" d="M7.777,44.778H3.424
		C2.638,44.778,2,44.14,2,43.354c0-0.785,0.638-1.407,1.424-1.407h4.353V44.778z"/>
	<polyline fill="none" stroke="#1C75BC" stroke-width="0.4" stroke-miterlimit="10" points="44.66,21.236 44.66,19.222 
		46.328,19.222 	"/>
	<path fill="none" stroke="#1C75BC" stroke-width="0.4" stroke-miterlimit="10" d="M49.913,30.895
		c0.311,0.262,0.522,0.655,0.522,1.097c0,0.786-0.638,1.425-1.423,1.425h-1.162"/>
	<path fill="none" stroke="#1C75BC" stroke-width="0.4" stroke-miterlimit="10" d="M45.249,36.265h3.764
		c0.785,0,1.423,0.622,1.423,1.408s-0.638,1.424-1.423,1.424H44.66v-2.112"/>
	<path fill="none" stroke="#1C75BC" stroke-width="0.4" stroke-miterlimit="10" d="M49.013,44.778H44.66v-2.832h4.353
		c0.785,0,1.423,0.622,1.423,1.407C50.436,44.14,49.798,44.778,49.013,44.778L49.013,44.778z"/>
	<path fill="none" stroke="#1C75BC" stroke-width="0.4" stroke-miterlimit="10" d="M37.574,56.222c-0.785,0-1.424-0.622-1.424-1.408
		v-4.354h2.848v4.354C38.998,55.6,38.359,56.222,37.574,56.222L37.574,56.222z"/>
	<path fill="none" stroke="#1C75BC" stroke-width="0.4" stroke-miterlimit="10" d="M31.896,56.222c-0.784,0-1.423-0.622-1.423-1.408
		v-4.354h2.847v4.354C33.319,55.6,32.682,56.222,31.896,56.222L31.896,56.222z"/>
	<path fill="none" stroke="#1C75BC" stroke-width="0.4" stroke-miterlimit="10" d="M26.218,56.222c-0.786,0-1.423-0.622-1.423-1.408
		v-4.354h2.847v4.354C27.642,55.6,27.003,56.222,26.218,56.222L26.218,56.222z"/>
	<path fill="none" stroke="#1C75BC" stroke-width="0.4" stroke-miterlimit="10" d="M20.54,56.222c-0.786,0-1.407-0.622-1.407-1.408
		v-4.354h2.831v4.354C21.963,55.6,21.325,56.222,20.54,56.222L20.54,56.222z"/>
	<path fill="none" stroke="#1C75BC" stroke-width="0.4" stroke-miterlimit="10" d="M14.862,56.222c-0.769,0-1.407-0.622-1.407-1.408
		v-4.354h2.831v4.354C16.286,55.6,15.647,56.222,14.862,56.222L14.862,56.222z"/>
	<path fill="none" stroke="#1C75BC" stroke-width="0.4" stroke-miterlimit="10" d="M60.5,11.97l-1.064-0.917
		c-1.767-1.523-4.435-1.343-5.988,0.393L35.594,31.239l-5.399-4.634c-1.767-1.539-4.418-1.358-5.989,0.36l-0.949,1.048
		c-0.753,0.851-1.162,1.964-1.096,3.11c0.049,1.13,0.556,2.21,1.407,2.979l9.883,9.038c0.852,0.802,1.997,1.228,3.175,1.161
		c1.162-0.064,2.259-0.605,3.027-1.489l21.305-24.771c0.754-0.867,1.113-1.997,1.032-3.127C61.906,13.771,61.367,12.723,60.5,11.97
		L60.5,11.97z"/>
	<polyline fill="none" stroke="#1C75BC" stroke-width="0.4" stroke-miterlimit="10" points="44.66,17.798 40.405,13.541 
		40.405,16.39 26.496,13.541 12.031,16.39 12.031,13.541 7.777,17.798 	"/>
	<polyline fill="none" stroke="#1C75BC" stroke-width="0.4" stroke-miterlimit="10" points="44.66,46.202 40.405,50.459 
		40.405,47.61 26.496,50.459 12.031,47.61 12.031,50.459 7.777,46.202 	"/>
	<polyline fill="none" stroke="#1C75BC" stroke-width="0.4" stroke-miterlimit="10" points="12.031,13.541 26.218,16.39 
		40.405,13.541 	"/>
	<polyline fill="none" stroke="#1C75BC" stroke-width="0.4" stroke-miterlimit="10" points="12.031,50.459 26.218,47.61 
		40.405,50.459 	"/>
	<polyline fill="none" stroke="#1C75BC" stroke-width="0.4" stroke-miterlimit="10" points="7.777,17.798 10.607,31.991 
		7.777,46.202 	"/>
	<line fill="none" stroke="#1C75BC" stroke-width="0.4" stroke-miterlimit="10" x1="44.66" y1="17.798" x2="41.829" y2="24.28"/>
	<line fill="none" stroke="#1C75BC" stroke-width="0.4" stroke-miterlimit="10" x1="41.829" y1="40.227" x2="44.66" y2="46.202"/>
	<polyline fill="none" stroke="#1C75BC" stroke-width="0.4" stroke-miterlimit="10" points="10.607,17.798 7.777,31.991 
		10.607,46.202 	"/>
	<polyline fill="none" stroke="#1C75BC" stroke-width="0.4" stroke-miterlimit="10" points="53.447,11.445 59.976,11.511 
		60.957,18.043 44.512,21.334 39.652,42.813 35.594,31.239 23.027,33.515 23.73,27.49 30.194,26.605 28.509,38.622 39.652,42.813 	
		"/>
	<polyline fill="none" stroke="#1C75BC" stroke-width="0.4" stroke-miterlimit="10" points="35.594,31.239 50.305,30.437 
		53.447,11.445 	"/>
</g>
</svg>
