<?xml version="1.0" encoding="utf-8"?>
<!-- Generator: Adobe Illustrator 16.0.0, SVG Export Plug-In . SVG Version: 6.00 Build 0)  -->
<!DOCTYPE svg PUBLIC "-//W3C//DTD SVG 1.1//EN" "http://www.w3.org/Graphics/SVG/1.1/DTD/svg11.dtd">
<svg version="1.1" id="Layer_1" xmlns="http://www.w3.org/2000/svg" xmlns:xlink="http://www.w3.org/1999/xlink" x="0px" y="0px"
	 width="1520px" height="792.455px" viewBox="0 0 1520 792.455" enable-background="new 0 0 1520 792.455" xml:space="preserve">
<path fill="none" stroke="#1B75BB" stroke-miterlimit="10" d="M112.823,470.74l-96.579,55.923
	c-16.402,9.505-16.301,33.227,0.184,42.589l197.754,112.343c7.506,4.265,16.697,4.272,24.211,0.024l228.743-129.363
	c7.619-4.309,16.959-4.232,24.51,0.195l100.614,93.13h345.458l315.191-211.435c15.707-9.199,16.285-31.694,1.082-41.693
	l-64.723-42.563c-15.156-9.962-14.643-32.351,0.945-41.616l115.303-68.511c15.355-9.124,16.137-31.067,1.473-41.262l-101.031-70.222
	c-7.801-5.42-18.033-5.857-26.268-1.112l-116.492,67.108c-8.355,4.818-18.764,4.29-26.596-1.35l-90.064-64.834
	c-7.932-5.713-18.498-6.172-26.896-1.176L721.625,244.765c-7.674,4.567-17.232,4.607-24.943,0.094L491.929,125.147
	c-7.732-4.52-17.32-4.471-25.006,0.136L267.779,244.513"/>
<g>
	<g>
		<path fill="#1D76BB" d="M165.511,271.847c0,0.8,0.601,1.399,1.4,1.399s1.4-0.6,1.4-1.399s-0.601-1.399-1.4-1.399
			S165.511,271.047,165.511,271.847z"/>
		<path fill="#1D76BB" d="M177.412,284.646c0,0.8,0.6,1.399,1.399,1.399s1.4-0.6,1.4-1.399c0-0.801-0.601-1.4-1.4-1.4
			S177.412,283.846,177.412,284.646z"/>
		<path fill="#1D76BB" d="M139.712,286.446c0,0.8,0.601,1.399,1.4,1.399s1.399-0.6,1.399-1.399s-0.6-1.4-1.399-1.4
			S139.712,285.646,139.712,286.446z"/>
		<path fill="#1D76BB" d="M152.812,272.646c0,0.8,0.6,1.4,1.4,1.4c0.8,0,1.399-0.601,1.399-1.4s-0.6-1.4-1.399-1.4
			C153.412,271.246,152.812,271.847,152.812,272.646z"/>
		<path fill="#1D76BB" d="M159.112,287.746c0,0.8,0.6,1.4,1.4,1.4c0.8,0,1.399-0.601,1.399-1.4s-0.6-1.4-1.399-1.4
			C159.711,286.346,159.112,286.946,159.112,287.746z"/>
		<path fill="#1D76BB" d="M116.813,400.442c0,0.8,0.601,1.399,1.4,1.399s1.399-0.6,1.399-1.399s-0.6-1.4-1.399-1.4
			S116.813,399.643,116.813,400.442z"/>
		<path fill="#1D76BB" d="M201.21,415.441c0,0.801,0.6,1.4,1.4,1.4c0.8,0,1.399-0.6,1.399-1.4c0-0.8-0.6-1.399-1.399-1.399
			C201.81,414.042,201.21,414.642,201.21,415.441z"/>
		<path fill="#1D76BB" d="M421.803,423.342c0,0.8,0.6,1.399,1.399,1.399s1.4-0.6,1.4-1.399s-0.601-1.4-1.4-1.4
			S421.803,422.542,421.803,423.342z"/>
		<path fill="#1D76BB" d="M395.003,361.144c0,0.8,0.601,1.4,1.4,1.4s1.4-0.601,1.4-1.4s-0.601-1.4-1.4-1.4
			C395.604,359.644,395.003,360.344,395.003,361.144z"/>
		<path fill="#1D76BB" d="M358.105,291.246c0,0.8,0.6,1.4,1.4,1.4c0.8,0,1.399-0.601,1.399-1.4c0-0.801-0.6-1.4-1.399-1.4
			C358.805,289.746,358.105,290.445,358.105,291.246z"/>
		<path fill="#1D76BB" d="M344.805,241.547c0,0.801,0.601,1.4,1.4,1.4s1.399-0.6,1.399-1.4c0-0.799-0.6-1.399-1.399-1.399
			C345.505,240.147,344.805,240.748,344.805,241.547z"/>
		<path fill="#1D76BB" d="M386.004,478.64c0,0.8,0.6,1.4,1.399,1.4s1.4-0.601,1.4-1.4s-0.601-1.4-1.4-1.4
			C386.704,477.24,386.004,477.84,386.004,478.64z"/>
		<path fill="#1D76BB" d="M157.612,364.144c0,0.8,0.601,1.4,1.4,1.4s1.399-0.601,1.399-1.4s-0.6-1.4-1.399-1.4
			S157.612,363.344,157.612,364.144z"/>
		<path fill="#1D76BB" d="M192.811,389.043c0,0.8,0.6,1.399,1.399,1.399s1.4-0.6,1.4-1.399s-0.601-1.4-1.4-1.4
			S192.811,388.243,192.811,389.043z"/>
		<path fill="#1D76BB" d="M164.412,297.846c0,0.8,0.6,1.4,1.4,1.4c0.8,0,1.399-0.601,1.399-1.4s-0.6-1.4-1.399-1.4
			C165.011,296.445,164.412,297.046,164.412,297.846z"/>
		<path fill="#1D76BB" d="M152.212,297.846c0,0.8,0.6,1.4,1.399,1.4s1.4-0.601,1.4-1.4s-0.601-1.4-1.4-1.4
			S152.212,297.046,152.212,297.846z"/>
		<path fill="#1D76BB" d="M176.311,199.949c0,2-1.6,3.6-3.6,3.6s-3.6-1.6-3.6-3.6s1.6-3.6,3.6-3.6S176.311,197.949,176.311,199.949z
			"/>
		<path fill="#1D76BB" d="M152.312,329.345c0,2-1.6,3.6-3.6,3.6s-3.6-1.6-3.6-3.6s1.6-3.6,3.6-3.6
			C150.612,325.745,152.312,327.345,152.312,329.345z"/>
		<path fill="#1D76BB" d="M176.011,257.348c0,2-1.6,3.6-3.6,3.6s-3.6-1.6-3.6-3.6s1.6-3.601,3.6-3.601
			S176.011,255.348,176.011,257.348z"/>
		<path fill="#1D76BB" d="M278.708,454.94c0,2-1.6,3.6-3.6,3.6s-3.6-1.6-3.6-3.6s1.6-3.6,3.6-3.6S278.708,452.94,278.708,454.94z"/>
		<path fill="#1D76BB" d="M159.312,443.141c0,2-1.6,3.601-3.6,3.601s-3.601-1.601-3.601-3.601s1.601-3.6,3.601-3.6
			C157.712,439.441,159.312,441.141,159.312,443.141z"/>
		<path fill="#1D76BB" d="M223.41,470.74c0,2-1.6,3.6-3.6,3.6s-3.6-1.6-3.6-3.6s1.6-3.601,3.6-3.601S223.41,468.74,223.41,470.74z"
			/>
		<path fill="#1D76BB" d="M112.713,454.94c0,2-1.6,3.6-3.6,3.6s-3.601-1.6-3.601-3.6s1.601-3.6,3.601-3.6
			S112.713,452.94,112.713,454.94z"/>
		<path fill="#1D76BB" d="M475.202,430.941c0,2-1.601,3.6-3.601,3.6s-3.6-1.6-3.6-3.6s1.6-3.6,3.6-3.6
			S475.202,428.941,475.202,430.941z"/>
		<path fill="#1D76BB" d="M342.906,490.839c0,2-1.601,3.601-3.601,3.601c-1.999,0-3.6-1.601-3.6-3.601s1.601-3.6,3.6-3.6
			C341.305,487.239,342.906,488.839,342.906,490.839z"/>
		<path fill="#1D76BB" d="M450.702,510.339c0,2-1.6,3.6-3.6,3.6s-3.6-1.6-3.6-3.6s1.6-3.6,3.6-3.6
			C449.002,506.639,450.702,508.238,450.702,510.339z"/>
		<path fill="#1D76BB" d="M468.402,241.547c0,2-1.601,3.601-3.601,3.601s-3.6-1.601-3.6-3.601c0-1.999,1.6-3.6,3.6-3.6
			S468.402,239.548,468.402,241.547z"/>
		<path fill="#1D76BB" d="M436.802,320.545c0,2-1.6,3.6-3.6,3.6s-3.6-1.6-3.6-3.6s1.6-3.6,3.6-3.6S436.802,318.545,436.802,320.545z
			"/>
		<path fill="#1D76BB" d="M357.005,407.542c0,2-1.601,3.6-3.601,3.6s-3.6-1.6-3.6-3.6s1.6-3.6,3.6-3.6
			S357.005,405.542,357.005,407.542z"/>
		<path fill="#1D76BB" d="M321.506,336.645c0,2-1.6,3.6-3.6,3.6s-3.601-1.6-3.601-3.6s1.601-3.6,3.601-3.6
			S321.506,334.645,321.506,336.645z"/>
		<path fill="#1D76BB" d="M209.911,236.248c0,2-1.601,3.6-3.601,3.6s-3.6-1.6-3.6-3.6s1.6-3.6,3.6-3.6
			S209.911,234.248,209.911,236.248z"/>
		<path fill="#1D76BB" d="M270.808,391.742c0,2-1.6,3.601-3.6,3.601s-3.601-1.601-3.601-3.601c0-1.999,1.601-3.6,3.601-3.6
			S270.808,389.743,270.808,391.742z"/>
		<path fill="#1D76BB" d="M250.909,277.646c0,2-1.6,3.6-3.6,3.6s-3.6-1.6-3.6-3.6s1.6-3.6,3.6-3.6S250.909,275.547,250.909,277.646z
			"/>
		<path fill="#1D76BB" d="M359.605,343.844c0,2-1.6,3.601-3.6,3.601s-3.601-1.601-3.601-3.601c0-1.999,1.601-3.6,3.601-3.6
			S359.605,341.845,359.605,343.844z"/>
		<path fill="#1D76BB" d="M182.111,136.852c0,2-1.6,3.6-3.6,3.6s-3.6-1.6-3.6-3.6s1.6-3.601,3.6-3.601
			S182.111,134.852,182.111,136.852z"/>
		<path fill="#1D76BB" d="M381.504,273.146c0,2-1.6,3.6-3.6,3.6s-3.601-1.6-3.601-3.6s1.601-3.6,3.601-3.6
			S381.504,271.146,381.504,273.146z"/>
	</g>
	<g>
		<g>
			<g>
				<g id="iconos_3_">
					<path fill="none" stroke="#1D76BB" stroke-miterlimit="10" d="M480.601,476.74v-25.699c0-17.5-10.2-27.699-27.699-27.699
						H279.108c-23.499,0-35.599,11.1-35.599,27.699v33.299c0,17.299,11.6,25.898,35.599,25.898h173.894
						C470.401,510.339,480.601,498.639,480.601,476.74z M449.002,478.64H275.108V454.94h173.895V478.64z"/>
					<path fill="none" stroke="#1D76BB" stroke-miterlimit="10" d="M346.305,241.547v7.9v67.698l0,0l0,0l10.1,27.099h-16.999
						L174.011,113.951l-36.398,22l10.999,19.399v102.097h-11.699l7.8,55.298h3.399h0.4v16.699c-7.1,3.2-14.999,10.2-14.999,22.6
						c0,8.399,3.3,14.499,7.999,18.6l-42.698,36.898h12.1l37.999-32.699c3.399,1.301,7.1,2.101,10.799,2.101c3.7,0,7.3-1,10.6-2.7
						l41.199,33.398h12.3l0.1-0.1l-47.498-38.499c3.199-3.899,5.3-9.1,5.3-15.699c0-4.399-3.5-7.899-7.9-7.899
						c-4.399,0-7.899,3.5-7.899,7.899c0,2.8-0.8,4.6-1.8,5.8l-2.2-1.8c-1.5-1.2-3.6-1.2-5.1,0.1l-3,2.601c-2.6-1.2-4.5-3.5-4.5-8
						c0-7.1,7.1-8.899,8.4-9.1c3.8-0.7,6.6-3.9,6.6-7.8v-22.399h5.5h3.199l11.1-55.298h-7.999h-4v-57.398l95.097,182.494v1.3v2.4
						v5.6h31.599v15.699h110.696h7.899v-15.8h39.499h7.899V241.547H346.305z M278.308,282.547l0.1,0.1l-36.299,25.398l20.3-46.798
						L278.308,282.547z M164.412,257.348h-4h-4 M171.311,176.75l-13.599-25.899l21.299-13.999L171.311,176.75z M189.811,153.051
						l15.199,26.299l-25.999,15.799L189.811,153.051z M192.21,210.248l24.699-16.799l-10.699,42.799L192.21,210.248z
						 M225.11,208.648l17.399,24.6l-27.999,19.299L225.11,208.648z M222.41,268.646l29.999-21.499l-17.699,45.499L222.41,268.646z
						 M264.708,343.844l-13.8-24.299l34.199-24.398L264.708,343.844z M298.807,310.745l18.999,25.899 M433.203,320.545h-55.298
						v-47.398h55.298V320.545z"/>
					<polygon fill="none" stroke="#1D76BB" stroke-miterlimit="10" points="101.213,454.94 93.314,454.94 93.314,470.74 
						219.81,470.74 219.81,454.94 204.01,454.94 204.01,439.141 204.01,431.241 219.81,431.241 219.81,415.441 93.314,415.441 
						93.314,431.241 109.114,431.241 109.114,454.94 					"/>
				</g>
			</g>
			<polyline fill="none" stroke="#1D76BB" stroke-miterlimit="10" points="346.305,241.547 377.905,273.146 416.803,241.547 
				433.203,273.146 464.801,241.547 346.305,270.847 377.905,320.545 346.305,317.245 386.404,241.547 			"/>
			<line fill="none" stroke="#1D76BB" stroke-miterlimit="10" x1="317.806" y1="336.645" x2="353.405" y2="407.542"/>
			<line fill="none" stroke="#1D76BB" stroke-miterlimit="10" x1="298.807" y1="391.742" x2="317.806" y2="336.645"/>
			<polyline fill="none" stroke="#1D76BB" stroke-miterlimit="10" points="226.709,304.646 264.708,343.844 275.408,361.144 			"/>
			<polyline fill="none" stroke="#1D76BB" stroke-miterlimit="10" points="433.203,273.146 464.801,323.445 417.403,391.742 
				433.203,320.545 464.801,391.742 356.305,344.344 377.905,320.545 417.403,407.542 298.807,391.742 433.203,320.545 
				353.405,407.542 339.406,344.344 317.806,336.645 267.208,391.742 275.408,361.144 285.108,295.046 298.807,310.745 
				322.407,320.545 317.806,336.645 278.007,258.747 225.11,208.648 262.308,261.247 234.709,292.646 			"/>
			<polygon fill="none" stroke="#1D76BB" stroke-miterlimit="10" points="137.613,135.951 157.712,150.851 174.011,113.951 
				179.011,136.852 			"/>
			<polyline fill="none" stroke="#1D76BB" stroke-miterlimit="10" points="197.911,147.25 225.11,208.648 174.011,113.951 			"/>
			<polyline fill="none" stroke="#1D76BB" stroke-miterlimit="10" points="179.011,195.049 171.311,176.75 189.811,153.051 
				179.011,136.852 197.911,147.25 			"/>
			<line fill="none" stroke="#1D76BB" stroke-miterlimit="10" x1="200.411" y1="253.947" x2="157.712" y2="150.851"/>
			<polyline fill="none" stroke="#1D76BB" stroke-miterlimit="10" points="172.412,199.949 164.412,257.348 172.412,257.348 			"/>
			<polyline fill="none" stroke="#1D76BB" stroke-miterlimit="10" points="179.011,136.852 179.011,195.049 192.21,210.248 			"/>
			<polyline fill="none" stroke="#1D76BB" stroke-miterlimit="10" points="157.712,150.851 148.612,257.348 160.512,287.746 
				172.412,257.348 178.811,285.046 			"/>
			<line fill="none" stroke="#1D76BB" stroke-miterlimit="10" x1="206.31" y1="236.248" x2="222.41" y2="268.646"/>
			<line fill="none" stroke="#1D76BB" stroke-miterlimit="10" x1="216.91" y1="193.449" x2="214.51" y2="252.447"/>
			<line fill="none" stroke="#1D76BB" stroke-miterlimit="10" x1="225.11" y1="208.648" x2="206.31" y2="236.248"/>
			<line fill="none" stroke="#1D76BB" stroke-miterlimit="10" x1="252.409" y1="247.147" x2="242.109" y2="308.045"/>
			<line fill="none" stroke="#1D76BB" stroke-miterlimit="10" x1="298.807" y1="391.742" x2="298.807" y2="310.745"/>
			<line fill="none" stroke="#1D76BB" stroke-miterlimit="10" x1="206.81" y1="238.048" x2="267.208" y2="382.543"/>
			<polyline fill="none" stroke="#1D76BB" stroke-miterlimit="10" points="173.211,312.646 160.512,287.746 144.812,312.646 			"/>
			<polyline fill="none" stroke="#1D76BB" stroke-miterlimit="10" points="160.512,257.348 160.512,312.646 148.612,329.444 
				157.912,342.944 137.613,338.444 141.712,370.644 150.913,357.443 133.813,355.144 			"/>
			<polyline fill="none" stroke="#1D76BB" stroke-miterlimit="10" points="141.113,286.446 148.612,257.348 156.512,257.348 			"/>
			<polygon fill="none" stroke="#1D76BB" stroke-miterlimit="10" points="141.113,286.446 160.512,266.246 178.811,285.046 
				160.512,303.745 			"/>
			<line fill="none" stroke="#1D76BB" stroke-miterlimit="10" x1="170.211" y1="374.144" x2="178.412" y2="346.944"/>
			<polyline fill="none" stroke="#1D76BB" stroke-miterlimit="10" points="169.312,346.944 176.412,369.043 164.211,359.144 
				148.913,374.843 			"/>
			<polyline fill="none" stroke="#1D76BB" stroke-miterlimit="10" points="141.712,370.644 118.213,401.242 98.814,407.542 
				148.913,374.843 			"/>
			<line fill="none" stroke="#1D76BB" stroke-miterlimit="10" x1="172.612" y1="366.044" x2="211.31" y2="407.542"/>
			<polyline fill="none" stroke="#1D76BB" stroke-miterlimit="10" points="141.712,370.644 164.211,359.144 170.211,374.144 
				223.709,407.542 			"/>
			<line fill="none" stroke="#1D76BB" stroke-miterlimit="10" x1="204.01" y1="454.94" x2="109.114" y2="454.94"/>
			<polyline fill="none" stroke="#1D76BB" stroke-miterlimit="10" points="203.81,415.441 109.114,431.241 204.01,431.241 
				109.114,454.94 219.81,470.74 93.314,415.441 			"/>
			<polyline fill="none" stroke="#1D76BB" stroke-miterlimit="10" points="478.801,490.939 449.002,478.64 446.902,510.339 
				473.401,430.741 449.002,454.94 423.803,423.342 275.108,454.94 258.808,427.142 245.709,495.739 275.108,478.64 
				243.609,448.341 473.401,430.741 			"/>
			<polygon fill="none" stroke="#1D76BB" stroke-miterlimit="10" points="275.108,478.64 446.902,510.339 387.704,478.64 
				264.608,508.938 			"/>
			<line fill="none" stroke="#1D76BB" stroke-miterlimit="10" x1="275.108" y1="478.64" x2="346.305" y2="510.339"/>
		</g>
		
			<line fill="none" stroke="#1D76BB" stroke-width="0.5113" stroke-linecap="round" stroke-linejoin="round" stroke-miterlimit="10" x1="170.211" y1="374.144" x2="154.012" y2="360.044"/>
	</g>
</g>
<g>
	<line fill="none" stroke="#1C75BC" stroke-miterlimit="10" x1="220.959" y1="408.23" x2="208.515" y2="415.441"/>
	<line fill="none" stroke="#1C75BC" stroke-miterlimit="10" x1="266.834" y1="381.649" x2="223.569" y2="406.718"/>
</g>
</svg>
