<?xml version="1.0" encoding="utf-8"?>
<!-- Generator: Adobe Illustrator 16.0.0, SVG Export Plug-In . SVG Version: 6.00 Build 0)  -->
<!DOCTYPE svg PUBLIC "-//W3C//DTD SVG 1.1//EN" "http://www.w3.org/Graphics/SVG/1.1/DTD/svg11.dtd">
<svg version="1.1" id="Layer_1" xmlns="http://www.w3.org/2000/svg" xmlns:xlink="http://www.w3.org/1999/xlink" x="0px" y="0px"
	 width="64px" height="64px" viewBox="0 0 64 64" enable-background="new 0 0 64 64" xml:space="preserve">
<g>
	<g>
		<polyline fill="none" stroke="#1B75BB" stroke-width="1.082" stroke-miterlimit="2.6131" points="29.691,25.272 29.691,23.862 
			24.03,23.862 24.03,29.143 29.72,29.143 29.72,27.943 		"/>
		<polygon fill="none" stroke="#1B75BB" stroke-width="1.1111" stroke-miterlimit="2.6131" points="50.904,29.143 56.15,29.143 
			56.525,28.747 56.525,24.195 56.15,23.831 50.678,23.831 50.336,24.132 50.336,28.716 		"/>
		<g>
			<polyline fill="none" stroke="#1C75BC" stroke-width="1.2157" stroke-miterlimit="2.6131" points="15.67,29.507 18.558,23.883 
				19.129,23.887 22.03,29.507 			"/>
			
				<line fill="none" stroke="#1C75BC" stroke-width="1.2157" stroke-miterlimit="2.6131" x1="16.716" y1="27.481" x2="20.963" y2="27.481"/>
		</g>
		<g>
			
				<line fill="none" stroke="#1C75BC" stroke-width="1.2346" stroke-miterlimit="2.6131" x1="36.031" y1="23.659" x2="32.146" y2="26.874"/>
			
				<line fill="none" stroke="#1C75BC" stroke-width="1.2346" stroke-miterlimit="2.6131" x1="32.146" y1="26.128" x2="36.031" y2="29.314"/>
			
				<line fill="none" stroke="#1C75BC" stroke-width="1.2346" stroke-miterlimit="2.6131" x1="32.146" y1="23.274" x2="32.146" y2="29.706"/>
		</g>
		<g>
			<polygon fill="none" stroke="#1B75BB" stroke-width="1.1285" stroke-miterlimit="2.6131" points="12.42,26.519 13.661,25.356 
				13.661,23.83 7.474,23.83 7.474,26.519 11.557,26.519 			"/>
			<polygon fill="none" stroke="#1B75BB" stroke-width="1.1285" stroke-miterlimit="2.6131" points="12.42,26.431 13.661,27.594 
				13.661,29.12 7.474,29.12 7.474,26.431 11.557,26.431 			"/>
		</g>
		<g>
			
				<line fill="none" stroke="#1C75BC" stroke-width="1.2501" stroke-miterlimit="2.6131" x1="45.492" y1="23.902" x2="45.492" y2="29.724"/>
			
				<line fill="none" stroke="#1C75BC" stroke-width="1.2501" stroke-miterlimit="2.6131" x1="48.66" y1="23.902" x2="42.311" y2="23.902"/>
		</g>
	</g>
	<g>
		<polyline fill="none" stroke="#1B75BB" stroke-width="1.1285" stroke-miterlimit="2.6131" points="37.508,40.726 37.508,34.77 
			43.697,34.77 43.697,37.748 37.508,37.748 		"/>
		<g>
			
				<line fill="none" stroke="#1C75BC" stroke-width="1.2501" stroke-miterlimit="2.6131" x1="23.482" y1="34.852" x2="23.482" y2="40.673"/>
			
				<line fill="none" stroke="#1C75BC" stroke-width="1.2501" stroke-miterlimit="2.6131" x1="26.65" y1="34.852" x2="20.301" y2="34.852"/>
		</g>
		<polygon fill="none" stroke="#1C75BC" stroke-width="1.2309" stroke-miterlimit="2.6131" points="29.319,40.044 34.535,40.044 
			34.904,39.651 34.904,35.128 34.535,34.764 29.094,34.764 28.755,35.065 28.755,39.619 		"/>
	</g>
</g>
</svg>
