<?xml version="1.0" encoding="utf-8"?>
<!-- Generator: Adobe Illustrator 16.0.0, SVG Export Plug-In . SVG Version: 6.00 Build 0)  -->
<!DOCTYPE svg PUBLIC "-//W3C//DTD SVG 1.1//EN" "http://www.w3.org/Graphics/SVG/1.1/DTD/svg11.dtd">
<svg version="1.1" id="Layer_1" xmlns="http://www.w3.org/2000/svg" xmlns:xlink="http://www.w3.org/1999/xlink" x="0px" y="0px"
	 width="1981.401px" height="200px" viewBox="0 0 1981.401 200" enable-background="new 0 0 1981.401 200" xml:space="preserve">
<g>
	<path fill="none" stroke="#1C76BC" stroke-width="1.0286" stroke-miterlimit="10" d="M1900.031,144.431l24.094-0.374
		 M1822.124,56.689l-24.468,0.387 M1859.385,26.945V7.741 M1793.139,137.66l66.993,54.599 M1922.619,62.353l-63.234-54.611
		l-61.729,49.335l60.596,53.092V87.193l65.873,56.863l-63.993,48.202v-19.204 M1596.664,176.44l8.662-27.865 M1694.148,176.826
		l-7.902-28.251 M1644.854,173.055v19.204 M1596.664,176.44l48.189-3.386l49.295,3.771 M1578.233,95.482l27.093,53.093
		 M1578.233,10.38l24.455,60.622 M1578.233,71.002l24.455-60.622 M1647.105,192.259l-67.752-48.575l23.335-48.201 M1578.233,71.002
		l24.455,24.48 M1602.688,71.002l-24.455,24.48 M1578.233,95.482h24.455v-24.48h-24.455V95.482L1578.233,95.482z M1713.352,95.482
		l-27.105,53.093 M1713.352,10.38l-24.094,60.622 M1713.352,71.002l-24.467-60.622 M1644.854,192.259l67.739-48.575l-23.335-48.201
		 M1713.352,71.002l-24.094,24.48 M1689.258,71.002l24.094,24.48 M1713.352,95.482h-24.094v-24.48h24.094V95.482L1713.352,95.482z
		 M1362.183,189.62l24.095-160.036 M1362.183,29.584l24.095,160.036 M1443.861,10.38l-38.394,19.204 M1443.861,29.584
		L1304.599,10.38l41.405,19.204 M1386.277,29.584h-24.095l-57.584-19.204l69.631,19.204l69.632-19.204 M1304.599,29.584
		l139.263-19.204l-57.584,19.204 M1110.39,124.854l70.378,66.658l62.861-59.502 M1110.39,74.773l70.378-67.032l62.861,60.249
		 M1134.471,74.773l-24.081,47.068 M1110.39,74.773l24.081,47.068 M1110.39,74.773h24.081v49.707h-24.081V74.773L1110.39,74.773z
		 M994.462,122.975l-67.746,20.709 M934.238,122.975l67.38,20.709 M974.892,10.38l27.473,133.304l41.779,45.937l-49.309-66.646
		 M1019.303,189.62L974.892,10.38l19.943,112.595 M954.188,10.38l-27.473,133.304l-41.779,45.937l48.929-66.646 M909.397,189.62
		l44.791-179.24l-19.95,112.595 M760.353,189.62L784.44,29.584 M760.353,29.584L784.44,189.62 M842.025,10.38l-38.768,19.204
		 M842.025,29.584L702.769,10.38l41.399,19.204 M784.44,29.584h-24.088L702.769,10.38L772.4,29.584l69.625-19.204 M702.769,29.584
		L842.025,10.38L784.44,29.584 M519.468,51.426L495.007,10.38 M606.417,148.575v41.045 M519.468,51.426L630.505,189.62
		 M519.468,10.38l86.949,179.24 M519.468,189.62L495.007,10.38 M519.468,10.38l-24.461,179.24 M630.505,189.62L606.417,10.38
		l24.088,41.805L606.417,189.62 M57.654,75.532h24.088l-24.468,40.286 M191.646,67.244L125.779,7.741L57.654,75.532l23.708,40.286
		H57.274l68.505,76.44l65.867-59.502 M265.416,124.854l70.758,66.658l73.396-66.658 M265.416,74.773l70.758-67.032l73.396,67.032
		 M409.57,74.773l-24.468,47.068 M385.103,74.773l24.468,47.068 M289.877,74.773l-24.461,47.068 M265.416,74.773l24.461,47.068
		 M265.416,74.773h24.461v49.707h-24.461V74.773L265.416,74.773z M385.103,74.773h24.468v49.707h-24.468V74.773L385.103,74.773z
		 M1900.031,144.431c0-8.276-3.012-15.06-9.408-20.323c-6.024-5.65-16.938-10.168-32.744-13.939
		c-18.817-4.518-33.503-11.288-44.031-19.963c-10.928-9.035-16.191-19.949-16.191-33.129c0-13.939,5.65-25.613,17.312-35.022
		c11.301-9.408,26.347-14.313,44.417-14.313c19.577,0,35.382,5.65,46.67,16.192c11.674,10.927,17.312,23.348,16.938,37.66
		l-0.374,0.759h-22.961c0-10.554-3.386-19.216-10.542-25.613c-6.77-6.409-16.938-9.794-29.731-9.794
		c-12.047,0-21.456,3.012-27.853,8.288c-6.396,5.265-9.408,12.421-9.408,21.456c0,7.542,3.385,13.939,10.155,19.203
		c7.156,5.277,18.443,9.808,34.249,13.939c18.83,4.518,33.13,11.301,42.911,20.709c9.782,9.035,14.686,20.336,14.686,33.516
		c0,14.687-5.649,26.36-17.697,35.022c-11.661,8.662-27.093,13.18-46.296,13.18c-17.685,0-33.49-4.892-47.417-14.686
		c-13.553-9.795-20.323-22.589-19.949-39.167l0.373-0.746h22.962c0,11.674,4.144,20.336,12.793,26.359
		c8.289,6.023,18.817,9.035,31.238,9.035c12.42,0,21.829-2.638,28.984-7.902C1896.272,160.249,1900.031,153.093,1900.031,144.431
		L1900.031,144.431z M1713.352,10.38v121.63c0,19.577-6.396,34.263-19.203,44.816c-12.42,10.155-28.973,15.433-49.295,15.433
		c-19.95,0-35.769-5.277-48.189-15.818c-12.034-10.168-18.431-25.228-18.431-44.431V10.38h24.455v121.257
		c0,13.553,3.771,23.721,11.3,30.877c7.903,7.156,18.059,10.541,30.865,10.541c13.166,0,23.708-3.385,31.983-10.541
		c8.276-7.156,12.048-17.324,12.048-30.877V10.38H1713.352L1713.352,10.38z M1443.861,29.584h-57.584V189.62h-24.095V29.584h-57.584
		V10.38h139.263V29.584L1443.861,29.584z M1243.629,132.01l0.373,0.747c0.373,16.95-5.65,30.89-17.685,42.178
		c-12.047,11.674-28.238,17.324-48.176,17.324c-20.336,0-36.888-7.156-49.308-21.469c-12.807-14.3-19.204-32.757-19.204-54.599
		v-32.01c0-22.215,6.397-40.286,19.204-54.598c12.42-14.313,28.972-21.843,49.308-21.843c20.323,0,36.502,5.65,48.549,16.565
		c11.661,10.554,17.685,24.866,17.312,42.938l-0.373,0.746h-22.962c0-12.794-3.758-22.589-11.287-30.118
		c-7.156-7.156-17.698-10.927-31.238-10.927c-13.553,0-24.094,5.65-32.37,16.564c-7.902,10.928-12.047,24.48-12.047,40.299v32.01
		c0,16.564,4.145,30.118,12.047,41.045c8.276,10.915,18.817,16.191,32.37,16.191c13.54,0,24.082-3.771,31.238-10.914
		c7.529-7.156,11.287-17.324,11.287-30.131H1243.629L1243.629,132.01z M934.238,122.975h60.224l-29.732-81.344h-0.753
		L934.238,122.975L934.238,122.975z M1001.618,143.684h-74.902l-17.318,45.937h-24.461l69.252-179.24h20.703l68.119,179.24h-24.841
		L1001.618,143.684L1001.618,143.684z M842.025,29.584H784.44V189.62h-24.088V29.584h-57.584V10.38h139.257V29.584L842.025,29.584z
		 M630.505,189.62h-24.088L520.221,51.052l-0.753,0.374V189.62h-24.461V10.38h24.461l86.196,138.581l0.753-0.386V10.38h24.088
		V189.62L630.505,189.62z M385.103,84.182c0-16.191-4.518-29.744-13.174-40.286c-9.035-10.168-20.702-15.444-35.755-15.444
		c-13.927,0-25.221,5.276-33.876,15.444c-8.276,10.542-12.421,24.095-12.421,40.286v32.01c0,16.565,4.145,30.131,12.421,40.299
		c8.655,10.541,19.949,15.806,33.876,15.806c15.053,0,27.1-5.265,35.755-15.806c9.035-10.168,13.174-23.733,13.174-40.299V84.182
		L385.103,84.182z M409.57,116.191c0,21.842-6.777,39.913-20.33,54.226c-13.547,14.686-31.237,21.842-53.066,21.842
		c-20.703,0-38.015-7.156-50.814-21.842c-13.173-14.313-19.943-32.384-19.943-54.226v-32.01c0-21.829,6.771-39.912,19.943-54.598
		c12.8-14.313,30.111-21.843,50.814-21.843c21.829,0,39.141,7.53,53.066,21.843c13.553,14.312,20.33,32.769,20.33,54.598V116.191
		L409.57,116.191z M191.267,132.01l0.38,0.747c0.373,16.95-5.65,30.89-17.691,42.178c-12.047,11.674-28.231,17.324-48.176,17.324
		c-20.329,0-36.888-7.156-49.681-21.469c-12.421-14.3-18.824-32.757-18.824-54.599v-32.01c0-22.215,6.403-40.286,18.824-54.598
		C88.892,15.271,105.45,7.741,125.779,7.741c20.323,0,36.509,5.65,48.55,16.565c11.667,10.554,17.69,24.866,17.317,42.938
		l-0.38,0.746h-22.962c0-12.794-3.758-22.589-11.287-30.118c-7.15-7.156-17.691-10.927-31.238-10.927
		c-13.553,0-24.467,5.65-32.37,16.564c-7.902,10.928-12.047,24.48-12.047,40.299v32.01c0,16.564,4.145,30.118,12.047,41.045
		c7.903,10.915,18.817,16.191,32.37,16.191c13.547,0,24.088-3.771,31.238-10.914c7.529-7.156,11.287-17.324,11.287-30.131H191.267
		L191.267,132.01z"/>
</g>
</svg>
