<?xml version="1.0" encoding="utf-8"?>
<!-- Generator: Adobe Illustrator 16.0.0, SVG Export Plug-In . SVG Version: 6.00 Build 0)  -->
<!DOCTYPE svg PUBLIC "-//W3C//DTD SVG 1.1//EN" "http://www.w3.org/Graphics/SVG/1.1/DTD/svg11.dtd">
<svg version="1.1" id="Layer_1" xmlns="http://www.w3.org/2000/svg" xmlns:xlink="http://www.w3.org/1999/xlink" x="0px" y="0px"
	 width="1981.402px" height="200px" viewBox="0 0 1981.402 200" enable-background="new 0 0 1981.402 200" xml:space="preserve">
<g opacity="0.7">
	<path fill="none" stroke="#1F76BC" stroke-width="0.6121" stroke-miterlimit="10" d="M1844.759,144.432l24.094-0.375
		 M1766.851,56.689l-24.467,0.387 M1804.113,26.945V7.741 M1737.867,137.66l66.992,54.599 M1867.347,62.353l-63.234-54.611
		l-61.729,49.335l60.596,53.092V87.193l65.873,56.864l-63.992,48.201v-19.203 M1541.392,176.439l8.662-27.864 M1638.876,176.826
		l-7.902-28.251 M1589.582,173.055v19.204 M1541.392,176.439l48.189-3.385l49.295,3.771 M1522.96,95.482l27.094,53.093
		 M1522.96,10.38l24.455,60.622 M1522.96,71.002l24.455-60.622 M1591.833,192.259l-67.752-48.575l23.334-48.201 M1522.96,71.002
		l24.455,24.48 M1547.416,71.002l-24.455,24.48 M1522.96,95.482h24.455v-24.48h-24.455V95.482L1522.96,95.482z M1658.08,95.482
		l-27.105,53.093 M1658.08,10.38l-24.094,60.622 M1658.08,71.002l-24.467-60.622 M1589.582,192.259l67.738-48.575l-23.334-48.201
		 M1658.08,71.002l-24.094,24.48 M1633.986,71.002l24.094,24.48 M1658.08,95.482h-24.094v-24.48h24.094V95.482L1658.08,95.482z
		 M1306.91,189.62l24.096-160.036 M1306.91,29.584l24.096,160.036 M1388.589,10.38l-38.395,19.204 M1388.589,29.584L1249.326,10.38
		l41.406,19.204 M1331.005,29.584h-24.096l-57.584-19.204l69.631,19.204l69.633-19.204 M1249.326,29.584l139.264-19.204
		l-57.584,19.204 M1055.117,124.854l70.379,66.658l62.859-59.502 M1055.117,74.773l70.379-67.032l62.859,60.249 M1079.199,74.773
		l-24.082,47.068 M1055.117,74.773l24.082,47.068 M1055.117,74.773h24.082v49.708h-24.082V74.773L1055.117,74.773z M939.189,122.975
		l-67.746,20.709 M878.966,122.975l67.38,20.709 M919.619,10.38l27.473,133.304l41.779,45.938l-49.309-66.646 M964.03,189.62
		L919.619,10.38l19.943,112.595 M898.916,10.38l-27.473,133.304l-41.779,45.938l48.929-66.646 M854.125,189.62l44.791-179.24
		l-19.95,112.595 M705.08,189.62l24.088-160.036 M705.08,29.584l24.088,160.036 M786.753,10.38l-38.768,19.204 M786.753,29.584
		L647.496,10.38l41.398,19.204 M729.168,29.584H705.08L647.496,10.38l69.632,19.204l69.625-19.204 M647.496,29.584L786.753,10.38
		l-57.585,19.204 M464.195,51.426L439.734,10.38 M551.145,148.575v41.045 M464.195,51.426L575.232,189.62 M464.195,10.38
		l86.948,179.24 M464.195,189.62L439.734,10.38 M464.195,10.38l-24.461,179.24 M575.232,189.62L551.145,10.38l24.089,41.805
		L551.145,189.62 M2.382,75.532H26.47L2.002,115.818 M136.374,67.244L70.507,7.741L2.382,75.532l23.708,40.286H2.002l68.505,76.439
		l65.867-59.502 M210.144,124.854l70.758,66.658l73.396-66.658 M210.144,74.773l70.758-67.032l73.396,67.032 M354.298,74.773
		l-24.468,47.068 M329.83,74.773l24.468,47.068 M234.604,74.773l-24.461,47.068 M210.144,74.773l24.461,47.068 M210.144,74.773
		h24.461v49.708h-24.461V74.773L210.144,74.773z M329.83,74.773h24.468v49.708H329.83V74.773L329.83,74.773z M1844.759,144.432
		c0-8.276-3.012-15.061-9.408-20.324c-6.023-5.649-16.938-10.168-32.744-13.938c-18.816-4.519-33.504-11.288-44.031-19.963
		c-10.928-9.035-16.191-19.949-16.191-33.129c0-13.939,5.65-25.613,17.313-35.022c11.301-9.408,26.348-14.313,44.418-14.313
		c19.576,0,35.381,5.65,46.67,16.192c11.674,10.927,17.311,23.348,16.938,37.66l-0.375,0.759h-22.961
		c0-10.554-3.385-19.216-10.541-25.613c-6.77-6.409-16.938-9.794-29.73-9.794c-12.047,0-21.457,3.012-27.854,8.288
		c-6.396,5.265-9.408,12.421-9.408,21.456c0,7.542,3.385,13.939,10.154,19.203c7.156,5.277,18.443,9.808,34.25,13.939
		c18.83,4.518,33.129,11.301,42.91,20.709c9.783,9.035,14.688,20.336,14.688,33.516c0,14.688-5.65,26.36-17.697,35.022
		c-11.662,8.662-27.094,13.18-46.297,13.18c-17.686,0-33.49-4.892-47.416-14.686c-13.555-9.796-20.324-22.589-19.949-39.167
		l0.373-0.746h22.961c0,11.674,4.145,20.336,12.793,26.359c8.289,6.022,18.818,9.035,31.238,9.035s21.83-2.639,28.984-7.902
		C1841,160.249,1844.759,153.093,1844.759,144.432L1844.759,144.432z M1658.08,10.38v121.63c0,19.577-6.396,34.264-19.203,44.816
		c-12.42,10.154-28.973,15.433-49.295,15.433c-19.951,0-35.77-5.276-48.189-15.817c-12.035-10.168-18.432-25.229-18.432-44.432
		V10.38h24.455v121.257c0,13.553,3.771,23.721,11.301,30.877c7.902,7.156,18.059,10.541,30.865,10.541
		c13.166,0,23.707-3.385,31.982-10.541s12.049-17.324,12.049-30.877V10.38H1658.08L1658.08,10.38z M1388.589,29.584h-57.584V189.62
		h-24.096V29.584h-57.584V10.38h139.264V29.584L1388.589,29.584z M1188.355,132.01l0.373,0.747
		c0.373,16.95-5.648,30.89-17.684,42.179c-12.047,11.674-28.238,17.323-48.176,17.323c-20.336,0-36.889-7.155-49.309-21.469
		c-12.807-14.3-19.205-32.757-19.205-54.599v-32.01c0-22.215,6.398-40.286,19.205-54.598c12.42-14.313,28.973-21.843,49.309-21.843
		c20.322,0,36.502,5.65,48.549,16.565c11.66,10.554,17.684,24.866,17.311,42.938l-0.373,0.746h-22.961
		c0-12.794-3.758-22.589-11.287-30.118c-7.156-7.156-17.697-10.927-31.238-10.927c-13.553,0-24.094,5.65-32.369,16.564
		c-7.902,10.928-12.047,24.48-12.047,40.299v32.009c0,16.564,4.145,30.119,12.047,41.045c8.275,10.916,18.816,16.191,32.369,16.191
		c13.541,0,24.082-3.771,31.238-10.914c7.529-7.156,11.287-17.324,11.287-30.131h22.961V132.01z M878.966,122.975h60.225
		l-29.732-81.344h-0.753L878.966,122.975L878.966,122.975z M946.346,143.684h-74.901l-17.318,45.938h-24.461l69.252-179.24h20.703
		l68.119,179.24h-24.841L946.346,143.684L946.346,143.684z M786.753,29.584h-57.585V189.62H705.08V29.584h-57.584V10.38h139.257
		V29.584L786.753,29.584z M575.232,189.62h-24.089L464.948,51.052l-0.753,0.374V189.62h-24.461V10.38h24.461l86.195,138.581
		l0.753-0.386V10.38h24.089V189.62L575.232,189.62z M329.83,84.182c0-16.191-4.519-29.744-13.174-40.286
		c-9.035-10.168-20.702-15.444-35.755-15.444c-13.927,0-25.221,5.276-33.876,15.444c-8.276,10.542-12.421,24.095-12.421,40.286
		v32.009c0,16.565,4.145,30.132,12.421,40.3c8.655,10.541,19.949,15.806,33.876,15.806c15.053,0,27.1-5.265,35.755-15.806
		c9.035-10.168,13.174-23.733,13.174-40.3V84.182L329.83,84.182z M354.298,116.191c0,21.842-6.776,39.912-20.33,54.226
		c-13.547,14.687-31.237,21.842-53.066,21.842c-20.703,0-38.015-7.155-50.814-21.842c-13.173-14.313-19.943-32.384-19.943-54.226
		v-32.01c0-21.829,6.771-39.912,19.943-54.598c12.8-14.313,30.111-21.843,50.814-21.843c21.829,0,39.141,7.53,53.066,21.843
		c13.554,14.312,20.33,32.769,20.33,54.598V116.191L354.298,116.191z M135.994,132.01l0.38,0.747
		c0.373,16.95-5.65,30.89-17.691,42.179c-12.047,11.674-28.231,17.323-48.176,17.323c-20.329,0-36.888-7.155-49.681-21.469
		c-12.421-14.3-18.824-32.757-18.824-54.599v-32.01c0-22.215,6.403-40.286,18.824-54.598C33.619,15.271,50.178,7.741,70.507,7.741
		c20.323,0,36.509,5.65,48.55,16.565c11.667,10.554,17.69,24.866,17.317,42.938l-0.38,0.746h-22.962
		c0-12.794-3.758-22.589-11.287-30.118c-7.15-7.156-17.691-10.927-31.238-10.927c-13.553,0-24.467,5.65-32.37,16.564
		C30.234,54.438,26.09,67.99,26.09,83.809v32.009c0,16.564,4.145,30.119,12.047,41.046c7.903,10.915,18.817,16.19,32.37,16.19
		c13.547,0,24.088-3.771,31.238-10.914c7.529-7.156,11.287-17.324,11.287-30.131H135.994L135.994,132.01z"/>
</g>
</svg>
