<svg id="Layer_1" data-name="Layer 1" xmlns="http://www.w3.org/2000/svg" viewBox="0 0 64 64"><defs><style>.cls-1{fill:none;stroke:#1c75bc;stroke-miterlimit:10;stroke-width:0.4px;}</style></defs><title>Timely decision making 2</title><path class="cls-1" d="M30.56,8.5a18.53,18.53,0,0,0-10.72,4.43l2,2a1.44,1.44,0,0,1-2,2.11L19.84,17h0l-2-2a18.65,18.65,0,0,0-4.43,10.73h2.82a1.43,1.43,0,0,1,0,2.86H13.38a18.65,18.65,0,0,0,4.44,10.75l2-2a1.44,1.44,0,0,1,2,2l-2,2a18.53,18.53,0,0,0,10.72,4.43V42.92a1.43,1.43,0,0,1,2.86,0h0v2.85a18.55,18.55,0,0,0,10.75-4.43l-2-2.09a1.43,1.43,0,1,1,2-2l0,.06,2,2a18.61,18.61,0,0,0,4.42-10.71H47.81a1.43,1.43,0,1,1,0-2.86h2.82A18.58,18.58,0,0,0,46.2,15l-2,2a1.44,1.44,0,0,1-2.07-2h0l2-2A18.6,18.6,0,0,0,33.42,8.5v2.83a1.43,1.43,0,0,1-2.86,0h0Zm1.3,5.71H32a1.43,1.43,0,0,1,1.45,1.41h0v10H39a1.43,1.43,0,0,1,0,2.86h-6.7A1.46,1.46,0,0,1,31,28.14h0a1.43,1.43,0,0,1-.41-1.24V15.67a1.44,1.44,0,0,1,1.26-1.46Z"/><path class="cls-1" d="M3.33,28.56H10.5a21.56,21.56,0,0,0,43,0h7.16V55.5H3.33Z"/><line class="cls-1" x1="30.6" y1="27.59" x2="22.19" y2="38.19"/><line class="cls-1" x1="16.53" y1="16.65" x2="30.6" y2="27.59"/><line class="cls-1" x1="30.88" y1="42.03" x2="16.53" y2="16.65"/><line class="cls-1" x1="28.2" y1="8.83" x2="15.11" y2="35.12"/><line class="cls-1" x1="30.7" y1="15.1" x2="28.2" y2="8.83"/><line class="cls-1" x1="19.84" y1="12.93" x2="30.7" y2="15.1"/><line class="cls-1" x1="39.38" y1="28.57" x2="49.32" y2="34.16"/><line class="cls-1" x1="32.72" y1="41.69" x2="39.38" y2="28.57"/><line class="cls-1" x1="50.21" y1="31.36" x2="19.84" y2="41.32"/><line class="cls-1" x1="33.43" y1="15.32" x2="46.51" y2="27.76"/><line class="cls-1" x1="49.65" y1="21.01" x2="33.43" y2="15.32"/><line class="cls-1" x1="33.43" y1="8.5" x2="41.78" y2="15.73"/><line class="cls-1" x1="3.33" y1="28.57" x2="22.19" y2="55.5"/><line class="cls-1" x1="26.48" y1="47.92" x2="34.76" y2="55.5"/><line class="cls-1" x1="3.33" y1="55.49" x2="26.48" y2="47.92"/><line class="cls-1" x1="3.33" y1="55.49" x2="16.16" y2="41.69"/><line class="cls-1" x1="10.5" y1="28.57" x2="3.33" y2="55.49"/><polyline class="cls-1" points="34.76 55.5 60.67 47.92 53.51 28.56"/><line class="cls-1" x1="60.67" y1="38.19" x2="34.76" y2="55.5"/></svg>