<svg id="Layer_1" data-name="Layer 1" xmlns="http://www.w3.org/2000/svg" viewBox="0 0 64 64"><defs><style>.cls-1{fill:none;stroke:#1c75bc;stroke-miterlimit:10;stroke-width:0.4px;}</style></defs><title>Omni-channel experience 2</title><path class="cls-1" d="M4.89,29.92V50.71H19.44a1,1,0,0,1,1,1h4.16a1,1,0,0,1,1-1H40.22V29.92a1,1,0,0,0-1-1H5.93a1,1,0,0,0-1,1Z"/><path class="cls-1" d="M25.68,53.82H19.44a1,1,0,0,1-1-1H3a3.13,3.13,0,0,0,2.94,2.07H39.19a3.11,3.11,0,0,0,2.94-2.07H26.72A1,1,0,0,1,25.68,53.82Z"/><path class="cls-1" d="M61,28.88V4a1,1,0,0,0-1-1H22.56a1,1,0,0,0-1,1h0V26.8H39.16a3.12,3.12,0,0,1,3.12,3.12H59.91a1,1,0,0,0,1.1-1Z"/><path class="cls-1" d="M49.58,42.39h8.36a1,1,0,0,1,1,1V60.05a1,1,0,0,1-1,1H49.53a1,1,0,0,1-1-1V43.43a1,1,0,0,1,1-1Z"/><path class="cls-1" d="M53.73,37.2H46.12L44.63,32H42.3v7.28H53.73a1,1,0,1,0,0-2.08Z"/><line class="cls-1" x1="51.92" y1="23.05" x2="60.46" y2="29.8"/><line class="cls-1" x1="61.01" y1="23.03" x2="21.52" y2="23.03"/><line class="cls-1" x1="61.01" y1="11.19" x2="47.63" y2="23.05"/><line class="cls-1" x1="21.52" y1="14.08" x2="61.01" y2="11.19"/><line class="cls-1" x1="60.65" y1="3.16" x2="21.52" y2="14.08"/><line class="cls-1" x1="40.22" y1="23.03" x2="60.65" y2="3.16"/><line class="cls-1" x1="22.56" y1="2.92" x2="40.22" y2="23.03"/><polyline class="cls-1" points="50.12 29.92 35.99 23.05 21.51 26.81"/><line class="cls-1" x1="57.9" y1="23.05" x2="50.12" y2="29.92"/><polyline class="cls-1" points="42.31 39.26 46.13 37.19 53.75 39.26"/><line class="cls-1" x1="44.65" y1="31.99" x2="42.31" y2="39.26"/><line class="cls-1" x1="53.94" y1="37.22" x2="44.34" y2="39.28"/><line class="cls-1" x1="40.22" y1="31.69" x2="4.88" y2="43.5"/><line class="cls-1" x1="25.52" y1="28.88" x2="14.92" y2="50.71"/><line class="cls-1" x1="40.22" y1="50.7" x2="25.52" y2="28.88"/><line class="cls-1" x1="5.3" y1="29.09" x2="40.22" y2="50.7"/><polygon class="cls-1" points="2.99 52.79 10.34 54.85 22.76 53.83 33.35 54.85 42.13 52.79 22.76 54.87 2.99 52.79"/><line class="cls-1" x1="58.93" y1="58.92" x2="49.39" y2="61.08"/><line class="cls-1" x1="58.08" y1="61.08" x2="48.54" y2="58.92"/><line class="cls-1" x1="58.93" y1="58.92" x2="48.54" y2="58.92"/><line class="cls-1" x1="58.92" y1="52.79" x2="48.88" y2="42.66"/><line class="cls-1" x1="48.54" y1="58.94" x2="58.92" y2="52.79"/><line class="cls-1" x1="58.57" y1="42.66" x2="48.54" y2="58.94"/></svg>