<svg id="Layer_1" data-name="Layer 1" xmlns="http://www.w3.org/2000/svg" viewBox="0 0 64 64"><defs><style>.cls-1{fill:none;stroke:#1c75bc;stroke-miterlimit:10;stroke-width:0.4px;}</style></defs><title>optimised productivity 2</title><path class="cls-1" d="M42.54,24.33h3.61V58.67h7.56V24.33h3.61a.87.87,0,0,0,.91-.83.85.85,0,0,0-.18-.57L50.61,12.12A.93.93,0,0,0,49.3,12a.47.47,0,0,0-.1.1L41.84,22.93A.89.89,0,0,0,42,24.16.9.9,0,0,0,42.54,24.33Z"/><path class="cls-1" d="M41.84,58.67V32a.91.91,0,0,0-.88-.87H35.25a.87.87,0,0,0-.88.87V58.67Z"/><path class="cls-1" d="M30.06,58.67V37.17a.84.84,0,0,0-.73-.93H23.47a.83.83,0,0,0-.88.78.75.75,0,0,0,0,.15v21.5Z"/><path class="cls-1" d="M18.28,58.67V41.39a.91.91,0,0,0-.93-.87H11.69a.83.83,0,0,0-.88.77V58.67Z"/><path class="cls-1" d="M37.28,15l-2.21-.44a10.92,10.92,0,0,0-.93-2.46l1.32-1.86a.84.84,0,0,0-.18-1.06l-3-3a.93.93,0,0,0-1.14-.1L29.36,7.37A8.73,8.73,0,0,0,27,6.44l-.35-2.19a.84.84,0,0,0-.87-.71H21.53a.93.93,0,0,0-.87.71l-.44,2.19a11.51,11.51,0,0,0-2.47.93L15.89,6.13a.93.93,0,0,0-1.14.1l-2.89,2.9a.8.8,0,0,0-.17,1L12.92,12a13.7,13.7,0,0,0-1.06,2.38l-2.11.43a.86.86,0,0,0-.7.88v4.18a.84.84,0,0,0,.7.87l2.2.35a12.06,12.06,0,0,0,.93,2.47l-1.31,1.86a.92.92,0,0,0,.08,1.14l3,3a.82.82,0,0,0,1.14.09l1.86-1.23A14.5,14.5,0,0,0,20,29.51l.34,2.19a.88.88,0,0,0,.88.71h4.25a.93.93,0,0,0,.93-.69l.43-2.19a12.67,12.67,0,0,0,2.47-.93l1.86,1.32a1,1,0,0,0,1.15-.1l3-3a1,1,0,0,0,.1-1.15l-1.24-1.86a14.4,14.4,0,0,0,1.06-2.37l2.19-.35a.89.89,0,0,0,.71-.89V16A1.05,1.05,0,0,0,37.28,15Zm-7.57,2.9a6.16,6.16,0,1,1-6.17-6.17,6.16,6.16,0,0,1,6.17,6.17Z"/><polyline class="cls-1" points="3.81 9.98 3.81 60.5 60.19 60.5"/><line class="cls-1" x1="47.28" y1="14.97" x2="51.21" y2="12.97"/><line class="cls-1" x1="57.95" y1="24.07" x2="47.28" y2="14.97"/><line class="cls-1" x1="43.94" y1="19.87" x2="53.71" y2="24.33"/><line class="cls-1" x1="53.71" y1="16.6" x2="43.94" y2="19.87"/><line class="cls-1" x1="46.15" y1="45.59" x2="53.71" y2="24.33"/><polyline class="cls-1" points="21.28 32.43 27.49 22.64 34.1 23.81 31.63 30.04"/><polyline class="cls-1" points="11.45 26.05 22 23.86 27.01 29.44 21.28 32.43"/><polyline class="cls-1" points="9.22 15.17 17.63 19.56 17.66 28.46 11.45 26.05"/><polyline class="cls-1" points="15.34 5.99 18.16 14.96 11.96 21.2 9.22 15.17"/><polyline class="cls-1" points="20.73 12.46 12.92 12.18 15.34 5.99"/><line class="cls-1" x1="26.32" y1="3.69" x2="20.73" y2="12.46"/><polyline class="cls-1" points="25.43 12.06 20.2 6.39 26.32 3.69"/><line class="cls-1" x1="35.52" y1="9.69" x2="25.43" y2="12.06"/><line class="cls-1" x1="29.71" y1="7.12" x2="35.52" y2="9.69"/><polyline class="cls-1" points="37.34 21.02 28.59 14.39 29.71 7.12"/><polyline class="cls-1" points="31.63 30.04 29.58 19.21 35.08 14.4 37.34 21.02"/><line class="cls-1" x1="34.37" y1="58.67" x2="41.85" y2="42.18"/><polyline class="cls-1" points="34.37 36.04 41.83 58.65 37.34 31.13"/><line class="cls-1" x1="41.85" y1="31.83" x2="34.37" y2="36.04"/><line class="cls-1" x1="15.19" y1="40.58" x2="12.57" y2="58.67"/><line class="cls-1" x1="18.27" y1="58.65" x2="15.19" y2="40.58"/><line class="cls-1" x1="10.82" y1="43.85" x2="18.27" y2="58.65"/><line class="cls-1" x1="24.24" y1="58.67" x2="30.06" y2="43.93"/><line class="cls-1" x1="25.62" y1="36.3" x2="24.24" y2="58.67"/><line class="cls-1" x1="30.06" y1="58.68" x2="25.62" y2="36.3"/><line class="cls-1" x1="30.06" y1="43.93" x2="22.58" y2="40.29"/><line class="cls-1" x1="53.65" y1="58.69" x2="46.15" y2="24.33"/><line class="cls-1" x1="46.29" y1="45.2" x2="53.65" y2="58.69"/></svg>