<svg id="Layer_1" data-name="Layer 1" xmlns="http://www.w3.org/2000/svg" viewBox="0 0 64 64"><defs><style>.cls-1{fill:none;stroke:#1c75bc;stroke-miterlimit:10;stroke-width:0.4px;}</style></defs><title>Increased profitability 2</title><path class="cls-1" d="M50.39,9.9A23.87,23.87,0,0,0,16.67,8.39c-.53.48-1,1-1.51,1.51l1,1.16A22.35,22.35,0,0,0,10,26V46.55h3.82V26a18.76,18.76,0,0,1,5-12.66l1.29,1.14a17.11,17.11,0,0,1,24.17-1.06c.37.34.72.69,1.06,1.06l.88-1.14A18.44,18.44,0,0,1,50.8,26V46.55h3.83V26A21.91,21.91,0,0,0,49,11.06Z"/><path class="cls-1" d="M55.9,23.81v22.6c4.46,0,7-3.17,7-7.09V30.89A6.69,6.69,0,0,0,55.9,23.81Z"/><path class="cls-1" d="M30.25,54.2H25.18a3.82,3.82,0,0,0-3.8,3.8c0,.44.09,0,.23,1.28H12.87a7.07,7.07,0,0,1-6.68-6.72V46a6.51,6.51,0,0,0,2.55.38V23.81c-4.47,0-7.65,3.17-7.65,7.08v8.43a7.81,7.81,0,0,0,2.55,5.19v8.07a9.62,9.62,0,0,0,9.23,9.27H30.25a3.83,3.83,0,0,0,0-7.65Z"/><line class="cls-1" x1="42.31" y1="4.12" x2="45.38" y2="14.5"/><polyline class="cls-1" points="15.18 9.89 28.16 9.55 39.02 2.97"/><line class="cls-1" x1="20.14" y1="14.5" x2="22.26" y2="4.6"/><polyline class="cls-1" points="9.99 44.04 13.84 29.95 12.51 16.18 18.84 13.34"/><line class="cls-1" x1="13.82" y1="46.55" x2="9.99" y2="44.04"/><polyline class="cls-1" points="16 17.39 10.05 24.73 13.82 46.55"/><polyline class="cls-1" points="52.55 16.43 50.81 29.95 54.62 44.01 51.26 46.55"/><polyline class="cls-1" points="51.26 46.55 54.59 24.82 49.02 17.51 48.96 11.05"/><polyline class="cls-1" points="9.73 61.23 8.47 57.44 4.12 55.38"/><polyline class="cls-1" points="31.04 61.76 21.6 59.29 9.73 61.23"/><line class="cls-1" x1="25.19" y1="54.19" x2="31.04" y2="61.76"/><line class="cls-1" x1="21.41" y1="61.85" x2="25.19" y2="54.19"/><line class="cls-1" x1="31.68" y1="54.48" x2="21.41" y2="61.85"/><polyline class="cls-1" points="7.12 59.65 11.91 59.21 21.41 61.86"/><polyline class="cls-1" points="6.18 46.02 3.63 47.27 6.65 54.85 7.12 59.65"/><line class="cls-1" x1="55.91" y1="23.82" x2="60.29" y2="45.04"/><line class="cls-1" x1="61.03" y1="25.83" x2="55.91" y2="46.41"/><line class="cls-1" x1="8.75" y1="23.82" x2="2.26" y2="42.83"/><line class="cls-1" x1="8.75" y1="46.41" x2="2.26" y2="27.03"/><polyline class="cls-1" points="26.55 2.96 38.64 9.98 50.4 9.89"/></svg>