<svg id="Layer_1" data-name="Layer 1" xmlns="http://www.w3.org/2000/svg" viewBox="0 0 64 64"><defs><style>.cls-1{fill:none;stroke:#1c75bc;stroke-miterlimit:10;stroke-width:0.4px;}</style></defs><title>Rich collaboration 2</title><path class="cls-1" d="M54.26,12.31H9.76a2,2,0,0,0-1.95,1.95V31.85a2,2,0,0,0,2,1.94H25.07A1.27,1.27,0,0,0,26.24,33l1.17-2.55c.06-.17,8.85-.11,9-.11a.18.18,0,0,1,.17.11L37.77,33a1.3,1.3,0,0,0,1.18.76H54.26a2,2,0,0,0,2-1.94V14.28a2,2,0,0,0-1.94-2Z"/><path class="cls-1" d="M32,2.74A20.68,20.68,0,0,0,15.42,11H48.57A20.6,20.6,0,0,0,32,2.74Z"/><path class="cls-1" d="M44.07,47.7c-7.59,9-16.53,9-24.14,0,0,1.7,0,3.13-.06,4.61-.06,1.75-.06,3.55-.06,5.94a.7.7,0,0,0,.42.65,33.13,33.13,0,0,0,23.61.35.67.67,0,0,0,.44-.64c0-3-.07-5-.1-7.2C44.1,50.24,44.08,49.06,44.07,47.7Z"/><path class="cls-1" d="M36.54,33.59l-.85-1.87H28.33l-.85,1.87a2.66,2.66,0,0,1-2.41,1.56H14.31c3.53,9.25,10.19,18,17.69,18s14.16-8.78,17.69-18H39A2.65,2.65,0,0,1,36.54,33.59Z"/><path class="cls-1" d="M57.56,16.86V28.32a4.15,4.15,0,0,0,3.08-4V20.86A4.1,4.1,0,0,0,57.56,16.86Z"/><path class="cls-1" d="M3.36,20.86V24.3a4.11,4.11,0,0,0,3.09,4V16.86A4.11,4.11,0,0,0,3.36,20.86Z"/><line class="cls-1" x1="6.47" y1="16.86" x2="3.84" y2="26.25"/><line class="cls-1" x1="3.54" y1="19.66" x2="6.47" y2="28.32"/><line class="cls-1" x1="57.56" y1="16.86" x2="60.14" y2="26.27"/><line class="cls-1" x1="60.43" y1="19.58" x2="57.56" y2="28.32"/><line class="cls-1" x1="15.42" y1="10.97" x2="41.95" y2="5.25"/><line class="cls-1" x1="48.57" y1="10.97" x2="23.37" y2="4.61"/><line class="cls-1" x1="14.31" y1="35.15" x2="39.51" y2="50.27"/><line class="cls-1" x1="28.33" y1="31.72" x2="45.98" y2="42.71"/><line class="cls-1" x1="29.74" y1="52.91" x2="28.33" y2="31.72"/><line class="cls-1" x1="49.69" y1="35.15" x2="29.74" y2="52.91"/><line class="cls-1" x1="8.42" y1="33.25" x2="43.37" y2="12.31"/><line class="cls-1" x1="56.21" y1="20.33" x2="8.42" y2="33.25"/><line class="cls-1" x1="8.76" y1="12.6" x2="56.21" y2="20.33"/><line class="cls-1" x1="35.33" y1="61.13" x2="19.89" y2="51.75"/><line class="cls-1" x1="44.24" y1="54.48" x2="35.33" y2="61.13"/><line class="cls-1" x1="19.89" y1="58.56" x2="44.24" y2="54.48"/></svg>