<svg id="Layer_1" data-name="Layer 1" xmlns="http://www.w3.org/2000/svg" viewBox="0 0 64 64"><defs><style>.cls-1{fill:none;stroke:#1c75bc;stroke-miterlimit:10;stroke-width:0.4px;}</style></defs><title>Higher customer engagement 2</title><path class="cls-1" d="M58.07,13.89l-11.5,1a.31.31,0,0,0-.28.32.33.33,0,0,0,.09.21l2.88,2.75-.62.66-.43.43L46,21.49l-2.53,2.7c-.62.66-1.19,1.28-1.8,1.92-1.43,1.56-2.81,3.13-4.18,4.69-.66.81-1.38,1.61-2,2.43a4.94,4.94,0,0,0-.53.66l-.71-.43L23,27.21l-1.81-1L19.93,27.6l-1.62,1.76L5.64,43.12,8.3,45.68,22,32.44h0l8.06,5.22,4.12,2.66,1.48,1,.33.23,1.91-1.7c.82-.71,1.57-1.43,2.33-2.14s1.52-1.42,2.28-2.18C44.05,34,45.52,32.55,47,31s2.94-3,4.37-4.56l2.13-2.32.28-.33.77-.81,2.75,2.61a.3.3,0,0,0,.43,0,.25.25,0,0,0,.08-.18l.58-11.29C58.35,13.94,58.26,13.89,58.07,13.89Z"/><path class="cls-1" d="M8.4,60.91a1,1,0,0,0,1,1h6.88a1,1,0,0,0,1-1V40.84L8.4,49.38V60.91Z"/><path class="cls-1" d="M20.64,37.57V60.91a1,1,0,0,0,.95,1h6.88a1,1,0,0,0,1-1V40.56l-7-4.65Z"/><path class="cls-1" d="M36.2,44.93l-3.32-2.14V60.91a1,1,0,0,0,1,1h6.88a1,1,0,0,0,1-1V40c-.67.61-1.33,1.23-2,1.85Z"/><path class="cls-1" d="M48.91,33l-3.74,3.77V60.86a1,1,0,0,0,.95,1h7a1,1,0,0,0,1-1V27.7l-.66.71C52,29.88,50.44,31.49,48.91,33Z"/><path class="cls-1" d="M38.71,24a6.88,6.88,0,0,1-3.92,2.12v2.61a.47.47,0,0,1-.15.35.44.44,0,0,1-.36.15h-2a.41.41,0,0,1-.35-.15.44.44,0,0,1-.16-.35V26.13a7.81,7.81,0,0,1-1.91-.51c-.61-.25-1.12-.45-1.57-.65a6.19,6.19,0,0,1-1.05-.7,3.42,3.42,0,0,0-.52-.4,1.9,1.9,0,0,1-.44-.41.53.53,0,0,1-.05-.6l1.56-2.06a.29.29,0,0,1,.3-.15.53.53,0,0,1,.4.15l.05.05a8.41,8.41,0,0,0,3.67,1.91,7.59,7.59,0,0,0,1.16.11,3.69,3.69,0,0,0,2.16-.65,2.13,2.13,0,0,0,1-1.92,1.6,1.6,0,0,0-.25-.8,2.16,2.16,0,0,0-.51-.61,4.57,4.57,0,0,0-.9-.54c-.45-.21-.76-.41-1-.51s-.65-.25-1.21-.5c-.4-.15-.69-.31-.9-.4a6.69,6.69,0,0,1-.91-.41c-.4-.2-.7-.35-.95-.45a7,7,0,0,1-.86-.55c-.29-.25-.6-.45-.8-.65s-.4-.46-.65-.76a3.68,3.68,0,0,1-.56-.85c-.1-.31-.2-.61-.3-1a4.89,4.89,0,0,1-.15-1.21A5.11,5.11,0,0,1,28,7.42a6.81,6.81,0,0,1,3.83-2V2.59a.49.49,0,0,1,.48-.5h2a.5.5,0,0,1,.5.48V5.26a5.53,5.53,0,0,1,1.66.35l1.35.52a9.81,9.81,0,0,1,1,.55c.3.21.71.58.81.66a.55.55,0,0,1,.1.6l-1.26,2.19a.35.35,0,0,1-.3.25.39.39,0,0,1-.4-.09,1.21,1.21,0,0,0-.26-.2c-.14-.11-.3-.21-.54-.41l-1-.5a6.2,6.2,0,0,0-1.09-.4,5.79,5.79,0,0,0-1.31-.15,3.79,3.79,0,0,0-2.36.65,2,2,0,0,0-.92,1.64,3.94,3.94,0,0,0,.09.76,1,1,0,0,0,.46.6c.25.2.45.35.6.5a3.55,3.55,0,0,0,.86.51c.4.2.7.29.9.4s.55.2,1,.4,1,.35,1.21.45a12.38,12.38,0,0,1,1.16.56,6.61,6.61,0,0,1,1.16.65c.25.2.55.45.9.76a3.32,3.32,0,0,1,.8.95A5.18,5.18,0,0,1,40,18.62a4.54,4.54,0,0,1,.2,1.41A5.43,5.43,0,0,1,38.71,24Z"/><line class="cls-1" x1="27.96" y1="24.78" x2="33.34" y2="22.87"/><line class="cls-1" x1="28.06" y1="20.65" x2="27.96" y2="24.78"/><line class="cls-1" x1="32.7" y1="22.99" x2="34.61" y2="29.09"/><line class="cls-1" x1="39" y1="16.81" x2="29.75" y2="16.07"/><polyline class="cls-1" points="26.6 12.21 32.14 13.26 35.7 18.89"/><line class="cls-1" x1="27.8" y1="7.62" x2="29.75" y2="16.07"/><line class="cls-1" x1="34.82" y1="5.26" x2="26.66" y2="9.78"/><line class="cls-1" x1="31.96" y1="2.3" x2="38.13" y2="10.38"/><line class="cls-1" x1="33.57" y1="8.63" x2="39.59" y2="7.34"/><polyline class="cls-1" points="35.96 41.5 34.96 33.93 54.53 23.01 53.34 14.37"/><line class="cls-1" x1="21.21" y1="26.21" x2="35.96" y2="41.5"/><line class="cls-1" x1="22.01" y1="32.39" x2="21.21" y2="26.18"/><polyline class="cls-1" points="35.96 41.5 49.26 18.13 54.53 23.01"/><line class="cls-1" x1="58.19" y1="17.45" x2="49.25" y2="18.16"/><line class="cls-1" x1="13.78" y1="34.28" x2="8.28" y2="45.66"/><line class="cls-1" x1="14.54" y1="39.66" x2="13.78" y2="34.28"/><line class="cls-1" x1="21.21" y1="26.21" x2="14.54" y2="39.66"/><line class="cls-1" x1="45.17" y1="42.35" x2="54.04" y2="27.7"/><line class="cls-1" x1="54.04" y1="52.89" x2="45.17" y2="42.35"/><line class="cls-1" x1="45.63" y1="61.7" x2="54.04" y2="52.9"/><line class="cls-1" x1="54.04" y1="27.69" x2="45.63" y2="61.7"/><line class="cls-1" x1="41.68" y1="53.14" x2="34.22" y2="61.91"/><line class="cls-1" x1="32.86" y1="42.8" x2="41.68" y2="53.14"/><line class="cls-1" x1="41.35" y1="61.7" x2="32.86" y2="42.8"/><line class="cls-1" x1="32.88" y1="53.23" x2="41.35" y2="61.7"/><line class="cls-1" x1="22.01" y1="61.91" x2="26.6" y2="38.68"/><line class="cls-1" x1="29.51" y1="50.87" x2="22.01" y2="61.91"/><line class="cls-1" x1="20.64" y1="45.78" x2="29.51" y2="50.87"/><line class="cls-1" x1="29.52" y1="40.57" x2="20.64" y2="45.78"/><line class="cls-1" x1="8.4" y1="49.47" x2="17.2" y2="50.55"/><line class="cls-1" x1="16.82" y1="61.7" x2="8.4" y2="49.47"/><line class="cls-1" x1="17.22" y1="40.84" x2="8.82" y2="61.7"/><line class="cls-1" x1="16.82" y1="61.7" x2="8.4" y2="55.97"/><line class="cls-1" x1="39.91" y1="18.39" x2="31.69" y2="27.87"/><line class="cls-1" x1="36.21" y1="19.5" x2="39" y2="23.67"/></svg>