<?xml version="1.0" encoding="utf-8"?>
<!-- Generator: Adobe Illustrator 16.0.0, SVG Export Plug-In . SVG Version: 6.00 Build 0)  -->
<!DOCTYPE svg PUBLIC "-//W3C//DTD SVG 1.1//EN" "http://www.w3.org/Graphics/SVG/1.1/DTD/svg11.dtd">
<svg version="1.1" xmlns="http://www.w3.org/2000/svg" xmlns:xlink="http://www.w3.org/1999/xlink" x="0px" y="0px"
	 width="1981.402px" height="200px" viewBox="0 622 1981.402 200" enable-background="new 0 622 1981.402 200" xml:space="preserve"
	>
<g id="Layer_1">
	<g>
		<polygon fill="none" stroke="#257CBE" stroke-width="0.6121" stroke-miterlimit="10" points="789.675,811.023 765.614,811.023 
			679.938,673.322 679.179,673.588 679.179,811.025 655.118,811.025 655.118,632.975 679.179,632.975 764.854,770.41 
			765.614,770.143 765.614,632.975 789.675,632.975 789.675,811.023 		"/>
		<polyline fill="none" stroke="#257CBE" stroke-width="0.6121" stroke-miterlimit="10" points="789.675,811.023 765.614,632.975 
			789.675,674.426 765.613,811.025 		"/>
		
			<line fill="none" stroke="#257CBE" stroke-width="0.6121" stroke-miterlimit="10" x1="679.179" y1="632.975" x2="655.118" y2="811.025"/>
		
			<line fill="none" stroke="#257CBE" stroke-width="0.6121" stroke-miterlimit="10" x1="679.179" y1="811.023" x2="655.118" y2="632.975"/>
		
			<line fill="none" stroke="#257CBE" stroke-width="0.6121" stroke-miterlimit="10" x1="679.179" y1="632.975" x2="765.614" y2="811.025"/>
		
			<line fill="none" stroke="#257CBE" stroke-width="0.6121" stroke-miterlimit="10" x1="679.179" y1="673.588" x2="789.675" y2="811.023"/>
		
			<line fill="none" stroke="#257CBE" stroke-width="0.6121" stroke-miterlimit="10" x1="765.614" y1="770.143" x2="765.614" y2="811.025"/>
		
			<line fill="none" stroke="#257CBE" stroke-width="0.6121" stroke-miterlimit="10" x1="679.179" y1="673.588" x2="655.118" y2="632.975"/>
	</g>
	<path fill="none" stroke="#1C76BC" stroke-width="0.6121" stroke-miterlimit="10" d="M962.818,808.662l-82.371-18.625
		 M856.902,808.662l105.916-18.625 M880.447,634.49l-23.545,174.172l23.545-18.625L856.902,634.49 M880.559,790.922h82.406v18.588
		H857.012V635.373h23.547V790.922z"/>
	<g>
		<polygon fill="none" stroke="#257CBE" stroke-width="0.6121" stroke-miterlimit="10" points="1223.65,744.894 1283.553,744.894 
			1254.244,663.893 1253.484,663.893 1223.65,744.894 		"/>
		<polygon fill="none" stroke="#257CBE" stroke-width="0.6121" stroke-miterlimit="10" points="1290.775,765.2 1216.238,765.2 
			1199.324,811.024 1174.807,811.024 1243.604,632.974 1264.242,632.974 1331.939,811.024 1307.383,811.024 1290.775,765.2 		"/>
		<polyline fill="none" stroke="#257CBE" stroke-width="0.6121" stroke-miterlimit="10" points="1199.324,811.024 1243.604,632.974 
			1223.65,744.894 		"/>
		<polyline fill="none" stroke="#257CBE" stroke-width="0.6121" stroke-miterlimit="10" points="1243.604,632.975 1216.238,765.201 
			1174.807,811.026 1223.65,744.896 		"/>
		<polyline fill="none" stroke="#257CBE" stroke-width="0.6121" stroke-miterlimit="10" points="1308.486,811.024 1264.242,632.975 
			1284.16,744.896 		"/>
		<polyline fill="none" stroke="#257CBE" stroke-width="0.6121" stroke-miterlimit="10" points="1264.242,632.975 1291.611,765.201 
			1333.043,811.026 1284.16,744.896 		"/>
		
			<line fill="none" stroke="#257CBE" stroke-width="0.6121" stroke-miterlimit="10" x1="1223.65" y1="744.894" x2="1290.775" y2="765.201"/>
		
			<line fill="none" stroke="#257CBE" stroke-width="0.6121" stroke-miterlimit="10" x1="1283.553" y1="744.894" x2="1216.24" y2="765.201"/>
	</g>
	<path fill="none" stroke="#1F76BC" stroke-width="0.6121" stroke-miterlimit="10" d="M26.839,650.041v143.916h31.442
		c16.878,0,30.249-5.553,39.998-16.691c9.786-11.104,14.641-25.408,14.641-42.754V709.26c0-17.193-4.854-31.42-14.641-42.521
		c-9.75-11.104-23.12-16.695-39.998-16.695H26.839V650.041z M2.101,813.539V630.457h56.181c23.968,0,43.195,7.363,57.684,22.092
		c14.488,14.688,21.732,33.695,21.732,57.018v25.021c0,23.361-7.246,42.406-21.732,57.018
		c-14.489,14.648-33.716,21.938-57.684,21.938H2.101V813.539z M136.927,697.576H112.96l24.313,40.25 M26.839,793.957l-24.738-163.5
		l24.738,19.584l42.27-19.506l67.818,67.041l-23.736,40.25h24.083l-68.165,75.713L26.839,793.957L2.101,813.539l24.738-163.498
		 M2.101,722.018h24.738"/>
	<path fill="none" stroke="#1F76BC" stroke-width="0.6121" stroke-miterlimit="10" d="M1408.125,650.041v143.916h31.441
		c16.879,0,30.25-5.553,39.998-16.691c9.785-11.104,14.641-25.408,14.641-42.754V709.26c0-17.193-4.855-31.42-14.641-42.521
		c-9.75-11.104-23.119-16.695-39.998-16.695h-31.441V650.041z M1383.387,813.539V630.457h56.182
		c23.967,0,43.193,7.363,57.684,22.092c14.488,14.688,21.732,33.695,21.732,57.018v25.021c0,23.361-7.246,42.406-21.732,57.018
		c-14.49,14.648-33.717,21.938-57.684,21.938h-56.182V813.539z M1518.213,697.576h-23.967l24.313,40.25 M1408.125,793.957
		l-24.738-163.5l24.738,19.584l42.27-19.506l67.818,67.041l-23.736,40.25h24.082l-68.164,75.713L1408.125,793.957l-24.738,19.582
		l24.738-163.498 M1383.387,722.018h24.738"/>
	<g>
		<path fill="none" stroke="#257CBE" stroke-width="0.6121" stroke-miterlimit="10" d="M302.457,706.274
			c0-16.236-4.409-29.547-13.229-39.93c-8.778-10.38-20.602-15.555-35.387-15.555c-14.027,0-25.201,5.175-33.563,15.555
			c-8.361,10.383-12.544,23.691-12.544,39.93v31.756c0,16.354,4.183,29.777,12.544,40.158s19.535,15.555,33.563,15.555
			c14.899,0,26.721-5.174,35.5-15.517c8.743-10.345,13.113-23.729,13.113-40.196L302.457,706.274L302.457,706.274z"/>
		<path fill="none" stroke="#257CBE" stroke-width="0.6121" stroke-miterlimit="10" d="M326.518,737.915
			c0,21.754-6.728,39.776-20.222,54.115c-13.455,14.336-30.979,21.485-52.453,21.485c-20.792,0-37.669-7.149-50.706-21.485
			c-12.962-14.339-19.462-32.361-19.462-54.115v-31.678c0-21.638,6.5-39.701,19.462-54.115
			c13.037-14.412,29.914-21.638,50.706-21.638c21.475,0,38.998,7.187,52.453,21.601c13.494,14.336,20.222,32.399,20.222,54.152
			V737.915L326.518,737.915z"/>
		<polygon fill="none" stroke="#257CBE" stroke-width="0.6121" stroke-miterlimit="10" points="302.457,696.883 326.518,696.883 
			326.518,746.28 302.457,746.28 302.457,696.883 		"/>
		<polygon fill="none" stroke="#257CBE" stroke-width="0.6121" stroke-miterlimit="10" points="183.675,696.883 207.739,696.883 
			207.739,746.28 183.675,746.28 183.675,696.883 		"/>
		
			<line fill="none" stroke="#257CBE" stroke-width="0.6121" stroke-miterlimit="10" x1="183.675" y1="696.883" x2="207.739" y2="743.734"/>
		
			<line fill="none" stroke="#257CBE" stroke-width="0.6121" stroke-miterlimit="10" x1="207.736" y1="696.883" x2="183.673" y2="743.468"/>
		
			<line fill="none" stroke="#257CBE" stroke-width="0.6121" stroke-miterlimit="10" x1="302.457" y1="696.883" x2="326.518" y2="743.468"/>
		
			<line fill="none" stroke="#257CBE" stroke-width="0.6121" stroke-miterlimit="10" x1="326.518" y1="696.883" x2="302.457" y2="743.734"/>
		<polyline fill="none" stroke="#257CBE" stroke-width="0.6121" stroke-miterlimit="10" points="183.675,696.883 253.843,630.484 
			326.518,696.883 		"/>
		<polyline fill="none" stroke="#257CBE" stroke-width="0.6121" stroke-miterlimit="10" points="183.675,746.585 253.843,812.982 
			326.518,746.585 		"/>
	</g>
	<g>
		<path fill="none" stroke="#257CBE" stroke-width="0.6121" stroke-miterlimit="10" d="M1118.963,706.274
			c0-16.236-4.41-29.547-13.229-39.93c-8.779-10.38-20.602-15.555-35.387-15.555c-14.027,0-25.201,5.175-33.563,15.555
			c-8.361,10.383-12.545,23.691-12.545,39.93v31.756c0,16.354,4.184,29.777,12.545,40.158s19.535,15.555,33.563,15.555
			c14.898,0,26.721-5.174,35.5-15.517c8.742-10.345,13.113-23.729,13.113-40.196L1118.963,706.274L1118.963,706.274z"/>
		<path fill="none" stroke="#257CBE" stroke-width="0.6121" stroke-miterlimit="10" d="M1143.023,737.915
			c0,21.754-6.727,39.776-20.221,54.115c-13.455,14.336-30.979,21.485-52.453,21.485c-20.793,0-37.67-7.149-50.707-21.485
			c-12.961-14.339-19.461-32.361-19.461-54.115v-31.678c0-21.638,6.5-39.701,19.461-54.115
			c13.037-14.412,29.914-21.638,50.707-21.638c21.475,0,38.998,7.187,52.453,21.601c13.494,14.336,20.221,32.399,20.221,54.152
			V737.915L1143.023,737.915z"/>
		<polygon fill="none" stroke="#257CBE" stroke-width="0.6121" stroke-miterlimit="10" points="1118.963,696.883 1143.023,696.883 
			1143.023,746.28 1118.963,746.28 1118.963,696.883 		"/>
		<polygon fill="none" stroke="#257CBE" stroke-width="0.6121" stroke-miterlimit="10" points="1000.182,696.883 1024.244,696.883 
			1024.244,746.28 1000.182,746.28 1000.182,696.883 		"/>
		
			<line fill="none" stroke="#257CBE" stroke-width="0.6121" stroke-miterlimit="10" x1="1000.182" y1="696.883" x2="1024.244" y2="743.734"/>
		
			<line fill="none" stroke="#257CBE" stroke-width="0.6121" stroke-miterlimit="10" x1="1024.242" y1="696.883" x2="1000.18" y2="743.468"/>
		
			<line fill="none" stroke="#257CBE" stroke-width="0.6121" stroke-miterlimit="10" x1="1118.963" y1="696.883" x2="1143.023" y2="743.468"/>
		
			<line fill="none" stroke="#257CBE" stroke-width="0.6121" stroke-miterlimit="10" x1="1143.023" y1="696.883" x2="1118.963" y2="743.734"/>
		<polyline fill="none" stroke="#257CBE" stroke-width="0.6121" stroke-miterlimit="10" points="1000.182,696.883 1070.35,630.484 
			1143.023,696.883 		"/>
		<polyline fill="none" stroke="#257CBE" stroke-width="0.6121" stroke-miterlimit="10" points="1000.182,746.585 1070.35,812.982 
			1143.023,746.585 		"/>
	</g>
	<g>
		<path fill="none" stroke="#1B75BB" stroke-width="0.6121" stroke-miterlimit="10" d="M410.413,813.273l-48.067-182.547h32.471
			l32.981,139.596h0.512l36.817-139.596h32.726l35.794,139.596h0.512l34.004-139.596h32.47l-50.367,182.547h-32.471L481.234,673.68
			h-0.511l-37.328,139.594H410.413z"/>
		
			<line fill="none" stroke="#1B75BB" stroke-width="0.6121" stroke-miterlimit="10" x1="362.346" y1="630.727" x2="410.447" y2="696.883"/>
		
			<line fill="none" stroke="#1B75BB" stroke-width="0.6121" stroke-miterlimit="10" x1="410.447" y1="696.883" x2="410.413" y2="813.273"/>
		
			<line fill="none" stroke="#1B75BB" stroke-width="0.6121" stroke-miterlimit="10" x1="427.798" y1="770.322" x2="410.413" y2="813.273"/>
		
			<line fill="none" stroke="#1B75BB" stroke-width="0.6121" stroke-miterlimit="10" x1="394.817" y1="630.727" x2="410.413" y2="813.273"/>
		
			<line fill="none" stroke="#1B75BB" stroke-width="0.6121" stroke-miterlimit="10" x1="427.798" y1="770.322" x2="362.346" y2="630.727"/>
		
			<line fill="none" stroke="#1B75BB" stroke-width="0.6121" stroke-miterlimit="10" x1="568.162" y1="630.727" x2="550.266" y2="813.273"/>
		
			<line fill="none" stroke="#1B75BB" stroke-width="0.6121" stroke-miterlimit="10" x1="533.646" y1="770.322" x2="600.632" y2="630.727"/>
		
			<line fill="none" stroke="#1B75BB" stroke-width="0.6121" stroke-miterlimit="10" x1="600.632" y1="630.727" x2="552.047" y2="696.883"/>
		
			<line fill="none" stroke="#1B75BB" stroke-width="0.6121" stroke-miterlimit="10" x1="552.047" y1="696.883" x2="550.266" y2="813.273"/>
		
			<line fill="none" stroke="#1B75BB" stroke-width="0.6121" stroke-miterlimit="10" x1="465.127" y1="630.727" x2="481.234" y2="673.68"/>
		
			<line fill="none" stroke="#1B75BB" stroke-width="0.6121" stroke-miterlimit="10" x1="481.234" y1="673.68" x2="497.853" y2="630.727"/>
		
			<line fill="none" stroke="#1B75BB" stroke-width="0.6121" stroke-miterlimit="10" x1="497.853" y1="630.727" x2="497.853" y2="737.132"/>
		
			<line fill="none" stroke="#1B75BB" stroke-width="0.6121" stroke-miterlimit="10" x1="497.853" y1="737.132" x2="550.266" y2="813.273"/>
		
			<line fill="none" stroke="#1B75BB" stroke-width="0.6121" stroke-miterlimit="10" x1="533.646" y1="770.322" x2="517.795" y2="813.273"/>
		
			<line fill="none" stroke="#1B75BB" stroke-width="0.6121" stroke-miterlimit="10" x1="465.127" y1="630.727" x2="465.127" y2="732.002"/>
		
			<line fill="none" stroke="#1B75BB" stroke-width="0.6121" stroke-miterlimit="10" x1="465.127" y1="732.002" x2="427.798" y2="770.322"/>
		
			<line fill="none" stroke="#1B75BB" stroke-width="0.6121" stroke-miterlimit="10" x1="427.798" y1="770.322" x2="443.395" y2="813.273"/>
		
			<line fill="none" stroke="#1B75BB" stroke-width="0.6121" stroke-miterlimit="10" x1="465.127" y1="630.727" x2="443.395" y2="813.273"/>
		
			<line fill="none" stroke="#1B75BB" stroke-width="0.6121" stroke-miterlimit="10" x1="512.337" y1="687.218" x2="497.853" y2="737.132"/>
		
			<line fill="none" stroke="#1B75BB" stroke-width="0.6121" stroke-miterlimit="10" x1="497.853" y1="737.132" x2="533.646" y2="770.322"/>
	</g>
	<g>
		
			<line fill="none" stroke="#1C76BC" stroke-width="0.6121" stroke-miterlimit="10" x1="1663.299" y1="766.432" x2="1687.393" y2="766.057"/>
		
			<line fill="none" stroke="#1C76BC" stroke-width="0.6121" stroke-miterlimit="10" x1="1585.391" y1="678.689" x2="1560.924" y2="679.076"/>
		
			<line fill="none" stroke="#1C76BC" stroke-width="0.6121" stroke-miterlimit="10" x1="1622.652" y1="648.945" x2="1622.652" y2="629.741"/>
		
			<line fill="none" stroke="#1C76BC" stroke-width="0.6121" stroke-miterlimit="10" x1="1556.406" y1="759.66" x2="1623.398" y2="814.259"/>
		<polyline fill="none" stroke="#1C76BC" stroke-width="0.6121" stroke-miterlimit="10" points="1685.887,684.354 1622.652,629.742 
			1560.924,679.077 1621.52,732.169 1621.52,709.193 1687.393,766.057 1623.4,814.258 1623.4,795.055 		"/>
		<path fill="none" stroke="#1C76BC" stroke-width="0.6121" stroke-miterlimit="10" d="M1663.299,766.432
			c0-8.277-3.012-15.061-9.408-20.324c-6.023-5.649-16.938-10.168-32.744-13.938c-18.816-4.519-33.504-11.288-44.031-19.963
			c-10.928-9.035-16.191-19.949-16.191-33.129c0-13.938,5.65-25.613,17.313-35.022c11.301-9.408,26.348-14.313,44.418-14.313
			c19.576,0,35.381,5.65,46.67,16.191c11.674,10.928,17.311,23.349,16.938,37.66l-0.375,0.76h-22.961
			c0-10.555-3.385-19.217-10.541-25.613c-6.77-6.409-16.938-9.795-29.73-9.795c-12.047,0-21.457,3.013-27.854,8.289
			c-6.396,5.265-9.408,12.42-9.408,21.455c0,7.543,3.385,13.939,10.154,19.203c7.156,5.277,18.443,9.809,34.25,13.939
			c18.83,4.518,33.129,11.301,42.91,20.709c9.783,9.035,14.688,20.336,14.688,33.516c0,14.688-5.65,26.36-17.697,35.022
			c-11.662,8.662-27.094,13.18-46.297,13.18c-17.686,0-33.49-4.892-47.416-14.686c-13.555-9.796-20.324-22.589-19.949-39.167
			l0.373-0.746h22.961c0,11.674,4.145,20.336,12.793,26.359c8.289,6.022,18.818,9.035,31.238,9.035s21.83-2.639,28.984-7.902
			C1659.539,782.249,1663.299,775.093,1663.299,766.432L1663.299,766.432z"/>
	</g>
</g>
<g id="Layer_2">
</g>
<g id="Layer_3">
</g>
</svg>
