<?xml version="1.0" encoding="utf-8"?>
<!-- Generator: Adobe Illustrator 16.0.0, SVG Export Plug-In . SVG Version: 6.00 Build 0)  -->
<!DOCTYPE svg PUBLIC "-//W3C//DTD SVG 1.1//EN" "http://www.w3.org/Graphics/SVG/1.1/DTD/svg11.dtd">
<svg version="1.1" id="Layer_1" xmlns="http://www.w3.org/2000/svg" xmlns:xlink="http://www.w3.org/1999/xlink" x="0px" y="0px"
	 width="1981.402px" height="200px" viewBox="0 0 1981.402 200" enable-background="new 0 0 1981.402 200" xml:space="preserve">
<g opacity="0.7">
	<path fill="none" stroke="#1F76BC" stroke-width="0.6121" stroke-miterlimit="10" d="M108.147,107.156H26.096v63.646h94.473v19.203
		H2.002V11.14h117.434v18.817h-93.34v57.996h82.052L108.147,107.156L108.147,107.156z M244.772,145.189l4.145,14.313h0.746
		l4.145-14.313l45.91-134.05h26.348l-66.233,178.866H238.75L172.502,11.14h26.347L244.772,145.189L244.772,145.189z
		 M499.964,107.156h-82.053v63.646h94.473v19.203H393.817V11.14h117.061v18.817h-92.967v57.996h82.053V107.156L499.964,107.156z
		 M718.627,190.006h-24.081L608.349,51.425l-0.745,0.387v138.194h-24.095V11.14h24.095l86.184,137.821h0.76V11.14h24.081
		L718.627,190.006L718.627,190.006z M923.377,29.957h-57.584v160.049h-24.082V29.957h-57.584V11.14h139.25V29.957L923.377,29.957z
		 M1087.853,144.816c0-8.289-2.998-15.06-9.406-20.336c-6.012-5.65-16.926-10.168-32.357-13.928
		c-19.203-4.529-33.877-11.3-44.418-19.962c-10.542-8.662-15.805-19.963-15.805-33.143c0-13.927,5.637-25.601,16.938-35.009
		c11.66-9.422,26.348-13.939,44.404-13.939c19.576,0,35.01,5.264,46.67,16.191c11.674,10.541,17.324,22.975,16.939,37.287
		l-0.373,0.746h-22.963c0-10.554-3.385-18.83-10.541-25.612c-6.771-6.397-16.926-9.409-29.73-9.409
		c-12.035,0-21.07,2.639-27.467,7.916c-6.41,5.637-9.795,12.793-9.795,21.455c0,7.53,3.385,14.313,10.541,19.204
		c6.77,5.276,18.07,9.794,33.877,13.938c18.814,4.518,33.115,11.288,42.91,20.336c9.781,9.409,14.674,20.323,14.674,33.89
		c0,14.301-6.023,25.975-17.686,34.637c-11.674,9.048-27.105,13.18-46.297,13.18c-17.697,0-33.504-4.891-47.057-14.686
		c-13.927-9.409-20.323-22.59-19.938-38.78v-0.76h23.334c0,11.674,4.133,20.336,12.422,26.36c8.648,6.022,18.816,8.662,31.236,8.662
		c12.422,0,22.203-2.254,28.973-7.531C1084.095,160.635,1087.853,153.479,1087.853,144.816L1087.853,144.816z M119.436,11.14
		l-93.34,18.817L2.002,190.006l118.566-19.203 M120.568,190.006l-94.473-19.203L2.002,190.006 M119.436,29.957L2.002,11.14
		l24.094,159.663 M108.147,87.953l-82.052,19.203V87.953l82.052,19.203 M26.096,107.156L2.002,11.14l24.094,76.813 M2.002,190.006
		L26.096,87.953 M2.002,190.006l24.094-82.85 M510.878,11.14l-92.967,18.817l-24.094,160.049l118.565-19.203 M512.384,190.006
		l-94.473-19.203l-24.094,19.203 M510.878,29.957L393.817,11.14l24.094,159.663 M499.964,87.953l-82.053,19.203V87.953
		l82.053,19.203 M417.911,107.156L393.817,11.14l24.094,76.813 M393.817,190.006l24.094-102.053 M393.817,190.006l24.094-82.85
		 M221.811,78.171l16.938,111.835L211.655,48.04l-39.153-36.9L221.811,78.171L221.811,78.171z M198.849,11.14l39.9,178.866
		 M276.77,78.171l-16.938,111.835L286.925,48.04l39.141-36.9L276.77,78.171L276.77,78.171z M299.718,11.14l-39.887,178.866
		 M718.627,190.006L694.546,11.14l24.081,41.418l-24.081,137.448 M607.604,11.14l-24.095,178.866 M607.604,190.006L583.509,11.14
		 M607.604,11.14l86.942,178.866 M607.604,51.812l111.023,138.194 M694.546,148.961v41.045 M607.604,51.812L583.509,11.14
		 M784.127,29.957l139.25-18.817l-57.584,18.817 M865.793,29.957h-24.082L784.127,11.14l69.631,18.817l69.619-18.817
		 M923.377,29.957L784.127,11.14l41.393,18.817 M923.377,11.14l-38.768,18.817 M841.711,29.957l24.082,160.049 M841.711,190.006
		l24.082-160.049 M1110.814,61.979l-63.221-54.238l-61.729,48.961l60.223,53.093V86.82l66.232,56.864l-63.98,47.827v-19.202
		 M981.348,137.287l66.992,54.225 M1047.593,26.945V7.741 M1009.947,56.316l-24.082,0.386 M1087.853,144.059l24.469-0.375"/>
</g>
</svg>
