<?xml version="1.0" encoding="utf-8"?>
<!-- Generator: Adobe Illustrator 16.0.0, SVG Export Plug-In . SVG Version: 6.00 Build 0)  -->
<!DOCTYPE svg PUBLIC "-//W3C//DTD SVG 1.1//EN" "http://www.w3.org/Graphics/SVG/1.1/DTD/svg11.dtd">
<svg version="1.1" id="Layer_1" xmlns="http://www.w3.org/2000/svg" xmlns:xlink="http://www.w3.org/1999/xlink" x="0px" y="0px"
	 width="1981.401px" height="200px" viewBox="0 0 1981.401 200" enable-background="new 0 0 1981.401 200" xml:space="preserve">
<g>
	<path fill="none" stroke="#1C76BC" stroke-width="1.0286" stroke-miterlimit="10" d="M541.687,107.156h-82.052v63.646h94.473
		v19.203H435.541V11.14h117.434v18.817h-93.34v57.996h82.052V107.156L541.687,107.156z M678.312,145.189l4.145,14.313h0.746
		l4.145-14.313l45.91-134.05h26.347L693.37,190.006h-21.082L606.041,11.14h26.347L678.312,145.189L678.312,145.189z
		 M933.503,107.156H851.45v63.646h94.473v19.203H827.356V11.14h117.061v18.817H851.45v57.996h82.053V107.156L933.503,107.156z
		 M1152.166,190.006h-24.081l-86.197-138.581l-0.746,0.387v138.194h-24.094V11.14h24.094l86.184,137.821h0.76V11.14h24.081V190.006
		L1152.166,190.006z M1356.916,29.957h-57.584v160.049h-24.082V29.957h-57.584V11.14h139.25V29.957L1356.916,29.957z
		 M1521.393,144.816c0-8.289-2.998-15.059-9.408-20.336c-6.011-5.65-16.925-10.168-32.357-13.927
		c-19.203-4.53-33.876-11.3-44.417-19.962c-10.542-8.662-15.806-19.963-15.806-33.143c0-13.927,5.638-25.601,16.938-35.009
		c11.661-9.422,26.347-13.939,44.405-13.939c19.576,0,35.009,5.264,46.67,16.191c11.674,10.541,17.324,22.975,16.938,37.287
		l-0.373,0.746h-22.962c0-10.554-3.385-18.83-10.541-25.612c-6.771-6.397-16.925-9.409-29.731-9.409
		c-12.034,0-21.07,2.639-27.467,7.916c-6.41,5.637-9.795,12.793-9.795,21.455c0,7.53,3.385,14.313,10.541,19.204
		c6.771,5.276,18.071,9.794,33.877,13.938c18.816,4.518,33.116,11.288,42.911,20.336c9.782,9.409,14.673,20.323,14.673,33.89
		c0,14.3-6.023,25.974-17.685,34.636c-11.674,9.048-27.106,13.18-46.297,13.18c-17.697,0-33.503-4.891-47.056-14.686
		c-13.927-9.409-20.323-22.589-19.938-38.78v-0.76h23.335c0,11.674,4.132,20.336,12.421,26.36
		c8.649,6.023,18.817,8.662,31.237,8.662c12.421,0,22.202-2.253,28.973-7.53C1517.635,160.635,1521.393,153.479,1521.393,144.816
		L1521.393,144.816z M552.975,11.14l-93.34,18.817l-24.094,160.049l118.566-19.203 M554.107,190.006l-94.473-19.203l-24.094,19.203
		 M552.975,29.957L435.541,11.14l24.094,159.663 M541.687,87.953l-82.052,19.203V87.953l82.052,19.203 M459.635,107.156
		L435.541,11.14l24.094,76.813 M435.541,190.006l24.094-102.053 M435.541,190.006l24.094-82.85 M944.417,11.14L851.45,29.957
		l-24.094,160.049l118.566-19.203 M945.923,190.006l-94.473-19.203l-24.094,19.203 M944.417,29.957L827.356,11.14l24.094,159.663
		 M933.503,87.953l-82.053,19.203V87.953l82.053,19.203 M851.45,107.156L827.356,11.14l24.094,76.813 M827.356,190.006
		L851.45,87.953 M827.356,190.006l24.094-82.85 M655.35,78.171l16.938,111.835L645.194,48.04l-39.153-36.9L655.35,78.171
		L655.35,78.171z M632.388,11.14l39.9,178.866 M710.309,78.171L693.37,190.006L720.464,48.04l39.14-36.9L710.309,78.171
		L710.309,78.171z M733.257,11.14L693.37,190.006 M1152.166,190.006L1128.085,11.14l24.081,41.418l-24.081,137.448 M1041.142,11.14
		l-24.094,178.866 M1041.142,190.006L1017.048,11.14 M1041.142,11.14l86.943,178.866 M1041.142,51.812l111.024,138.194
		 M1128.085,148.961v41.045 M1041.142,51.812l-24.094-40.672 M1217.666,29.957l139.25-18.817l-57.584,18.817 M1299.332,29.957
		h-24.082l-57.584-18.817l69.631,18.817l69.619-18.817 M1356.916,29.957l-139.25-18.817l41.393,18.817 M1356.916,11.14
		l-38.768,18.817 M1275.25,29.957l24.082,160.049 M1275.25,190.006l24.082-160.049 M1544.354,61.979l-63.222-54.238l-61.729,48.961
		l60.223,53.093V86.82l66.233,56.863l-63.981,47.828v-19.203 M1414.887,137.287l66.992,54.225 M1481.133,26.945V7.741
		 M1443.485,56.316l-24.081,0.386 M1521.393,144.058l24.468-0.374"/>
</g>
</svg>
