<?xml version="1.0" encoding="utf-8"?>
<!-- Generator: Adobe Illustrator 22.0.1, SVG Export Plug-In . SVG Version: 6.00 Build 0)  -->
<svg version="1.1" id="Layer_1" xmlns="http://www.w3.org/2000/svg" xmlns:xlink="http://www.w3.org/1999/xlink" x="0px" y="0px"
	 viewBox="0 0 64 64" style="enable-background:new 0 0 64 64;" xml:space="preserve">
<style type="text/css">
	.st0{fill:none;stroke:#1C75BC;stroke-width:0.75;stroke-miterlimit:2.6131;}
	.st1{fill:#1B75BC;}
</style>
<g>
	<polygon class="st0" points="53.8,21.2 31.7,23.5 58.4,10.1 54.8,16.1 59.8,15.1 	"/>
	<path class="st0" d="M31.7,23.5c-11.5-1.4-19.3-5.4-23.5-12C9.7,23.7,13.9,35,20.6,45.2"/>
	<path class="st0" d="M8.2,11.5C4.6,16.9,6.7,24.8,11.4,26l-5.2-0.3c0.3,6.3,3.4,9.4,8.9,9.7l-4.5,1.7c2,4.9,5.6,7.2,10.1,8.1"/>
	<line class="st0" x1="6.2" y1="25.7" x2="15.1" y2="35.4"/>
	<line class="st0" x1="10.6" y1="37.1" x2="20.6" y2="45.2"/>
	<path class="st0" d="M53.8,21.2C52.9,45,39.2,55.1,20.3,54.5c-5.1-0.2-12.3-2.3-16.1-4.6c6.8,0,12.1-1,15.7-4.2"/>
	<path class="st0" d="M51.1,13.8c-7.9-9.3-22.2-2.2-19.4,9.7"/>
	<polyline class="st0" points="51.1,13.8 43,47.7 20.6,45.2 	"/>
	<polyline class="st0" points="54.8,16.1 31.7,23.5 43,47.7 11.4,26 31.7,23.5 20.6,45.2 	"/>
</g>
<circle class="st1" cx="32.1" cy="23.1" r="2.2"/>
<circle class="st1" cx="42.8" cy="47.2" r="2.6"/>
<circle class="st1" cx="20.1" cy="45.4" r="1.8"/>
<circle class="st1" cx="11.7" cy="26.3" r="1.8"/>
<circle class="st1" cx="50.3" cy="17.6" r="1.4"/>
<circle class="st1" cx="5.1" cy="50.2" r="1.4"/>
</svg>
