<?xml version="1.0" encoding="utf-8"?>
<!-- Generator: Adobe Illustrator 22.1.0, SVG Export Plug-In . SVG Version: 6.00 Build 0)  -->
<svg version="1.1" id="Layer_1" xmlns="http://www.w3.org/2000/svg" xmlns:xlink="http://www.w3.org/1999/xlink" x="0px" y="0px"
	 viewBox="0 0 139 139" style="enable-background:new 0 0 139 139;" xml:space="preserve">
<style type="text/css">
	.st0{fill:none;stroke:#E6E7E8;stroke-width:1.0877;stroke-miterlimit:10;}
	.st1{fill:none;stroke:#231F20;stroke-width:1.0116;stroke-miterlimit:10;}
	.st2{fill:#231F20;}
</style>
<g>
	<g>
		<path class="st1" d="M27.7,103.4V117c0,3.1,2.6,5.7,5.7,5.7h72.2c3.1,0,5.7-2.6,5.7-5.7V39.1H94.2c-3.1,0-5.7-2.6-5.7-5.7V16.3
			H33.4c-3.1,0-5.7,2.6-5.7,5.7v12.5v69.6"/>
		<path class="st1" d="M94.2,35.3h14.4L92.3,19v14.4C92.3,34.4,93.2,35.3,94.2,35.3z"/>
	</g>
	<g>
		<line class="st1" x1="65.7" y1="122.7" x2="111.3" y2="39.1"/>
		<line class="st1" x1="88.5" y1="16.3" x2="65.7" y2="122.7"/>
		<line class="st1" x1="27.7" y1="97.2" x2="88.5" y2="16.3"/>
		<line class="st1" x1="110.1" y1="120.5" x2="27.7" y2="97.2"/>
		<line class="st1" x1="29.1" y1="18.3" x2="110.1" y2="120.5"/>
	</g>
</g>
</svg>
