<?xml version="1.0" encoding="utf-8"?>
<!-- Generator: Adobe Illustrator 22.0.1, SVG Export Plug-In . SVG Version: 6.00 Build 0)  -->
<svg version="1.1" id="Layer_1" xmlns="http://www.w3.org/2000/svg" xmlns:xlink="http://www.w3.org/1999/xlink" x="0px" y="0px"
	 viewBox="0 0 132.4 114.7" style="enable-background:new 0 0 132.4 114.7;" xml:space="preserve">
<style type="text/css">
	.st0{fill:none;stroke:#231F20;stroke-width:0.5112;stroke-linecap:round;stroke-linejoin:round;}
	.st1{fill:#231F20;}
</style>
<title>ig-back-office</title>
<polygon class="st0" points="111,40.6 97.3,48.5 97.3,96.3 111,88.4 "/>
<polygon class="st0" points="21.4,34.6 49.2,50.8 49.2,98.6 21.4,82.4 "/>
<polygon class="st0" points="75.2,35.7 49.2,50.8 49.2,98.6 75.2,83.5 "/>
<path class="st0" d="M97.3,48.5l13.7-8L91.6,29l3.3-2.3L77,16.2l-3.9,2.6L61.5,12l-2.2,1.3l-4.1-2.3L25.7,28l3.8,2l-8.1,4.5
	l27.8,16.1l26-15L97.3,48.5z M97.2,47.2l11.6-6.6L89.2,28.9l3.3-2.1l-15.5-9l-3.7,2.5l-11.8-6.9l-2,1.3l-4.1-2.4L28.1,28l3.5,2
	l-8,4.5l25.5,14.8l26.1-14.9L97.2,47.2z"/>
<polygon class="st0" points="12.7,82.5 49.2,103.6 49.2,103.2 12.7,82 "/>
<polygon class="st0" points="75.2,88.6 49.2,103.6 49.2,103.2 75.2,88.1 "/>
<polygon class="st0" points="75.2,88.6 97.3,101.5 97.3,101 75.2,88.1 "/>
<polygon class="st0" points="119.7,88.5 97.3,101.5 97.3,101 119.7,88 "/>
<polygon class="st0" points="21.4,82.4 21.4,76.9 12.7,82 49.2,103.2 75.2,88.1 97.3,101 119.7,88 111,82.9 111,88.4 97.3,96.3 
	75.2,83.5 49.2,98.6 "/>
<polyline class="st0" points="21.4,34.6 49.2,78.7 21.4,82.4 49.2,60.6 21.4,50.9 49.2,98.4 36.3,43.3 "/>
<polyline class="st0" points="49.2,50.8 75.2,51.5 49.2,98.6 75.2,72.6 49.2,73.9 75.2,60.6 66.7,40.7 49.2,73.9 "/>
<polyline class="st0" points="75.2,35.7 97.3,64.5 75.2,51.5 97.3,48.5 75.2,69.5 97.3,80 75.2,83.5 97.3,64.5 "/>
<polyline class="st0" points="97.6,48.8 111,64 97.3,61.7 111,40.6 97.2,89.2 111,88.4 97.3,61.7 110.9,79 "/>
<polyline class="st0" points="108.8,40.6 75.4,34.5 73.4,20.3 89.3,28.9 31.7,30 49.2,49.5 55.5,12.4 68.2,38.6 33.6,40.3 
	55.5,12.4 "/>
<circle class="st1" cx="49.2" cy="73.5" r="0.6"/>
<circle class="st1" cx="97.2" cy="48.4" r="0.6"/>
<circle class="st1" cx="97.3" cy="64.4" r="0.6"/>
<path class="st1" d="M67.3,40.8c0,0.3-0.3,0.6-0.6,0.6s-0.6-0.3-0.6-0.6s0.3-0.6,0.6-0.6l0,0C67.1,40.2,67.3,40.4,67.3,40.8z"/>
<circle class="st1" cx="110.9" cy="40.8" r="0.6"/>
<path class="st1" d="M22.1,51c0,0.3-0.3,0.6-0.6,0.6c-0.3,0-0.6-0.3-0.6-0.6c0-0.3,0.3-0.6,0.6-0.6h0C21.8,50.4,22.1,50.7,22.1,51z"
	/>
<path class="st1" d="M75.8,60.7c0,0.3-0.3,0.6-0.6,0.6c-0.3,0-0.6-0.3-0.6-0.6c0-0.3,0.3-0.6,0.6-0.6h0
	C75.5,60.1,75.8,60.4,75.8,60.7z"/>
<circle class="st1" cx="49.2" cy="78.6" r="0.6"/>
<circle class="st1" cx="49.2" cy="60.7" r="0.6"/>
<circle class="st1" cx="75.1" cy="83.5" r="0.6"/>
<circle class="st1" cx="97.3" cy="80" r="0.6"/>
<path class="st1" d="M97.4,89.5c-0.3,0-0.6-0.3-0.6-0.6c0-0.3,0.3-0.6,0.6-0.6c0.3,0,0.6,0.3,0.6,0.6v0
	C97.9,89.3,97.7,89.5,97.4,89.5z"/>
<circle class="st1" cx="49.2" cy="98.3" r="0.6"/>
<circle class="st1" cx="21.5" cy="82.5" r="0.6"/>
<circle class="st1" cx="75.1" cy="51.6" r="0.6"/>
<path class="st1" d="M49.9,50.6c0,0.3-0.3,0.6-0.6,0.6s-0.6-0.3-0.6-0.6c0-0.3,0.3-0.6,0.6-0.6c0,0,0,0,0,0
	C49.6,50,49.9,50.3,49.9,50.6z"/>
<path class="st1" d="M111.4,88.1c0,0.3-0.3,0.6-0.6,0.6c-0.3,0-0.6-0.3-0.6-0.6c0-0.3,0.3-0.6,0.6-0.6l0,0
	C111.1,87.5,111.4,87.8,111.4,88.1z"/>
<circle class="st1" cx="97.3" cy="61.5" r="0.6"/>
<path class="st1" d="M22.1,34.8c0,0.3-0.3,0.6-0.6,0.6c-0.3,0-0.6-0.3-0.6-0.6c0-0.3,0.3-0.6,0.6-0.6S22.1,34.4,22.1,34.8L22.1,34.8
	z"/>
<circle class="st1" cx="31.6" cy="30" r="0.6"/>
<circle class="st1" cx="33.7" cy="40.3" r="0.6"/>
<path class="st1" d="M55.2,11.9c0.3-0.1,0.6,0,0.7,0.3c0.1,0.3,0,0.6-0.3,0.7s-0.6,0-0.7-0.3C54.8,12.3,55,12,55.2,11.9z"/>
<path class="st1" d="M73.3,19.9c0.3-0.1,0.6,0,0.7,0.3c0.1,0.3,0,0.6-0.3,0.7c-0.3,0.1-0.6,0-0.7-0.3c-0.1-0.2-0.1-0.5,0.2-0.7
	C73.2,19.9,73.3,19.9,73.3,19.9z"/>
<path class="st1" d="M89,28.3c0.3-0.1,0.6,0,0.7,0.3c0.1,0.3,0,0.6-0.3,0.7c-0.3,0.1-0.6,0-0.7-0.3c-0.1-0.2-0.1-0.5,0.2-0.7
	C88.9,28.3,88.9,28.3,89,28.3z"/>
<path class="st1" d="M75,34c0.3-0.1,0.6,0,0.7,0.3s0,0.6-0.3,0.7c-0.3,0.1-0.6,0-0.7-0.3C74.6,34.4,74.7,34.2,75,34z"/>
<path class="st1" d="M68,38c0.3-0.1,0.6,0,0.7,0.3s0,0.6-0.3,0.7c-0.3,0.1-0.6,0-0.7-0.3C67.6,38.4,67.7,38.2,68,38z"/>
</svg>
