<?xml version="1.0" encoding="utf-8"?>
<!-- Generator: Adobe Illustrator 22.1.0, SVG Export Plug-In . SVG Version: 6.00 Build 0)  -->
<svg version="1.1" id="Layer_1" xmlns="http://www.w3.org/2000/svg" xmlns:xlink="http://www.w3.org/1999/xlink" x="0px" y="0px"
	 viewBox="0 0 139 139" style="enable-background:new 0 0 139 139;" xml:space="preserve">
<style type="text/css">
	.st0{fill:none;stroke:#E6E7E8;stroke-width:1.0877;stroke-miterlimit:10;}
	.st1{fill:none;stroke:#231F20;stroke-width:1.0116;stroke-miterlimit:10;}
	.st2{fill:#231F20;}
	.st3{fill:none;stroke:#231F20;stroke-width:1.0116;stroke-linecap:round;stroke-linejoin:round;stroke-miterlimit:10;}
</style>
<g>
	<path class="st3" d="M77.3,59.5c-2.4,0-4.4-2-4.4-4.4v-3.9c-1.4-0.4-2.9-0.6-4.4-0.6c-8,0-15.1,5.4-17.1,13.1
		c-2.1,7.7,1.3,15.9,8.3,19.9c6.9,4,15.7,2.9,21.4-2.8c5.7-5.7,6.8-14.5,2.8-21.4H77.3z M68.4,66.2c3.2,0,6,2.3,6.5,5.5
		c0.5,3.2-1.3,6.3-4.3,7.4v2.6h-4.4V79c-2.6-0.9-4.4-3.4-4.4-6.2h4.4c0,1.2,1,2.2,2.2,2.2c1.2,0,2.2-1,2.2-2.2c0-1.2-1-2.2-2.2-2.2
		c-3.2,0-6-2.3-6.5-5.5c-0.5-3.2,1.3-6.3,4.3-7.4v-2.6h4.4v2.6c2.6,0.9,4.4,3.4,4.4,6.2h-4.4c0-1.2-1-2.2-2.2-2.2
		c-1.2,0-2.2,1-2.2,2.2C66.2,65.2,67.2,66.2,68.4,66.2z"/>
	<path class="st3" d="M121.5,17.5h8.9v35.4h-8.9V17.5z"/>
	<path class="st3" d="M117.1,21.7l-3-2H70.2c-0.6,0-1.2,0.2-1.6,0.7L44.9,44.1c-0.9,0.9-0.9,2.2,0,3.1l3.2,3.2
		c0.9,0.9,3.4,0.9,4.2,0l19.4-19.4c0.8-0.8,1.9-0.7,3.1-0.7h26.8c3.7,0,6.6,1.3,6.6,5v4.4c0,3.7-3,6.6-6.6,6.6H77.3v8.9h29.5
		c0.5,0,1-0.2,1.4-0.5l9-7V21.7z"/>
	<path class="st3" d="M86.5,112.7c0.6,0,1.2-0.2,1.6-0.6l23.7-23.7c0.9-0.9,0.9-2.3,0-3.2l-3.1-3.1c-0.4-0.4-1-0.6-1.6-0.6
		c-0.6,0-1.1,0.2-1.5,0.6l-21.2,21.2c-0.4,0.4-1,0.7-1.6,0.6H57.3v-4.4h19.9v-8.9H31.7L25,97.2l8.9,15.5H86.5z"/>
	<path class="st3" d="M9,96.1l7.7-4.4l15.5,26.9l-7.7,4.4L9,96.1z"/>
	<line class="st3" x1="77.3" y1="52.6" x2="101.6" y2="46.2"/>
	<polyline class="st3" points="114.1,19.7 107.5,55 77.3,52.6 	"/>
	<line class="st3" x1="107.3" y1="43" x2="117.1" y2="47.6"/>
	<polyline class="st3" points="77.3,46.2 107.5,54.9 107.3,43 	"/>
	<polyline class="st3" points="114.1,19.7 107.8,33.1 117.1,47.6 	"/>
	<polyline class="st3" points="69.5,19.8 87.6,30.2 114.1,19.7 	"/>
	<polyline class="st3" points="49.7,51 54.9,34.1 72.4,30.5 69.5,19.8 	"/>
	<line class="st3" x1="69.5" y1="19.8" x2="49.7" y2="51"/>
	<line class="st3" x1="44.3" y1="45.6" x2="72" y2="30.7"/>
	<line class="st3" x1="73.2" y1="30.2" x2="93.6" y2="19.7"/>
	<line class="st3" x1="114.1" y1="19.7" x2="73.2" y2="30.2"/>
	<path class="st3" d="M77.3,99.4c0,0-45.9-9-45.6-8.9l25.7,8.9l8.6-8.8L77.3,99.4"/>
	<polyline class="st3" points="31.7,90.5 33.9,112.7 57.3,103.8 25,97.2 70.3,112.7 83,103.8 33.9,112.7 	"/>
	<polyline class="st3" points="98.9,88.6 98.4,101.7 70.3,112.7 	"/>
	<line class="st3" x1="112.4" y1="86.6" x2="98.9" y2="88.6"/>
	<line class="st3" x1="84.4" y1="103.2" x2="112.4" y2="86.6"/>
	<polyline class="st3" points="121.5,17.5 130.4,52.9 121.5,42.3 130.4,17.5 	"/>
	<polyline class="st3" points="24.5,122.9 16.7,91.6 13.8,104.4 32.2,118.5 	"/>
	<line class="st3" x1="85.7" y1="72.3" x2="66.2" y2="63.9"/>
	<polyline class="st3" points="74.4,61.2 75.3,59.1 85.7,72.3 	"/>
	<line class="st3" x1="85.5" y1="63.7" x2="75" y2="63.6"/>
	<line class="st3" x1="75" y1="72.4" x2="85.5" y2="63.7"/>
	<polyline class="st3" points="66.2,79 63.6,85.4 70.6,81.7 81.7,80 75,72.4 	"/>
	<line class="st3" x1="54" y1="78.7" x2="66.2" y2="79"/>
	<polyline class="st3" points="72.8,51.2 66.2,55.1 52.9,59.7 62.1,66.2 54,78.7 	"/>
	<line class="st3" x1="51" y1="71.7" x2="67.5" y2="70.5"/>
	<line class="st3" x1="66.2" y1="55.1" x2="51" y2="71.7"/>
</g>
</svg>
