<?xml version="1.0" encoding="utf-8"?>
<!-- Generator: Adobe Illustrator 22.0.1, SVG Export Plug-In . SVG Version: 6.00 Build 0)  -->
<svg version="1.1" id="Layer_1" xmlns="http://www.w3.org/2000/svg" xmlns:xlink="http://www.w3.org/1999/xlink" x="0px" y="0px"
	 viewBox="0 0 139 139" style="enable-background:new 0 0 139 139;" xml:space="preserve">
<style type="text/css">
	.st0{fill:none;stroke:#231F20;stroke-width:1.0857;stroke-miterlimit:10;}
</style>
<g>
	<g>
		<path class="st0" d="M42,12.4L16.3,82.1l18.4-6.7l-1.5-7.8L17.8,16.3l77.9,33.4L36.5,60.3l56-45.7L79.9,67.1l15.8,14.7V21.4
			c0-4.9-4-9-8.9-9H24.8c-4.8,0-8.6,3.9-8.6,8.7v88c0,4.9,4,9,9,9H60l-8.7-20.4l-34.5,14.7l15.9-30.8l9.7,7.5l33.9-5.5"/>
		<path class="st0" d="M76.2,60.3H36.5c-2.5,0-4.4,1.9-4.4,4.4s1.9,4.4,4.4,4.4h39.7c2.5,0,4.4-2,4.4-4.4
			C80.6,62.2,78.7,60.3,76.2,60.3z"/>
		<path class="st0" d="M76.2,75H36.5c-2.5,0-4.4,1.8-4.4,4.3c0,2.5,1.9,4.3,4.4,4.3h39.7c2.5,0,4.4-1.9,4.4-4.3
			C80.6,76.9,78.7,75,76.2,75z"/>
		<path class="st0" d="M32.1,93.4c0,2.5,1.9,4.3,4.4,4.3h14.8c0.6-1.6,1.6-3.4,2.9-4.9c1.4-1.6,3-2.8,4.7-3.6H36.5
			C34.1,89.1,32.1,91,32.1,93.4z"/>
		<path class="st0" d="M120,77.2c-3.2-2.8-8.2-2.4-10.9,0.9l-25.4,29.8L71,97c-3.2-2.8-8.2-2.4-10.9,0.9c-2.8,3.2-2.4,8.2,0.9,10.9
			l18.6,16c1.4,1.2,3.2,1.8,5,1.8c0.2,0,0.4,0,0.6,0c2-0.1,4-1.2,5.3-2.7l30.5-35.6C123.7,85,123.3,80,120,77.2z"/>
	</g>
</g>
</svg>
