<svg id="Layer_1" data-name="Layer 1" xmlns="http://www.w3.org/2000/svg" viewBox="0 0 78.5 153.9"><defs><style>.cls-1{fill:none;stroke:#231f20;stroke-linecap:round;stroke-linejoin:round;stroke-width:0.63px;}.cls-2{fill:#231f20;}</style></defs><title>ig-front-office</title><polygon class="cls-1" points="0.6 141.7 0.6 52.4 23.1 65 44.9 52.2 44.9 142.9 22.7 153.5 0.6 141.7"/><line class="cls-1" x1="22.8" y1="153.3" x2="23.1" y2="65"/><polygon class="cls-1" points="5.8 48.7 5.7 52.4 22.9 61.8 39.5 52.4 39.4 48.7 44.9 52.2 23.1 65 0.6 52.4 5.8 48.7"/><polygon class="cls-1" points="5.9 45.2 23.2 54.7 39.4 45.4 39.4 52.4 22.9 61.8 5.7 52.4 5.9 45.2"/><polyline class="cls-1" points="8.9 44.6 9.6 41.6 23 48.9 36.5 41.6 36.6 45.2"/><polyline class="cls-1" points="36.5 41.6 33.3 39.3 33.5 41 22.6 47.1 12.4 40.6 13 39.4 9.6 41.6"/><polyline class="cls-1" points="22.7 47 23 17.9 33.3 39.3"/><line class="cls-1" x1="12.6" y1="40.4" x2="23" y2="17.7"/><polygon class="cls-1" points="0.6 52.4 22.8 94.6 20.5 100.6 0.6 52.4"/><polyline class="cls-1" points="5.7 52.4 23.2 54.7 22.9 61.8 5.9 45.1 7.5 43.9 22.8 52.8 37.8 44.5 39.4 45.4 22.9 61.8"/><polyline class="cls-1" points="23.1 65 16 100.6 0.6 52.4"/><polygon class="cls-1" points="0.5 141.8 23.1 108.1 20.5 100.6 0.5 141.8"/><polyline class="cls-1" points="22.8 153.4 16 100.6 0.5 141.8"/><path class="cls-1" d="M63.7,156.3c0-.1,22.2-101.2,22.2-101.2L64,67.9l21.7,77.9" transform="translate(-40.9 -2.9)"/><polyline class="cls-1" points="7.9 76 0.7 93.1 8.5 120.3"/><polyline class="cls-1" points="27.8 28 22.9 34.9 33.5 41"/><polyline class="cls-1" points="18.6 27.6 22.8 34.9 12.4 40.6"/><polygon class="cls-1" points="39.4 52.4 33.5 48.8 28.6 58.6 23.2 54.7 11.1 55.3 5.7 49.4 15.8 50.6 22.9 61.8 27.8 52 39.4 52.4"/><polyline class="cls-1" points="8.9 44.6 23 48.9 22.8 52.8 36.5 41.6"/><polyline class="cls-1" points="44.9 142.8 23 113 44.9 68.3 29.6 122.1 33.1 59.1 44.9 82.6 31.2 149.5 23 113"/><polyline class="cls-1" points="23.1 65 44.9 92.7 23 113.1"/><polygon class="cls-1" points="54.5 78.9 54.5 130.4 60.6 132 68.8 132 72.4 130.4 70.9 79.1 54.5 78.9"/><polygon class="cls-1" points="48.7 69.9 54.5 78.9 70.9 79 78.2 74.3 78.2 70.8 70 75.9 54.9 74.6 48.9 66.3 48.7 69.9"/><polyline class="cls-1" points="49.2 62.1 49.2 58.4 57.5 67.7 69.6 68.9 78.1 62.8 78.2 67.1"/><polyline class="cls-1" points="49.2 58.3 54.8 55.2 55 59.4 57.8 63.9 66.5 65.1 73 61.6 72.9 54.2 78.1 62.7"/><polyline class="cls-1" points="55.1 52.3 61.2 48.6 70.1 49.2 72.9 54.2"/><path class="cls-1" d="M106,55.3c0,.8-.9,1.4-2,1.4s-2-.6-2-1.4.9-1.4,2-1.4S106,54.5,106,55.3Z" transform="translate(-40.9 -2.9)"/><line class="cls-1" x1="63.1" y1="33.9" x2="63.1" y2="52.2"/><line class="cls-1" x1="23.1" y1="0.3" x2="23.1" y2="18.6"/><line class="cls-1" x1="54.5" y1="78.9" x2="48.9" y2="66.7"/><polyline class="cls-1" points="78.2 74.3 78.2 128.3 72.4 130.4 54.5 78.9 70 75.8 70.9 79 78.2 71 78.2 66.7 69.7 72.4 56.2 71.3 49.2 62.1 48.9 66.3"/><polyline class="cls-1" points="49.3 58.6 56.3 71.1 69.7 68.8 69.7 72.3 78.1 62.7"/><polyline class="cls-1" points="55 59.4 57.6 56.9 57.8 63.9 66.3 58.5 66.5 64.9 72.9 54.2 66.3 58.4 57.6 56.9 55.1 52.3 54.8 55.3"/><polyline class="cls-1" points="48.7 69.9 48.7 128.4 54.4 130.4 70.9 79"/><polyline class="cls-1" points="0.6 52.5 23.1 70.9 8 75.9 14.4 60.1 15.9 100.4 23.1 108.1 8.5 120.1 22.8 153.4 0.5 128.8 18 115.8 0.6 93 23.1 71.3 14.6 60.2"/><path class="cls-2" d="M71.3,124.7a.7.7,0,1,1-.7-.7A.7.7,0,0,1,71.3,124.7Z" transform="translate(-40.9 -2.9)"/><path class="cls-2" d="M42.2,96a.6.6,0,1,1-.6-.6A.6.6,0,0,1,42.2,96Z" transform="translate(-40.9 -2.9)"/><path class="cls-2" d="M64.5,64.6a.7.7,0,1,1-.7-.7A.7.7,0,0,1,64.5,64.6Z" transform="translate(-40.9 -2.9)"/><path class="cls-2" d="M64.4,37.8a.7.7,0,1,1-.7-.7A.7.7,0,0,1,64.4,37.8Z" transform="translate(-40.9 -2.9)"/><path class="cls-2" d="M49.6,78.8a.6.6,0,0,1-.6.6.6.6,0,0,1-.6-.6.6.6,0,1,1,1.2,0Z" transform="translate(-40.9 -2.9)"/><path class="cls-2" d="M59.5,118.7a.6.6,0,1,1-.6-.6A.6.6,0,0,1,59.5,118.7Z" transform="translate(-40.9 -2.9)"/><path class="cls-2" d="M64.4,67.9a.4.4,0,1,1-.4-.4A.4.4,0,0,1,64.4,67.9Z" transform="translate(-40.9 -2.9)"/><path class="cls-2" d="M56.1,63.1a.6.6,0,1,1-.6-.6C55.8,62.4,56.1,62.7,56.1,63.1Z" transform="translate(-40.9 -2.9)"/><path class="cls-2" d="M79.3,120a.7.7,0,1,1-.7-.7A.7.7,0,0,1,79.3,120Z" transform="translate(-40.9 -2.9)"/><path class="cls-2" d="M47.4,52a.7.7,0,1,1-.7-.7A.7.7,0,0,1,47.4,52Z" transform="translate(-40.9 -2.9)"/><circle class="cls-2" cx="33.5" cy="48.8" r="0.6"/><path class="cls-2" d="M70.1,61.5a.6.6,0,1,1-.6-.6A.6.6,0,0,1,70.1,61.5Z" transform="translate(-40.9 -2.9)"/><circle class="cls-2" cx="39.5" cy="52.4" r="0.6"/><path class="cls-2" d="M72.8,96.9a.7.7,0,1,1-.7-.7C72.5,96.1,72.8,96.5,72.8,96.9Z" transform="translate(-40.9 -2.9)"/><path class="cls-2" d="M86.4,95.6a.6.6,0,1,1-.6-.6A.6.6,0,0,1,86.4,95.6Z" transform="translate(-40.9 -2.9)"/><path class="cls-2" d="M73.7,79.3a.6.6,0,1,1-.6-.6A.6.6,0,0,1,73.7,79.3Z" transform="translate(-40.9 -2.9)"/><path class="cls-2" d="M86.5,145.6a.7.7,0,1,1-.7-.7A.7.7,0,0,1,86.5,145.6Z" transform="translate(-40.9 -2.9)"/><path class="cls-2" d="M64.6,74a.6.6,0,1,1-.6-.6A.6.6,0,0,1,64.6,74Z" transform="translate(-40.9 -2.9)"/><path class="cls-2" d="M86.4,71.2a.6.6,0,1,1-.6-.6A.5.5,0,0,1,86.4,71.2Z" transform="translate(-40.9 -2.9)"/><path class="cls-2" d="M96.4,55.4a.6.6,0,1,1-.6-.6A.6.6,0,0,1,96.4,55.4Z" transform="translate(-40.9 -2.9)"/><path class="cls-2" d="M99.3,67a.6.6,0,1,1-.6-.6A.6.6,0,0,1,99.3,67Z" transform="translate(-40.9 -2.9)"/><path class="cls-2" d="M114.4,57.2a.6.6,0,1,1-.6-.6A.6.6,0,0,1,114.4,57.2Z" transform="translate(-40.9 -2.9)"/><path class="cls-2" d="M111.2,75a.6.6,0,1,1-.6-.6A.6.6,0,0,1,111.2,75Z" transform="translate(-40.9 -2.9)"/><path class="cls-2" d="M112.3,81.8a.6.6,0,1,1-.6-.6A.5.5,0,0,1,112.3,81.8Z" transform="translate(-40.9 -2.9)"/><path class="cls-2" d="M96.1,81.9a.6.6,0,1,1-.6-.6A.6.6,0,0,1,96.1,81.9Z" transform="translate(-40.9 -2.9)"/><path class="cls-2" d="M113.8,133.1a.6.6,0,1,1-.6-.6A.5.5,0,0,1,113.8,133.1Z" transform="translate(-40.9 -2.9)"/><path class="cls-2" d="M96,133a.6.6,0,1,1-.6-.6A.6.6,0,0,1,96,133Z" transform="translate(-40.9 -2.9)"/><path class="cls-2" d="M90.8,61.3a.6.6,0,1,1-.6-.6A.6.6,0,0,1,90.8,61.3Z" transform="translate(-40.9 -2.9)"/><path class="cls-2" d="M90.3,69.3a.6.6,0,1,1-.6-.6A.6.6,0,0,1,90.3,69.3Z" transform="translate(-40.9 -2.9)"/><path class="cls-2" d="M64.3,156.1a.7.7,0,1,1-.7-.7A.7.7,0,0,1,64.3,156.1Z" transform="translate(-40.9 -2.9)"/><path class="cls-2" d="M42.1,144.5a.6.6,0,1,1-.6-.6A.5.5,0,0,1,42.1,144.5Z" transform="translate(-40.9 -2.9)"/><path class="cls-2" d="M50,123a.6.6,0,1,1-.6-.6A.6.6,0,0,1,50,123Z" transform="translate(-40.9 -2.9)"/><path class="cls-2" d="M57.6,103.5a.7.7,0,1,1-.7-.7A.8.8,0,0,1,57.6,103.5Z" transform="translate(-40.9 -2.9)"/></svg>