<?xml version="1.0" encoding="utf-8"?>
<!-- Generator: Adobe Illustrator 22.1.0, SVG Export Plug-In . SVG Version: 6.00 Build 0)  -->
<svg version="1.1" id="Layer_1" xmlns="http://www.w3.org/2000/svg" xmlns:xlink="http://www.w3.org/1999/xlink" x="0px" y="0px"
	 viewBox="0 0 139 139" style="enable-background:new 0 0 139 139;" xml:space="preserve">
<style type="text/css">
	.st0{fill:none;stroke:#E6E7E8;stroke-width:1.0877;stroke-miterlimit:10;}
	.st1{fill:none;stroke:#231F20;stroke-width:1.0116;stroke-miterlimit:10;}
	.st2{fill:#231F20;}
</style>
<g>
	<g>
		<path class="st1" d="M30.2,55.8V24c0-3.9-3.2-7.1-7.1-7.1h-1.8h69.7c3.9,0,7.1,3.2,7.1,7.1v20.2"/>
		<path class="st1" d="M98.1,76.9v23.2"/>
		<g>
			<path class="st1" d="M37.6,114.2h67.6c3.9,0,7.1-3.2,7.1-7.1v-7.1H44.5v7.1c0,3.9-3.2,7.1-7.1,7.1H37.6z"/>
			<path class="st1" d="M30.2,37.3H15.9V23c0-3.9,3.2-7.1,7.1-7.1l0,0c3.9,0,7.1,3.2,7.1,7.1V37.3z"/>
		</g>
		<g>
			<rect x="15.9" y="108.8" class="st1" width="21.4" height="14.3"/>
			<rect x="39.1" y="23" class="st1" width="50" height="19.7"/>
		</g>
		<path class="st1" d="M23,108.8L21.3,95c0-0.3-0.1-0.6-0.1-0.9V78.9c0-0.3,0-0.6,0.1-0.9l1.5-11.9c0.2-1.3,0.7-2.5,1.5-3.1
			l10.2-13.1c0.7-1.3,1.7-1.8,2.8-1.8l0,0c2,0,3.6,1.6,3.6,3.6v0.6c0,0.8-0.2,1.5-0.7,2.1l-6.9,9.7c-0.9,1.2-1.3,2.7-1.3,4.2v10.3
			c0,1.1,0.3,2.2,0.8,3.2l2.8,5.6l0,0l7.8-7.8c0.7-0.7,1.7-1.1,2.7-1.1l0,0c2.1,0,3.8,1.7,3.8,3.8l0,0c0,1-0.4,2-1.1,2.7L35.5,98.1
			v10.7H23z"/>
		<line class="st1" x1="28" y1="123.1" x2="15.9" y2="108.8"/>
		<line class="st1" x1="37.3" y1="108.8" x2="28" y2="123.1"/>
		<line class="st1" x1="15.9" y1="123.1" x2="37.3" y2="108.8"/>
		<line class="st1" x1="44.5" y1="99.9" x2="110.2" y2="112.2"/>
		<polyline class="st1" points="112.4,99.9 51.5,114.2 44.5,99.9 		"/>
		<line class="st1" x1="93" y1="73.6" x2="35.7" y2="98"/>
		<line class="st1" x1="46.5" y1="78.5" x2="93" y2="73.6"/>
		<line class="st1" x1="89.7" y1="51.8" x2="46.5" y2="78.5"/>
		<line class="st1" x1="32.2" y1="66.5" x2="89.7" y2="51.8"/>
		<line class="st1" x1="98.1" y1="99.9" x2="32.2" y2="66.5"/>
		<line class="st1" x1="63.5" y1="42.7" x2="98.1" y2="99.9"/>
		<line class="st1" x1="32.2" y1="66.5" x2="63.5" y2="42.7"/>
		<polyline class="st1" points="89.7,51.8 89.2,42.7 32.2,66.5 		"/>
		<polyline class="st1" points="25.9,16.3 65.8,23 95.7,18.1 39.1,23 30.3,43.4 89.7,51.8 		"/>
		
			<ellipse transform="matrix(0.7071 -0.7071 0.7071 0.7071 -11.9988 92.1579)" class="st1" cx="105.2" cy="60.6" rx="17.9" ry="17.9"/>
		<path class="st1" d="M105.2,55.2c1,0,1.8,0.8,1.8,1.8h3.6c0-2.3-1.5-4.3-3.6-5v-3.9h-3.6V52c-2.1,0.7-3.6,2.7-3.6,5
			c0,3,2.4,5.4,5.4,5.4c1,0,1.8,0.8,1.8,1.8c0,1-0.8,1.8-1.8,1.8c-1,0-1.8-0.8-1.8-1.8h-3.6c0,2.3,1.5,4.3,3.6,5v3.9h3.6v-3.9
			c2.1-0.7,3.6-2.7,3.6-5c0-3-2.4-5.4-5.4-5.4c-1,0-1.8-0.8-1.8-1.8S104.3,55.2,105.2,55.2z"/>
		<rect x="114.2" y="58.8" class="st1" width="3.6" height="3.6"/>
		<rect x="92.7" y="58.8" class="st1" width="3.6" height="3.6"/>
	</g>
</g>
</svg>
