<svg id="Layer_1" data-name="Layer 1" xmlns="http://www.w3.org/2000/svg" viewBox="0 0 160 160"><defs><style>.cls-1{fill:#231f20;}.cls-2{fill:none;}.cls-2,.cls-3{stroke:#231f20;stroke-linecap:round;stroke-linejoin:round;stroke-width:0.63px;}.cls-3{fill:#fff;}</style></defs><title>ig-self-service</title><path class="cls-1" d="M36.1,33.8a1.7,1.7,0,1,1-1.7-1.7A1.7,1.7,0,0,1,36.1,33.8Z"/><path class="cls-1" d="M116.9,41.3a.9.9,0,1,1-.9-.9A.9.9,0,0,1,116.9,41.3Z"/><path class="cls-1" d="M140.4,90.6a.9.9,0,1,1-.9-.9A.9.9,0,0,1,140.4,90.6Z"/><path class="cls-1" d="M73.1,58a1.2,1.2,0,1,1-1.2-1.2A1.2,1.2,0,0,1,73.1,58Z"/><path class="cls-1" d="M21.4,90.4a.9.9,0,1,1-.9-.9A.9.9,0,0,1,21.4,90.4Z"/><path class="cls-1" d="M34,86.1a.9.9,0,1,1-.9-.9A.9.9,0,0,1,34,86.1Z"/><path class="cls-1" d="M67.7,74.3a1.7,1.7,0,1,1-3.4,0,1.7,1.7,0,1,1,3.4,0Z"/><path class="cls-1" d="M81.9,41.3a1.2,1.2,0,1,1-1.2-1.2A1.3,1.3,0,0,1,81.9,41.3Z"/><path class="cls-1" d="M34.3,52.2A1.2,1.2,0,1,1,33.1,51,1.4,1.4,0,0,1,34.3,52.2Z"/><circle class="cls-1" cx="125.2" cy="33.8" r="1.7"/><circle class="cls-1" cx="44.3" cy="97.1" r="1.7"/><path class="cls-1" d="M128.3,52.8a1.4,1.4,0,1,1-1.4-1.4A1.4,1.4,0,0,1,128.3,52.8Z"/><polygon class="cls-2" points="34.3 33.8 44 41.3 20.5 47.7 33.1 86.1 34.7 104.9 44.3 97.4 20.5 90.6 34.3 33.8"/><polyline class="cls-2" points="125.6 33.8 116 41.3 79.2 34.1 81.5 41.1 34.3 33.8"/><polygon class="cls-2" points="125.6 33.8 81.9 33.8 78.1 33.8 34.3 33.8 20.5 47.7 20.5 90.6 34.7 104.9 78.1 104.9 81.9 104.9 125.2 104.9 139.5 90.6 139.5 47.7 125.6 33.8"/><polygon class="cls-2" points="116 41.3 81.5 41.3 78.5 41.3 44 41.3 33.1 52.2 33.1 86.1 44.3 97.4 78.5 97.4 81.5 97.4 115.6 97.4 126.9 86.1 126.9 52.2 116 41.3"/><line class="cls-2" x1="55.8" y1="97.4" x2="34.7" y2="104.9"/><polyline class="cls-2" points="115.6 97.4 130.5 99.4 139.5 47.7 116 41.3 130.5 38.8 126.9 52.2 139.5 90.6 126.9 86.1 125.2 104.9"/><line class="cls-2" x1="43.6" y1="97.1" x2="74.6" y2="105.1"/><polyline class="cls-2" points="121.1 91.9 59.1 97.4 44 41.3"/><polyline class="cls-2" points="33.1 52.2 116 41.3 126.9 86.1 44.3 97.4 80.7 41.1 115.6 97.4 33.1 86.1"/><polyline class="cls-2" points="84.3 83.1 89.3 76.8 89.3 71.7 84.7 67.1 80.7 67.1 76.6 67.1 72 71.7 72 76.8 77.3 83.3"/><polyline class="cls-2" points="87.5 87.8 95.1 78 95.1 69.6 87.4 61.9 80.7 61.9 73.9 61.9 66.2 69.6 66.2 78 77.9 91.8"/><polyline class="cls-2" points="89.5 91.7 99.5 79 99.5 68 89.5 58 80.7 58 71.9 58 61.9 68 61.9 79 71.6 91.4"/><polygon class="cls-3" points="102.3 127.9 78.5 127.9 78.5 124.3 70.4 112.8 64.1 94.1 65.5 91.5 69.7 91.8 77.4 104.9 77.4 75.1 79.4 72.6 83 72.6 84.3 75.1 84.3 96.1 84.9 86.8 88.6 86.8 91.2 89.6 91.2 97.4 91.7 89.6 93.9 88.9 98.3 91.7 98.3 98.9 98.7 92.3 101.1 91.6 105.2 95.1 104.9 107.2 102.3 127.9"/><path class="cls-1" d="M85.8,86.8a1.2,1.2,0,1,1-1.2-1.2A1.3,1.3,0,0,1,85.8,86.8Z"/><path class="cls-1" d="M100.6,68.3a1.2,1.2,0,1,1-2.4,0,1.2,1.2,0,1,1,2.4,0Z"/><path class="cls-1" d="M116.5,97.1a1.2,1.2,0,1,1-1.2-1.2A1.2,1.2,0,0,1,116.5,97.1Z"/></svg>