<?xml version="1.0" encoding="utf-8"?>
<!-- Generator: Adobe Illustrator 16.0.0, SVG Export Plug-In . SVG Version: 6.00 Build 0)  -->
<!DOCTYPE svg PUBLIC "-//W3C//DTD SVG 1.1//EN" "http://www.w3.org/Graphics/SVG/1.1/DTD/svg11.dtd">
<svg version="1.1" id="Layer_1" xmlns="http://www.w3.org/2000/svg" xmlns:xlink="http://www.w3.org/1999/xlink" x="0px" y="0px"
	 width="1981.401px" height="200px" viewBox="0 0 1981.401 200" enable-background="new 0 0 1981.401 200" xml:space="preserve">
<g>
	<path fill="none" stroke="#1C76BC" stroke-miterlimit="10" d="M1977.311,189.819h-24.06l-85.675-137.702l-0.761,0.266v137.437
		h-24.061V11.769h24.061l85.675,137.436l0.761-0.267V11.769h24.06V189.819L1977.311,189.819z M1736.213,85.049
		c0-16.237-4.448-29.547-13.229-39.93c-8.817-10.38-20.602-15.554-35.425-15.554c-14.026,0-25.201,5.174-33.524,15.554
		c-8.401,10.383-12.544,23.692-12.544,39.93v31.755c0,16.354,4.143,29.778,12.544,40.159c8.323,10.381,19.498,15.554,33.524,15.554
		c14.899,0,26.76-5.173,35.502-15.516c8.78-10.345,13.151-23.73,13.151-40.197V85.049L1736.213,85.049z M1760.272,116.689
		c0,21.754-6.766,39.778-20.222,54.115c-13.493,14.337-31.016,21.487-52.491,21.487c-20.755,0-37.668-7.15-50.668-21.487
		c-12.961-14.337-19.499-32.361-19.499-54.115V85.012c0-21.638,6.538-39.702,19.499-54.115c13-14.412,29.913-21.638,50.668-21.638
		c21.476,0,38.998,7.187,52.491,21.601c13.456,14.336,20.222,32.399,20.222,54.152V116.689L1760.272,116.689z M1381.692,30.782
		h-57.168v159.037h-24.099V30.782h-57.054V11.769h138.32V30.782L1381.692,30.782z M1081.906,123.688h59.904l-29.307-81.002h-0.76
		L1081.906,123.688L1081.906,123.688z M1149.032,143.994h-74.538l-16.915,45.825h-24.517l68.799-178.051h20.639l67.697,178.051
		h-24.555L1149.032,143.994L1149.032,143.994z M909.758,145.516l4.067,14.071h0.685l4.066-14.071l45.916-133.747h26.036
		L924.43,189.819h-20.678L837.69,11.769h26.113L909.758,145.516L909.758,145.516z M753.117,85.049
		c0-16.237-4.409-29.547-13.227-39.93c-8.78-10.38-20.602-15.554-35.387-15.554c-14.027,0-25.201,5.174-33.564,15.554
		c-8.361,10.383-12.542,23.692-12.542,39.93v31.755c0,16.354,4.181,29.778,12.542,40.159c8.363,10.381,19.537,15.554,33.564,15.554
		c14.899,0,26.721-5.173,35.5-15.516c8.743-10.345,13.113-23.73,13.113-40.197V85.049L753.117,85.049z M777.179,116.689
		c0,21.754-6.728,39.778-20.222,54.115c-13.455,14.337-30.979,21.487-52.453,21.487c-20.792,0-37.669-7.15-50.706-21.487
		c-12.962-14.337-19.462-32.361-19.462-54.115V85.012c0-21.638,6.5-39.702,19.462-54.115c13.037-14.412,29.914-21.638,50.706-21.638
		c21.475,0,38.998,7.187,52.453,21.601c13.494,14.336,20.222,32.399,20.222,54.152V116.689L777.179,116.689z M552.007,189.819
		h-24.099L442.233,52.117l-0.761,0.266v137.437h-24.06V11.769h24.06l85.713,137.436l0.723-0.267V11.769h24.099V189.819
		L552.007,189.819z M326.91,189.819H302.85L217.175,52.117l-0.76,0.266v137.437h-24.061V11.769h24.061l85.675,137.436l0.76-0.267
		V11.769h24.061V189.819L326.91,189.819z M1532.896,189.819h-95.596v-18.559h35.652V26.296h-35.652V7.775h95.596v18.521h-35.653
		v144.965h35.653V189.819L1532.896,189.819z M99.648,189.819H4.091v-18.559h35.653V26.296H4.091V7.775h95.558v18.521H63.995v144.965
		h35.653V189.819L99.648,189.819z M4.091,26.296L99.648,7.775L39.744,26.296L4.091,7.775 M99.648,7.775L63.995,26.296L4.091,7.775
		l95.558,18.521 M4.091,171.261l95.558,18.559l-59.904-18.559L4.091,189.819 M99.648,189.819l-35.653-18.559L4.091,189.819
		l95.558-18.559 M39.744,26.296l24.251,144.965 M63.995,26.296L39.744,171.261 M326.91,189.819L302.85,11.769L326.91,53.22
		l-24.061,136.6 M216.415,11.769l-24.061,178.051 M216.415,189.819L192.354,11.769 M216.415,11.769l86.435,178.051 M216.415,52.383
		L326.91,189.819 M302.85,148.938v40.882 M216.415,52.383l-24.061-40.614 M552.007,189.819L527.908,11.769l24.099,41.451
		l-24.099,136.6 M441.473,11.769l-24.06,178.051 M441.473,189.819l-24.06-178.051 M441.473,11.769l86.436,178.051 M441.473,52.383
		l110.534,137.437 M527.908,148.938v40.882 M441.473,52.383l-24.06-40.614 M886.762,78.662l16.99,111.157L876.461,48.618
		l-38.771-36.85L886.762,78.662L886.762,78.662z M863.804,11.769l39.948,178.051 M941.421,78.662L924.43,189.819l27.33-141.201
		l38.769-36.85L941.421,78.662L941.421,78.662z M964.416,11.769L924.43,189.819 M1057.579,189.819l44.282-178.051l-19.955,111.92
		 M1101.861,11.769l-27.367,132.226l-41.432,45.825l48.844-66.131 M1166.744,189.819L1122.5,11.769l19.917,111.92 M1122.5,11.769
		l27.368,132.226l41.432,45.825l-48.883-66.131 M1081.906,123.688l67.126,20.306 M1141.811,123.688l-67.316,20.306 M1243.372,30.782
		l138.32-19.014l-57.168,19.014 M1324.524,30.782h-24.099l-57.054-19.014l69.103,19.014l69.218-19.014 M1381.692,30.782
		l-138.32-19.014l41.09,19.014 M1381.692,11.769l-38.353,19.014 M1300.426,30.782l24.099,159.037 M1300.426,189.819l24.099-159.037
		 M1437.301,26.296l95.596-18.521l-59.943,18.521l-35.652-18.521 M1532.896,7.775l-35.653,18.521l-59.942-18.521l95.596,18.521
		 M1437.301,171.261l95.596,18.559l-59.943-18.559l-35.652,18.559 M1532.896,189.819l-35.653-18.559l-59.942,18.559l95.596-18.559
		 M1472.953,26.296l24.29,144.965 M1497.243,26.296l-24.29,144.965 M1736.213,75.657h24.06v49.398h-24.06V75.657L1736.213,75.657z
		 M1617.393,75.657h24.099v49.398h-24.099V75.657L1617.393,75.657z M1617.393,75.657l24.099,46.852 M1641.491,75.657l-24.099,46.585
		 M1736.213,75.657l24.06,46.585 M1760.272,75.657l-24.06,46.852 M1617.393,75.657l70.167-66.398l72.713,66.398 M1617.393,125.36
		l70.167,66.398l72.713-66.398 M1977.311,189.819l-24.06-178.051l24.06,41.451l-24.06,136.6 M1866.815,11.769l-24.061,178.051
		 M1866.815,189.819l-24.061-178.051 M1866.815,11.769l86.436,178.051 M1866.815,52.383l110.495,137.437 M1953.251,148.938v40.882
		 M1866.815,52.383l-24.061-40.614 M753.117,75.657h24.062v49.398h-24.062V75.657L753.117,75.657z M634.336,75.657h24.062v49.398
		h-24.062V75.657L634.336,75.657z M634.336,75.657l24.062,46.852 M658.397,75.657l-24.062,46.585 M753.117,75.657l24.062,46.585
		 M777.179,75.657l-24.062,46.852 M634.336,75.657l70.168-66.398l72.675,66.398 M634.336,125.36l70.168,66.398l72.675-66.398"/>
</g>
</svg>
