<?xml version="1.0" encoding="utf-8"?>
<!-- Generator: Adobe Illustrator 16.0.0, SVG Export Plug-In . SVG Version: 6.00 Build 0)  -->
<!DOCTYPE svg PUBLIC "-//W3C//DTD SVG 1.1//EN" "http://www.w3.org/Graphics/SVG/1.1/DTD/svg11.dtd">
<svg version="1.1" id="Layer_1" xmlns="http://www.w3.org/2000/svg" xmlns:xlink="http://www.w3.org/1999/xlink" x="0px" y="0px"
	 width="1981.402px" height="200px" viewBox="0 0 1981.402 200" enable-background="new 0 0 1981.402 200" xml:space="preserve">
<g>
	<path fill="none" stroke="#257CBE" stroke-width="0.6121" stroke-miterlimit="10" d="M1977.31,189.818h-24.059l-85.676-137.701
		l-0.762,0.266V189.82h-24.061V11.769h24.061l85.676,137.436l0.762-0.268V11.769h24.059V189.818L1977.31,189.818z M1736.212,85.049
		c0-16.237-4.447-29.547-13.229-39.93c-8.816-10.38-20.602-15.554-35.426-15.554c-14.025,0-25.201,5.174-33.523,15.554
		c-8.4,10.383-12.543,23.692-12.543,39.93v31.756c0,16.354,4.143,29.777,12.543,40.158c8.322,10.381,19.498,15.555,33.523,15.555
		c14.9,0,26.762-5.174,35.502-15.517c8.781-10.345,13.152-23.729,13.152-40.196V85.049L1736.212,85.049z M1760.271,116.689
		c0,21.754-6.766,39.777-20.221,54.115c-13.494,14.336-31.016,21.486-52.492,21.486c-20.754,0-37.668-7.15-50.668-21.486
		c-12.961-14.338-19.498-32.361-19.498-54.115V85.012c0-21.638,6.537-39.702,19.498-54.115c13-14.412,29.914-21.638,50.668-21.638
		c21.477,0,38.998,7.187,52.492,21.601c13.455,14.336,20.221,32.399,20.221,54.152V116.689L1760.271,116.689z M1381.693,30.782
		h-57.168v159.036h-24.1V30.782h-57.055V11.769h138.32v19.013H1381.693z M1081.906,123.688h59.904l-29.307-81.001h-0.76
		L1081.906,123.688L1081.906,123.688z M1149.033,143.994h-74.539l-16.914,45.824h-24.518l68.799-178.05h20.639l67.697,178.05
		h-24.555L1149.033,143.994L1149.033,143.994z M909.758,145.516l4.067,14.071h0.685l4.066-14.071l45.916-133.747h26.036
		L924.43,189.818h-20.678L837.69,11.769h26.112L909.758,145.516L909.758,145.516z M753.117,85.049
		c0-16.237-4.409-29.547-13.228-39.93c-8.779-10.38-20.602-15.554-35.387-15.554c-14.027,0-25.201,5.174-33.563,15.554
		c-8.361,10.383-12.543,23.692-12.543,39.93v31.756c0,16.354,4.182,29.777,12.543,40.158c8.362,10.381,19.536,15.555,33.563,15.555
		c14.899,0,26.721-5.174,35.5-15.517c8.743-10.345,13.113-23.729,13.113-40.196L753.117,85.049L753.117,85.049z M777.179,116.689
		c0,21.754-6.728,39.777-20.222,54.115c-13.455,14.336-30.979,21.486-52.453,21.486c-20.792,0-37.669-7.15-50.706-21.486
		c-12.962-14.338-19.462-32.361-19.462-54.115V85.012c0-21.638,6.5-39.702,19.462-54.115c13.037-14.412,29.914-21.638,50.706-21.638
		c21.475,0,38.998,7.187,52.453,21.601c13.494,14.336,20.222,32.399,20.222,54.152V116.689L777.179,116.689z M552.007,189.818
		h-24.099L442.233,52.117l-0.762,0.266V189.82h-24.06V11.769h24.06l85.713,137.436l0.724-0.268V11.769h24.099V189.818
		L552.007,189.818z M326.91,189.818h-24.06L217.175,52.117l-0.76,0.266V189.82h-24.061V11.769h24.061l85.675,137.436l0.76-0.268
		V11.769h24.061L326.91,189.818L326.91,189.818z M1532.896,189.818H1437.3V171.26h35.652V26.296H1437.3V7.775h95.596v18.521h-35.652
		v144.965h35.652V189.818L1532.896,189.818z M99.648,189.818H4.091V171.26h35.653V26.296H4.091V7.775h95.558v18.521H63.995v144.965
		h35.653V189.818L99.648,189.818z M4.091,26.296L99.648,7.775L39.744,26.296L4.091,7.775 M99.648,7.775L63.995,26.296L4.091,7.775
		l95.558,18.521 M4.091,171.261l95.558,18.56l-59.904-18.56L4.091,189.818 M99.648,189.818L63.995,171.26L4.091,189.818
		l95.558-18.559 M39.744,26.296l24.251,144.965 M63.995,26.296L39.744,171.261 M326.91,189.818L302.85,11.769l24.06,41.451
		L302.849,189.82 M216.415,11.769L192.354,189.82 M216.415,189.818L192.354,11.769 M216.415,11.769L302.85,189.82 M216.415,52.383
		L326.91,189.818 M302.85,148.938v40.883 M216.415,52.383l-24.061-40.614 M552.007,189.818L527.908,11.769l24.099,41.451
		L527.908,189.82 M441.473,11.769l-24.06,178.051 M441.473,189.818l-24.06-178.05 M441.473,11.769l86.437,178.051 M441.473,52.383
		L552.007,189.82 M527.908,148.938v40.883 M441.473,52.383l-24.06-40.614 M886.762,78.662l16.99,111.156l-27.291-141.2
		l-38.771-36.85L886.762,78.662L886.762,78.662z M863.804,11.769l39.948,178.051 M941.421,78.662L924.43,189.818l27.33-141.2
		l38.77-36.85L941.421,78.662L941.421,78.662z M964.416,11.769L924.43,189.818 M1057.58,189.818l44.281-178.05l-19.955,111.919
		 M1101.861,11.769l-27.367,132.226l-41.432,45.825l48.844-66.131 M1166.744,189.818L1122.5,11.769l19.918,111.92 M1122.5,11.769
		l27.369,132.226l41.432,45.825l-48.883-66.131 M1081.906,123.688l67.127,20.307 M1141.81,123.688l-67.314,20.307 M1243.373,30.782
		l138.318-19.014l-57.168,19.014 M1324.525,30.782h-24.1l-57.055-19.014l69.104,19.014l69.219-19.014 M1381.693,30.782
		l-138.32-19.014l41.09,19.014 M1381.693,11.769l-38.354,19.014 M1300.425,30.782l24.1,159.036 M1300.425,189.818l24.1-159.036
		 M1437.3,26.296l95.596-18.521l-59.941,18.521l-35.652-18.521 M1532.896,7.775l-35.652,18.521L1437.3,7.775l95.596,18.521
		 M1437.3,171.261l95.596,18.56l-59.941-18.56l-35.652,18.56 M1532.896,189.818l-35.652-18.559l-59.943,18.559l95.596-18.559
		 M1472.953,26.296l24.291,144.965 M1497.244,26.296l-24.291,144.965 M1736.212,75.657h24.061v49.397h-24.061V75.657
		L1736.212,75.657z M1617.392,75.657h24.1v49.397h-24.1V75.657L1617.392,75.657z M1617.392,75.657l24.1,46.852 M1641.492,75.657
		l-24.1,46.585 M1736.212,75.657l24.061,46.585 M1760.271,75.657l-24.059,46.852 M1617.392,75.657l70.168-66.398l72.713,66.398
		 M1617.392,125.359l70.168,66.398l72.713-66.398 M1977.31,189.818l-24.059-178.05l24.059,41.451l-24.059,136.6 M1866.814,11.769
		l-24.061,178.051 M1866.814,189.818l-24.061-178.05 M1866.814,11.769l86.438,178.051 M1866.814,52.383L1977.31,189.82
		 M1953.251,148.938v40.883 M1866.814,52.383l-24.061-40.614 M753.117,75.657h24.062v49.397h-24.062V75.657L753.117,75.657z
		 M634.336,75.657h24.063v49.397h-24.063V75.657L634.336,75.657z M634.336,75.657l24.063,46.852 M658.396,75.657l-24.062,46.585
		 M753.117,75.657l24.062,46.585 M777.179,75.657l-24.062,46.852 M634.336,75.657l70.168-66.398l72.675,66.398 M634.336,125.359
		l70.168,66.398l72.675-66.398"/>
</g>
</svg>
