<?xml version="1.0" encoding="utf-8"?>
<!-- Generator: Adobe Illustrator 16.0.0, SVG Export Plug-In . SVG Version: 6.00 Build 0)  -->
<!DOCTYPE svg PUBLIC "-//W3C//DTD SVG 1.1//EN" "http://www.w3.org/Graphics/SVG/1.1/DTD/svg11.dtd">
<svg version="1.1" id="Layer_1" xmlns="http://www.w3.org/2000/svg" xmlns:xlink="http://www.w3.org/1999/xlink" x="0px" y="0px"
	 width="1981.401px" height="200px" viewBox="0 0 1981.401 200" enable-background="new 0 0 1981.401 200" xml:space="preserve">
<g>
	<path fill="none" stroke="#1C76BC" stroke-miterlimit="10" d="M1816.899,144.693c0-8.442-3.067-14.972-9.203-20.714
		c-6.516-5.376-17.254-9.965-32.973-13.818c-19.168-4.589-33.733-11.118-44.471-19.929c-10.738-8.836-16.1-19.954-16.1-33.379
		c0-13.818,5.755-25.696,17.253-34.9c11.498-9.597,26.457-14.212,44.851-14.212c19.562,0,35.28,5.376,46.778,16.126
		c11.498,11.118,17.254,23.39,16.873,37.575l-0.393,0.786h-22.996c0-10.357-3.448-18.8-10.737-25.329
		c-6.896-6.503-16.873-9.964-29.525-9.964c-12.258,0-21.462,2.675-27.978,8.05c-6.516,5.769-9.584,12.664-9.584,21.475
		c0,8.076,3.448,14.212,10.345,19.561c6.909,5.376,18.407,9.99,34.126,13.818c18.788,4.615,33.354,11.512,42.938,20.715
		c9.964,9.204,14.945,20.321,14.945,33.747c0,14.578-5.742,26.09-17.633,34.926c-11.879,8.811-27.598,13.032-46.386,13.032
		c-18.026,0-33.732-4.615-47.538-14.579c-13.806-9.597-20.321-22.629-19.941-39.122v-0.76h23.39
		c0,11.511,4.222,20.321,12.651,26.457s18.787,8.836,31.438,8.836c12.271,0,21.855-2.308,29.132-7.683
		C1813.071,160.427,1816.899,153.504,1816.899,144.693L1816.899,144.693z M1532.809,92.907h38.349
		c13.792,0,23.769-2.675,29.511-7.683c6.136-5.349,9.204-13.032,9.204-23.782c0-9.964-3.068-18.014-8.823-23.39
		c-5.742-5.375-14.946-8.442-27.218-8.442h-41.022V92.907L1532.809,92.907z M1532.809,112.101v77.851h-24.149V10.442h64.792
		c19.941,0,34.887,4.589,45.244,13.031c10.344,8.837,15.326,21.476,15.326,37.969c0,9.229-2.294,17.279-7.276,24.176
		c-4.602,6.896-11.511,12.271-20.701,16.126c9.584,3.435,16.86,8.417,21.081,15.706c4.222,7.289,6.517,16.126,6.517,26.851v16.886
		c0,5.375,0.773,10.357,1.914,14.973c1.153,4.195,3.448,8.05,6.516,10.724v3.068h-25.303c-3.068-2.675-4.982-6.896-6.123-12.271
		c-0.773-5.375-1.153-11.118-1.153-16.887v-16.492c0-9.571-3.068-17.254-8.443-23.39c-5.742-5.742-13.412-8.811-22.996-8.811
		H1532.809L1532.809,112.101z M1405.139,84.097c0-16.126-4.602-29.551-13.412-40.275c-8.823-10.357-20.701-15.365-35.66-15.365
		c-14.186,0-25.304,5.008-33.733,15.365c-8.431,10.725-12.651,24.149-12.651,40.275v32.199c0,16.52,4.221,29.945,12.651,40.275
		c8.43,10.751,19.548,15.733,33.733,15.733c14.959,0,26.837-4.982,35.66-15.34c9.203-10.724,13.412-24.149,13.412-40.669V84.097
		L1405.139,84.097z M1429.301,116.296c0,21.869-6.516,39.909-20.32,54.487c-13.426,14.579-31.06,21.476-52.914,21.476
		c-21.082,0-37.955-6.896-50.987-21.476c-13.031-14.578-19.548-32.618-19.548-54.487V84.097c0-21.868,6.517-39.908,19.548-54.486
		c13.032-14.579,29.905-21.869,50.987-21.869c21.854,0,39.488,7.29,52.914,21.869c13.805,14.578,20.32,32.618,20.32,54.486V116.296
		L1429.301,116.296z M1227.636,29.61h-57.503v160.341h-24.543V29.61h-57.502V10.442h139.548V29.61L1227.636,29.61z
		 M1003.354,144.693c0-8.442-3.067-14.972-9.203-20.714c-6.136-5.376-16.867-9.965-32.586-13.818
		c-19.168-4.589-34.12-11.118-44.472-19.929c-10.737-8.836-16.105-19.954-16.105-33.379c0-13.818,5.755-25.696,17.253-34.9
		c11.505-9.597,26.457-14.212,44.478-14.212c19.548,0,35.273,5.376,46.771,16.126c11.878,11.118,17.254,23.39,16.873,37.575v0.786
		h-23.389c0-10.357-3.448-18.8-10.357-25.329c-6.896-6.503-16.866-9.964-29.898-9.964c-11.892,0-21.475,2.675-27.604,8.05
		c-6.522,5.769-9.971,12.664-9.971,21.475c0,8.076,3.835,14.212,10.738,19.561c6.896,5.376,18.4,9.99,34.12,13.818
		c18.787,4.615,32.973,11.512,42.937,20.715c9.964,9.204,14.959,20.321,14.959,33.747c0,14.578-6.136,26.09-18.027,34.926
		c-11.878,8.811-27.217,13.032-46.385,13.032c-17.64,0-33.739-4.615-47.545-14.579c-13.419-9.597-20.314-22.629-19.935-39.122
		l0.387-0.76h23.003c0,11.511,4.215,20.321,12.651,26.457c8.43,6.136,19.167,8.836,31.438,8.836c12.266,0,22.235-2.308,29.132-7.683
		C999.906,160.427,1003.354,153.504,1003.354,144.693L1003.354,144.693z M821.63,106.726h-82.426v64.058h95.078v19.168H715.049
		V10.442h117.699V29.61h-93.163v57.922h82.045V106.726L821.63,106.726z M565.91,145.087l3.835,14.186h0.767l4.215-14.186
		l46.005-134.645h26.457l-66.706,179.509h-20.708L493.068,10.442h26.45L565.91,145.087L565.91,145.087z M425.208,189.951h-24.536
		l-86.261-138.84l-0.767,0.367v138.473h-24.156V10.442h24.156l86.261,138.473l0.767-0.393V10.442h24.536V189.951L425.208,189.951z
		 M236.581,191.865h-96.23v-18.774h36.04V26.936h-36.04V8.528h96.23v18.407H200.54v146.155h36.041V191.865L236.581,191.865z
		 M140.351,26.936l96.23-18.407l-60.19,18.407l-36.04-18.407 M236.581,8.528L200.54,26.936L140.351,8.528l96.23,18.407
		 M140.351,173.091l96.23,18.774l-60.19-18.774l-36.04,18.774 M236.581,191.865l-36.041-18.774l-60.189,18.774l96.23-18.774
		 M176.391,26.936l24.149,146.155 M200.54,26.936l-24.149,146.155 M425.208,189.951h-24.536l-86.261-138.84l-0.767,0.367v138.473
		h-24.156V10.442h24.156l86.261,138.473l0.767-0.393V10.442h24.536V189.951L425.208,189.951z M425.208,189.951L400.672,10.442
		l24.536,41.796l-24.536,137.713 M313.645,10.442l-24.156,179.509 M313.645,189.951L289.488,10.442 M313.645,10.442l87.027,179.509
		 M313.645,51.479l111.563,138.473 M400.672,148.522v41.429 M313.645,51.479l-24.156-41.036 M542.521,77.961l17.254,111.99
		L532.17,47.649l-39.102-37.207L542.521,77.961L542.521,77.961z M519.519,10.442l40.256,179.509 M597.729,77.961l-17.247,111.99
		L608.08,47.649l39.108-37.207L597.729,77.961L597.729,77.961z M620.731,10.442l-40.249,179.509 M832.748,10.442L739.204,29.61
		l-24.155,160.341l119.233-19.168 M834.282,189.951l-95.078-19.168l-24.155,19.168 M832.748,29.61L715.049,10.442l24.155,160.341
		 M821.63,87.532l-82.426,19.193V87.532l82.426,19.193 M739.204,106.726l-24.155-96.283l24.155,77.09 M715.049,189.951
		l24.155-102.419 M715.049,189.951l24.155-83.226 M1026.363,62.229L962.719,7.741l-61.73,49.112l60.577,53.308V87.165l66.332,57.136
		l-64.412,47.958v-19.168 M1088.088,29.61l139.548-19.168l-57.503,19.168 M1170.133,29.61h-24.543l-57.502-19.168l69.773,19.168
		l69.774-19.168 M1227.636,29.61l-139.548-19.168l41.402,19.168 M1227.636,10.442l-38.729,19.168 M1145.59,29.61l24.543,160.341
		 M1145.59,189.951l24.543-160.341 M1405.139,84.097c0-16.126-4.602-29.551-13.412-40.275c-8.823-10.357-20.701-15.365-35.66-15.365
		c-14.186,0-25.304,5.008-33.733,15.365c-8.431,10.725-12.651,24.149-12.651,40.275v32.199c0,16.52,4.221,29.945,12.651,40.275
		c8.43,10.751,19.548,15.733,33.733,15.733c14.959,0,26.837-4.982,35.66-15.34c9.203-10.724,13.412-24.149,13.412-40.669V84.097
		L1405.139,84.097z M1429.301,116.296c0,21.869-6.516,39.909-20.32,54.487c-13.426,14.579-31.06,21.476-52.914,21.476
		c-21.082,0-37.955-6.896-50.987-21.476c-13.031-14.578-19.548-32.618-19.548-54.487V84.097c0-21.868,6.517-39.908,19.548-54.486
		c13.032-14.579,29.905-21.869,50.987-21.869c21.854,0,39.488,7.29,52.914,21.869c13.805,14.578,20.32,32.618,20.32,54.486V116.296
		L1429.301,116.296z M1405.139,74.867h24.162v49.872h-24.162V74.867L1405.139,74.867z M1285.531,74.867h24.15v49.872h-24.15V74.867
		L1285.531,74.867z M1285.531,74.867l24.15,47.198 M1309.682,74.867l-24.15,46.805 M1405.139,74.867l24.162,46.805 M1429.301,74.867
		l-24.162,47.198 M1285.531,74.867l70.535-67.126l73.234,67.126 M1285.531,124.739l70.535,67.126l73.234-67.126 M1632.487,74.106
		l-47.919-62.904l-51.76,18.408l-24.149-19.168l24.149,82.465 M1508.659,10.442l24.149,101.658 M1532.809,92.907l-24.149,97.044
		l24.149-77.851 M1532.809,189.951l-24.149-89.755l24.149-70.586 M1532.809,112.101l26.077-19.193l24.529,19.561l22.629-10.724
		 M1616.769,189.951l17.253-23.022l-24.529-22.628l-3.448-42.557 M1634.021,166.929l-27.978-65.185 M1632.881,47.649l-49.466,64.818
		 M1584.568,11.202l48.313,36.447l-15.339,47.565 M1839.516,62.229l-63.259-54.487l-62.104,49.112l60.57,53.308V87.165
		l66.325,57.136l-64.019,47.958v-19.168 M1709.551,137.798l67.479,54.461 M1776.257,26.936V7.741 M1738.695,56.46l-24.542,0.394
		 M1816.899,144.693l24.149-0.393"/>
</g>
</svg>
