<?xml version="1.0" encoding="utf-8"?>
<!-- Generator: Adobe Illustrator 22.0.1, SVG Export Plug-In . SVG Version: 6.00 Build 0)  -->
<svg version="1.1" id="Capa_1" xmlns="http://www.w3.org/2000/svg" xmlns:xlink="http://www.w3.org/1999/xlink" x="0px" y="0px"
	 viewBox="0 0 27 27" style="enable-background:new 0 0 27 27;" xml:space="preserve">
<style type="text/css">
	.st0{fill:#9A9A99;}
</style>
<g>
	<path id="LinkedIn" class="st0" d="M24.6,15.9v8.2h-4.8v-7.7c0-2-0.7-3.3-2.4-3.3c-1.3,0-2.1,0.8-2.4,1.8c-0.1,0.3-0.2,0.7-0.2,1.1
		v8H10c0,0,0.1-13,0-14.4h4.8v2.1l0,0l0,0l0,0c0.7-0.9,1.8-2.3,4.3-2.3C22.3,9.5,24.6,11.5,24.6,15.9z M5.1,2.9
		c-1.6,0-2.7,1-2.7,2.5c0,1.4,1,2.5,2.6,2.5l0,0c1.7,0,2.7-1.1,2.7-2.5C7.7,4,6.7,2.9,5.1,2.9z M2.7,24.1h4.8V9.8H2.7V24.1z"/>
</g>
</svg>
