<?xml version="1.0" encoding="utf-8"?>
<!-- Generator: Adobe Illustrator 16.0.0, SVG Export Plug-In . SVG Version: 6.00 Build 0)  -->
<!DOCTYPE svg PUBLIC "-//W3C//DTD SVG 1.1//EN" "http://www.w3.org/Graphics/SVG/1.1/DTD/svg11.dtd">
<svg version="1.1" id="Layer_1" xmlns="http://www.w3.org/2000/svg" xmlns:xlink="http://www.w3.org/1999/xlink" x="0px" y="0px"
	 width="97.875px" height="31.875px" viewBox="0 0 97.875 31.875" enable-background="new 0 0 97.875 31.875" xml:space="preserve">
<g>
	<path fill="none" stroke="#1C76BC" stroke-width="0.2286" stroke-miterlimit="10" d="M5.229,8.525l0.323,3.015
		c0.734-1.061,1.628-1.873,2.767-2.524c1.141-0.57,2.443-0.896,3.991-0.896c1.464,0,2.767,0.326,3.905,1.058
		c1.061,0.735,1.873,1.712,2.441,3.179c0.651-1.303,1.631-2.363,2.767-3.096c1.225-0.734,2.524-1.141,4.153-1.141
		c2.279,0,4.069,0.815,5.455,2.36c1.3,1.631,1.951,3.991,1.951,7.167v13.519h-4.069v-13.6c0-2.198-0.406-3.746-1.138-4.723
		c-0.815-0.894-1.954-1.384-3.501-1.384c-1.383,0-2.521,0.49-3.418,1.464c-0.813,0.979-1.383,2.199-1.547,3.747v0.164v14.331h-4.069
		v-13.6c0-2.115-0.406-3.663-1.219-4.643c-0.816-0.974-1.954-1.464-3.418-1.464c-1.222,0-2.282,0.245-3.095,0.813
		c-0.813,0.49-1.383,1.223-1.79,2.118v16.775h-4.15V8.525H5.229z M59.924,23.347H47.146l-2.85,7.818h-4.23L51.866,0.71h3.499
		l11.556,30.455h-4.15L59.924,23.347z M48.448,19.846h10.254L53.656,6.004h-0.164L48.448,19.846z M96.304,21.393v0.081
		c0.081,2.934-0.896,5.294-3.011,7.247c-2.035,1.954-4.721,2.851-8.139,2.851s-6.268-1.222-8.383-3.582
		c-2.199-2.444-3.256-5.539-3.256-9.282v-5.455c0-3.746,1.058-6.842,3.256-9.285c2.115-2.443,4.965-3.663,8.383-3.663
		S91.339,1.2,93.373,3.07c2.035,1.793,3.012,4.236,2.931,7.248v0.161h-3.988c0-2.115-0.57-3.824-1.87-5.049
		c-1.222-1.22-3.012-1.87-5.291-1.87s-4.152,0.896-5.452,2.767c-1.386,1.876-2.118,4.152-2.118,6.925v5.371
		c0,2.77,0.732,5.133,2.118,6.922c1.3,1.873,3.173,2.77,5.452,2.77s4.069-0.57,5.291-1.792c1.3-1.222,1.87-2.931,1.87-5.13H96.304z"
		/>
</g>
</svg>
