<?xml version="1.0" encoding="utf-8"?>
<!-- Generator: Adobe Illustrator 16.0.0, SVG Export Plug-In . SVG Version: 6.00 Build 0)  -->
<!DOCTYPE svg PUBLIC "-//W3C//DTD SVG 1.1//EN" "http://www.w3.org/Graphics/SVG/1.1/DTD/svg11.dtd">
<svg version="1.1" id="Layer_1" xmlns="http://www.w3.org/2000/svg" xmlns:xlink="http://www.w3.org/1999/xlink" x="0px" y="0px"
	 width="97px" height="31.879px" viewBox="0 0 97 31.879" enable-background="new 0 0 97 31.879" xml:space="preserve">
<g>
	<path fill="none" stroke="#1C76BC" stroke-width="0.2286" stroke-miterlimit="10" d="M4.39,8.285l0.33,3.027
		C5.452,10.25,6.354,9.348,7.5,8.777c1.145-0.576,2.453-0.9,4.006-0.9c1.475,0,2.781,0.324,3.928,1.063
		c1.063,0.654,1.88,1.719,2.456,3.111c0.655-1.225,1.634-2.295,2.781-3.027c1.226-0.738,2.534-1.146,4.171-1.146
		c2.291,0,4.09,0.816,5.48,2.373c1.309,1.555,1.964,4.01,1.964,7.205v13.584h-4.09V17.371c0-2.209-0.409-3.85-1.147-4.75
		c-0.816-0.9-1.964-1.387-3.517-1.387c-1.39,0-2.537,0.486-3.435,1.471c-0.82,0.984-1.391,2.211-1.553,3.682v0.168v14.484h-4.093
		V17.371c0-2.131-0.408-3.682-1.229-4.666c-0.816-0.984-1.964-1.471-3.435-1.471c-1.226,0-2.289,0.246-3.108,0.732
		c-0.819,0.576-1.391,1.309-1.799,2.211v16.861H0.708V8.285H4.39z M59.362,23.186H46.52l-2.862,7.854h-4.255L51.264,0.43h3.52
		l11.615,30.609h-4.171L59.362,23.186z M47.829,19.666h10.309L53.065,5.75H52.9L47.829,19.666z M96.667,0.43v20.707
		c0,3.357-1.063,5.893-3.273,7.693c-2.126,1.717-4.987,2.619-8.426,2.619c-3.354,0-6.135-0.902-8.18-2.619
		c-2.126-1.801-3.189-4.336-3.189-7.693V0.43h4.171v20.707c0,2.289,0.655,4.09,1.964,5.236c1.31,1.227,3.027,1.803,5.234,1.803
		c2.21,0,4.093-0.576,5.483-1.803c1.391-1.146,2.045-2.947,2.045-5.236V0.43H96.667z"/>
</g>
</svg>
