<?xml version="1.0" encoding="utf-8"?>
<!-- Generator: Adobe Illustrator 16.0.0, SVG Export Plug-In . SVG Version: 6.00 Build 0)  -->
<!DOCTYPE svg PUBLIC "-//W3C//DTD SVG 1.1//EN" "http://www.w3.org/Graphics/SVG/1.1/DTD/svg11.dtd">
<svg version="1.1" id="Layer_1" xmlns="http://www.w3.org/2000/svg" xmlns:xlink="http://www.w3.org/1999/xlink" x="0px" y="0px"
	 width="96.5px" height="31.879px" viewBox="0 0 96.5 31.879" enable-background="new 0 0 96.5 31.879" xml:space="preserve">
<g>
	<path fill="none" stroke="#1C76BC" stroke-width="0.2286" stroke-miterlimit="10" d="M4.263,8.57l0.321,2.996
		c0.73-1.053,1.62-1.863,2.752-2.512c1.136-0.566,2.432-0.891,3.971-0.891c1.456,0,2.752,0.324,3.885,1.055
		c1.052,0.729,1.863,1.699,2.429,3.156c0.647-1.295,1.619-2.348,2.751-3.076c1.217-0.729,2.512-1.135,4.132-1.135
		c2.265,0,4.048,0.811,5.424,2.35c1.296,1.621,1.944,3.971,1.944,7.127v13.447h-4.048V17.563c0-2.189-0.407-3.729-1.133-4.699
		c-0.812-0.893-1.943-1.377-3.483-1.377c-1.376,0-2.508,0.484-3.4,1.459c-0.808,0.969-1.378,2.188-1.539,3.725v0.162v14.256H14.22
		V17.563c0-2.107-0.404-3.648-1.213-4.617c-0.812-0.975-1.943-1.459-3.4-1.459c-1.218,0-2.271,0.24-3.079,0.811
		c-0.809,0.484-1.376,1.213-1.783,2.105v16.686H0.619V8.57H4.263z M63.61,21.367l0.083,0.08c0.078,2.92-0.975,5.268-2.996,7.211
		c-2.026,1.943-4.779,2.836-8.18,2.836c-3.399,0-6.151-1.217-8.339-3.564c-2.104-2.43-3.24-5.51-3.24-9.232v-5.432
		c0-3.727,1.136-6.803,3.24-9.232c2.188-2.43,4.939-3.648,8.339-3.648c3.484,0,6.153,0.893,8.18,2.758
		c2.021,1.781,3.074,4.211,2.996,7.209l-0.083,0.162h-3.887c0-2.105-0.649-3.811-1.861-5.021c-1.296-1.217-2.996-1.863-5.345-1.863
		c-2.265,0-4.048,0.887-5.427,2.754c-1.373,1.861-2.021,4.131-2.021,6.883v5.348c0,2.754,0.647,5.105,2.021,6.887
		c1.379,1.863,3.162,2.754,5.427,2.754c2.349,0,4.049-0.568,5.345-1.783c1.212-1.215,1.861-2.916,1.861-5.104H63.61z M95.756,18.697
		c0,3.643-1.136,6.721-3.399,9.152c-2.349,2.428-5.266,3.645-8.987,3.645c-3.483,0-6.396-1.217-8.584-3.645
		c-2.188-2.432-3.322-5.51-3.322-9.152v-5.432c0-3.643,1.135-6.721,3.322-9.232c2.188-2.43,5.101-3.648,8.584-3.648
		c3.722,0,6.639,1.219,8.987,3.648c2.264,2.43,3.399,5.506,3.399,9.232V18.697z M91.707,13.266c0-2.752-0.808-5.021-2.27-6.803
		c-1.533-1.783-3.478-2.594-6.068-2.594c-2.349,0-4.215,0.811-5.671,2.594c-1.457,1.781-2.104,4.051-2.104,6.803v5.432
		c0,2.75,0.647,5.021,2.104,6.803c1.456,1.783,3.322,2.674,5.671,2.674c2.591,0,4.613-0.891,6.068-2.674
		c1.462-1.701,2.27-4.053,2.27-6.803V13.266z"/>
</g>
</svg>
