<?xml version="1.0" encoding="utf-8"?>
<!-- Generator: Adobe Illustrator 16.0.0, SVG Export Plug-In . SVG Version: 6.00 Build 0)  -->
<!DOCTYPE svg PUBLIC "-//W3C//DTD SVG 1.1//EN" "http://www.w3.org/Graphics/SVG/1.1/DTD/svg11.dtd">
<svg version="1.1" id="Layer_1" xmlns="http://www.w3.org/2000/svg" xmlns:xlink="http://www.w3.org/1999/xlink" x="0px" y="0px"
	 width="97.5px" height="31.879px" viewBox="0 0 97.5 31.879" enable-background="new 0 0 97.5 31.879" xml:space="preserve">
<g>
	<path fill="none" stroke="#1C76BC" stroke-width="0.2286" stroke-miterlimit="10" d="M4.531,8.341l0.333,3.092
		c0.75-1.088,1.67-2.008,2.839-2.593c1.167-0.582,2.503-0.919,4.089-0.919c1.503,0,2.839,0.337,4.008,1.088
		c1.084,0.668,1.919,1.756,2.503,3.172c0.668-1.251,1.67-2.336,2.839-3.089c1.251-0.751,2.588-1.171,4.256-1.171
		c2.337,0,4.174,0.837,5.593,2.424c1.336,1.588,2.004,4.091,2.004,7.35v13.861h-4.175V17.609c0-2.256-0.417-3.923-1.167-4.841
		c-0.834-0.92-2.004-1.423-3.59-1.423c-1.42,0-2.587,0.503-3.507,1.505c-0.834,1.002-1.418,2.252-1.585,3.756v0.17v14.779h-4.173
		V17.609c0-2.17-0.418-3.757-1.252-4.759c-0.834-1.002-2.003-1.505-3.507-1.505c-1.251,0-2.336,0.252-3.171,0.755
		c-0.835,0.582-1.42,1.336-1.836,2.254v17.201H0.774V8.341H4.531z M43.68,31.556V0.323h9.599c4.09,0,7.345,1.253,9.848,3.76
		c2.423,2.502,3.674,5.762,3.674,9.77v4.259c0,3.927-1.25,7.183-3.674,9.688c-2.503,2.503-5.758,3.756-9.848,3.756H43.68z
		 M47.937,3.663v24.553h5.342c2.837,0,5.175-0.919,6.846-2.84c1.669-1.921,2.502-4.341,2.502-7.347v-4.261
		c0-2.925-0.833-5.345-2.502-7.266c-1.67-1.922-4.008-2.84-6.846-2.84H47.937z M94.849,17.109H80.573v11.106h16.528v3.34H76.4V0.323
		h20.453v3.34h-16.28v10.105h14.276V17.109z"/>
</g>
</svg>
