<?xml version="1.0" encoding="utf-8"?>
<!-- Generator: Adobe Illustrator 16.0.0, SVG Export Plug-In . SVG Version: 6.00 Build 0)  -->
<!DOCTYPE svg PUBLIC "-//W3C//DTD SVG 1.1//EN" "http://www.w3.org/Graphics/SVG/1.1/DTD/svg11.dtd">
<svg version="1.1" id="Layer_1" xmlns="http://www.w3.org/2000/svg" xmlns:xlink="http://www.w3.org/1999/xlink" x="0px" y="0px"
	 width="78px" height="31.88px" viewBox="0 0 78 31.88" enable-background="new 0 0 78 31.88" xml:space="preserve">
<g>
	<path fill="none" stroke="#1C76BC" stroke-width="0.2286" stroke-miterlimit="10" d="M4.666,8.356l0.331,3.083
		c0.751-1.082,1.669-2,2.838-2.581c1.162-0.588,2.497-0.918,4.08-0.918c1.5,0,2.834,0.33,4.002,1.082
		c1.083,0.667,1.915,1.75,2.502,3.17c0.661-1.254,1.665-2.337,2.833-3.09C22.5,8.356,23.834,7.94,25.498,7.94
		c2.336,0,4.166,0.832,5.585,2.417c1.334,1.585,2.001,4.086,2.001,7.335V31.53h-4.167V17.606c0-2.245-0.416-3.916-1.168-4.834
		c-0.832-0.916-2-1.418-3.585-1.418c-1.414,0-2.582,0.502-3.5,1.504c-0.832,0.998-1.413,2.252-1.584,3.751v0.165V31.53h-4.166
		V17.606c0-2.166-0.417-3.75-1.249-4.748c-0.832-1.002-2-1.504-3.499-1.504c-1.248,0-2.331,0.25-3.169,0.752
		c-0.832,0.581-1.414,1.334-1.829,2.251V31.53H0.916V8.356H4.666z M62.169,17.777H48V31.53h-4.246V0.349H64.42v3.34H48v10.755
		h14.169V17.777z M77.5,31.53h-4.252V0.349H77.5V31.53z"/>
</g>
</svg>
