<?xml version="1.0" encoding="utf-8"?>
<!-- Generator: Adobe Illustrator 16.0.0, SVG Export Plug-In . SVG Version: 6.00 Build 0)  -->
<!DOCTYPE svg PUBLIC "-//W3C//DTD SVG 1.1//EN" "http://www.w3.org/Graphics/SVG/1.1/DTD/svg11.dtd">
<svg version="1.1" id="Layer_1" xmlns="http://www.w3.org/2000/svg" xmlns:xlink="http://www.w3.org/1999/xlink" x="0px" y="0px"
	 width="125.572px" height="31.881px" viewBox="0 0 125.572 31.881" enable-background="new 0 0 125.572 31.881"
	 xml:space="preserve">
<g>
	<path fill="none" stroke="#1C76BC" stroke-width="0.2286" stroke-miterlimit="10" d="M3.772,8.604l0.325,2.983
		c0.723-1.048,1.61-1.858,2.74-2.504c1.131-0.563,2.415-0.888,3.948-0.888c1.45,0,2.74,0.325,3.87,1.054
		c1.048,0.722,1.853,1.692,2.421,3.143c0.646-1.291,1.61-2.338,2.74-3.066c1.208-0.722,2.498-1.13,4.113-1.13
		c2.255,0,4.03,0.811,5.398,2.344c1.29,1.61,1.935,3.953,1.935,7.096v13.388h-4.03V17.553c0-2.178-0.402-3.71-1.13-4.675
		c-0.806-0.888-1.936-1.373-3.463-1.373c-1.373,0-2.503,0.485-3.386,1.455c-0.811,0.966-1.373,2.179-1.532,3.706v0.165v14.192
		h-4.031V17.553c0-2.095-0.402-3.627-1.213-4.593c-0.805-0.97-1.936-1.455-3.386-1.455c-1.207,0-2.255,0.242-3.06,0.811
		c-0.811,0.479-1.373,1.207-1.775,2.095v16.613H0.145V8.604H3.772z M45.693,18.926v12.098h-4.107V0.857h11.529
		c3.22,0,5.723,0.811,7.493,2.504c1.775,1.692,2.663,3.87,2.663,6.533c0,2.74-0.888,5.001-2.663,6.611
		c-1.771,1.615-4.273,2.42-7.493,2.42H45.693z M45.693,15.701h7.422c2.095,0,3.545-0.486,4.593-1.616
		c0.965-1.125,1.533-2.497,1.533-4.113c0-1.692-0.568-3.065-1.533-4.19c-1.048-1.13-2.58-1.698-4.593-1.698h-7.422V15.701z
		 M95.196,18.684c0,3.628-1.131,6.693-3.387,9.114c-2.338,2.421-5.32,3.628-8.949,3.628c-3.467,0-6.367-1.207-8.545-3.628
		c-2.178-2.421-3.309-5.486-3.309-9.114V13.28c0-3.628,1.131-6.694,3.309-9.197c2.178-2.415,5.078-3.628,8.545-3.628
		c3.629,0,6.611,1.213,8.949,3.628c2.256,2.421,3.387,5.486,3.387,9.197V18.684z M91.165,13.28c0-2.74-0.811-5.001-2.262-6.776
		c-1.531-1.775-3.545-2.58-6.043-2.58c-2.338,0-4.271,0.805-5.644,2.58c-1.451,1.775-2.179,4.036-2.179,6.776v5.403
		c0,2.74,0.728,5.001,2.179,6.776c1.372,1.775,3.306,2.663,5.644,2.663c2.582,0,4.594-0.888,6.043-2.663
		c1.451-1.692,2.262-4.036,2.262-6.776V13.28z M121.313,23.441c0-1.372-0.484-2.497-1.533-3.468
		c-1.047-0.888-2.898-1.692-5.48-2.338c-3.225-0.728-5.723-1.853-7.498-3.308c-1.77-1.533-2.658-3.386-2.658-5.646
		c0-2.338,0.965-4.273,2.9-5.889c1.936-1.533,4.355-2.338,7.5-2.338c3.225,0,5.883,0.888,7.818,2.746
		c1.936,1.77,2.904,3.87,2.822,6.291v0.077h-3.871c0-1.775-0.645-3.143-1.775-4.273c-1.207-1.048-2.816-1.615-4.994-1.615
		c-2.096,0-3.629,0.485-4.676,1.373c-1.131,0.888-1.693,2.095-1.693,3.551c0,1.367,0.645,2.415,1.77,3.303
		c1.213,0.888,3.066,1.615,5.729,2.343c3.221,0.723,5.641,1.936,7.252,3.469c1.697,1.527,2.502,3.385,2.502,5.646
		c0,2.414-0.971,4.433-2.982,5.883c-2.018,1.455-4.598,2.178-7.824,2.178c-2.982,0-5.641-0.805-7.979-2.415
		c-2.254-1.615-3.385-3.876-3.309-6.534v-0.165h3.871c0,1.936,0.729,3.392,2.178,4.438c1.373,0.965,3.143,1.45,5.238,1.45
		c2.102,0,3.711-0.402,4.918-1.29C120.751,26.105,121.313,24.893,121.313,23.441L121.313,23.441z"/>
</g>
</svg>
