<?xml version="1.0" encoding="utf-8"?>
<!-- Generator: Adobe Illustrator 16.0.0, SVG Export Plug-In . SVG Version: 6.00 Build 0)  -->
<!DOCTYPE svg PUBLIC "-//W3C//DTD SVG 1.1//EN" "http://www.w3.org/Graphics/SVG/1.1/DTD/svg11.dtd">
<svg version="1.1" id="Layer_1" xmlns="http://www.w3.org/2000/svg" xmlns:xlink="http://www.w3.org/1999/xlink" x="0px" y="0px"
	 width="1981.402px" height="200px" viewBox="0 0 1981.402 200" enable-background="new 0 0 1981.402 200" xml:space="preserve">
<g opacity="0.7">
	<path fill="none" stroke="#1F76BC" stroke-width="0.6121" stroke-miterlimit="10" d="M132.274,187.873H108.95L26.026,54.482
		l-0.736,0.256v133.135H2.002V15.429H25.29l82.924,133.096l0.736-0.258V15.429h23.325L132.274,187.873L132.274,187.873z
		 M132.274,187.873L108.95,15.429l23.325,40.12L108.95,187.873 M25.29,15.429L2.002,187.873 M25.29,187.873L2.002,15.429
		 M25.29,15.429l83.66,172.444 M25.29,54.738l106.984,133.135 M108.95,148.268v39.605 M25.29,54.738L2.002,15.429"/>
	<path fill="none" stroke="#1C76BC" stroke-width="0.6121" stroke-miterlimit="10" d="M203.131,190.191l23.619-80.866
		 M203.131,190.191l23.619-99.564 M226.75,109.289l-23.619-93.86l23.619,75.198 M306.804,90.627l-80.054,18.698V90.627
		l80.054,18.698 M317.693,34.09L203.131,15.429l23.619,156.064 M318.982,190.191l-92.232-18.698l-23.619,18.698 M317.693,15.429
		L226.75,34.09l-23.619,156.104l115.852-18.699 M306.804,109.289H226.75v62.204h92.232v18.698H203.131V15.429h114.563V34.09H226.75
		v56.537h80.054V109.289L306.804,109.289z"/>
	<path fill="none" stroke="#1C76BC" stroke-width="0.6121" stroke-miterlimit="10" d="M513.488,33.942h-55.662v154.887H434.39
		V33.942h-55.551V15.429h134.649V33.942L513.488,33.942z M378.839,33.942l134.649-18.514l-55.662,18.514 M457.826,33.942H434.39
		l-55.551-18.514l67.288,18.514l67.361-18.514 M513.488,33.942L378.839,15.429l39.99,18.514 M513.488,15.429l-37.342,18.514
		 M434.39,33.942l23.437,154.887 M434.39,188.829l23.437-154.887"/>
	<path fill="none" stroke="#1C76BC" stroke-width="0.6121" stroke-miterlimit="10" d="M670.617,150.697l23.619-0.223
		 M594.536,65.008l-23.656,0.405 M631.031,36.225V17.563 M566.355,144.22l65.484,53.039 M692.8,70.566l-61.807-53.004L570.88,65.413
		l58.827,51.825v-22.38l64.529,55.617l-62.396,46.783v-18.697 M670.617,150.697c0-7.951-3.018-14.576-9.014-19.951
		c-6.034-5.373-16.629-9.863-31.896-13.508c-18.505-4.453-32.926-10.896-43.265-19.471c-10.339-8.613-15.525-19.36-15.525-32.354
		c0-13.656,5.556-24.991,16.739-34.158c11.147-9.128,25.568-13.692,43.338-13.692c19.131,0,34.325,5.228,45.657,15.755
		c11.294,10.49,16.738,22.673,16.333,36.513l-0.185,0.736h-22.552c0-10.231-3.384-18.515-10.154-24.882
		c-6.769-6.295-16.443-9.46-29.063-9.46c-11.773,0-20.824,2.649-27.078,7.951c-6.254,5.337-9.418,12.256-9.418,20.796
		c0,7.619,3.384,13.913,10.189,18.992c6.807,5.08,17.844,9.533,33.11,13.362c18.396,4.527,32.412,11.263,41.977,20.134
		c9.641,8.907,14.424,19.875,14.424,32.979c0,14.097-5.777,25.396-17.292,33.973c-11.479,8.54-26.563,12.811-45.104,12.811
		c-17.402,0-32.854-4.748-46.245-14.246c-13.392-9.496-19.903-22.193-19.462-38.021l0.222-0.735h22.515
		c0,11.188,4.158,19.729,12.397,25.58c8.204,5.854,18.396,8.76,30.573,8.76c11.92,0,21.375-2.502,28.328-7.508
		C667.158,166.046,670.617,159.273,670.617,150.697L670.617,150.697z"/>
	<path fill="none" stroke="#1F76BC" stroke-width="0.6121" stroke-miterlimit="10" d="M757.881,125.189l67.915,64.34l70.415-64.34
		 M757.881,77.044l67.915-64.303l70.415,64.303 M896.21,77.044l-23.325,45.384 M872.885,77.044l23.325,45.164 M781.169,77.044
		l-23.288,45.164 M757.881,77.044l23.288,45.384 M757.881,77.044h23.288v47.853h-23.288V77.044L757.881,77.044z M872.885,77.044
		h23.325v47.853h-23.325V77.044L872.885,77.044z M896.21,116.797c0,21.055-6.548,38.537-19.608,52.414
		c-13.022,13.877-29.983,20.87-50.806,20.87c-20.125,0-36.459-6.993-49.041-20.87s-18.874-31.359-18.874-52.414v-30.66
		c0-20.98,6.292-38.429,18.874-52.416c12.582-13.985,28.917-20.979,49.078-20.979c20.786,0,37.746,6.957,50.771,20.944
		c13.06,13.877,19.607,31.359,19.607,52.451L896.21,116.797L896.21,116.797z M872.885,86.173c0-15.754-4.268-28.637-12.766-38.685
		c-8.535-10.048-19.978-15.091-34.324-15.091c-13.576,0-24.392,5.043-32.45,15.091c-8.13,10.048-12.177,22.931-12.177,38.685v30.734
		c0,15.864,4.047,28.856,12.177,38.905c8.059,10.049,18.874,15.056,32.45,15.056c14.458,0,25.9-5.007,34.398-15.019
		c8.461-10.012,12.691-23.006,12.691-38.942V86.173L872.885,86.173z"/>
	<path fill="none" stroke="#1C76BC" stroke-width="0.6121" stroke-miterlimit="10" d="M1073.867,188.719l-82.371-18.625
		 M967.95,188.719l105.917-18.625 M991.496,14.546L967.95,188.719l23.545-18.625L967.95,14.546 M991.607,170.979h82.406v18.588
		H968.06V15.429h23.547V170.979z"/>
</g>
</svg>
