<?xml version="1.0" encoding="utf-8"?>
<!-- Generator: Adobe Illustrator 16.0.0, SVG Export Plug-In . SVG Version: 6.00 Build 0)  -->
<!DOCTYPE svg PUBLIC "-//W3C//DTD SVG 1.1//EN" "http://www.w3.org/Graphics/SVG/1.1/DTD/svg11.dtd">
<svg version="1.1" id="Layer_1" xmlns="http://www.w3.org/2000/svg" xmlns:xlink="http://www.w3.org/1999/xlink" x="0px" y="0px"
	 width="1981.401px" height="200px" viewBox="0 0 1981.401 200" enable-background="new 0 0 1981.401 200" xml:space="preserve">
<g>
	<path fill="none" stroke="#1F76BC" stroke-miterlimit="10" d="M584.967,182.873h-23.324L478.719,49.482l-0.736,0.256v133.135
		h-23.288V10.429h23.288l82.924,133.097l0.736-0.258V10.429h23.324V182.873L584.967,182.873z M584.967,182.873L561.643,10.429
		l23.324,40.12l-23.324,132.324 M477.982,10.429l-23.288,172.444 M477.982,182.873L454.694,10.429 M477.982,10.429l83.66,172.444
		 M477.982,49.738l106.984,133.135 M561.643,143.268v39.605 M477.982,49.738l-23.288-39.31"/>
	<path fill="none" stroke="#1C76BC" stroke-miterlimit="10" d="M655.823,185.192l23.619-80.867 M655.823,185.192l23.619-99.565
		 M679.442,104.289l-23.619-93.86l23.619,75.198 M759.496,85.627l-80.054,18.698V85.627l80.054,18.698 M770.386,29.09
		L655.823,10.429l23.619,156.064 M771.675,185.192l-92.232-18.699l-23.619,18.699 M770.386,10.429L679.442,29.09l-23.619,156.103
		l115.852-18.699 M759.496,104.289h-80.054v62.204h92.232v18.699H655.823V10.429h114.563V29.09h-90.943v56.537h80.054V104.289
		L759.496,104.289z"/>
	<path fill="none" stroke="#1C76BC" stroke-miterlimit="10" d="M966.181,28.942h-55.662v154.887h-23.436V28.942h-55.552V10.429
		h134.649V28.942L966.181,28.942z M831.531,28.942l134.649-18.514l-55.662,18.514 M910.519,28.942h-23.436l-55.552-18.514
		l67.288,18.514l67.361-18.514 M966.181,28.942L831.531,10.429l39.99,18.514 M966.181,10.429L928.84,28.942 M887.083,28.942
		l23.436,154.887 M887.083,183.829l23.436-154.887"/>
	<path fill="none" stroke="#1C76BC" stroke-miterlimit="10" d="M1123.31,145.697l23.619-0.222 M1047.229,60.008l-23.656,0.405
		 M1083.724,31.225V12.563 M1019.048,139.22l65.485,53.039 M1145.493,65.566l-61.807-53.004l-60.114,47.851l58.827,51.825v-22.38
		l64.529,55.617l-62.396,46.783V173.56 M1123.31,145.697c0-7.951-3.018-14.576-9.015-19.951
		c-6.033-5.373-16.628-9.863-31.896-13.508c-18.506-4.453-32.927-10.895-43.266-19.471c-10.338-8.613-15.524-19.36-15.524-32.354
		c0-13.656,5.556-24.991,16.738-34.158c11.148-9.128,25.569-13.692,43.339-13.692c19.131,0,34.325,5.228,45.656,15.755
		c11.294,10.49,16.739,22.673,16.334,36.513l-0.184,0.736h-22.553c0-10.231-3.384-18.515-10.153-24.882
		c-6.769-6.295-16.444-9.46-29.063-9.46c-11.772,0-20.823,2.649-27.077,7.951c-6.254,5.337-9.418,12.256-9.418,20.796
		c0,7.619,3.384,13.913,10.19,18.992c6.806,5.08,17.843,9.533,33.109,13.362c18.396,4.527,32.412,11.263,41.978,20.134
		c9.64,8.907,14.423,19.875,14.423,32.979c0,14.097-5.777,25.396-17.293,33.973c-11.478,8.54-26.562,12.81-45.103,12.81
		c-17.402,0-32.854-4.748-46.245-14.245c-13.392-9.496-19.903-22.194-19.462-38.021l0.222-0.735h22.514
		c0,11.188,4.158,19.728,12.398,25.58c8.204,5.853,18.396,8.76,30.573,8.76c11.92,0,21.374-2.502,28.328-7.508
		C1119.851,161.046,1123.31,154.273,1123.31,145.697L1123.31,145.697z"/>
	<path fill="none" stroke="#1F76BC" stroke-miterlimit="10" d="M1210.573,120.189l67.915,64.34l70.414-64.34 M1210.573,72.044
		l67.915-64.303l70.414,64.303 M1348.902,72.044l-23.324,45.384 M1325.578,72.044l23.324,45.164 M1233.861,72.044l-23.288,45.164
		 M1210.573,72.044l23.288,45.384 M1210.573,72.044h23.288v47.852h-23.288V72.044L1210.573,72.044z M1325.578,72.044h23.324v47.852
		h-23.324V72.044L1325.578,72.044z M1348.902,111.797c0,21.054-6.548,38.537-19.608,52.414
		c-13.023,13.877-29.983,20.87-50.806,20.87c-20.125,0-36.46-6.993-49.041-20.87c-12.582-13.877-18.874-31.36-18.874-52.414v-30.66
		c0-20.981,6.292-38.429,18.874-52.416c12.581-13.985,28.916-20.979,49.077-20.979c20.786,0,37.746,6.957,50.77,20.944
		c13.061,13.877,19.608,31.359,19.608,52.451V111.797L1348.902,111.797z M1325.578,81.173c0-15.754-4.268-28.637-12.767-38.685
		c-8.534-10.048-19.977-15.091-34.323-15.091c-13.576,0-24.392,5.043-32.45,15.091c-8.13,10.048-12.177,22.931-12.177,38.685v30.734
		c0,15.865,4.047,28.857,12.177,38.906c8.059,10.049,18.874,15.055,32.45,15.055c14.457,0,25.899-5.006,34.397-15.018
		c8.461-10.012,12.692-23.006,12.692-38.943V81.173L1325.578,81.173z"/>
	<path fill="none" stroke="#1C76BC" stroke-miterlimit="10" d="M1526.559,183.719l-82.371-18.625 M1420.643,183.719l105.916-18.625
		 M1444.188,9.546l-23.545,174.173l23.545-18.625L1420.643,9.546 M1444.299,165.978h82.407v18.588h-105.954V10.429h23.547V165.978z"
		/>
</g>
</svg>
