<?xml version="1.0" encoding="utf-8"?>
<!-- Generator: Adobe Illustrator 22.0.1, SVG Export Plug-In . SVG Version: 6.00 Build 0)  -->
<svg version="1.1" id="Layer_1" xmlns="http://www.w3.org/2000/svg" xmlns:xlink="http://www.w3.org/1999/xlink" x="0px" y="0px"
	 viewBox="0 0 136 42" style="enable-background:new 0 0 136 42;" xml:space="preserve">
<style type="text/css">
	.st0{fill:#1C75BC;}
</style>
<path d="M24.3,25.9c-0.4-1.3-0.9-2.3-1.7-2.9c-0.6-0.5-1.5-0.8-2.6-1s-3.1-0.4-6-0.4H1.7c-0.8,0-1.2,0.4-1.2,1.2v17.6
	c0,0.8,0.4,1.2,1.2,1.2h12.4c2.4,0,4.1-0.1,5.3-0.3c1.9-0.3,3.3-1.2,4.2-2.5c0.9-1.4,1.3-3.7,1.3-6.7C24.9,29.4,24.7,27.4,24.3,25.9
	z M21.8,37.1c-0.5,1-1.4,1.7-2.8,1.9c-1,0.2-2.6,0.2-4.9,0.2H2.9V24H14c1.3,0,2.4,0,3.3,0.1s1.7,0.1,2.2,0.2c1.2,0.2,2,0.8,2.4,1.8
	c0.5,1.1,0.7,3.1,0.7,6C22.5,34.5,22.3,36.2,21.8,37.1z"/>
<rect x="28.6" y="21.6" width="2.4" height="20"/>
<path d="M58.7,35c-0.1,0.9-0.1,1.6-0.2,2.1c-0.2,1.1-0.6,2-1.1,2.6s-1.3,1-2.3,1.4c-0.6,0.2-1.5,0.3-2.9,0.4
	c-1.3,0.1-2.9,0.2-4.8,0.2c-3.6,0-6.2-0.1-7.8-0.4c-1.6-0.3-2.8-1-3.6-2.2c-0.4-0.6-0.6-1.5-0.8-2.7c-0.2-1.3-0.3-2.8-0.3-4.7
	c0-2.6,0.2-4.6,0.6-6c0.4-1.7,1.5-2.8,3.2-3.4c0.7-0.2,1.7-0.4,3-0.5s2.9-0.2,4.8-0.2c1.3,0,2.8,0,4.3,0.1s2.5,0.1,3.1,0.2
	c1.2,0.2,2.1,0.5,2.9,1.2c0.8,0.6,1.3,1.4,1.7,2.5c0.1,0.4,0.2,0.8,0.3,1.2c0.1,0.4,0.1,1,0.1,1.6l-2.3,0.1c0-0.4,0-0.9-0.1-1.2
	c0-0.4-0.1-0.7-0.2-0.9c-0.2-0.6-0.5-1-1-1.4c-0.5-0.3-1-0.6-1.6-0.7s-1.6-0.2-3-0.2C49.3,24,47.9,24,46.6,24c-1.8,0-3.3,0-4.5,0.1
	s-2,0.2-2.6,0.4c-0.4,0.1-0.8,0.4-1,0.6c-0.3,0.3-0.5,0.7-0.6,1.1c-0.3,1.3-0.5,3.1-0.5,5.4c0,1.7,0.1,3,0.2,4
	c0.1,1,0.3,1.7,0.6,2.2c0.2,0.3,0.5,0.6,0.8,0.8s0.7,0.3,1.2,0.4c1.4,0.2,3.9,0.3,7.4,0.3c3.7,0,6-0.2,7-0.5c0.6-0.2,1-0.5,1.3-0.8
	s0.5-0.8,0.6-1.5c0.1-0.4,0.1-0.9,0.2-1.5c0-0.6,0.1-1.4,0.1-2.4h-9.1v-2.3h10.2c0.8,0,1.2,0.4,1.2,1.2C58.7,32.9,58.7,34.1,58.7,35
	z"/>
<rect x="62.6" y="21.7" width="2.4" height="20"/>
<g>
	<polygon class="st0" points="104.4,32.6 101,32.6 102.7,29.2 102.7,29.2 	"/>
	<path d="M112.7,41.7l-10-17.6l0,0l-10,17.6l-2.1-1.2L101,22.3c0.1-0.2,0.3-0.3,0.4-0.4c0.2-0.1,0.4-0.2,0.6-0.2h1.4
		c0.2,0,0.4,0.1,0.6,0.2s0.3,0.3,0.4,0.4l10.3,18.2L112.7,41.7z"/>
</g>
<path d="M135.5,41.7h-16.8c-0.8,0-1.2-0.4-1.2-1.2V21.6h2.4v17.6h15.6V41.7L135.5,41.7z"/>
<g>
	<rect x="78.2" y="26.2" width="2.4" height="15.5"/>
	<rect x="69.6" y="21.7" width="19.7" height="2.3"/>
</g>
<g>
	<g>
		<path class="st0" d="M39.2,2.4H25.7v14h-2v-15c0-0.7,0.3-1,1-1h14.5V2.4z M37.2,8.8H25.7v-2h11.5V8.8z"/>
	</g>
	<path class="st0" d="M58.8,11.4c0,0.6-0.1,1.1-0.2,1.6c-0.1,0.5-0.3,0.9-0.5,1.3c-0.3,0.4-0.7,0.8-1.1,1.1
		c-0.5,0.3-1.1,0.5-1.8,0.7c-0.6,0.1-1.4,0.2-2.6,0.2c-1.2,0-2.4,0.1-3.8,0c-0.7,0-1.4,0-1.9-0.1c-0.6,0-1-0.1-1.5-0.1
		c-0.9-0.1-1.6-0.3-2.1-0.7c-0.7-0.4-1.1-0.8-1.4-1.4c-0.3-0.6-0.4-1.5-0.4-2.6v-0.6l1.8,0.1v0.6c0,0.7,0,1.2,0.2,1.6
		c0.1,0.3,0.3,0.6,0.7,0.8s0.8,0.3,1.4,0.4c0.4,0.1,0.8,0.1,1.4,0.1c0.6,0,1.2,0,1.9,0.1c1.3,0,2.4,0,3.5,0s1.8-0.1,2.3-0.2
		c0.5-0.1,0.9-0.2,1.1-0.3c0.3-0.1,0.5-0.3,0.7-0.6c0.1-0.2,0.3-0.5,0.3-0.8c0.1-0.3,0.1-0.7,0.1-1.1c0-0.6-0.1-1-0.3-1.3
		c-0.2-0.2-0.5-0.4-1-0.5c-0.1,0-0.2-0.1-0.3-0.1s-0.3,0-0.4,0c-0.3,0-0.5,0-0.7,0s-0.4,0-0.6,0l-6.1-0.1c-1.3,0-2.3-0.2-3.1-0.4
		c-0.8-0.3-1.3-0.5-1.6-0.6c-0.4-0.3-0.8-0.6-1-1.1s-0.3-1.2-0.3-2.1c0-1.5,0.3-2.6,1-3.2c0.7-0.7,2-1.1,3.9-1.3
		c0.7-0.1,1.4-0.1,2.2-0.1s1.6,0,2.4,0c0.8,0,1.5,0,2.1,0.1c0.7,0.1,1.2,0.1,1.7,0.2c0.9,0.2,1.7,0.5,2.3,1c0.6,0.4,0.9,1,1.2,1.6
		c0.1,0.2,0.1,0.6,0.2,1c0.1,0.4,0.1,0.8,0.1,1.3h-1.8c0-0.4,0-0.7,0-1s-0.1-0.5-0.1-0.7c-0.1-0.4-0.4-0.7-0.7-0.9s-0.8-0.4-1.4-0.5
		c-0.4-0.1-0.9-0.1-1.6-0.2c-0.7-0.1-1.3-0.1-2-0.1c-1.5,0-2.9,0-4.2,0.2c-1.2,0.1-2.1,0.4-2.5,0.8s-0.7,1-0.7,2
		c0,0.7,0.1,1.2,0.4,1.4c0-0.1,0.4,0.1,1.1,0.3c0.6,0.2,1.4,0.3,2.5,0.3l6.1,0.1c0.2,0,0.3,0,0.5,0s0.3,0,0.5,0c0.4,0,0.7,0,1,0.1
		c0.3,0,0.5,0.1,0.7,0.1C57,8,57.5,8.2,57.8,8.4c0.4,0.3,0.7,0.6,0.9,1C58.7,10,58.8,10.6,58.8,11.4z"/>
	<g>
		<path class="st0" d="M18.9,15l-1.4,1.4l-15-14l0,0v14h-2V1.5c0-0.7,0.3-1,1-1h1.4c0.1,0,0.2,0,0.4,0.1c0.1,0.1,0.2,0.1,0.3,0.2
			L18.9,15z M19.5,16.4h-2V0.5h2V16.4z"/>
	</g>
</g>
</svg>
