<?xml version="1.0" encoding="utf-8"?>
<!-- Generator: Adobe Illustrator 22.0.1, SVG Export Plug-In . SVG Version: 6.00 Build 0)  -->
<svg version="1.1" id="Layer_1" xmlns="http://www.w3.org/2000/svg" xmlns:xlink="http://www.w3.org/1999/xlink" x="0px" y="0px"
	 viewBox="0 0 143.5 42" style="enable-background:new 0 0 143.5 42;" xml:space="preserve">
<style type="text/css">
	.st0{fill:#1C75BC;}
</style>
<g>
	<g>
		<path d="M47.1,35.3c0,0.7-0.1,1.4-0.2,2c-0.1,0.6-0.3,1.1-0.6,1.6c-0.3,0.6-0.8,1-1.4,1.4c-0.6,0.4-1.4,0.7-2.3,0.9
			c-0.7,0.1-1.8,0.3-3.3,0.3c-1.5,0.1-3.1,0.1-4.8,0.1c-0.9,0-1.7,0-2.5,0c-0.7,0-1.3-0.1-1.8-0.1c-1.1-0.1-2-0.4-2.6-0.8
			c-0.8-0.5-1.4-1-1.7-1.7c-0.4-0.7-0.6-1.8-0.6-3.3v-0.8l2.3,0.1v0.7c0,0.9,0.1,1.5,0.2,2c0.1,0.4,0.4,0.7,0.9,1
			c0.5,0.2,1,0.4,1.8,0.5c0.5,0.1,1.1,0.1,1.8,0.1c0.7,0,1.5,0,2.4,0c1.6,0,3.1,0,4.4-0.1c1.3-0.1,2.3-0.2,2.9-0.3
			c0.6-0.1,1.1-0.3,1.4-0.4c0.4-0.2,0.6-0.4,0.8-0.7c0.2-0.3,0.3-0.6,0.4-1c0.1-0.4,0.1-0.9,0.1-1.4c0-0.7-0.2-1.3-0.5-1.6
			c-0.2-0.2-0.6-0.5-1.2-0.7C43,33,42.9,33,42.7,33c-0.2,0-0.4,0-0.5,0c-0.4,0-0.7,0-0.9,0c-0.3,0-0.5,0-0.7,0h-7.7
			c-1.6,0-2.9-0.1-3.8-0.5c-1-0.3-1.7-0.6-2-0.8c-0.6-0.3-1-0.8-1.2-1.3c-0.3-0.6-0.4-1.5-0.4-2.6c0-1.9,0.4-3.3,1.2-4.1
			c0.8-0.9,2.4-1.4,4.8-1.7c0.8-0.1,1.7-0.2,2.7-0.2c1-0.1,2-0.1,3-0.1c1,0,1.9,0,2.7,0.1c0.8,0.1,1.5,0.1,2.1,0.2
			c1.2,0.2,2.2,0.6,2.9,1.2c0.7,0.5,1.2,1.2,1.5,2c0.1,0.3,0.2,0.7,0.3,1.2c0.1,0.5,0.1,1,0.1,1.6l-2.3,0.1c0-0.5,0-0.9-0.1-1.2
			c0-0.4-0.1-0.7-0.2-0.9c-0.2-0.5-0.5-0.8-0.9-1.1c-0.4-0.3-1-0.5-1.8-0.6c-0.5-0.1-1.1-0.2-2-0.2C38.6,24,37.7,24,36.9,24
			c-1.9,0-3.7,0.1-5.2,0.3c-1.6,0.2-2.6,0.5-3.1,1c-0.5,0.5-0.8,1.3-0.8,2.5c0,0.9,0.2,1.5,0.5,1.8c0.2,0.2,0.7,0.5,1.5,0.7
			c0.8,0.2,1.8,0.4,3.2,0.4h7.7c0.2,0,0.4,0,0.6,0c0.2,0,0.4,0,0.6,0c0.5,0,0.9,0,1.2,0c0.3,0,0.6,0.1,0.9,0.2
			c0.8,0.3,1.4,0.5,1.7,0.7c0.5,0.3,0.9,0.8,1.1,1.3C47,33.5,47.1,34.3,47.1,35.3z"/>
		<path d="M72.5,34.5c0,0.8,0,1.4-0.1,2c-0.1,0.6-0.1,1.1-0.2,1.5c-0.2,0.9-0.6,1.6-1.2,2.1c-0.6,0.5-1.4,0.9-2.3,1.1
			c-0.6,0.1-1.5,0.2-2.6,0.3c-1.1,0.1-2.4,0.1-4,0.1c-4.1,0-6.8-0.1-8.2-0.4c-0.9-0.2-1.6-0.5-2.2-0.9c-0.6-0.5-1-1.1-1.3-1.8
			c-0.2-0.6-0.4-1.4-0.6-2.5c-0.1-1.1-0.2-2.4-0.2-4c0-1.4,0-2.7,0.1-3.8c0.1-1.1,0.2-2,0.4-2.6c0.3-1,0.8-1.8,1.4-2.3
			c0.7-0.6,1.6-1,2.7-1.1c0.8-0.1,1.9-0.2,3.1-0.3c1.2-0.1,2.7-0.1,4.3-0.1c3.2,0,5.4,0.2,6.8,0.5c0.9,0.2,1.6,0.6,2.2,1.2
			c0.6,0.6,1,1.2,1.2,2c0.1,0.3,0.1,0.7,0.2,1.3c0,0.6,0.1,1.2,0.1,2l-2.3,0c0-1.4-0.1-2.3-0.2-2.7c-0.1-0.4-0.3-0.8-0.6-1
			c-0.3-0.3-0.7-0.4-1.1-0.5c-0.6-0.1-1.4-0.3-2.5-0.3C64.5,24,63.2,24,61.8,24c-3.1,0-5.5,0.1-7.1,0.4c-1.2,0.2-2,0.8-2.2,1.8
			c-0.2,0.6-0.3,1.4-0.4,2.3c-0.1,1-0.1,2.1-0.1,3.5c0,1.4,0,2.6,0.1,3.5c0.1,0.9,0.2,1.7,0.4,2.2c0.3,0.7,0.9,1.2,1.8,1.4
			c0.7,0.1,1.6,0.2,2.9,0.3c1.3,0.1,2.9,0.1,4.8,0.1c2.9,0,4.9-0.1,5.9-0.3c1.1-0.2,1.7-0.7,1.9-1.5c0.1-0.3,0.1-0.7,0.2-1.2
			c0-0.5,0.1-1.1,0.1-1.8L72.5,34.5z"/>
		<path d="M93.6,40.5H76.3c-0.8,0-1.2-0.4-1.2-1.2V22.9c0-0.8,0.4-1.2,1.2-1.2h17.2V24H77.5v14.1h16.1V40.5L93.6,40.5z"/>
		<rect x="75.5" y="29.2" width="11" height="2.3"/>
		<path d="M118.7,38.8l-1.6,1.6L99.5,24v0v16.4h-2.3V22.9c0-0.8,0.4-1.2,1.2-1.2h1.6c0.1,0,0.3,0,0.4,0.1c0.2,0.1,0.3,0.1,0.4,0.2
			L118.7,38.8z M119.4,40.5h-2.3V21.7h2.3V40.5z"/>
		<path d="M142.1,24h-20v-2.3h20V24z M133.2,40.5h-2.3V26.6h2.3V40.5z"/>
		<polygon class="st0" points="13.6,32 10.3,32 12,28.7 12,28.7 		"/>
		<path d="M21.8,41L12,23.7l0,0L2.1,41l-2.1-1.2l10.2-17.9c0.1-0.2,0.3-0.3,0.4-0.4c0.2-0.1,0.4-0.2,0.6-0.2h1.4
			c0.2,0,0.4,0.1,0.6,0.2c0.2,0.1,0.3,0.3,0.4,0.4l10.1,17.9L21.8,41z"/>
	</g>
	<g>
		<g>
			<path class="st0" d="M37.9,2H24.7v13.7h-1.9V1.1c0-0.6,0.3-1,1-1h14.1V2L37.9,2z M35.9,8.2H24.7V6.3h11.2V8.2z"/>
		</g>
		<path class="st0" d="M57,10.8c0,0.6-0.1,1.1-0.2,1.6c-0.1,0.5-0.3,0.9-0.5,1.2c-0.3,0.4-0.6,0.8-1.1,1.1c-0.5,0.3-1.1,0.5-1.8,0.6
			c-0.5,0.1-1.4,0.2-2.5,0.2c-1.2,0-2.4,0.1-3.7,0c-0.7,0-1.4,0-1.9-0.1c-0.5,0-1-0.1-1.4-0.1c-0.8-0.1-1.5-0.3-2-0.6
			c-0.6-0.4-1.1-0.8-1.3-1.4c-0.3-0.6-0.4-1.4-0.4-2.5l0-0.6l1.8,0.1l0,0.6c0,0.7,0,1.2,0.1,1.5c0.1,0.3,0.3,0.6,0.7,0.8
			c0.3,0.2,0.8,0.3,1.4,0.4c0.4,0.1,0.8,0.1,1.4,0.1c0.5,0,1.2,0,1.9,0.1c1.2,0,2.4,0,3.4,0c1,0,1.8-0.1,2.3-0.2
			c0.5-0.1,0.9-0.2,1.1-0.3c0.3-0.1,0.5-0.3,0.6-0.6c0.1-0.2,0.2-0.5,0.3-0.8c0.1-0.3,0.1-0.7,0.1-1.1c0-0.6-0.1-1-0.3-1.3
			c-0.2-0.2-0.5-0.4-0.9-0.5c-0.1,0-0.2-0.1-0.3-0.1c-0.1,0-0.3,0-0.4,0c-0.3,0-0.5,0-0.7,0c-0.2,0-0.4,0-0.6,0l-6-0.1
			c-1.2,0-2.2-0.2-3-0.4c-0.8-0.2-1.3-0.5-1.6-0.6c-0.4-0.3-0.7-0.6-0.9-1c-0.2-0.5-0.3-1.2-0.3-2c0-1.5,0.3-2.6,0.9-3.2
			c0.7-0.7,1.9-1.1,3.8-1.3c0.7-0.1,1.4-0.1,2.1-0.1c0.8,0,1.5,0,2.3,0c0.7,0,1.4,0,2.1,0.1c0.6,0,1.2,0.1,1.6,0.2
			c0.9,0.2,1.7,0.5,2.3,1c0.5,0.4,0.9,1,1.1,1.6c0.1,0.2,0.1,0.6,0.2,0.9c0.1,0.4,0.1,0.8,0.1,1.3l-1.8,0c0-0.4,0-0.7,0-1
			c0-0.3-0.1-0.5-0.1-0.7c-0.1-0.4-0.3-0.6-0.7-0.9c-0.3-0.2-0.8-0.4-1.4-0.5c-0.4-0.1-0.9-0.1-1.5-0.2c-0.7-0.1-1.3-0.1-2-0.1
			c-1.5,0-2.9,0-4.1,0.2c-1.2,0.1-2,0.4-2.4,0.7c-0.4,0.4-0.6,1-0.7,1.9c0,0.7,0.1,1.1,0.4,1.4c0.2,0.2,0.6,0.4,1.2,0.6
			C44.2,6.9,45,7,46,7L52,7.1c0.2,0,0.3,0,0.5,0c0.2,0,0.3,0,0.5,0c0.4,0,0.7,0,0.9,0.1c0.2,0,0.5,0.1,0.7,0.1
			c0.6,0.2,1.1,0.4,1.3,0.6c0.4,0.3,0.7,0.6,0.8,1C56.9,9.4,57,10,57,10.8z"/>
		<g>
			<path class="st0" d="M18,14.3l-1.4,1.4L2.1,2v0v13.6H0.2V1.1c0-0.6,0.3-1,1-1h1.4c0.1,0,0.2,0,0.4,0.1C3,0.3,3.1,0.3,3.2,0.4
				L18,14.3z M18.6,15.7h-1.9V0.1h1.9V15.7z"/>
		</g>
	</g>
</g>
</svg>
