<?xml version="1.0" encoding="utf-8"?>
<!-- Generator: Adobe Illustrator 16.0.0, SVG Export Plug-In . SVG Version: 6.00 Build 0)  -->
<!DOCTYPE svg PUBLIC "-//W3C//DTD SVG 1.1//EN" "http://www.w3.org/Graphics/SVG/1.1/DTD/svg11.dtd">
<svg version="1.1" id="Layer_1" xmlns="http://www.w3.org/2000/svg" xmlns:xlink="http://www.w3.org/1999/xlink" x="0px" y="0px"
	 width="64px" height="64px" viewBox="0 0 64 64" enable-background="new 0 0 64 64" xml:space="preserve">
<g>
	<polyline fill="none" stroke="#1B75BB" stroke-width="1.1285" stroke-miterlimit="2.6131" points="12.5,30.324 12.5,29.286 
		6.313,29.286 6.313,31.975 12.403,31.975 12.403,34.598 6.282,34.598 6.282,33.305 	"/>
	<polyline fill="none" stroke="#1B75BB" stroke-width="1.1285" stroke-miterlimit="2.6131" points="21.877,30.696 21.877,29.286 
		15.689,29.286 15.689,34.566 21.957,34.566 21.957,33.367 	"/>
	<g>
		<polyline fill="none" stroke="#1B75BB" stroke-width="1.1285" stroke-miterlimit="2.6131" points="25.277,35.242 25.277,29.286 
			31.466,29.286 31.466,32.264 25.277,32.264 		"/>
		<polyline fill="none" stroke="#1B75BB" stroke-width="1.1285" stroke-miterlimit="2.6131" points="30.347,32.266 31.544,33.584 
			31.544,35.242 		"/>
	</g>
	<polyline fill="none" stroke="#1B75BB" stroke-width="1.1285" stroke-miterlimit="2.6131" points="44.57,28.758 44.57,34.566 
		50.092,34.566 	"/>
	<polyline fill="none" stroke="#1B75BB" stroke-width="1.1285" stroke-miterlimit="2.6131" points="52.198,28.758 52.198,34.566 
		57.718,34.566 	"/>
	<polygon fill="none" stroke="#1B75BB" stroke-width="1.1285" stroke-miterlimit="2.6131" points="35.472,34.719 40.719,34.719 
		41.094,34.311 41.094,29.615 40.719,29.239 35.246,29.239 34.905,29.55 34.905,34.279 	"/>
</g>
</svg>
