<?xml version="1.0" encoding="utf-8"?>
<!-- Generator: Adobe Illustrator 22.0.1, SVG Export Plug-In . SVG Version: 6.00 Build 0)  -->
<svg version="1.1" id="Layer_1" xmlns="http://www.w3.org/2000/svg" xmlns:xlink="http://www.w3.org/1999/xlink" x="0px" y="0px"
	 viewBox="0 0 151 25" style="enable-background:new 0 0 151 25;" xml:space="preserve">
<style type="text/css">
	.st0{fill:#1C75BC;}
</style>
<g>
	<g>
		<path class="st0" d="M129,10.4c0.2,0.2,0.9,0.7,2.1,1.5c1.2,0.8,2.1,1.4,2.7,1.9c0.1,0,0.2,0.1,0.4,0.3c0.2,0.1,0.4,0.3,0.6,0.4
			c0.1,0.1,0.3,0.2,0.5,0.3c0.2,0.1,0.4,0.2,0.6,0.3c0.2,0.1,0.3,0.1,0.5,0.1l0,0c0.2,0,0.3,0,0.5-0.1c0.2-0.1,0.4-0.2,0.6-0.3
			c0.2-0.1,0.4-0.2,0.5-0.3c0.1-0.1,0.3-0.2,0.5-0.4c0.2-0.2,0.4-0.3,0.4-0.3c0.6-0.5,2.2-1.5,4.8-3.3c0.5-0.3,0.9-0.8,1.3-1.3
			c0.3-0.5,0.5-1,0.5-1.5c0-0.5-0.2-0.8-0.5-1.1c-0.3-0.3-0.7-0.5-1.1-0.5h-15.1c-0.5,0-0.9,0.2-1.2,0.5c-0.3,0.4-0.4,0.8-0.4,1.3
			c0,0.4,0.2,0.9,0.6,1.4C128.2,9.7,128.6,10.1,129,10.4L129,10.4z"/>
		<path class="st0" d="M144.6,11.5c-2.2,1.5-3.9,2.7-5.1,3.5c-0.4,0.3-0.7,0.5-0.9,0.7c-0.3,0.1-0.6,0.3-1,0.5
			c-0.4,0.2-0.8,0.3-1.1,0.3l0,0c-0.4,0-0.7-0.1-1.1-0.3c-0.4-0.2-0.7-0.3-1-0.5c-0.2-0.2-0.5-0.4-0.9-0.7c-0.9-0.7-2.6-1.9-5.1-3.5
			c-0.4-0.3-0.7-0.6-1-0.9v8.1c0,0.5,0.2,0.8,0.5,1.1c0.3,0.3,0.7,0.5,1.1,0.5H144c0.5,0,0.8-0.1,1.1-0.5c0.3-0.3,0.5-0.7,0.5-1.1
			v-8.1C145.3,10.9,145,11.2,144.6,11.5L144.6,11.5z"/>
	</g>
	<g>
		<polygon class="st0" points="97.5,11.7 95,11.7 95,9.1 93.7,9.1 93.7,11.7 91.2,11.7 91.2,12.9 93.7,12.9 93.7,15.5 95,15.5 
			95,12.9 97.5,12.9 		"/>
		<path class="st0" d="M83.6,14.2h3.6c-0.5,1.5-1.9,2.6-3.6,2.6c-2.1,0-3.8-1.7-3.8-3.8c0-2.1,1.7-3.8,3.8-3.8
			c0.9,0,1.8,0.3,2.5,0.9l1.7-1.9c-1.2-1-2.6-1.5-4.1-1.5c-3.5,0-6.3,2.8-6.3,6.3c0,3.5,2.8,6.3,6.3,6.3c3.5,0,6.3-2.8,6.3-6.3v-1.3
			h-6.3C83.6,11.7,83.6,14.2,83.6,14.2z"/>
	</g>
	<path class="st0" d="M45.8,14.7v6.1h-3.5v-5.7c0-1.4-0.5-2.4-1.8-2.4c-1,0-1.5,0.7-1.8,1.3c-0.1,0.2-0.1,0.5-0.1,0.9v5.9h-3.5
		c0,0,0.1-9.6,0-10.5h3.5v1.5l0,0h0v0C39,11,39.9,10,41.7,10C44,10,45.8,11.5,45.8,14.7L45.8,14.7z M31.4,5.2c-1.2,0-2,0.8-2,1.8
		c0,1,0.8,1.8,1.9,1.8h0c1.2,0,2-0.8,2-1.8C33.3,5.9,32.6,5.2,31.4,5.2L31.4,5.2z M29.6,20.8h3.5V10.3h-3.5V20.8z"/>
	<path class="st0" d="M70.7,8c-0.6,0.3-1.3,0.5-1.9,0.5c0.7-0.4,1.2-1.1,1.5-1.9c-0.6,0.4-1.3,0.7-2.1,0.8c-0.6-0.6-1.5-1-2.4-1
		c-1.8,0-3.3,1.5-3.3,3.3c0,0.3,0,0.5,0.1,0.7C59.7,10.4,57.2,9,55.6,7c-0.3,0.5-0.4,1.1-0.4,1.7c0,1.2,0.6,2.2,1.5,2.8
		c-0.5,0-1.1-0.2-1.5-0.4v0c0,1.6,1.1,2.9,2.7,3.3c-0.3,0.1-0.6,0.1-0.9,0.1c-0.2,0-0.4,0-0.6-0.1c0.4,1.3,1.7,2.3,3.1,2.3
		c-1.1,0.9-2.6,1.4-4.1,1.4c-0.3,0-0.5,0-0.8-0.1c1.5,0.9,3.2,1.5,5.1,1.5c6.1,0,9.5-5.1,9.5-9.5V9.7C69.6,9.2,70.2,8.6,70.7,8
		L70.7,8z"/>
	<path class="st0" d="M9.8,7.4v2.3H8.1v2.8h1.7v8.3h3.4v-8.3h2.3c0,0,0.2-1.3,0.3-2.8h-2.6V7.8c0-0.3,0.4-0.7,0.7-0.7h1.9V4.2h-2.6
		C9.7,4.2,9.8,7,9.8,7.4L9.8,7.4z"/>
	<g>
		<g>
			<path class="st0" d="M108.3,17.6v3h8v-3v-2h-8V17.6z M109.3,16.6h6v1h-6V16.6z M109.3,18.6h6v1h-6V18.6z"/>
			<polygon class="st0" points="116.3,8.6 116.3,5.6 108.3,5.6 108.3,8.6 108.3,10.6 116.3,10.6 			"/>
			<path class="st0" d="M118.3,8.6h-1v2v1h-10v-1v-2h-1c-1,0-2,1-2,2v5c0,1,1,2,2,2h1v-2v-1h10v1v2h1c1,0,2-1,2-2v-5
				C120.3,9.6,119.3,8.6,118.3,8.6z"/>
		</g>
	</g>
</g>
</svg>
