<?xml version="1.0" encoding="utf-8"?>
<!-- Generator: Adobe Illustrator 22.0.1, SVG Export Plug-In . SVG Version: 6.00 Build 0)  -->
<svg version="1.1" id="Capa_1" xmlns="http://www.w3.org/2000/svg" xmlns:xlink="http://www.w3.org/1999/xlink" x="0px" y="0px"
	 viewBox="0 0 27 27" style="enable-background:new 0 0 27 27;" xml:space="preserve">
<style type="text/css">
	.st0{fill:#9A9A99;}
</style>
<g>
	<path class="st0" d="M24.3,6.8c-0.9,0.4-1.7,0.6-2.6,0.7c1-0.6,1.6-1.4,2-2.4c-0.9,0.5-1.8,0.9-2.8,1.1c-0.9-0.9-2-1.4-3.2-1.4
		c-1.2,0-2.3,0.4-3.1,1.3c-0.9,0.9-1.3,1.9-1.3,3.1c0,0.3,0,0.7,0.1,1c-1.8-0.1-3.5-0.5-5.1-1.4C6.6,8,5.3,6.9,4.2,5.5
		C3.8,6.2,3.6,7,3.6,7.8c0,0.8,0.2,1.5,0.5,2.1c0.4,0.7,0.8,1.2,1.4,1.6c-0.7,0-1.4-0.2-2-0.6v0.1c0,1.1,0.3,2,1,2.8
		c0.7,0.8,1.5,1.3,2.5,1.5c-0.4,0.1-0.8,0.2-1.2,0.2c-0.3,0-0.5,0-0.8-0.1c0.3,0.9,0.8,1.6,1.6,2.2c0.8,0.6,1.6,0.9,2.6,0.9
		c-1.6,1.3-3.4,1.9-5.5,1.9c-0.4,0-0.8,0-1.1-0.1c2.1,1.3,4.3,2,6.8,2c1.6,0,3.1-0.2,4.4-0.7c1.4-0.5,2.6-1.2,3.5-2
		c1-0.8,1.8-1.8,2.5-2.9c0.7-1.1,1.2-2.2,1.6-3.4c0.3-1.2,0.5-2.4,0.5-3.6c0-0.3,0-0.4,0-0.6C23,8.5,23.7,7.7,24.3,6.8z"/>
</g>
</svg>
