<?xml version="1.0" encoding="utf-8"?>
<!-- Generator: Adobe Illustrator 16.0.0, SVG Export Plug-In . SVG Version: 6.00 Build 0)  -->
<!DOCTYPE svg PUBLIC "-//W3C//DTD SVG 1.1//EN" "http://www.w3.org/Graphics/SVG/1.1/DTD/svg11.dtd">
<svg version="1.1" id="Layer_1" xmlns="http://www.w3.org/2000/svg" xmlns:xlink="http://www.w3.org/1999/xlink" x="0px" y="0px"
	 width="173.286px" height="31.881px" viewBox="-47.714 0 173.286 31.881" enable-background="new -47.714 0 173.286 31.881"
	 xml:space="preserve">
<g>
	<path fill="none" stroke="#1C76BC" stroke-width="0.2286" stroke-miterlimit="10" d="M45.693,18.926v12.099h-4.107V0.857h11.529
		c3.22,0,5.723,0.811,7.493,2.504c1.775,1.692,2.663,3.87,2.663,6.533c0,2.74-0.888,5.001-2.663,6.611
		c-1.771,1.615-4.273,2.42-7.493,2.42L45.693,18.926L45.693,18.926z M45.693,15.701h7.422c2.095,0,3.545-0.486,4.593-1.616
		c0.965-1.125,1.533-2.497,1.533-4.113c0-1.692-0.568-3.065-1.533-4.19c-1.048-1.13-2.58-1.698-4.593-1.698h-7.422V15.701z
		 M95.196,18.685c0,3.627-1.131,6.692-3.387,9.113c-2.338,2.421-5.32,3.628-8.949,3.628c-3.467,0-6.367-1.207-8.545-3.628
		s-3.31-5.486-3.31-9.113V13.28c0-3.628,1.132-6.694,3.31-9.197c2.178-2.415,5.078-3.628,8.545-3.628
		c3.629,0,6.611,1.213,8.949,3.628c2.256,2.421,3.387,5.486,3.387,9.197V18.685z M91.165,13.28c0-2.74-0.811-5.001-2.262-6.776
		c-1.531-1.775-3.545-2.58-6.043-2.58c-2.338,0-4.271,0.805-5.645,2.58c-1.451,1.775-2.179,4.036-2.179,6.776v5.402
		c0,2.74,0.728,5.002,2.179,6.776c1.372,1.774,3.307,2.663,5.645,2.663c2.582,0,4.594-0.889,6.043-2.663
		c1.451-1.692,2.262-4.036,2.262-6.776V13.28z M121.313,23.44c0-1.371-0.484-2.496-1.533-3.467c-1.047-0.889-2.898-1.692-5.48-2.339
		c-3.225-0.728-5.723-1.853-7.498-3.308c-1.77-1.533-2.658-3.386-2.658-5.646c0-2.338,0.965-4.273,2.9-5.889
		c1.936-1.533,4.355-2.338,7.5-2.338c3.225,0,5.883,0.888,7.818,2.746c1.936,1.77,2.904,3.87,2.822,6.291v0.077h-3.871
		c0-1.775-0.646-3.143-1.775-4.273c-1.207-1.048-2.816-1.615-4.994-1.615c-2.096,0-3.629,0.485-4.676,1.373
		c-1.131,0.888-1.693,2.095-1.693,3.551c0,1.367,0.645,2.415,1.77,3.303c1.214,0.888,3.066,1.615,5.729,2.343
		c3.222,0.723,5.642,1.936,7.252,3.469c1.697,1.527,2.502,3.386,2.502,5.646c0,2.414-0.971,4.433-2.981,5.883
		c-2.019,1.455-4.598,2.178-7.824,2.178c-2.982,0-5.641-0.805-7.979-2.415c-2.254-1.615-3.386-3.876-3.31-6.533v-0.166h3.871
		c0,1.937,0.729,3.393,2.178,4.438c1.373,0.965,3.144,1.45,5.238,1.45c2.103,0,3.711-0.402,4.918-1.29
		C120.751,26.104,121.313,24.894,121.313,23.44L121.313,23.44z"/>
</g>
<g>
	<defs>
		<rect id="SVGID_1_" x="-48.166" y="-4.52" width="84.022" height="45.063"/>
	</defs>
	<clipPath id="SVGID_2_">
		<use xlink:href="#SVGID_1_"  overflow="visible"/>
	</clipPath>
	<g clip-path="url(#SVGID_2_)" enable-background="new    ">
		<g>
			<defs>
				<rect id="SVGID_3_" x="-48.166" y="-4.519" width="84.022" height="45.063"/>
			</defs>
			<clipPath id="SVGID_4_">
				<use xlink:href="#SVGID_3_"  overflow="visible"/>
			</clipPath>
			<polygon clip-path="url(#SVGID_4_)" fill="none" stroke="#1C76BC" stroke-width="0.229" stroke-miterlimit="10" points="
				-28.571,6.514 -28.488,6.514 -21.705,31.124 -17.487,31.124 -9.67,1.427 -14.095,1.427 -19.637,25.581 -19.72,25.581 
				-26.379,1.427 -30.763,1.427 -37.422,25.581 -37.505,25.581 -43.047,1.427 -47.39,1.427 -39.655,31.124 -35.437,31.124 			"/>
			<path clip-path="url(#SVGID_4_)" fill="none" stroke="#1C76BC" stroke-width="0.229" stroke-miterlimit="10" d="M-4.708,18.591
				c0-3.35,2.648-6.452,5.998-6.452c4.425,0,5.831,3.103,6.038,6.452H-4.708z M7.164,24.341c-0.124,1.613-2.15,4.26-5.583,4.26
				c-4.179,0-6.288-2.605-6.288-7.113h15.801c0-7.652-3.062-12.615-9.307-12.615c-7.155,0-10.381,5.335-10.381,12.035
				c0,6.246,3.598,10.836,9.678,10.836c3.475,0,4.88-0.826,5.873-1.488c2.73-1.82,3.723-4.881,3.848-5.914H7.164z"/>
			<path clip-path="url(#SVGID_4_)" fill="none" stroke="#1C76BC" stroke-width="0.229" stroke-miterlimit="10" d="M30.367,20.245
				c0,4.758-1.862,8.355-5.832,8.355c-2.316,0-5.914-1.531-5.914-7.279c0-3.516,0.579-9.183,5.831-9.183
				C30.077,12.139,30.367,17.474,30.367,20.245z M18.579,31.124v-2.689h0.083c0.744,1.199,2.275,3.309,5.956,3.309
				c7.362,0,9.512-6.906,9.512-12.076c0-6.081-3.267-10.795-9.016-10.795c-2.523,0.041-4.675,1.075-6.245,3.35h-0.083V1.427h-3.64
				v29.697H18.579z"/>
		</g>
	</g>
</g>
</svg>
