<?xml version="1.0" encoding="utf-8"?>
<!-- Generator: Adobe Illustrator 16.0.0, SVG Export Plug-In . SVG Version: 6.00 Build 0)  -->
<!DOCTYPE svg PUBLIC "-//W3C//DTD SVG 1.1//EN" "http://www.w3.org/Graphics/SVG/1.1/DTD/svg11.dtd">
<svg version="1.1" id="Layer_1" xmlns="http://www.w3.org/2000/svg" xmlns:xlink="http://www.w3.org/1999/xlink" x="0px" y="0px"
	 width="64px" height="64px" viewBox="0 0 64 64" enable-background="new 0 0 64 64" xml:space="preserve">
<g>
	
		<line fill-rule="evenodd" clip-rule="evenodd" fill="none" stroke="#1C75BC" stroke-width="0.25" stroke-miterlimit="2.6131" x1="32" y1="21.834" x2="32" y2="61.045"/>
	<path fill-rule="evenodd" clip-rule="evenodd" fill="none" stroke="#1C75BC" stroke-width="0.25" stroke-miterlimit="2.6131" d="
		M32,21.834L8.782,32.455C8.852,46.719,18.586,55.019,32,61.045"/>
	
		<polyline fill-rule="evenodd" clip-rule="evenodd" fill="none" stroke="#1C75BC" stroke-width="0.25" stroke-miterlimit="2.6131" points="
		32,61.045 8.782,32.455 32,32.455 	"/>
	
		<polygon fill-rule="evenodd" clip-rule="evenodd" fill="none" stroke="#1C75BC" stroke-width="0.25" stroke-miterlimit="2.6131" points="
		24.96,17.142 15.142,26.898 32,19.303 28.789,17.142 	"/>
	
		<polyline fill-rule="evenodd" clip-rule="evenodd" fill="none" stroke="#1C75BC" stroke-width="0.25" stroke-miterlimit="2.6131" points="
		15.142,26.898 15.142,17.08 19.958,17.08 19.958,8.682 24.96,13.684 24.96,17.142 	"/>
	
		<polygon fill-rule="evenodd" clip-rule="evenodd" fill="none" stroke="#1C75BC" stroke-width="0.25" stroke-miterlimit="2.6131" points="
		19.958,8.682 28.264,8.682 28.264,13.684 24.96,13.684 	"/>
	
		<line fill-rule="evenodd" clip-rule="evenodd" fill="none" stroke="#1C75BC" stroke-width="0.25" stroke-miterlimit="2.6131" x1="28.264" y1="9.655" x2="30.047" y2="13.684"/>
	
		<line fill-rule="evenodd" clip-rule="evenodd" fill="none" stroke="#1C75BC" stroke-width="0.25" stroke-miterlimit="2.6131" x1="28.264" y1="13.684" x2="28.264" y2="17.142"/>
	<path fill-rule="evenodd" clip-rule="evenodd" fill="none" stroke="#1C75BC" stroke-width="0.25" stroke-miterlimit="2.6131" d="
		M32,21.834l23.218,10.621C55.147,46.719,45.413,55.019,32,61.045"/>
	
		<polyline fill-rule="evenodd" clip-rule="evenodd" fill="none" stroke="#1C75BC" stroke-width="0.25" stroke-miterlimit="2.6131" points="
		32,61.045 55.218,32.455 32,32.455 	"/>
	
		<polygon fill-rule="evenodd" clip-rule="evenodd" fill="none" stroke="#1C75BC" stroke-width="0.25" stroke-miterlimit="2.6131" points="
		39.039,17.142 48.857,26.898 32,19.303 35.211,17.142 	"/>
	
		<polyline fill-rule="evenodd" clip-rule="evenodd" fill="none" stroke="#1C75BC" stroke-width="0.25" stroke-miterlimit="2.6131" points="
		48.857,26.898 48.857,17.08 44.041,17.08 44.041,8.682 39.039,13.684 39.039,17.142 	"/>
	
		<polygon fill-rule="evenodd" clip-rule="evenodd" fill="none" stroke="#1C75BC" stroke-width="0.25" stroke-miterlimit="2.6131" points="
		44.041,8.682 35.736,8.682 35.736,13.684 39.039,13.684 	"/>
	
		<line fill-rule="evenodd" clip-rule="evenodd" fill="none" stroke="#1C75BC" stroke-width="0.25" stroke-miterlimit="2.6131" x1="35.736" y1="9.655" x2="33.953" y2="13.684"/>
	
		<line fill-rule="evenodd" clip-rule="evenodd" fill="none" stroke="#1C75BC" stroke-width="0.25" stroke-miterlimit="2.6131" x1="35.736" y1="13.684" x2="35.736" y2="17.142"/>
	
		<rect x="28.264" y="2.955" fill-rule="evenodd" clip-rule="evenodd" fill="none" stroke="#1C75BC" stroke-width="0.25" stroke-miterlimit="2.6131" width="7.473" height="5.728"/>
	
		<polyline fill-rule="evenodd" clip-rule="evenodd" fill="none" stroke="#1C75BC" stroke-width="0.25" stroke-miterlimit="2.6131" points="
		30.556,17.154 30.047,13.684 33.953,13.684 33.445,17.15 	"/>
	
		<rect x="24.96" y="13.684" fill-rule="evenodd" clip-rule="evenodd" fill="none" stroke="#1C75BC" stroke-width="0.25" stroke-miterlimit="2.6131" width="14.079" height="3.458"/>
</g>
</svg>
